<svg xmlns="http://www.w3.org/2000/svg" xmlns:xlink="http://www.w3.org/1999/xlink" viewBox="0 0 158.02 130.68"><defs><style>.cls-1{isolation:isolate;}.cls-2{fill:url(#Безымянный_градиент_248);}.cls-3{fill:url(#Безымянный_градиент_252);}.cls-4{fill:url(#Безымянный_градиент_88);}.cls-10,.cls-11,.cls-12,.cls-13,.cls-14,.cls-15,.cls-18,.cls-5,.cls-6,.cls-8,.cls-9{mix-blend-mode:screen;}.cls-5{fill:url(#Безымянный_градиент_257);}.cls-6{fill:url(#Безымянный_градиент_168);}.cls-7{fill:#ffffab;}.cls-8{fill:url(#Безымянный_градиент_168-2);}.cls-9{fill:url(#Безымянный_градиент_168-3);}.cls-10{fill:url(#Безымянный_градиент_168-4);}.cls-11{fill:url(#Безымянный_градиент_168-5);}.cls-12{fill:url(#Безымянный_градиент_168-6);}.cls-13{fill:url(#Безымянный_градиент_168-7);}.cls-14{fill:url(#Безымянный_градиент_168-8);}.cls-15{fill:url(#Безымянный_градиент_168-9);}.cls-16{fill:#1d6eff;}.cls-17{fill:#fff;}.cls-18{fill:url(#Безымянный_градиент_262);}</style><radialGradient id="Безымянный_градиент_248" cx="-610.08" cy="3684.13" r="144.24" gradientTransform="matrix(-0.53, 0, 0, 0.67, -249.77, -2335.82)" gradientUnits="userSpaceOnUse"><stop offset="0" stop-color="#008cca"/><stop offset="1" stop-color="#003bf1"/></radialGradient><linearGradient id="Безымянный_градиент_252" x1="-226.97" y1="123.81" x2="-226.97" y2="1.21" gradientTransform="matrix(-1, 0, 0, 1, -147.98, 0)" gradientUnits="userSpaceOnUse"><stop offset="0" stop-color="#92fff1"/><stop offset="1" stop-color="#0098ff"/></linearGradient><linearGradient id="Безымянный_градиент_88" x1="-226.97" y1="121.51" x2="-226.97" y2="2.54" gradientTransform="matrix(-1, 0, 0, 1, -147.98, 0)" gradientUnits="userSpaceOnUse"><stop offset="0" stop-color="#00eff1"/><stop offset="1" stop-color="#0098ff"/></linearGradient><linearGradient id="Безымянный_градиент_257" x1="316.58" y1="106.79" x2="452.46" y2="106.79" gradientTransform="translate(-305.96)" gradientUnits="userSpaceOnUse"><stop offset="0.01" stop-color="#40ff79"/><stop offset="0.1" stop-color="#3cef71"/><stop offset="0.29" stop-color="#31c55d"/><stop offset="0.56" stop-color="#20813d"/><stop offset="0.88" stop-color="#092411"/><stop offset="1"/></linearGradient><radialGradient id="Безымянный_градиент_168" cx="1601.96" cy="411.94" r="3.84" gradientTransform="matrix(0.06, -1, -1, -0.06, 426.6, 1665.46)" gradientUnits="userSpaceOnUse"><stop offset="0" stop-color="#00b359"/><stop offset="0.13" stop-color="#009148"/><stop offset="0.34" stop-color="#005e2f"/><stop offset="0.54" stop-color="#00351a"/><stop offset="0.73" stop-color="#00180c"/><stop offset="0.89" stop-color="#000603"/><stop offset="1"/></radialGradient><radialGradient id="Безымянный_градиент_168-2" cx="1618.12" cy="418.13" r="3.84" xlink:href="#Безымянный_градиент_168"/><radialGradient id="Безымянный_градиент_168-3" cx="1571.05" cy="412.24" r="3.84" xlink:href="#Безымянный_градиент_168"/><radialGradient id="Безымянный_градиент_168-4" cx="1620.9" cy="397.51" r="10.75" xlink:href="#Безымянный_градиент_168"/><radialGradient id="Безымянный_градиент_168-5" cx="1542.74" cy="423.24" r="5.14" xlink:href="#Безымянный_градиент_168"/><radialGradient id="Безымянный_градиент_168-6" cx="1534.49" cy="376.91" r="2.57" xlink:href="#Безымянный_градиент_168"/><radialGradient id="Безымянный_градиент_168-7" cx="1574.2" cy="451.57" r="2.57" xlink:href="#Безымянный_градиент_168"/><radialGradient id="Безымянный_градиент_168-8" cx="1536.74" cy="413.6" r="1.91" xlink:href="#Безымянный_градиент_168"/><radialGradient id="Безымянный_градиент_168-9" cx="1534.44" cy="443.39" r="4.01" xlink:href="#Безымянный_градиент_168"/><linearGradient id="Безымянный_градиент_262" x1="-292.51" y1="29.19" x2="-152.17" y2="29.19" gradientTransform="matrix(-1, 0, 0, 1, -147.98, 0)" gradientUnits="userSpaceOnUse"><stop offset="0" stop-color="#7ed140"/><stop offset="0.11" stop-color="#74c13b"/><stop offset="0.34" stop-color="#5b972e"/><stop offset="0.65" stop-color="#325319"/><stop offset="1"/></linearGradient></defs><g class="cls-1"><g id="Слой_2" data-name="Слой 2"><g id="Слой_1-2" data-name="Слой 1"><path class="cls-2" d="M155.37,111.48C149.89,132.86,17.3,138.87,6,116.64-4.24,96.44-.07,24.12,8.7,9.7c12-19.65,129.77-5.85,139.44,9.62C157.17,33.73,161,89.32,155.37,111.48Z"/><path class="cls-3" d="M154.93,107.7c-5.46,20.62-137.26,22.09-148.5.66C-3.79,88.88.23,24.47,9,10.57c11.9-19,129.28-5.65,138.92,9.26C156.88,33.74,160.58,86.33,154.93,107.7Z"/><path class="cls-4" d="M153.28,105.88C148,125.88,19,127.31,8,106.52-2,87.61,1.93,25.11,10.48,11.61,22.13-6.77,137,6.14,146.4,20.61,155.19,34.1,158.81,85.14,153.28,105.88Z"/><path class="cls-5" d="M10.62,106.9s60.15,19.87,135.89,2.34c0,0-49.21,8-71.1,0C38.24,95.66,20.39,91.64,10.62,106.9Z"/><path class="cls-6" d="M111.11,38a3.85,3.85,0,1,0,3.61,4.07A3.84,3.84,0,0,0,111.11,38Z"/><path class="cls-7" d="M110.65,40.75a1.07,1.07,0,1,0,1,1.13A1.07,1.07,0,0,0,110.65,40.75Z"/><path class="cls-8" d="M105.89,21.5a3.84,3.84,0,1,0,3.61,4.06A3.85,3.85,0,0,0,105.89,21.5Z"/><path class="cls-7" d="M105.43,24.25a1.07,1.07,0,1,0,1,1.13A1.08,1.08,0,0,0,105.43,24.25Z"/><path class="cls-9" d="M109,68.83a3.84,3.84,0,1,0,3.61,4.07A3.85,3.85,0,0,0,109,68.83Z"/><path class="cls-7" d="M108.51,71.59a1.06,1.06,0,1,0,1,1.12A1.06,1.06,0,0,0,108.51,71.59Z"/><path class="cls-10" d="M127.06,13.05a10.75,10.75,0,1,0,10.09,11.38A10.77,10.77,0,0,0,127.06,13.05Z"/><path class="cls-7" d="M125.76,20.77a3,3,0,1,0,2.8,3.15A3,3,0,0,0,125.76,20.77Z"/><path class="cls-11" d="M96.38,95.15a5.13,5.13,0,1,0,4.82,5.43A5.13,5.13,0,0,0,96.38,95.15Z"/><path class="cls-7" d="M95.76,98.83a1.42,1.42,0,1,0,1.34,1.51A1.43,1.43,0,0,0,95.76,98.83Z"/><path class="cls-12" d="M142,108.71a2.57,2.57,0,0,0-.3,5.13,2.57,2.57,0,1,0,.3-5.13Z"/><path class="cls-7" d="M141.67,110.55a.71.71,0,1,0,.67.75A.7.7,0,0,0,141.67,110.55Z"/><path class="cls-13" d="M69.82,64.62a2.57,2.57,0,1,0,2.41,2.72A2.57,2.57,0,0,0,69.82,64.62Z"/><path class="cls-7" d="M69.51,66.46a.71.71,0,1,0-.08,1.42.7.7,0,0,0,.75-.66A.72.72,0,0,0,69.51,66.46Z"/><path class="cls-14" d="M105.45,104.93a1.91,1.91,0,1,0,1.8,2A1.91,1.91,0,0,0,105.45,104.93Z"/><path class="cls-7" d="M105.22,106.3a.53.53,0,0,0-.07,1.06.53.53,0,1,0,.07-1.06Z"/><path class="cls-15" d="M75.7,103.35a4,4,0,1,0,3.77,4.25A4,4,0,0,0,75.7,103.35Z"/><path class="cls-7" d="M75.22,106.23a1.11,1.11,0,1,0,1,1.18A1.11,1.11,0,0,0,75.22,106.23Z"/><path class="cls-16" d="M62,26.61s17.7,6.88,42.84,36.69A113.06,113.06,0,0,1,62,98.4l-5.62-9.09s17-12.12,27.68-26.8c0,0-7.18-15.55-25.55-26.69Z"/><path class="cls-17" d="M14.15,110.74c.68-2.29-5.38-12.73-6.92-12.69s-.16,6.87.77,8.47S13.8,111.88,14.15,110.74Z"/><path class="cls-18" d="M144.53,20.24S56.81-13.48,10.17,11.94c0,0-4.11,9.64-6,24.83,0,0,14.75,17.19,42.66,19.1,24,1.64,47.42-29,67.68-32.83S144.53,20.24,144.53,20.24Z"/><path class="cls-17" d="M146.31,26.32c1.69.25,5.91,13.36,5.65,15.51s-5.32-4.66-6.11-8.27A15,15,0,0,1,146.31,26.32Z"/><path class="cls-17" d="M145.58,24.25c2-.79-1.59-6.38-4.69-7.77s-10.79-3-11.66-1.55S143.28,25.15,145.58,24.25Z"/></g></g></g></svg>