<svg xmlns="http://www.w3.org/2000/svg" viewBox="0 0 102.65 48.39" preserveAspectRatio="none"><defs><style>.cls-1{fill:#ff5200;}</style></defs><g id="Слой_2" data-name="Слой 2"><g id="Слой_1-2" data-name="Слой 1"><path class="cls-1" d="M17.85,36a16.82,16.82,0,0,1-.54,4.5,12.37,12.37,0,0,1-1.39,3.3A9.53,9.53,0,0,1,14,46a10.66,10.66,0,0,1-2.19,1.41,9.69,9.69,0,0,1-2.14.73,9.12,9.12,0,0,1-1.77.21c-.26,0-.62,0-1.07,0a13,13,0,0,1-1.56-.21C4.67,48,4,47.86,3.33,47.66A15.34,15.34,0,0,1,1.1,46.8l.36-8.18A12.16,12.16,0,0,0,4.88,40.8a7.93,7.93,0,0,0,2.55.55,3.48,3.48,0,0,0,3-1.46,6.51,6.51,0,0,0,1-3.8,9.8,9.8,0,0,0-.76-3.49A14.88,14.88,0,0,0,8,28.43q-1.33-1.56-2.76-3.25a28.44,28.44,0,0,1-2.6-3.6A19.86,19.86,0,0,1,.75,17.46,14.72,14.72,0,0,1,0,12.69,16,16,0,0,1,.89,7.08,11.43,11.43,0,0,1,3.28,3.15,9.49,9.49,0,0,1,6.7.83a10.91,10.91,0,0,1,4-.77,14.68,14.68,0,0,1,3.78.51A17.6,17.6,0,0,1,18.4,2.11l-.61,8.18A8.56,8.56,0,0,0,16,8.58a8.45,8.45,0,0,0-1.79-1,6.72,6.72,0,0,0-1.59-.42,8.73,8.73,0,0,0-1.22-.1,3.38,3.38,0,0,0-1.73.47A4.43,4.43,0,0,0,8.32,8.84a6.62,6.62,0,0,0-.89,1.89A8.1,8.1,0,0,0,7.11,13a7,7,0,0,0,.79,3.35,18.07,18.07,0,0,0,2,2.95c.8,1,1.66,2,2.58,3a25.42,25.42,0,0,1,2.58,3.47,20.19,20.19,0,0,1,2,4.42A19.23,19.23,0,0,1,17.85,36Z"/><path class="cls-1" d="M37.58,7.63c-.69,0-1.48-.08-2.38-.1s-1.86,0-2.87,0c-.16,2-.28,4.09-.38,6.25s-.18,4.33-.24,6.55-.11,4.45-.13,6.69,0,4.45,0,6.63q0,3.74,0,7.23c0,2.32.11,4.57.22,6.73H24.89q.3-5.52.46-11.75t.16-12.56q0-4.12-.1-8c-.06-2.62-.13-5.17-.19-7.66-1,0-2,0-3,0s-1.76.06-2.5.1L19.83.91c.78.06,1.66.11,2.63.15l3.06.08,3.3,0c1.12,0,2.23,0,3.31,0H35.2q1.44,0,2.58-.06Z"/><path class="cls-1" d="M53.61,47.71c-.1-1.49-.21-3-.3-4.51s-.21-3-.34-4.58l-2.76-.19c-.89-.07-1.79-.1-2.7-.1h-.42c-.11,1.56-.2,3.09-.29,4.61s-.16,3-.23,4.51l-8.11-.13q2-11.58,3.63-23.11T44.85,1l9.77.17q1.23,11.58,3,23t4.07,23ZM49.82,9.15q-.65,6-1.24,11.91T47.51,33c.46,0,.92.06,1.4.06h3.57q-.55-6-1.23-12T49.82,9.15Z"/><path class="cls-1" d="M82.79,14.73a24,24,0,0,1-.4,4.37,18.8,18.8,0,0,1-1.32,4.22,16.85,16.85,0,0,1-2.34,3.8,15.15,15.15,0,0,1-3.5,3.13,97.53,97.53,0,0,0,4,8.91,79,79,0,0,0,4.88,8.22L76,47.84,70.49,32.16q.14,4,.32,7.86c.13,2.59.3,5.16.49,7.69H63.38q.52-7.37.77-14.74t.24-14.83q0-4.32-.07-8.62c0-2.86-.13-5.76-.25-8.68A18,18,0,0,1,67.55.16c1.18-.11,2.18-.16,3-.16a15.22,15.22,0,0,1,2.12.18,11.19,11.19,0,0,1,2.61.73A12,12,0,0,1,78,2.47a10.12,10.12,0,0,1,2.41,2.64,15,15,0,0,1,1.72,4A21.07,21.07,0,0,1,82.79,14.73ZM70.43,26.91a6.34,6.34,0,0,0,2-1,8,8,0,0,0,1.51-1.45A8.9,8.9,0,0,0,75,22.78,14.71,14.71,0,0,0,75.75,21a17.85,17.85,0,0,0,.74-4.6c0-.05,0-.31,0-.8a14.87,14.87,0,0,0-.18-1.83c-.11-.74-.26-1.54-.47-2.4a12.59,12.59,0,0,0-.89-2.52,8.19,8.19,0,0,0-1.5-2.16,5.06,5.06,0,0,0-2.2-1.33q-.39,5.1-.6,10.15t-.21,10.17Z"/><path class="cls-1" d="M102.46,7.63c-.69,0-1.49-.08-2.39-.1s-1.85,0-2.87,0q-.23,3-.37,6.25t-.25,6.55q-.09,3.33-.12,6.69c0,2.23,0,4.45,0,6.63q0,3.74,0,7.23c0,2.32.1,4.57.21,6.73H89.77c.19-3.68.35-7.59.45-11.75s.17-8.34.17-12.56c0-2.75,0-5.43-.1-8s-.13-5.17-.2-7.66c-1,0-2,0-3,0s-1.76.06-2.5.1L84.71.91c.78.06,1.65.11,2.62.15l3.07.08,3.3,0c1.12,0,2.23,0,3.31,0h3.06q1.46,0,2.58-.06Z"/></g></g></svg>
