<svg xmlns="http://www.w3.org/2000/svg" xmlns:xlink="http://www.w3.org/1999/xlink" viewBox="0 0 259.68 124.24" preserveAspectRatio="none"><defs><style>.cls-1{fill:none;}.cls-2{isolation:isolate;}.cls-3{clip-path:url(#clip-path);}.cls-4{fill:url(#Безымянный_градиент_139);}.cls-5{fill:url(#Безымянный_градиент_129);}.cls-6{fill:#fff;}.cls-7{fill:#ced6ff;mix-blend-mode:multiply;}.cls-8{fill:url(#Безымянный_градиент_4);}.cls-9{fill:url(#Безымянный_градиент_5);}.cls-10{fill:url(#Безымянный_градиент_2);}.cls-11,.cls-12,.cls-13,.cls-15,.cls-16,.cls-17,.cls-18,.cls-19,.cls-20,.cls-21,.cls-22,.cls-23,.cls-24,.cls-25,.cls-26{mix-blend-mode:screen;}.cls-11{fill:url(#Безымянный_градиент_10);}.cls-12{fill:url(#Безымянный_градиент_8);}.cls-13{fill:url(#Безымянный_градиент_12);}.cls-14{fill:#bec7ff;}.cls-15{fill:url(#Безымянный_градиент_12-2);}.cls-16{fill:url(#Безымянный_градиент_12-3);}.cls-17{fill:url(#Безымянный_градиент_12-4);}.cls-18{fill:url(#Безымянный_градиент_12-5);}.cls-19{fill:url(#Безымянный_градиент_12-6);}.cls-20{fill:url(#Безымянный_градиент_12-7);}.cls-21{fill:url(#Безымянный_градиент_12-8);}.cls-22{fill:url(#Безымянный_градиент_12-9);}.cls-23{fill:url(#Безымянный_градиент_12-10);}.cls-24{fill:url(#Безымянный_градиент_12-11);}.cls-25{fill:url(#Безымянный_градиент_12-12);}.cls-26{fill:url(#Безымянный_градиент_12-13);}</style><clipPath id="clip-path" transform="translate(8.15 7.37)"><path class="cls-1" d="M4.08,86.26c8.28,16.7,208.45,17.89,225.53.53C245.13,71,239,18.84,225.75,7.58,207.67-7.77,29.41,3,14.77,15.09,1.12,26.35-4.5,69,4.08,86.26Z"/></clipPath><linearGradient id="Безымянный_градиент_139" x1="121.69" y1="116.86" x2="121.69" y2="-3.47" gradientUnits="userSpaceOnUse"><stop offset="0" stop-color="#8b9ad1"/><stop offset="1" stop-color="#cee0ff"/></linearGradient><linearGradient id="Безымянный_градиент_129" x1="121.69" y1="112.96" x2="121.69" y2="-7.37" gradientUnits="userSpaceOnUse"><stop offset="0" stop-color="#cadcff"/><stop offset="1" stop-color="#fff"/></linearGradient><radialGradient id="Безымянный_градиент_4" cx="123.28" cy="97.39" r="92.74" gradientUnits="userSpaceOnUse"><stop offset="0" stop-color="#aeaaff"/><stop offset="1" stop-color="#d0f8ff"/></radialGradient><linearGradient id="Безымянный_градиент_5" x1="119.4" y1="99.31" x2="119.4" gradientUnits="userSpaceOnUse"><stop offset="0" stop-color="#9e9eff"/><stop offset="1" stop-color="#5b87b0"/></linearGradient><linearGradient id="Безымянный_градиент_2" x1="119.4" y1="97.44" x2="119.4" y2="1.07" gradientUnits="userSpaceOnUse"><stop offset="0" stop-color="#9dabff"/><stop offset="1" stop-color="#9debff"/></linearGradient><linearGradient id="Безымянный_градиент_10" x1="16.52" y1="20.43" x2="233.01" y2="20.43" gradientUnits="userSpaceOnUse"><stop offset="0" stop-color="#8d59ff"/><stop offset="0.1" stop-color="#8453ef"/><stop offset="0.29" stop-color="#6d45c5"/><stop offset="0.55" stop-color="#472d81"/><stop offset="0.88" stop-color="#140d24"/><stop offset="1"/></linearGradient><linearGradient id="Безымянный_градиент_8" x1="-3094.25" y1="85.52" x2="-2887.87" y2="85.52" gradientTransform="matrix(-1, 0, 0, 1, -2871, 0)" gradientUnits="userSpaceOnUse"><stop offset="0" stop-color="#596aff"/><stop offset="0.1" stop-color="#5363ef"/><stop offset="0.29" stop-color="#4552c5"/><stop offset="0.55" stop-color="#2d3681"/><stop offset="0.88" stop-color="#0d0f24"/><stop offset="1"/></linearGradient><radialGradient id="Безымянный_градиент_12" cx="-2942.52" cy="-890.87" r="2.86" gradientTransform="matrix(-0.06, -1, 1, -0.06, 750.04, -2955.87)" gradientUnits="userSpaceOnUse"><stop offset="0" stop-color="#3a12b3"/><stop offset="0.13" stop-color="#2f0f91"/><stop offset="0.34" stop-color="#1e095e"/><stop offset="0.54" stop-color="#110535"/><stop offset="0.73" stop-color="#080218"/><stop offset="0.89" stop-color="#020106"/><stop offset="1"/></radialGradient><radialGradient id="Безымянный_градиент_12-2" cx="-2930.5" cy="-886.26" r="2.86" xlink:href="#Безымянный_градиент_12"/><radialGradient id="Безымянный_градиент_12-3" cx="-2965.52" cy="-890.65" r="2.86" xlink:href="#Безымянный_градиент_12"/><radialGradient id="Безымянный_градиент_12-4" cx="-2928.43" cy="-901.61" r="8" xlink:href="#Безымянный_градиент_12"/><radialGradient id="Безымянный_градиент_12-5" cx="-2996.07" cy="-741.12" r="8" xlink:href="#Безымянный_градиент_12"/><radialGradient id="Безымянный_градиент_12-6" cx="-2990.53" cy="-699.67" r="3.82" xlink:href="#Безымянный_градиент_12"/><radialGradient id="Безымянный_градиент_12-7" cx="-2986.59" cy="-882.46" r="3.82" xlink:href="#Безымянный_градиент_12"/><radialGradient id="Безымянный_градиент_12-8" cx="-2976.97" cy="-772.08" r="1.91" xlink:href="#Безымянный_градиент_12"/><radialGradient id="Безымянный_градиент_12-9" cx="-2992.73" cy="-916.94" r="1.91" xlink:href="#Безымянный_градиент_12"/><radialGradient id="Безымянный_градиент_12-10" cx="-2963.18" cy="-861.38" r="1.91" xlink:href="#Безымянный_градиент_12"/><radialGradient id="Безымянный_градиент_12-11" cx="-2991.06" cy="-889.63" r="1.42" xlink:href="#Безымянный_градиент_12"/><radialGradient id="Безымянный_градиент_12-12" cx="-3002.33" cy="-791.03" r="2.99" xlink:href="#Безымянный_градиент_12"/><radialGradient id="Безымянный_градиент_12-13" cx="-3000.73" cy="-853.96" r="2.99" xlink:href="#Безымянный_градиент_12"/></defs><g class="cls-2"><g id="Слой_2" data-name="Слой 2"><g id="Слой_1-2" data-name="Слой 1"><g class="cls-3"><path class="cls-4" d="M241.46,102.65a5.41,5.41,0,0,1-.78.71c-22.19,18.12-214.47,17.48-241.24,1.2a6.81,6.81,0,0,1-2.79-2.68C-12.85,82.11-7.7,22.62,7.38,9.75,23.57-4,217-10.28,237,7.26,251.64,20.11,258.63,84.62,241.46,102.65Z" transform="translate(8.15 7.37)"/><path class="cls-5" d="M-3.36,98c9.15,19.07,226,20.6,244.83.77,17.15-18,10.17-82.53-4.5-95.4C217-14.19,23.57-7.95,7.39,5.85-7.7,18.71-12.85,78.2-3.36,98Z" transform="translate(8.15 7.37)"/><path class="cls-6" d="M5.52,91.47S34.79,107.15,125,107.15,229.61,91.47,229.61,91.47Z" transform="translate(8.15 7.37)"/><path class="cls-7" d="M240.68,91.46v11.9c-22.19,18.12-214.47,17.48-241.24,1.2L0,101l5.51-9.52L236.7,80.73Z" transform="translate(8.15 7.37)"/><path class="cls-8" d="M3.41,89.32c8.31,17.32,209.68,22.18,226.82,4.18,15.58-16.36,9.24-74.94-4.08-86.62C208-9,29.07,2.14,14.38,14.67.68,26.34-5.2,71.37,3.41,89.32Z" transform="translate(8.15 7.37)"/><path class="cls-9" d="M4.08,86.26c8.28,16.7,208.45,17.89,225.53.53C245.13,71,239,18.84,225.75,7.58,207.67-7.77,29.41,3,14.77,15.09,1.12,26.35-4.5,69,4.08,86.26Z" transform="translate(8.15 7.37)"/><path class="cls-10" d="M6.57,84.78c8.11,16.21,204,17.37,220.66.52,15.18-15.31,9.21-65.94-3.78-76.87C205.76-6.46,31.36,4,17,15.71,3.68,26.64-1.83,68,6.57,84.78Z" transform="translate(8.15 7.37)"/><path class="cls-11" d="M16.52,15.79S153.09-11.9,223.93,8.69A54.66,54.66,0,0,1,233,28.81S207.2,38,170.75,39.69s-74.54-18.93-105.31-22S16.52,15.79,16.52,15.79Z" transform="translate(8.15 7.37)"/><path class="cls-12" d="M223.25,85.61S131.9,101.7,16.87,87.5c0,0,74.72,6.48,108,0C181.29,76.5,208.41,73.25,223.25,85.61Z" transform="translate(8.15 7.37)"/><path class="cls-6" d="M11.41,22.79a21.59,21.59,0,0,1,9.5-9c6.65-3.15,25.57-6.31,26.65-5.51S38.34,12.77,33,14.72,14.12,24.3,11.41,22.79Z" transform="translate(8.15 7.37)"/><path class="cls-6" d="M10.82,24.37C9.45,24.57,6,35.19,6.24,36.93s4.31-3.77,4.95-6.7A12.12,12.12,0,0,0,10.82,24.37Z" transform="translate(8.15 7.37)"/><path class="cls-13" d="M36,31.6a2.86,2.86,0,1,1-2.68,3A2.85,2.85,0,0,1,36,31.6Z" transform="translate(8.15 7.37)"/><path class="cls-14" d="M36.32,33.65a.79.79,0,1,1-.74.84A.8.8,0,0,1,36.32,33.65Z" transform="translate(8.15 7.37)"/><path class="cls-15" d="M39.86,19.32a2.86,2.86,0,1,1-2.68,3A2.86,2.86,0,0,1,39.86,19.32Z" transform="translate(8.15 7.37)"/><path class="cls-14" d="M40.21,21.37a.8.8,0,0,1,.84.75.79.79,0,0,1-.75.83.78.78,0,0,1-.83-.74A.79.79,0,0,1,40.21,21.37Z" transform="translate(8.15 7.37)"/><path class="cls-16" d="M37.57,54.54a2.86,2.86,0,1,1-2.68,3A2.87,2.87,0,0,1,37.57,54.54Z" transform="translate(8.15 7.37)"/><path class="cls-14" d="M37.92,56.59a.8.8,0,1,1-.75.84A.81.81,0,0,1,37.92,56.59Z" transform="translate(8.15 7.37)"/><path class="cls-17" d="M24.11,13A8,8,0,1,1,16.6,21.5,8,8,0,0,1,24.11,13Z" transform="translate(8.15 7.37)"/><path class="cls-14" d="M25.08,18.78A2.21,2.21,0,1,1,23,21.12,2.21,2.21,0,0,1,25.08,18.78Z" transform="translate(8.15 7.37)"/><path class="cls-18" d="M188.35,71a8,8,0,1,1-7.51,8.47A8,8,0,0,1,188.35,71Z" transform="translate(8.15 7.37)"/><path class="cls-14" d="M189.31,76.73a2.22,2.22,0,1,1-2.08,2.35A2.23,2.23,0,0,1,189.31,76.73Z" transform="translate(8.15 7.37)"/><path class="cls-19" d="M229.64,67.16a3.82,3.82,0,1,1-3.59,4A3.82,3.82,0,0,1,229.64,67.16Z" transform="translate(8.15 7.37)"/><path class="cls-14" d="M230.1,69.91a1,1,0,0,1,1.12,1,1.06,1.06,0,1,1-2.11.12A1,1,0,0,1,230.1,69.91Z" transform="translate(8.15 7.37)"/><path class="cls-20" d="M46.94,74.13a3.82,3.82,0,1,1-3.59,4A3.81,3.81,0,0,1,46.94,74.13Z" transform="translate(8.15 7.37)"/><path class="cls-14" d="M47.4,76.87a1,1,0,0,1,1.12,1,1.06,1.06,0,0,1-2.11.13A1,1,0,0,1,47.4,76.87Z" transform="translate(8.15 7.37)"/><path class="cls-21" d="M156.66,59.85a1.91,1.91,0,1,1-1.79,2A1.92,1.92,0,0,1,156.66,59.85Z" transform="translate(8.15 7.37)"/><path class="cls-14" d="M156.89,61.22a.53.53,0,0,1,.07,1.06.53.53,0,0,1-.56-.5A.53.53,0,0,1,156.89,61.22Z" transform="translate(8.15 7.37)"/><path class="cls-22" d="M13,84.22a1.91,1.91,0,1,1-1.8,2A1.91,1.91,0,0,1,13,84.22Z" transform="translate(8.15 7.37)"/><path class="cls-14" d="M13.24,85.59a.53.53,0,1,1-.5.56A.53.53,0,0,1,13.24,85.59Z" transform="translate(8.15 7.37)"/><path class="cls-23" d="M66.7,51.41a1.91,1.91,0,1,1-1.79,2A1.91,1.91,0,0,1,66.7,51.41Z" transform="translate(8.15 7.37)"/><path class="cls-14" d="M66.93,52.78a.53.53,0,1,1-.49.56A.52.52,0,0,1,66.93,52.78Z" transform="translate(8.15 7.37)"/><path class="cls-24" d="M40.19,81.4a1.43,1.43,0,1,1-1.33,1.51A1.43,1.43,0,0,1,40.19,81.4Z" transform="translate(8.15 7.37)"/><path class="cls-14" d="M40.36,82.42a.4.4,0,0,1,.42.37.39.39,0,0,1-.37.42.4.4,0,0,1-.42-.37A.41.41,0,0,1,40.36,82.42Z" transform="translate(8.15 7.37)"/><path class="cls-25" d="M139.2,85.22a3,3,0,1,1-2.8,3.16A3,3,0,0,1,139.2,85.22Z" transform="translate(8.15 7.37)"/><path class="cls-14" d="M139.56,87.37a.81.81,0,0,1,.87.77.83.83,0,1,1-.87-.77Z" transform="translate(8.15 7.37)"/><path class="cls-26" d="M76.29,87.37a3,3,0,1,1-2.8,3.16A3,3,0,0,1,76.29,87.37Z" transform="translate(8.15 7.37)"/><path class="cls-14" d="M76.65,89.51a.83.83,0,0,1,.87.78.81.81,0,0,1-.77.87.83.83,0,1,1-.1-1.65Z" transform="translate(8.15 7.37)"/><path class="cls-6" d="M220.78,90.16c-.95-1.7,7.5-9.46,9.64-9.43s.24,5.11-1.06,6.29S221.26,91,220.78,90.16Z" transform="translate(8.15 7.37)"/></g></g></g></g></svg>
