<svg xmlns="http://www.w3.org/2000/svg" xmlns:xlink="http://www.w3.org/1999/xlink" viewBox="0 0 67.77 65.56" preserveAspectRatio="none"><defs><style>.cls-1{mask:url(#mask);filter:url(#luminosity-noclip-6);}.cls-10,.cls-2,.cls-4,.cls-6,.cls-8{mix-blend-mode:multiply;}.cls-2{fill:url(#radial-gradient);}.cls-3{mask:url(#mask-2);filter:url(#luminosity-noclip-7);}.cls-4{fill:url(#radial-gradient-2);}.cls-5{mask:url(#mask-3);filter:url(#luminosity-noclip-8);}.cls-6{fill:url(#radial-gradient-3);}.cls-7{mask:url(#mask-4);filter:url(#luminosity-noclip-9);}.cls-8{fill:url(#radial-gradient-4);}.cls-9{mask:url(#mask-5);filter:url(#luminosity-noclip-10);}.cls-10{fill:url(#radial-gradient-5);}.cls-11{isolation:isolate;}.cls-12{fill:url(#Безымянный_градиент_16);}.cls-13{fill:url(#Безымянный_градиент_396);}.cls-14{fill:url(#Безымянный_градиент_20);}.cls-15{mask:url(#mask-6);}.cls-16,.cls-18,.cls-20,.cls-22,.cls-24{mix-blend-mode:screen;}.cls-16{fill:url(#radial-gradient-6);}.cls-17{mask:url(#mask-7);}.cls-18{fill:url(#radial-gradient-7);}.cls-19{mask:url(#mask-8);}.cls-20{fill:url(#radial-gradient-8);}.cls-21{mask:url(#mask-9);}.cls-22{fill:url(#radial-gradient-9);}.cls-23{mask:url(#mask-10);}.cls-24{fill:url(#Безымянный_градиент_172);}.cls-25{filter:url(#luminosity-noclip-5);}.cls-26{filter:url(#luminosity-noclip-4);}.cls-27{filter:url(#luminosity-noclip-3);}.cls-28{filter:url(#luminosity-noclip-2);}.cls-29{filter:url(#luminosity-noclip);}</style><filter id="luminosity-noclip" x="3066.04" y="-7025.01" width="16.1" height="32766" filterUnits="userSpaceOnUse" color-interpolation-filters="sRGB"><feFlood flood-color="#fff" result="bg"/><feBlend in="SourceGraphic" in2="bg"/></filter><mask id="mask" x="3066.04" y="-7025.01" width="16.1" height="32766" maskUnits="userSpaceOnUse"><g class="cls-29"/></mask><radialGradient id="radial-gradient" cx="-4343.04" cy="6683.06" r="11.77" gradientTransform="matrix(-1, 0.01, 0.01, 1, -1319.22, -374.27)" gradientUnits="userSpaceOnUse"><stop offset="0.43" stop-color="#fff"/><stop offset="0.99"/></radialGradient><filter id="luminosity-noclip-2" x="3040.4" y="-7025.01" width="25.43" height="32766" filterUnits="userSpaceOnUse" color-interpolation-filters="sRGB"><feFlood flood-color="#fff" result="bg"/><feBlend in="SourceGraphic" in2="bg"/></filter><mask id="mask-2" x="3040.4" y="-7025.01" width="25.43" height="32766" maskUnits="userSpaceOnUse"><g class="cls-28"/></mask><radialGradient id="radial-gradient-2" cx="-4325.21" cy="6672.59" r="16.11" gradientTransform="matrix(-1, 0.01, 0.01, 1, -1319.22, -374.27)" gradientUnits="userSpaceOnUse"><stop offset="0.15" stop-color="#fff"/><stop offset="0.99"/></radialGradient><filter id="luminosity-noclip-3" x="3031.94" y="-7025.01" width="34.67" height="32766" filterUnits="userSpaceOnUse" color-interpolation-filters="sRGB"><feFlood flood-color="#fff" result="bg"/><feBlend in="SourceGraphic" in2="bg"/></filter><mask id="mask-3" x="3031.94" y="-7025.01" width="34.67" height="32766" maskUnits="userSpaceOnUse"><g class="cls-27"/></mask><radialGradient id="radial-gradient-3" cx="-4317.81" cy="6709.78" r="22.84" gradientTransform="matrix(-1, 0.01, 0.01, 1, -1319.22, -374.27)" gradientUnits="userSpaceOnUse"><stop offset="0" stop-color="#fff"/><stop offset="0.99"/></radialGradient><filter id="luminosity-noclip-4" x="3033.75" y="-7025.01" width="17.39" height="32766" filterUnits="userSpaceOnUse" color-interpolation-filters="sRGB"><feFlood flood-color="#fff" result="bg"/><feBlend in="SourceGraphic" in2="bg"/></filter><mask id="mask-4" x="3033.75" y="-7025.01" width="17.39" height="32766" maskUnits="userSpaceOnUse"><g class="cls-26"/></mask><radialGradient id="radial-gradient-4" cx="-4858.95" cy="6350.95" r="12.12" gradientTransform="matrix(-1, -0.07, -0.07, 1, -1380.55, -390.1)" gradientUnits="userSpaceOnUse"><stop offset="0.29" stop-color="#fff"/><stop offset="0.99"/></radialGradient><filter id="luminosity-noclip-5" x="3029.49" y="-7025.01" width="5.16" height="32766" filterUnits="userSpaceOnUse" color-interpolation-filters="sRGB"><feFlood flood-color="#fff" result="bg"/><feBlend in="SourceGraphic" in2="bg"/></filter><mask id="mask-5" x="3029.49" y="-7025.01" width="5.16" height="32766" maskUnits="userSpaceOnUse"><g class="cls-25"/></mask><radialGradient id="radial-gradient-5" cx="-4293.11" cy="6695.33" r="5.38" xlink:href="#radial-gradient-3"/><radialGradient id="Безымянный_градиент_16" cx="32.51" cy="33.7" r="32.19" gradientUnits="userSpaceOnUse"><stop offset="0" stop-color="#d4d4d4"/><stop offset="1" stop-color="#8782c4"/></radialGradient><linearGradient id="Безымянный_градиент_396" x1="2.76" y1="31.86" x2="67.77" y2="31.86" gradientUnits="userSpaceOnUse"><stop offset="0" stop-color="#fafafd"/><stop offset="1" stop-color="#c3bfee"/></linearGradient><linearGradient id="Безымянный_градиент_20" x1="-1378.73" y1="417.24" x2="-1322.56" y2="417.24" gradientTransform="matrix(-1, 0.01, 0.01, 1, -1319.22, -374.27)" gradientUnits="userSpaceOnUse"><stop offset="0" stop-color="#f19f24"/><stop offset="1" stop-color="#ffc026"/></linearGradient><filter id="luminosity-noclip-6" x="44.78" y="15.33" width="3037.35" height="6270.72" filterUnits="userSpaceOnUse" color-interpolation-filters="sRGB"><feFlood flood-color="#fff" result="bg"/><feBlend in="SourceGraphic" in2="bg"/></filter><mask id="mask-6" x="44.78" y="15.33" width="3037.35" height="6270.72" maskUnits="userSpaceOnUse"><g class="cls-1"><path class="cls-2" d="M3067.49,6277c4.63-1,10.06-3.56,12.22-2.92s2.22,7.43,2.41,10.74-1.49-.64-3.17-2.95-5.15-3.6-8.63-3.41S3064.31,6277.67,3067.49,6277Z"/></g></mask><radialGradient id="radial-gradient-6" cx="-1373.93" cy="399.8" r="11.77" gradientTransform="matrix(-1, 0.01, 0.01, 1, -1319.22, -374.27)" gradientUnits="userSpaceOnUse"><stop offset="0.43" stop-color="#fff"/><stop offset="0.99" stop-color="#fff962"/></radialGradient><filter id="luminosity-noclip-7" x="19.14" y="5.13" width="3046.69" height="6272.27" filterUnits="userSpaceOnUse" color-interpolation-filters="sRGB"><feFlood flood-color="#fff" result="bg"/><feBlend in="SourceGraphic" in2="bg"/></filter><mask id="mask-7" x="19.14" y="5.13" width="3046.69" height="6272.27" maskUnits="userSpaceOnUse"><g class="cls-3"><path class="cls-4" d="M3065.82,6274.82c0-2.65-.4-8.44-2.24-10.41s-7.82.62-14.3,5.11-12.22,9.84-6.61,7.15,15-8.56,17.8-8.42S3065.82,6274.82,3065.82,6274.82Z"/></g></mask><radialGradient id="radial-gradient-7" cx="-1356.1" cy="389.33" r="16.11" gradientTransform="matrix(-1, 0.01, 0.01, 1, -1319.22, -374.27)" gradientUnits="userSpaceOnUse"><stop offset="0.15" stop-color="#fff"/><stop offset="0.99" stop-color="#fff962"/></radialGradient><filter id="luminosity-noclip-8" x="10.68" y="35.36" width="3055.93" height="6281.41" filterUnits="userSpaceOnUse" color-interpolation-filters="sRGB"><feFlood flood-color="#fff" result="bg"/><feBlend in="SourceGraphic" in2="bg"/></filter><mask id="mask-8" x="10.68" y="35.36" width="3055.93" height="6281.41" maskUnits="userSpaceOnUse"><g class="cls-5"><path class="cls-6" d="M3066.3,6308.56s-.86,6.21-3.74,5.35-30.62-19.94-30.62-19.94a281.3,281.3,0,0,0,24.89,20c1.88,1.3,5.62,2.84,6.64,2.81C3065.21,6316.72,3067.43,6315.24,3066.3,6308.56Z"/></g></mask><radialGradient id="radial-gradient-8" cx="-1348.7" cy="426.52" r="22.84" gradientTransform="matrix(-1, 0.01, 0.01, 1, -1319.22, -374.27)" gradientUnits="userSpaceOnUse"><stop offset="0" stop-color="#fff"/><stop offset="0.99" stop-color="#fff962"/></radialGradient><filter id="luminosity-noclip-9" x="12.49" y="13.97" width="3038.65" height="6270.7" filterUnits="userSpaceOnUse" color-interpolation-filters="sRGB"><feFlood flood-color="#fff" result="bg"/><feBlend in="SourceGraphic" in2="bg"/></filter><mask id="mask-9" x="12.49" y="13.97" width="3038.65" height="6270.7" maskUnits="userSpaceOnUse"><g class="cls-7"><path class="cls-8" d="M3043.89,6274.35c5.91-4,10.33-.62,4.55,3.8s-10.27,7.26-13.87,6.36S3040.06,6276.92,3043.89,6274.35Z"/></g></mask><radialGradient id="radial-gradient-9" cx="-1423.21" cy="309.67" r="12.12" gradientTransform="matrix(-1, -0.07, -0.07, 1, -1380.55, -390.1)" gradientUnits="userSpaceOnUse"><stop offset="0.29" stop-color="#fff"/><stop offset="0.99" stop-color="#fff962"/></radialGradient><filter id="luminosity-noclip-10" x="8.23" y="26.35" width="3026.42" height="6264.67" filterUnits="userSpaceOnUse" color-interpolation-filters="sRGB"><feFlood flood-color="#fff" result="bg"/><feBlend in="SourceGraphic" in2="bg"/></filter><mask id="mask-10" x="8.23" y="26.35" width="3026.42" height="6264.67" maskUnits="userSpaceOnUse"><g class="cls-9"><path class="cls-10" d="M3030.66,6285.54c1.55-1.25,4.54-.45,3.9,2.2s-3.51,4.34-4.53,2.53A3.77,3.77,0,0,1,3030.66,6285.54Z"/></g></mask><linearGradient id="Безымянный_градиент_172" x1="-1329.18" y1="414.66" x2="-1324" y2="414.66" gradientTransform="matrix(-1, 0.01, 0.01, 1, -1319.22, -374.27)" gradientUnits="userSpaceOnUse"><stop offset="0" stop-color="#ff9840"/><stop offset="0.1" stop-color="#ef8e3c"/><stop offset="0.29" stop-color="#c57531"/><stop offset="0.55" stop-color="#814d20"/><stop offset="0.88" stop-color="#241609"/><stop offset="1"/></linearGradient></defs><g class="cls-11"><g id="Слой_2" data-name="Слой 2"><g id="Слой_1-2" data-name="Слой 1"><path class="cls-12" d="M.05,29.76c-.69,5.85,6.11,10,10,13.43l10.26,8.92c4.88,4.23,9.82,9.16,15.58,12.16a9.92,9.92,0,0,0,3.92,1.29c4.68.2,6.48-3.91,6.59-8,3.89,1.11,10.92,4.38,14.68,2.06,3.45-2.14,3.57-7,3.82-10.61A78.71,78.71,0,0,0,64.78,39c-.43-7.1-.65-14.75-2.84-21.59-.81-1.94-1.71-3.37-3.81-3.91-2.19-.38-4.1.84-6.06,1.6-2.55,1-5.2,1.72-7.77,2.6,0-4,0-8.23-1.21-12.09s-4.71-4.22-8.15-3.32a35.73,35.73,0,0,0-9.52,4.53C21.64,9.12,18,11.7,14.48,14.39c-2.77,2.1-5.45,4.37-8,6.71s-6,5-6.39,8.66C-.13,31.31.22,28.2.05,29.76Z"/><path class="cls-13" d="M2.81,27.92c-.69,5.85,6.11,10,10,13.43l10.27,8.91C28,54.5,32.89,59.43,38.65,62.43a9.92,9.92,0,0,0,3.92,1.29c4.68.2,6.48-3.91,6.59-8,3.9,1.11,10.92,4.37,14.68,2.05,3.45-2.13,3.57-7,3.82-10.6a78.71,78.71,0,0,0-.12-10.07c-.43-7.1-.65-14.75-2.84-21.59-.81-1.94-1.71-3.37-3.81-3.91-2.19-.38-4.1.84-6.06,1.6-2.55,1-5.2,1.72-7.77,2.6,0-4,0-8.23-1.21-12.09S41.15-.5,37.7.39a36.22,36.22,0,0,0-9.52,4.54C24.4,7.28,20.8,9.86,17.24,12.55c-2.77,2.1-5.45,4.37-8,6.71s-6,5-6.39,8.66C2.64,29.47,3,26.36,2.81,27.92Z"/><path class="cls-14" d="M45.73,17.63s-.5-7.27-1.18-9.48-1.38-6.6-10.17-2.34-23,16.3-25.22,18.53-4.59,6,1.41,11.46S33.47,55.91,39,58.51s7.94-.94,7.45-6.9c0,0,4.87,1.28,8.63,2.35s6.85,1.06,7.67-5.8-.19-22.72-1.56-29.55-6-3.7-8.2-3S45.73,17.63,45.73,17.63Z"/><g class="cls-15"><path class="cls-16" d="M46.24,18.34c4.62-1,10.06-3.55,12.21-2.91s2.22,7.43,2.41,10.74-1.49-.65-3.17-3-5.15-3.59-8.63-3.4S43.05,19.06,46.24,18.34Z"/></g><g class="cls-17"><path class="cls-18" d="M44.56,16.21c0-2.65-.4-8.44-2.24-10.41S34.5,6.42,28,10.91s-12.22,9.84-6.61,7.15,15-8.57,17.8-8.42S44.56,16.21,44.56,16.21Z"/></g><g class="cls-19"><path class="cls-20" d="M45,49.94s-.86,6.21-3.74,5.35S10.68,35.36,10.68,35.36a279,279,0,0,0,24.89,20c1.88,1.3,5.62,2.84,6.64,2.81C44,58.1,46.17,56.63,45,49.94Z"/></g><g class="cls-21"><path class="cls-22" d="M22.63,15.74c5.91-4,10.33-.63,4.55,3.8S16.91,26.8,13.31,25.9,18.8,18.31,22.63,15.74Z"/></g><g class="cls-23"><path class="cls-24" d="M9.4,26.93c1.55-1.25,4.54-.45,3.9,2.19s-3.51,4.34-4.53,2.53A3.76,3.76,0,0,1,9.4,26.93Z"/></g></g></g></g></svg>
