<svg xmlns="http://www.w3.org/2000/svg" xmlns:xlink="http://www.w3.org/1999/xlink" viewBox="0 0 258.61 123.72" preserveAspectRatio="none"><defs><style>.cls-1{fill:none;}.cls-2{isolation:isolate;}.cls-3{clip-path:url(#clip-path);}.cls-4{fill:url(#Безымянный_градиент_139);}.cls-5{fill:url(#Безымянный_градиент_129);}.cls-6{fill:#fff;}.cls-7{fill:#ced6ff;mix-blend-mode:multiply;}.cls-8{fill:url(#Безымянный_градиент_163);}.cls-9{fill:url(#Безымянный_градиент_160);}.cls-10{fill:url(#Безымянный_градиент_169);}.cls-11,.cls-12,.cls-13,.cls-15,.cls-16,.cls-17,.cls-18,.cls-19,.cls-20,.cls-21,.cls-22,.cls-23,.cls-24,.cls-25,.cls-26{mix-blend-mode:screen;}.cls-11{fill:url(#Безымянный_градиент_172);}.cls-12{fill:url(#Безымянный_градиент_155);}.cls-13{fill:url(#Безымянный_градиент_168);}.cls-14{fill:#ffffab;}.cls-15{fill:url(#Безымянный_градиент_168-2);}.cls-16{fill:url(#Безымянный_градиент_168-3);}.cls-17{fill:url(#Безымянный_градиент_168-4);}.cls-18{fill:url(#Безымянный_градиент_168-5);}.cls-19{fill:url(#Безымянный_градиент_168-6);}.cls-20{fill:url(#Безымянный_градиент_168-7);}.cls-21{fill:url(#Безымянный_градиент_168-8);}.cls-22{fill:url(#Безымянный_градиент_168-9);}.cls-23{fill:url(#Безымянный_градиент_168-10);}.cls-24{fill:url(#Безымянный_градиент_168-11);}.cls-25{fill:url(#Безымянный_градиент_168-12);}.cls-26{fill:url(#Безымянный_градиент_168-13);}</style><clipPath id="clip-path" transform="translate(7.49 6.37)"><path class="cls-1" d="M4,89.93C12.3,107.17,212.83,112,229.9,94.09c15.52-16.3,9.21-74.63-4.06-86.26C207.76-8,29.58,3.11,14.94,15.58,1.3,27.21-4.56,72.05,4,89.93Z"/></clipPath><linearGradient id="Безымянный_градиент_139" x1="121.81" y1="117.36" x2="121.81" y2="-2.48" gradientUnits="userSpaceOnUse"><stop offset="0" stop-color="#8b9ad1"/><stop offset="1" stop-color="#cee0ff"/></linearGradient><linearGradient id="Безымянный_градиент_129" x1="121.81" y1="113.47" x2="121.81" y2="-6.37" gradientUnits="userSpaceOnUse"><stop offset="0" stop-color="#cadcff"/><stop offset="1" stop-color="#fff"/></linearGradient><radialGradient id="Безымянный_градиент_163" cx="123.39" cy="97.96" r="92.35" gradientUnits="userSpaceOnUse"><stop offset="0" stop-color="#ffbd00"/><stop offset="1" stop-color="#ff772c"/></radialGradient><linearGradient id="Безымянный_градиент_160" x1="119.53" y1="99.87" x2="119.53" y2="0.98" gradientUnits="userSpaceOnUse"><stop offset="0" stop-color="#fff300"/><stop offset="1" stop-color="#ff9700"/></linearGradient><linearGradient id="Безымянный_градиент_169" x1="119.53" y1="98.02" x2="119.53" y2="2.05" gradientUnits="userSpaceOnUse"><stop offset="0" stop-color="#fc0"/><stop offset="1" stop-color="#ff9700"/></linearGradient><linearGradient id="Безымянный_градиент_172" x1="17.08" y1="21.32" x2="232.67" y2="21.32" gradientUnits="userSpaceOnUse"><stop offset="0" stop-color="#ff9840"/><stop offset="0.1" stop-color="#ef8e3c"/><stop offset="0.29" stop-color="#c57531"/><stop offset="0.55" stop-color="#814d20"/><stop offset="0.88" stop-color="#241609"/><stop offset="1"/></linearGradient><linearGradient id="Безымянный_градиент_155" x1="-3097.14" y1="86.15" x2="-2891.61" y2="86.15" gradientTransform="matrix(-1, 0, 0, 1, -2874.19, 0)" gradientUnits="userSpaceOnUse"><stop offset="0" stop-color="#ff6140"/><stop offset="0.1" stop-color="#ef5b3c"/><stop offset="0.29" stop-color="#c54b31"/><stop offset="0.55" stop-color="#813120"/><stop offset="0.88" stop-color="#240e09"/><stop offset="1"/></linearGradient><radialGradient id="Безымянный_градиент_168" cx="-3155.21" cy="-1111.91" r="2.85" gradientTransform="matrix(-0.06, -1, 1, -0.06, 958.48, -3180.52)" gradientUnits="userSpaceOnUse"><stop offset="0" stop-color="#00b359"/><stop offset="0.13" stop-color="#009148"/><stop offset="0.34" stop-color="#005e2f"/><stop offset="0.54" stop-color="#00351a"/><stop offset="0.73" stop-color="#00180c"/><stop offset="0.89" stop-color="#000603"/><stop offset="1"/></radialGradient><radialGradient id="Безымянный_градиент_168-2" cx="-3143.24" cy="-1107.32" r="2.85" xlink:href="#Безымянный_градиент_168"/><radialGradient id="Безымянный_градиент_168-3" cx="-3178.12" cy="-1111.69" r="2.85" xlink:href="#Безымянный_градиент_168"/><radialGradient id="Безымянный_градиент_168-4" cx="-3141.18" cy="-1122.61" r="7.97" xlink:href="#Безымянный_градиент_168"/><radialGradient id="Безымянный_градиент_168-5" cx="-3208.54" cy="-962.78" r="7.97" xlink:href="#Безымянный_градиент_168"/><radialGradient id="Безымянный_градиент_168-6" cx="-3203.02" cy="-921.5" r="3.81" xlink:href="#Безымянный_градиент_168"/><radialGradient id="Безымянный_градиент_168-7" cx="-3199.1" cy="-1103.54" r="3.81" xlink:href="#Безымянный_градиент_168"/><radialGradient id="Безымянный_градиент_168-8" cx="-3189.52" cy="-993.62" r="1.9" xlink:href="#Безымянный_градиент_168"/><radialGradient id="Безымянный_градиент_168-9" cx="-3205.21" cy="-1137.87" r="1.9" xlink:href="#Безымянный_градиент_168"/><radialGradient id="Безымянный_градиент_168-10" cx="-3175.79" cy="-1082.55" r="1.9" xlink:href="#Безымянный_градиент_168"/><radialGradient id="Безымянный_градиент_168-11" cx="-3203.54" cy="-1110.68" r="1.42" xlink:href="#Безымянный_градиент_168"/><radialGradient id="Безымянный_градиент_168-12" cx="-3214.77" cy="-1012.48" r="2.97" xlink:href="#Безымянный_градиент_168"/><radialGradient id="Безымянный_градиент_168-13" cx="-3213.18" cy="-1075.15" r="2.97" xlink:href="#Безымянный_градиент_168"/></defs><g class="cls-2"><g id="Слой_2" data-name="Слой 2"><g id="Слой_1-2" data-name="Слой 1"><g class="cls-3"><path class="cls-4" d="M241.09,103.2a6.11,6.11,0,0,1-.79.71C218.21,122,26.73,121.32.06,105.1a6.87,6.87,0,0,1-2.78-2.66C-12.18,82.75-7,23.51,8,10.69,24.1-3,216.7-9.26,236.61,8.21,251.22,21,258.18,85.25,241.09,103.2Z" transform="translate(7.49 6.37)"/><path class="cls-5" d="M-2.72,98.54c9.11,19,225,20.52,243.81.77,17.09-18,10.14-82.19-4.48-95C216.7-13.15,24.1-6.94,8,6.8-7,19.61-12.17,78.85-2.72,98.54Z" transform="translate(7.49 6.37)"/><path class="cls-6" d="M6.12,92.07s29.15,15.61,119,15.61S229.28,92.07,229.28,92.07Z" transform="translate(7.49 6.37)"/><path class="cls-7" d="M240.3,92.06v11.85C218.21,122,26.73,121.32.06,105.1l.56-3.56,5.49-9.48L236.35,81.37Z" transform="translate(7.49 6.37)"/><path class="cls-8" d="M4,89.93C12.3,107.17,212.83,112,229.9,94.09c15.52-16.3,9.21-74.63-4.06-86.26C207.76-8,29.58,3.11,14.94,15.58,1.3,27.21-4.56,72.05,4,89.93Z" transform="translate(7.49 6.37)"/><path class="cls-9" d="M4.68,86.88c8.25,16.63,207.59,17.82,224.6.53,15.46-15.71,9.38-67.67-3.84-78.89C207.43-6.76,29.91,4,15.33,16,1.74,27.21-3.86,69.64,4.68,86.88Z" transform="translate(7.49 6.37)"/><path class="cls-10" d="M7.17,85.41c8.07,16.14,203.1,17.29,219.74.51,15.12-15.24,9.17-65.67-3.76-76.55C205.53-5.46,31.85,5,17.58,16.62,4.28,27.51-1.2,68.68,7.17,85.41Z" transform="translate(7.49 6.37)"/><path class="cls-11" d="M17.08,16.7s136-27.58,206.55-7.07a54.51,54.51,0,0,1,9,20s-25.71,9.2-62,10.85S96.43,21.65,65.79,18.59,17.08,16.7,17.08,16.7Z" transform="translate(7.49 6.37)"/><path class="cls-12" d="M223,86.23s-91,16-205.53,1.89c0,0,74.42,6.45,107.53,0C181.16,77.16,208.17,73.92,223,86.23Z" transform="translate(7.49 6.37)"/><path class="cls-13" d="M36.45,32.44a2.85,2.85,0,1,1-2.67,3A2.87,2.87,0,0,1,36.45,32.44Z" transform="translate(7.49 6.37)"/><path class="cls-14" d="M36.8,34.49a.79.79,0,1,1-.74.83A.78.78,0,0,1,36.8,34.49Z" transform="translate(7.49 6.37)"/><path class="cls-15" d="M40.32,20.22a2.85,2.85,0,1,1-2.67,3A2.84,2.84,0,0,1,40.32,20.22Z" transform="translate(7.49 6.37)"/><path class="cls-14" d="M40.67,22.26a.79.79,0,1,1-.74.83A.79.79,0,0,1,40.67,22.26Z" transform="translate(7.49 6.37)"/><path class="cls-16" d="M38,55.29a2.85,2.85,0,1,1-2.67,3A2.85,2.85,0,0,1,38,55.29Z" transform="translate(7.49 6.37)"/><path class="cls-14" d="M38.38,57.34a.79.79,0,1,1-.74.83A.79.79,0,0,1,38.38,57.34Z" transform="translate(7.49 6.37)"/><path class="cls-17" d="M24.64,14a8,8,0,1,1-7.48,8.43A8,8,0,0,1,24.64,14Z" transform="translate(7.49 6.37)"/><path class="cls-14" d="M25.6,19.68A2.2,2.2,0,1,1,23.53,22,2.2,2.2,0,0,1,25.6,19.68Z" transform="translate(7.49 6.37)"/><path class="cls-18" d="M188.19,71.68a8,8,0,1,1-7.48,8.43A8,8,0,0,1,188.19,71.68Z" transform="translate(7.49 6.37)"/><path class="cls-14" d="M189.15,77.39a2.21,2.21,0,1,1-2.07,2.34A2.22,2.22,0,0,1,189.15,77.39Z" transform="translate(7.49 6.37)"/><path class="cls-19" d="M229.32,67.86a3.81,3.81,0,1,1-3.58,4A3.81,3.81,0,0,1,229.32,67.86Z" transform="translate(7.49 6.37)"/><path class="cls-14" d="M229.77,70.59a1.06,1.06,0,1,1-1,1.12A1.06,1.06,0,0,1,229.77,70.59Z" transform="translate(7.49 6.37)"/><path class="cls-20" d="M47.37,74.8a3.81,3.81,0,1,1-3.57,4A3.81,3.81,0,0,1,47.37,74.8Z" transform="translate(7.49 6.37)"/><path class="cls-14" d="M47.83,77.53a1.05,1.05,0,1,1,.12,2.1,1.05,1.05,0,0,1-.12-2.1Z" transform="translate(7.49 6.37)"/><path class="cls-21" d="M156.64,60.58a1.9,1.9,0,1,1-1.79,2A1.9,1.9,0,0,1,156.64,60.58Z" transform="translate(7.49 6.37)"/><path class="cls-14" d="M156.87,61.94a.53.53,0,1,1-.5.56A.54.54,0,0,1,156.87,61.94Z" transform="translate(7.49 6.37)"/><path class="cls-22" d="M13.57,84.85a1.9,1.9,0,1,1-1.78,2A1.9,1.9,0,0,1,13.57,84.85Z" transform="translate(7.49 6.37)"/><path class="cls-14" d="M13.8,86.21a.53.53,0,0,1,.56.49.52.52,0,0,1-.49.56.53.53,0,1,1-.07-1.05Z" transform="translate(7.49 6.37)"/><path class="cls-23" d="M67.05,52.18a1.9,1.9,0,0,1,.23,3.8,1.9,1.9,0,1,1-.23-3.8Z" transform="translate(7.49 6.37)"/><path class="cls-14" d="M67.28,53.54a.53.53,0,1,1-.5.56A.54.54,0,0,1,67.28,53.54Z" transform="translate(7.49 6.37)"/><path class="cls-24" d="M40.65,82a1.42,1.42,0,1,1-1.33,1.5A1.43,1.43,0,0,1,40.65,82Z" transform="translate(7.49 6.37)"/><path class="cls-14" d="M40.82,83.06a.4.4,0,0,1,.42.37.39.39,0,0,1-.37.41.39.39,0,0,1-.42-.36A.39.39,0,0,1,40.82,83.06Z" transform="translate(7.49 6.37)"/><path class="cls-25" d="M139.25,85.85A3,3,0,1,1,136.46,89,3,3,0,0,1,139.25,85.85Z" transform="translate(7.49 6.37)"/><path class="cls-14" d="M139.61,88a.82.82,0,1,1-.78.87A.83.83,0,0,1,139.61,88Z" transform="translate(7.49 6.37)"/><path class="cls-26" d="M76.6,88a3,3,0,1,1-2.79,3.14A3,3,0,0,1,76.6,88Z" transform="translate(7.49 6.37)"/><path class="cls-14" d="M77,90.12a.82.82,0,1,1-.77.87A.83.83,0,0,1,77,90.12Z" transform="translate(7.49 6.37)"/><path class="cls-6" d="M220.49,90.77c-1-1.7,7.47-9.43,9.6-9.4s.24,5.09-1.06,6.27S221,91.62,220.49,90.77Z" transform="translate(7.49 6.37)"/></g></g></g></g></svg>