<svg xmlns="http://www.w3.org/2000/svg" xmlns:xlink="http://www.w3.org/1999/xlink" viewBox="0 0 259.68 124.24" preserveAspectRatio="none"><defs><style>.cls-1{fill:none;}.cls-2{isolation:isolate;}.cls-3{clip-path:url(#clip-path);}.cls-4{fill:url(#Безымянный_градиент_139);}.cls-5{fill:url(#Безымянный_градиент_129);}.cls-6{fill:#fff;}.cls-7{fill:#ced6ff;mix-blend-mode:multiply;}.cls-8{fill:url(#Безымянный_градиент_4);}.cls-9{fill:url(#Безымянный_градиент_5);}.cls-10{fill:url(#Безымянный_градиент_2);}.cls-11,.cls-12,.cls-13,.cls-15,.cls-16,.cls-17,.cls-18,.cls-19,.cls-20,.cls-21,.cls-22,.cls-23,.cls-24,.cls-25,.cls-26{mix-blend-mode:screen;}.cls-11{fill:url(#Безымянный_градиент_10);}.cls-12{fill:url(#Безымянный_градиент_8);}.cls-13{fill:url(#Безымянный_градиент_12);}.cls-14{fill:#bec7ff;}.cls-15{fill:url(#Безымянный_градиент_12-2);}.cls-16{fill:url(#Безымянный_градиент_12-3);}.cls-17{fill:url(#Безымянный_градиент_12-4);}.cls-18{fill:url(#Безымянный_градиент_12-5);}.cls-19{fill:url(#Безымянный_градиент_12-6);}.cls-20{fill:url(#Безымянный_градиент_12-7);}.cls-21{fill:url(#Безымянный_градиент_12-8);}.cls-22{fill:url(#Безымянный_градиент_12-9);}.cls-23{fill:url(#Безымянный_градиент_12-10);}.cls-24{fill:url(#Безымянный_градиент_12-11);}.cls-25{fill:url(#Безымянный_градиент_12-12);}.cls-26{fill:url(#Безымянный_градиент_12-13);}</style><clipPath id="clip-path" transform="translate(-18.32 -24.76)"><path class="cls-1" d="M0,0V179H298V0ZM253.69,117.44C237,134.28,41.14,133.12,33,116.92c-8.4-16.8-2.89-58.14,10.46-69.07,14.32-11.72,188.73-22.18,206.42-7.29C262.91,51.49,268.88,102.12,253.69,117.44Z"/></clipPath><linearGradient id="Безымянный_градиент_139" x1="148.16" y1="149" x2="148.16" y2="28.67" gradientUnits="userSpaceOnUse"><stop offset="0" stop-color="#8b9ad1"/><stop offset="1" stop-color="#cee0ff"/></linearGradient><linearGradient id="Безымянный_градиент_129" x1="148.16" y1="145.09" x2="148.16" y2="24.76" gradientUnits="userSpaceOnUse"><stop offset="0" stop-color="#cadcff"/><stop offset="1" stop-color="#fff"/></linearGradient><radialGradient id="Безымянный_градиент_4" cx="149.75" cy="129.52" r="92.74" gradientUnits="userSpaceOnUse"><stop offset="0" stop-color="#aeaaff"/><stop offset="1" stop-color="#d0f8ff"/></radialGradient><linearGradient id="Безымянный_градиент_5" x1="145.87" y1="131.44" x2="145.87" y2="32.14" gradientUnits="userSpaceOnUse"><stop offset="0" stop-color="#9e9eff"/><stop offset="1" stop-color="#5b87b0"/></linearGradient><linearGradient id="Безымянный_градиент_2" x1="145.86" y1="129.58" x2="145.86" y2="33.21" gradientUnits="userSpaceOnUse"><stop offset="0" stop-color="#9dabff"/><stop offset="1" stop-color="#9debff"/></linearGradient><linearGradient id="Безымянный_градиент_10" x1="42.99" y1="52.57" x2="259.48" y2="52.57" gradientUnits="userSpaceOnUse"><stop offset="0" stop-color="#8d59ff"/><stop offset="0.1" stop-color="#8453ef"/><stop offset="0.29" stop-color="#6d45c5"/><stop offset="0.55" stop-color="#472d81"/><stop offset="0.88" stop-color="#140d24"/><stop offset="1"/></linearGradient><linearGradient id="Безымянный_градиент_8" x1="-2319.78" y1="117.66" x2="-2113.4" y2="117.66" gradientTransform="matrix(-1, 0, 0, 1, -2070.07, 0)" gradientUnits="userSpaceOnUse"><stop offset="0" stop-color="#596aff"/><stop offset="0.1" stop-color="#5363ef"/><stop offset="0.29" stop-color="#4552c5"/><stop offset="0.55" stop-color="#2d3681"/><stop offset="0.88" stop-color="#0d0f24"/><stop offset="1"/></linearGradient><radialGradient id="Безымянный_градиент_12" cx="-2519.76" cy="-1232.08" r="2.86" gradientTransform="matrix(-0.06, -1, 1, -0.06, 1142.3, -2522.07)" gradientUnits="userSpaceOnUse"><stop offset="0" stop-color="#3a12b3"/><stop offset="0.13" stop-color="#2f0f91"/><stop offset="0.34" stop-color="#1e095e"/><stop offset="0.54" stop-color="#110535"/><stop offset="0.73" stop-color="#080218"/><stop offset="0.89" stop-color="#020106"/><stop offset="1"/></radialGradient><radialGradient id="Безымянный_градиент_12-2" cx="-2507.74" cy="-1227.47" r="2.86" xlink:href="#Безымянный_градиент_12"/><radialGradient id="Безымянный_градиент_12-3" cx="-2542.76" cy="-1231.86" r="2.86" xlink:href="#Безымянный_градиент_12"/><radialGradient id="Безымянный_градиент_12-4" cx="-2505.67" cy="-1242.82" r="8" xlink:href="#Безымянный_градиент_12"/><radialGradient id="Безымянный_градиент_12-5" cx="-2573.31" cy="-1082.33" r="8" xlink:href="#Безымянный_градиент_12"/><radialGradient id="Безымянный_градиент_12-6" cx="-2567.77" cy="-1040.88" r="3.82" xlink:href="#Безымянный_градиент_12"/><radialGradient id="Безымянный_градиент_12-7" cx="-2563.83" cy="-1223.67" r="3.82" xlink:href="#Безымянный_градиент_12"/><radialGradient id="Безымянный_градиент_12-8" cx="-2554.21" cy="-1113.29" r="1.91" xlink:href="#Безымянный_градиент_12"/><radialGradient id="Безымянный_градиент_12-9" cx="-2569.97" cy="-1258.15" r="1.91" xlink:href="#Безымянный_градиент_12"/><radialGradient id="Безымянный_градиент_12-10" cx="-2540.42" cy="-1202.59" r="1.91" xlink:href="#Безымянный_градиент_12"/><radialGradient id="Безымянный_градиент_12-11" cx="-2568.3" cy="-1230.84" r="1.42" xlink:href="#Безымянный_градиент_12"/><radialGradient id="Безымянный_градиент_12-12" cx="-2579.57" cy="-1132.23" r="2.99" xlink:href="#Безымянный_градиент_12"/><radialGradient id="Безымянный_градиент_12-13" cx="-2577.97" cy="-1195.16" r="2.99" xlink:href="#Безымянный_градиент_12"/></defs><g class="cls-2"><g id="Слой_2" data-name="Слой 2"><g id="Слой_1-2" data-name="Слой 1"><g class="cls-3"><path class="cls-4" d="M267.93,134.79a6.06,6.06,0,0,1-.78.71C245,153.62,52.68,153,25.91,136.7a7,7,0,0,1-2.8-2.68c-9.5-19.77-4.34-79.26,10.74-92.13,16.19-13.79,209.59-20,229.59-2.5C278.11,52.25,285.1,116.76,267.93,134.79Z" transform="translate(-18.32 -24.76)"/><path class="cls-5" d="M23.11,130.11c9.15,19.07,226,20.6,244.82.77,17.16-18,10.18-82.54-4.49-95.4C243.45,18,50,24.19,33.85,38,18.76,50.85,13.62,110.34,23.11,130.11Z" transform="translate(-18.32 -24.76)"/><path class="cls-6" d="M32,123.61s29.27,15.67,119.44,15.67,104.65-15.67,104.65-15.67Z" transform="translate(-18.32 -24.76)"/><path class="cls-7" d="M267.15,123.6v11.9C245,153.62,52.68,153,25.91,136.7l.56-3.58L32,123.6l231.19-10.74Z" transform="translate(-18.32 -24.76)"/><path class="cls-8" d="M29.88,121.46c8.31,17.31,209.68,22.18,226.82,4.18,15.58-16.37,9.24-74.95-4.08-86.62C234.47,23.1,55.54,34.28,40.85,46.8,27.15,58.48,21.26,103.5,29.88,121.46Z" transform="translate(-18.32 -24.76)"/><path class="cls-9" d="M30.55,118.4c8.28,16.69,208.45,17.89,225.53.53,15.52-15.78,9.41-68-3.86-79.22-18.08-15.34-196.34-4.57-211,7.51C27.59,58.48,22,101.09,30.55,118.4Z" transform="translate(-18.32 -24.76)"/><path class="cls-10" d="M33,116.92c8.1,16.2,203.94,17.36,220.65.52,15.19-15.32,9.22-65.95-3.77-76.88C232.23,25.67,57.82,36.13,43.5,47.85,30.15,58.78,24.64,100.12,33,116.92Z" transform="translate(-18.32 -24.76)"/><path class="cls-11" d="M43,47.93s136.56-27.7,207.41-7.11a54.76,54.76,0,0,1,9.08,20.12s-25.81,9.23-62.26,10.89-74.54-18.93-105.31-22S43,47.93,43,47.93Z" transform="translate(-18.32 -24.76)"/><path class="cls-12" d="M249.72,117.75s-91.35,16.09-206.38,1.89c0,0,74.72,6.48,108,0C207.76,108.64,234.88,105.38,249.72,117.75Z" transform="translate(-18.32 -24.76)"/><path class="cls-6" d="M37.88,54.93a21.57,21.57,0,0,1,9.5-9C54,42.74,73,39.59,74,40.38s-9.22,4.53-14.55,6.48S40.59,56.43,37.88,54.93Z" transform="translate(-18.32 -24.76)"/><path class="cls-6" d="M37.29,56.51c-1.37.2-4.79,10.81-4.58,12.56s4.31-3.77,4.95-6.7A12.12,12.12,0,0,0,37.29,56.51Z" transform="translate(-18.32 -24.76)"/><path class="cls-13" d="M62.45,63.73a2.86,2.86,0,1,1-2.69,3A2.86,2.86,0,0,1,62.45,63.73Z" transform="translate(-18.32 -24.76)"/><path class="cls-14" d="M62.79,65.78a.8.8,0,1,1-.74.84A.8.8,0,0,1,62.79,65.78Z" transform="translate(-18.32 -24.76)"/><path class="cls-15" d="M66.33,51.46a2.86,2.86,0,1,1-2.68,3A2.86,2.86,0,0,1,66.33,51.46Z" transform="translate(-18.32 -24.76)"/><path class="cls-14" d="M66.68,53.51a.79.79,0,1,1-.75.84A.8.8,0,0,1,66.68,53.51Z" transform="translate(-18.32 -24.76)"/><path class="cls-16" d="M64,86.68a2.86,2.86,0,1,1-2.68,3A2.87,2.87,0,0,1,64,86.68Z" transform="translate(-18.32 -24.76)"/><path class="cls-14" d="M64.39,88.73a.79.79,0,0,1,.09,1.58.79.79,0,0,1-.84-.74A.8.8,0,0,1,64.39,88.73Z" transform="translate(-18.32 -24.76)"/><path class="cls-17" d="M50.58,45.18a8,8,0,1,1-7.51,8.46A8,8,0,0,1,50.58,45.18Z" transform="translate(-18.32 -24.76)"/><path class="cls-14" d="M51.55,50.91a2.22,2.22,0,1,1-2.08,2.35A2.21,2.21,0,0,1,51.55,50.91Z" transform="translate(-18.32 -24.76)"/><path class="cls-18" d="M214.82,103.13a8,8,0,1,1-7.51,8.47A8,8,0,0,1,214.82,103.13Z" transform="translate(-18.32 -24.76)"/><path class="cls-14" d="M215.78,108.87a2.21,2.21,0,1,1-2.08,2.34A2.23,2.23,0,0,1,215.78,108.87Z" transform="translate(-18.32 -24.76)"/><path class="cls-19" d="M256.11,99.3a3.82,3.82,0,1,1-3.59,4A3.81,3.81,0,0,1,256.11,99.3Z" transform="translate(-18.32 -24.76)"/><path class="cls-14" d="M256.57,102a1.06,1.06,0,0,1,1.12,1,1.06,1.06,0,0,1-2.11.13A1.06,1.06,0,0,1,256.57,102Z" transform="translate(-18.32 -24.76)"/><path class="cls-20" d="M73.41,106.26a3.82,3.82,0,1,1-3.59,4A3.82,3.82,0,0,1,73.41,106.26Z" transform="translate(-18.32 -24.76)"/><path class="cls-14" d="M73.87,109a1.06,1.06,0,1,1-1,1.12A1.06,1.06,0,0,1,73.87,109Z" transform="translate(-18.32 -24.76)"/><path class="cls-21" d="M183.13,92a1.91,1.91,0,1,1-1.79,2A1.9,1.9,0,0,1,183.13,92Z" transform="translate(-18.32 -24.76)"/><path class="cls-14" d="M183.36,93.36a.53.53,0,0,1,.56.49.52.52,0,0,1-.49.56.53.53,0,1,1-.07-1Z" transform="translate(-18.32 -24.76)"/><path class="cls-22" d="M39.47,116.35a1.91,1.91,0,1,1-1.79,2A1.92,1.92,0,0,1,39.47,116.35Z" transform="translate(-18.32 -24.76)"/><path class="cls-14" d="M39.71,117.72a.53.53,0,0,1,.06,1.06.53.53,0,0,1-.56-.5A.53.53,0,0,1,39.71,117.72Z" transform="translate(-18.32 -24.76)"/><path class="cls-23" d="M93.17,83.55a1.91,1.91,0,1,1-1.79,2A1.9,1.9,0,0,1,93.17,83.55Z" transform="translate(-18.32 -24.76)"/><path class="cls-14" d="M93.4,84.92a.53.53,0,0,1,.56.5.53.53,0,0,1-1,.06A.53.53,0,0,1,93.4,84.92Z" transform="translate(-18.32 -24.76)"/><path class="cls-24" d="M66.66,113.54a1.42,1.42,0,1,1-1.34,1.51A1.42,1.42,0,0,1,66.66,113.54Z" transform="translate(-18.32 -24.76)"/><path class="cls-14" d="M66.83,114.56a.4.4,0,0,1,0,.79.4.4,0,0,1,0-.79Z" transform="translate(-18.32 -24.76)"/><path class="cls-25" d="M165.67,117.36a3,3,0,1,1-2.8,3.16A3,3,0,0,1,165.67,117.36Z" transform="translate(-18.32 -24.76)"/><path class="cls-14" d="M166,119.5a.83.83,0,1,1-.78.88A.84.84,0,0,1,166,119.5Z" transform="translate(-18.32 -24.76)"/><path class="cls-26" d="M102.76,119.51a3,3,0,1,1-2.8,3.16A3,3,0,0,1,102.76,119.51Z" transform="translate(-18.32 -24.76)"/><path class="cls-14" d="M103.12,121.65a.83.83,0,1,1-.78.87A.83.83,0,0,1,103.12,121.65Z" transform="translate(-18.32 -24.76)"/><path class="cls-6" d="M247.25,122.3c-.95-1.7,7.5-9.47,9.64-9.44s.24,5.11-1.06,6.3S247.72,123.15,247.25,122.3Z" transform="translate(-18.32 -24.76)"/></g></g></g></g></svg>
