<svg xmlns="http://www.w3.org/2000/svg" xmlns:xlink="http://www.w3.org/1999/xlink" viewBox="0 0 298 130.68"><defs><style>.cls-1{isolation:isolate;}.cls-2{fill:url(#Безымянный_градиент_248);}.cls-3{fill:url(#Безымянный_градиент_252);}.cls-4{fill:url(#Безымянный_градиент_88);}.cls-10,.cls-11,.cls-12,.cls-13,.cls-14,.cls-15,.cls-17,.cls-5,.cls-6,.cls-8,.cls-9{mix-blend-mode:screen;}.cls-5{fill:url(#Безымянный_градиент_257);}.cls-6{fill:url(#Безымянный_градиент_168);}.cls-7{fill:#ffffab;}.cls-8{fill:url(#Безымянный_градиент_168-2);}.cls-9{fill:url(#Безымянный_градиент_168-3);}.cls-10{fill:url(#Безымянный_градиент_168-4);}.cls-11{fill:url(#Безымянный_градиент_168-5);}.cls-12{fill:url(#Безымянный_градиент_168-6);}.cls-13{fill:url(#Безымянный_градиент_168-7);}.cls-14{fill:url(#Безымянный_градиент_168-8);}.cls-15{fill:url(#Безымянный_градиент_168-9);}.cls-16{fill:#fff;}.cls-17{fill:url(#Безымянный_градиент_262);}</style><radialGradient id="Безымянный_градиент_248" cx="-506.07" cy="4078.5" r="144.24" gradientTransform="matrix(-1.01, 0, 0, 0.67, -366.41, -2599.54)" gradientUnits="userSpaceOnUse"><stop offset="0" stop-color="#008cca"/><stop offset="1" stop-color="#003bf1"/></radialGradient><linearGradient id="Безымянный_градиент_252" x1="-163" y1="123.81" x2="-163" y2="1.21" gradientTransform="matrix(-1, 0, 0, 1, -14.02, 0)" gradientUnits="userSpaceOnUse"><stop offset="0" stop-color="#92fff1"/><stop offset="1" stop-color="#0098ff"/></linearGradient><linearGradient id="Безымянный_градиент_88" x1="-163" y1="121.51" x2="-163" y2="2.54" gradientTransform="matrix(-1, 0, 0, 1, -14.02, 0)" gradientUnits="userSpaceOnUse"><stop offset="0" stop-color="#00eff1"/><stop offset="1" stop-color="#0098ff"/></linearGradient><linearGradient id="Безымянный_градиент_257" x1="325.98" y1="106.79" x2="582.24" y2="106.79" gradientTransform="translate(-305.96)" gradientUnits="userSpaceOnUse"><stop offset="0.01" stop-color="#40ff79"/><stop offset="0.1" stop-color="#3cef71"/><stop offset="0.29" stop-color="#31c55d"/><stop offset="0.56" stop-color="#20813d"/><stop offset="0.88" stop-color="#092411"/><stop offset="1"/></linearGradient><radialGradient id="Безымянный_градиент_168" cx="870.34" cy="-431.74" r="3.84" gradientTransform="matrix(0.06, -1, -1, -0.06, -304.98, 888.88)" gradientUnits="userSpaceOnUse"><stop offset="0" stop-color="#00b359"/><stop offset="0.13" stop-color="#009148"/><stop offset="0.34" stop-color="#005e2f"/><stop offset="0.54" stop-color="#00351a"/><stop offset="0.73" stop-color="#00180c"/><stop offset="0.89" stop-color="#000603"/><stop offset="1"/></radialGradient><radialGradient id="Безымянный_градиент_168-2" cx="886.5" cy="-425.55" r="3.84" xlink:href="#Безымянный_градиент_168"/><radialGradient id="Безымянный_градиент_168-3" cx="839.43" cy="-431.44" r="3.84" xlink:href="#Безымянный_градиент_168"/><radialGradient id="Безымянный_градиент_168-4" cx="889.28" cy="-446.17" r="10.75" xlink:href="#Безымянный_градиент_168"/><radialGradient id="Безымянный_градиент_168-5" cx="811.12" cy="-420.44" r="5.14" xlink:href="#Безымянный_градиент_168"/><radialGradient id="Безымянный_градиент_168-6" cx="802.87" cy="-466.78" r="2.57" xlink:href="#Безымянный_градиент_168"/><radialGradient id="Безымянный_градиент_168-7" cx="842.58" cy="-392.11" r="2.57" xlink:href="#Безымянный_градиент_168"/><radialGradient id="Безымянный_градиент_168-8" cx="805.12" cy="-430.08" r="1.91" xlink:href="#Безымянный_градиент_168"/><radialGradient id="Безымянный_градиент_168-9" cx="802.82" cy="-400.29" r="4.01" xlink:href="#Безымянный_градиент_168"/><linearGradient id="Безымянный_градиент_262" x1="-286.58" y1="29.19" x2="-21.93" y2="29.19" gradientTransform="matrix(-1, 0, 0, 1, -14.02, 0)" gradientUnits="userSpaceOnUse"><stop offset="0" stop-color="#7ed140"/><stop offset="0.11" stop-color="#74c13b"/><stop offset="0.34" stop-color="#5b972e"/><stop offset="0.65" stop-color="#325319"/><stop offset="1"/></linearGradient></defs><g class="cls-1"><g id="Слой_2" data-name="Слой 2"><g id="Слой_1-2" data-name="Слой 1"><path class="cls-2" d="M293,111.48c-10.32,21.38-260.36,27.39-281.64,5.16C-8,96.44-.13,24.12,16.42,9.7c22.54-19.65,244.7-5.85,263,9.62C296.38,33.73,303.69,89.32,293,111.48Z"/><path class="cls-3" d="M292.16,107.7c-10.28,20.62-258.83,22.09-280,.66C-7.15,88.88.43,24.47,16.91,10.57c22.46-19,243.8-5.65,262,9.26C295.84,33.74,302.82,86.33,292.16,107.7Z"/><path class="cls-4" d="M289.06,105.88c-10.06,20-253.23,21.43-274,.64C-3.77,87.61,3.64,25.11,19.76,11.61c22-18.38,238.53-5.47,256.32,9C292.66,34.1,299.49,85.14,289.06,105.88Z"/><path class="cls-5" d="M20,106.9s113.43,19.87,256.26,2.34c0,0-92.79,8-134.07,0C72.12,95.66,38.44,91.64,20,106.9Z"/><path class="cls-6" d="M178.09,42a3.85,3.85,0,1,0,3.6,4.07A3.85,3.85,0,0,0,178.09,42Z"/><path class="cls-7" d="M177.62,44.75a1.07,1.07,0,1,0,1,1.13A1.06,1.06,0,0,0,177.62,44.75Z"/><path class="cls-8" d="M172.87,25.5a3.84,3.84,0,1,0,3.6,4.06A3.85,3.85,0,0,0,172.87,25.5Z"/><path class="cls-7" d="M172.4,28.25a1.07,1.07,0,1,0,1,1.13A1.07,1.07,0,0,0,172.4,28.25Z"/><path class="cls-9" d="M176,72.83a3.84,3.84,0,1,0,3.6,4.07A3.85,3.85,0,0,0,176,72.83Z"/><path class="cls-7" d="M175.48,75.59a1.06,1.06,0,1,0,1,1.12A1.06,1.06,0,0,0,175.48,75.59Z"/><path class="cls-10" d="M194,17.05a10.75,10.75,0,1,0,10.1,11.38A10.76,10.76,0,0,0,194,17.05Z"/><path class="cls-7" d="M192.74,24.77a3,3,0,1,0,2.79,3.15A3,3,0,0,0,192.74,24.77Z"/><path class="cls-11" d="M163.36,99.15a5.13,5.13,0,1,0,4.82,5.43A5.14,5.14,0,0,0,163.36,99.15Z"/><path class="cls-7" d="M162.74,102.83a1.42,1.42,0,1,0,1.33,1.51A1.42,1.42,0,0,0,162.74,102.83Z"/><path class="cls-12" d="M209,112.71a2.57,2.57,0,1,0,2.41,2.71A2.57,2.57,0,0,0,209,112.71Z"/><path class="cls-7" d="M208.65,114.55a.71.71,0,1,0,.67.75A.71.71,0,0,0,208.65,114.55Z"/><path class="cls-13" d="M136.8,68.62a2.57,2.57,0,1,0,2.41,2.72A2.58,2.58,0,0,0,136.8,68.62Z"/><path class="cls-7" d="M136.49,70.46a.71.71,0,0,0-.75.67.7.7,0,0,0,.66.75.71.71,0,0,0,.76-.66A.72.72,0,0,0,136.49,70.46Z"/><path class="cls-14" d="M172.43,108.93a1.91,1.91,0,1,0,1.79,2A1.91,1.91,0,0,0,172.43,108.93Z"/><path class="cls-7" d="M172.19,110.3a.53.53,0,0,0-.56.5.54.54,0,0,0,.5.56.53.53,0,0,0,.56-.5A.53.53,0,0,0,172.19,110.3Z"/><path class="cls-15" d="M142.68,107.35a4,4,0,1,0,3.76,4.25A4,4,0,0,0,142.68,107.35Z"/><path class="cls-7" d="M142.19,110.23a1.11,1.11,0,1,0,1.05,1.18A1.11,1.11,0,0,0,142.19,110.23Z"/><path class="cls-16" d="M81.12,114.74c.69-2.29-5.37-12.73-6.91-12.69s-.17,6.87.76,8.47S80.78,115.88,81.12,114.74Z"/><path class="cls-17" d="M272.55,20.24S107.14-13.48,19.17,11.94A67.41,67.41,0,0,0,7.9,36.77S35.72,54,88.35,55.87C133.66,57.51,177.77,26.84,216,23S272.55,20.24,272.55,20.24Z"/><path class="cls-16" d="M275.91,26.32c3.19.25,11.14,13.36,10.66,15.51s-10-4.66-11.53-8.27S275.91,26.32,275.91,26.32Z"/><path class="cls-16" d="M274.54,24.25c3.85-.79-3-6.38-8.86-7.77s-20.34-3-22-1.55S270.2,25.15,274.54,24.25Z"/></g></g></g></svg>