<svg xmlns="http://www.w3.org/2000/svg" xmlns:xlink="http://www.w3.org/1999/xlink" viewBox="0 0 643.3 357.76" preserveAspectRatio="none"><defs><style>.cls-1{isolation:isolate;}.cls-2{fill:url(#Безымянный_градиент_284);}.cls-3{fill:url(#Безымянный_градиент_88);}.cls-4{fill:url(#Безымянный_градиент_302);}.cls-5{opacity:0.5;mix-blend-mode:screen;fill:url(#Безымянный_градиент_228);}.cls-6{fill:#fff;}</style><linearGradient id="Безымянный_градиент_284" y1="180.94" x2="642.24" y2="180.94" gradientUnits="userSpaceOnUse"><stop offset="0" stop-color="#004ac2"/><stop offset="1" stop-color="#0083c2"/></linearGradient><linearGradient id="Безымянный_градиент_88" x1="322.18" y1="353.65" x2="322.18" gradientUnits="userSpaceOnUse"><stop offset="0" stop-color="#00eff1"/><stop offset="1" stop-color="#0098ff"/></linearGradient><radialGradient id="Безымянный_градиент_302" cx="323.22" cy="178.01" r="256.5" gradientUnits="userSpaceOnUse"><stop offset="0" stop-color="#0025ae"/><stop offset="1" stop-color="#008cca"/></radialGradient><linearGradient id="Безымянный_градиент_228" x1="12.42" y1="49.61" x2="570.96" y2="49.61" gradientUnits="userSpaceOnUse"><stop offset="0" stop-color="#23786e"/><stop offset="0.18" stop-color="#1e685f"/><stop offset="0.54" stop-color="#123e39"/><stop offset="1"/></linearGradient></defs><g class="cls-1"><g id="Слой_2" data-name="Слой 2"><g id="Слой_1-2" data-name="Слой 1"><path class="cls-2" d="M5.17,37.7C-8.76,54.93,8.49,321,21.2,342.48c11.82,20,583.94,20.77,606.75,0s16.22-305.43-5-324.6S39.85-5.22,5.17,37.7Z"/><path class="cls-3" d="M6.22,33.59C-7.7,50.81,9.55,316.9,22.26,338.37c11.82,20,583.94,20.77,606.75,0s16.22-305.43-5-324.61S40.9-9.34,6.22,33.59Z"/><path class="cls-4" d="M10.33,38.06C-3.36,55,8.48,304.38,26.19,333.59c11.82,19.52,572.5,26.6,598.88,0,29.49-29.72,15.87-296.17-5-315S44.44-4.15,10.33,38.06Z"/><path class="cls-5" d="M17,40.73s-27.83,38.73,53.52,49,298.2-47.63,369.24-59.47A1247.22,1247.22,0,0,1,571,15.6S105.1-12.25,17,40.73Z"/><path class="cls-6" d="M15.12,53.72s-2.17-8,5.07-14.8S66.82,18.83,70.33,22.17,31.22,55.89,15.12,53.72Z"/><path class="cls-6" d="M18.14,61.51c-3.46-2.12-9.66,7.54-2.33,11.35S22.38,64.1,18.14,61.51Z"/><path class="cls-6" d="M615.42,341.38c-3.74-1.55,15.1-20.67,16.89-19.26s-.63,12.62-3.47,15.15S617.94,342.41,615.42,341.38Z"/></g></g></g></svg>