<svg xmlns="http://www.w3.org/2000/svg" xmlns:xlink="http://www.w3.org/1999/xlink" viewBox="0 0 50.71 54.41" preserveAspectRatio="none"><defs><style>.cls-1{isolation:isolate;}.cls-2{fill:url(#Безымянный_градиент_14);}.cls-3{fill:url(#Безымянный_градиент_23);}.cls-15,.cls-4{mix-blend-mode:screen;}.cls-4{fill:url(#Безымянный_градиент_11);}.cls-5{fill:url(#Безымянный_градиент_14-2);}.cls-6{fill:url(#Безымянный_градиент_25);}.cls-7{fill:url(#Безымянный_градиент_14-3);}.cls-8{fill:url(#Безымянный_градиент_24);}.cls-9{fill:url(#Безымянный_градиент_14-4);}.cls-10{fill:url(#Безымянный_градиент_24-2);}.cls-11{fill:url(#Безымянный_градиент_14-5);}.cls-12{fill:url(#Безымянный_градиент_24-3);}.cls-13{fill:url(#Безымянный_градиент_14-6);}.cls-14{fill:url(#Безымянный_градиент_24-4);}.cls-15{fill:url(#Безымянный_градиент_11-2);}.cls-16{fill:#fff;}</style><radialGradient id="Безымянный_градиент_14" cx="183.44" cy="314.66" r="23.8" gradientTransform="translate(-304 -132.54) rotate(-33.39)" gradientUnits="userSpaceOnUse"><stop offset="0" stop-color="#afaeb7"/><stop offset="1" stop-color="#8e8caa"/></radialGradient><radialGradient id="Безымянный_градиент_23" cx="190.77" cy="314.65" r="23.77" gradientTransform="translate(-162.31 -289.47)" gradientUnits="userSpaceOnUse"><stop offset="0" stop-color="#c4c4c5"/><stop offset="1" stop-color="#adabba"/></radialGradient><linearGradient id="Безымянный_градиент_11" x1="173.77" y1="312.81" x2="206.56" y2="312.81" gradientTransform="translate(-304 -132.54) rotate(-33.39)" gradientUnits="userSpaceOnUse"><stop offset="0" stop-color="#c7a88d"/><stop offset="0.12" stop-color="#b79a82"/><stop offset="0.35" stop-color="#8d7764"/><stop offset="0.68" stop-color="#4a3e34"/><stop offset="1"/></linearGradient><radialGradient id="Безымянный_градиент_14-2" cx="190.77" cy="314.66" r="13" xlink:href="#Безымянный_градиент_14"/><linearGradient id="Безымянный_градиент_25" x1="190.07" y1="329.51" x2="190.07" y2="299.8" gradientTransform="translate(-304 -132.54) rotate(-33.39)" gradientUnits="userSpaceOnUse"><stop offset="0" stop-color="#a6c7c3"/><stop offset="1" stop-color="#adc0c7"/></linearGradient><radialGradient id="Безымянный_градиент_14-3" cx="-2910.9" cy="-860.11" r="2.2" gradientTransform="matrix(-0.52, -0.85, 0.73, -0.45, -852.81, -2849.26)" xlink:href="#Безымянный_градиент_14"/><linearGradient id="Безымянный_градиент_24" x1="-2912.77" y1="-860.36" x2="-2909.02" y2="-860.5" gradientTransform="matrix(-0.52, -0.85, 0.73, -0.45, -852.81, -2849.26)" gradientUnits="userSpaceOnUse"><stop offset="0" stop-color="#6bc7bd"/><stop offset="1" stop-color="#bda7c4"/></linearGradient><radialGradient id="Безымянный_градиент_14-4" cx="-2888.48" cy="-879.81" r="2.2" gradientTransform="matrix(-0.52, -0.85, 0.73, -0.45, -852.81, -2849.26)" xlink:href="#Безымянный_градиент_14"/><linearGradient id="Безымянный_градиент_24-2" x1="-2890.36" y1="-880.05" x2="-2886.61" y2="-880.2" xlink:href="#Безымянный_градиент_24"/><radialGradient id="Безымянный_градиент_14-5" cx="-2933.88" cy="-878.08" r="2.2" gradientTransform="matrix(-0.52, -0.85, 0.73, -0.45, -852.81, -2849.26)" xlink:href="#Безымянный_градиент_14"/><linearGradient id="Безымянный_градиент_24-3" x1="-2935.75" y1="-878.33" x2="-2932" y2="-878.47" xlink:href="#Безымянный_градиент_24"/><radialGradient id="Безымянный_градиент_14-6" cx="-2911.99" cy="-899.64" r="2.2" gradientTransform="matrix(-0.52, -0.85, 0.73, -0.45, -852.81, -2849.26)" xlink:href="#Безымянный_градиент_14"/><linearGradient id="Безымянный_градиент_24-4" x1="-2913.87" y1="-899.89" x2="-2910.12" y2="-900.03" xlink:href="#Безымянный_градиент_24"/><linearGradient id="Безымянный_градиент_11-2" x1="166.54" y1="294.84" x2="183.44" y2="294.84" xlink:href="#Безымянный_градиент_11"/></defs><g class="cls-1"><g id="Слой_2" data-name="Слой 2"><g id="Слой_1-2" data-name="Слой 1"><path class="cls-2" d="M38.79,18.37c7.64,11.59,11.11,23.27,3.92,30C42.11,49,38,51.49,37.3,52c-9.09,6-23.17.68-31.44-11.87S-1.75,12.49,7.35,6.5c.56-.37,5.51-3.75,6.12-4C22.54-1.84,31,6.61,38.79,18.37Z"/><ellipse class="cls-3" cx="28.45" cy="25.19" rx="19.72" ry="27.22" transform="translate(-9.17 19.81) rotate(-33.39)"/><path class="cls-4" d="M6.56,22.87l43.7,14.24.34-7L8.82,7.41S5.31,12.57,6.56,22.87Z"/><path class="cls-5" d="M37.45,19.26c4.53,6.86,4.17,15.08-.81,18.36a6.32,6.32,0,0,1-.56.33c-5,2.74-12.28-.2-16.64-6.82s-4.17-14.45.25-18l.56-.41C25.23,9.48,32.92,12.39,37.45,19.26Z"/><path class="cls-6" d="M36.29,20c4.34,6.58,4.19,14.41-.21,17.93-5,2.74-12.28-.2-16.64-6.82s-4.17-14.45.25-18C24.67,10.49,31.94,13.42,36.29,20Z"/><path class="cls-7" d="M41.91,14.47a2.06,2.06,0,0,1,2.75.89,2.07,2.07,0,0,1-.45,2.86,2.06,2.06,0,0,1-2.75-.9A2.06,2.06,0,0,1,41.91,14.47Z"/><path class="cls-8" d="M41.85,14.89a1.74,1.74,0,0,1,2.34.76,1.62,1.62,0,1,1-2.73,1.67A1.74,1.74,0,0,1,41.85,14.89Z"/><path class="cls-9" d="M15.84,4.17a2.05,2.05,0,0,1,2.75.89,2,2,0,0,1-.45,2.85A2.06,2.06,0,0,1,15.39,7,2.06,2.06,0,0,1,15.84,4.17Z"/><path class="cls-10" d="M15.78,4.58a1.76,1.76,0,0,1,2.35.76,1.75,1.75,0,0,1-.39,2.44A1.76,1.76,0,0,1,15.39,7,1.76,1.76,0,0,1,15.78,4.58Z"/><path class="cls-11" d="M40.84,42.09a2.23,2.23,0,0,1,2.3,3.75,2.23,2.23,0,0,1-2.3-3.75Z"/><path class="cls-12" d="M40.78,42.51A1.9,1.9,0,1,1,40.39,45,1.76,1.76,0,0,1,40.78,42.51Z"/><path class="cls-13" d="M13.69,33.07a2.06,2.06,0,0,1,2.75.89A2.06,2.06,0,0,1,16,36.82a2.23,2.23,0,0,1-2.3-3.75Z"/><path class="cls-14" d="M13.63,33.49a1.9,1.9,0,0,1,2,3.2,1.9,1.9,0,0,1-2-3.2Z"/><path class="cls-15" d="M.52,26.85l6-4S4.78,16.68,8.21,7.81L2.38,12S-1.34,20.27.52,26.85Z"/><path class="cls-16" d="M6.29,20.25c.1.66,2.9-4.63,2.67-7s-.46-4-1.06-4S5.64,16.12,6.29,20.25Z"/><path class="cls-16" d="M49.66,37.13c-1.31,1.47-.09-5.09.43-5.18S50.85,35.79,49.66,37.13Z"/></g></g></g></svg>
