<svg xmlns="http://www.w3.org/2000/svg" xmlns:xlink="http://www.w3.org/1999/xlink" viewBox="0 0 255.74 348.65" preserveAspectRatio="none"><defs><style>.cls-1{fill:#fff;}.cls-2{fill:none;}.cls-3{clip-path:url(#clip-path);}.cls-4{fill:#fbea00;}.cls-5{clip-path:url(#clip-path-2);}.cls-6{fill:#c4a286;}.cls-7{fill:#dfc5a0;}.cls-8{fill:#716360;}.cls-9{fill:#5e5351;}.cls-10{fill:#231f20;}.cls-11{fill:url(#Безымянный_градиент_26);}.cls-12{fill:#d0d2d3;}.cls-13{fill:#4b7fbb;}.cls-14{fill:#444445;}.cls-15{fill:#404041;}.cls-16{fill:#bfd8f0;}</style><clipPath id="clip-path"><path class="cls-1" d="M.26,124.34C4.56,59.24,38.68-4.38,124.37.24c74.19,4,126.19,48,123.58,112.7,0,.18.25.22.33.37a10,10,0,0,1,.78,1.54c.18.5-.21,1.57.18,1.86s1.65-.23,2.19.11c1,.6,1.92.54,2.72,1.21a5,5,0,0,1,1.59,3.41c0,2.5-4.34,7-6.36,10.21-.52.83-1.2,1.42-1.26,2-5.56,65.54-58.64,108.76-123.75,114.75C50.56,255.24-4.26,192.73.26,124.34Z"/></clipPath><clipPath id="clip-path-2"><path class="cls-2" d="M4.44,124.34a120,120,0,0,1,239.59-11c0,.17.24.22.32.36a10.31,10.31,0,0,1,.75,1.49c.18.48-.2,1.52.18,1.8s1.59-.22,2.11.1c.93.58,1.86.53,2.63,1.18a4.83,4.83,0,0,1,1.54,3.29c0,2.43-4.19,6.77-6.15,9.88-.5.8-1.17,1.37-1.22,2a120,120,0,0,1-239.75-9Z"/></clipPath><linearGradient id="Безымянный_градиент_26" x1="3426.2" y1="-247.13" x2="3438.57" y2="-247.13" gradientTransform="matrix(-0.96, 0.27, 0.27, 0.96, 3485.07, -567.11)" gradientUnits="userSpaceOnUse"><stop offset="0" stop-color="#c7652b"/><stop offset="0.61" stop-color="#e58d27"/><stop offset="0.93" stop-color="#f19c26"/><stop offset="1" stop-color="#f19c26"/></linearGradient></defs><g id="Слой_2" data-name="Слой 2"><g id="Слой_1-2" data-name="Слой 1"><path class="cls-1" d="M.26,124.34C4.56,59.24,38.68-4.38,124.37.24c74.19,4,126.19,48,123.58,112.7,0,.18.25.22.33.37a10,10,0,0,1,.78,1.54c.18.5-.21,1.57.18,1.86s1.65-.23,2.19.11c1,.6,1.92.54,2.72,1.21a5,5,0,0,1,1.59,3.41c0,2.5-4.34,7-6.36,10.21-.52.83-1.2,1.42-1.26,2-5.56,65.54-58.64,108.76-123.75,114.75C50.56,255.24-4.26,192.73.26,124.34Z"/><g class="cls-3"><path class="cls-1" d="M59.89,256.82s-2.37-.95-2.85,4.5,3.32,11.62,7.83,10.68,5.69-3.09,5.69-3.09l-1.9-18s-5.21,1.06-6.16,3.37A3.78,3.78,0,0,1,59.89,256.82Z"/><path class="cls-1" d="M229.09,191.72s-3.09,24.37-7.37,28.16-15.84,1.89-22.26.75-14.55-6.82-9.84,2.66,14.92,21.2,15,35.61c.05,11.82-3,26.15-9,34.1s-2.73,18.32-5.29,26.66,1.18,13.28,1.18,13.28,17.79,16.84-2.84,15.65c-9-.52-28.15-.28-32.86-.28s-7.14-6-2-10.56,3.66-22.15,2.84-30.42c-2.08-21-11.14-23-11.14-23l-24,7.54s-18.84,11.36-22.26,18.94-15,27-15,27-6.85,6.44-9.84,7.57-17.13,2.66-23.55,2.66-19.65-1.75-15.41-13.64C40.32,320.91,51.17,325,55,322s15.71-36.93,17-38.45,2-7.24-.16-14.44-7.25-22.31-7.25-22.31-3.85,1.51-10.27-6.06-12-9.86-9-26.53,3.43-29.17,10.7-37.51,16.7-17.05,20.55-17.43,13.27-4.16,29.54,0,45.38,4.17,55.22,4.17,13.27,2.65,18,7.2,10.28,8.34,19.27,4.55,4.49-12.24,13-18.31,19.78,2.09,21.92,5.5Z"/><path class="cls-1" d="M164.7,344.86c-6.55-.16-7.47-6.41-6-10s18.49,1.06,7.11-4.81c-10.73-5.53-3-22.77-4.62-26.79-5.22-13,5.46-14,11.2-18.22,6.09-4.45-19.28-2.08-5.16-6.74,15.76-4.95,10.14-4.8-7.82-2.14-19.21,2.85-39.81,3.53-49.27,2.94-10.89-.69-38.95-4.27-21.34-.62.39.14,23.51,4.68,15.24,5.81-9.44,1.28-21.82-.83-15.42,2s12.45,3.56,7.83,7.47S71,310.35,80.58,310s18.56-2,14.94,4.44c-2.56,4.54-12.53,21-19.39,24-6,2.67-11.74,2.86-17.07,3.21s-8.54-6.4-10-3.55-8.54,2.84-8.89,1.06-6.76-2.13-5.34.36-1.78,6.69,10.32,7.47,26.67.71,30.94,1.07S90.84,347,91.9,341.31s13.88-31.72,18.74-35.05c12.45-8.54,21.75-16.82,28.15-16.82s10.41-6.55,11.51,3.59c1.24,11.56,3,28.17,2.31,32.44s-1.37,9.34-2.11,13.72-2.51,8.07,6.38,8.76,14.94-1.08,19.56-.36S172,345,164.7,344.86Z"/><path class="cls-1" d="M200.28,244s1.42,6.05,0,11-6.41,10.67-11,13.16-11.18,8.89-3.63,6.05,8.58.58,3.63,7.47c-11.27,15.65-1.92,28.69-8.66,32.72-7.78,4.66,5.48-1.82,5.63,10.85.1,7.55-9.24,7.65-5,7.29,16-1.33,19.82,16.81,16.55,10.18s-5.94-14.8-4.63-32.23c1.21-16.1,7.12-23.48,10.32-34.86S206,260.73,200.28,244Z"/><path class="cls-1" d="M59.06,325a7.93,7.93,0,0,0-3.32-1.43c-2.06-.35-4.73,0-3.64-.4,3.88-1.49,6.62-11.19,8-14,3.55-7.47,12-25.6,12-25.6a35.59,35.59,0,0,0-.64-11.74,87.2,87.2,0,0,1-2.67-15.66c-.34-5,28.12.76,22.9,8.51C87.69,270.45,73,272.33,74,276a23.94,23.94,0,0,0,3.52,7.77c.71,1.49-3.57,2.67-8.9,11.92-2.41,4.17-5.87,12.51-3.55,17.67C67.7,319.17,59.13,311.42,59.06,325Z"/><path class="cls-1" d="M73.82,157.22l2.67-2.37,26.08,10.67,75.89-15.65,11.86-.48-2.72,3.8s-23.84,7.59-24.79,8.06-27,33-27.62,33.67-21.47,31.31-21.47,31.31l-8.78,6.16-27-57.86Z"/><path class="cls-1" d="M179.35,144.84c1.18,0,3.65.63,6.27.62C183,145.48,180.57,144.84,179.35,144.84Z"/><path class="cls-1" d="M116.26,34.37a1.09,1.09,0,0,1-.73.17,1.06,1.06,0,0,0,.67-.18c3.06-2,5.54-3.39,9.16-3C121.78,31,119.31,32.37,116.26,34.37Z"/><path class="cls-1" d="M133.3,36.1c2.15.19,5.94-.78,7.33-.65h0C139.22,35.34,135.43,36.32,133.3,36.1Z"/><path class="cls-1" d="M186.08,132.89c.59,5.19,2.85,17.26-1.1,17.57a145.88,145.88,0,0,0-20.28,2.73c-14.12,6.34-21.5,18.73-52.39,17.71-15.29-.51-30.69-12.31-30.44-12.33-5.67-3.12-9.72-3.44-10.39-4-4.74-4.21-5.86-6.07-9.83-11.12-4.88-6.2-3.89-35.56-1.53-41.11,3-7.13.56-11.35.66-12.41.33-3.85.77-7.66,1.43-11.47,1.1-6.32,2.36-13.79,7.12-17.83a80.79,80.79,0,0,0,9-9c.33-.54,1.23-3.22,2.62-4.44,2.14-1.88,6-2.75,6.71-3.39,6.61-6,14.83-12.67,21.88-12.68,2.32,0,5.21,4.43,6.91,3.31,3.26-2.14,5.87-3.57,9.89-2.94,2.35.37,4.07,2.82,6,4.31,1.41,1.1,6.83-.44,8.56-.28,8.16.74,11.15,5.22,12.08,6.2a8.8,8.8,0,0,1,1.32,1.41c3.39,5.75,6.13,1,11.89,3,3.29,1.18,6.66,2.9,8.57,5.93,6.87,10.9,7.6,5.59,9.87,12,1.45,4.1-2.55,9.87-1.63,13.23,1.22,4.47,7.52,7,8.24,11,1.39,7.7.69,15.07-.81,22.78C189,118.06,185.26,125.78,186.08,132.89Z"/><path class="cls-1" d="M77.12,53.42a41.39,41.39,0,0,1-4.88.55c-2.53.11-6.21,1-11.57,6S45.77,75,43.61,77.55s-6.8,9.18-2.44,14.34,8.61,10,9.2,12.8.05,9.91,2.65,10.74S62.2,109.21,62.25,98c0-1.9-1.44-17.08,2.48-28.2C68.3,59.65,77.12,53.42,77.12,53.42Z"/><path class="cls-1" d="M213.91,94.71C204.87,78,198.72,73.12,194.17,69s-9.57-6.4-9.58-4-1.4,5.1-1.63,8.7.54,5.23,3.36,9.14,5.32,7,5.38,12.46-1.71,18-3.79,27.81-3,13.94-3,13.94-5,14.23,9.66,4.32c10.45-7,12.82-14.57,17.81-17.87C222.52,116.8,220.14,106.26,213.91,94.71Z"/><path class="cls-1" d="M198.61,79.82s-3.42-8.48-7.14-9-7.83.88-7,3.88,11.48,11.17,13.85,15.54,3.46,8,3.3,15.92-6.42,16.57-3.28,19.06,6.93.56,8.24-.43c9.86-7.43,11.79-4.78,3.57-.07-4.76,2.72-12.34,11.26-14.18,12.44-5,3.2-3.81-5-2.73-8.93s3.37-16.09,3.78-19.14-1.62-8.92-3.42-.19-4,16.63-5.61,26.57,5,5.51,7.41,4.5-.7.85-3.8,2.91-7.51,4-7.39-1.29,2.57-6.85,2.25-12.35c-.39-6.77-2.24-10.12.26-24.2,2.56-14.43-4.12-20.31-3.21-26.08.15-1-1.22-2.61.07-7.4a19.26,19.26,0,0,0,.81-7.54A18.5,18.5,0,0,1,194.17,69c2.58,2.72,9.72,7.82,20.32,23.62,3.75,5.58,4.78,15.54,4.63,17.51-.31,3.9-12.47,17.93-12-6.29.34-17.57-7.28-26.47-6.38-23.34S201.39,90.52,198.61,79.82Z"/><path class="cls-1" d="M75.32,54.64S70.17,60,68,61.67,63.84,66,63,71.54s-2.6,12.58-2.43,14.33-1.08,4.31-2.18,6.95-4.62,10.08-3.63,6.58,5.33-16.45,2.75-13-3.48,12.55-8.15,7S42.36,82,45.6,80.89s9.13-6.7,8.09-8.13-3.83.46-4.58.87S52.34,68.1,56.5,64s10-9.23,14-9.73S77.05,52.89,75.32,54.64Z"/><path class="cls-1" d="M108,74.58A116.46,116.46,0,0,1,126.1,86c3.38,2.67,11.73,6.38,17.5,14,7.62,10.11,12.79,25.13,16.32,34.19,8.15,20.93-11,28.54-28.38,31-12.11,1.69-21.47,3.74-31.54,1.63C85.26,163.76,65.76,152,61.76,138.75c-3-10,4.37-26.07,9.62-37.55C78.27,86.12,84.52,73.34,108,74.58Z"/><path class="cls-1" d="M78.93,100.49s4.72-7.13,6.76-5.89c1.28.76,1,3.53,3.91,4.9,10.44,4.83,9.4,19.14,11.81,19.21,2.85.08-2-15.86,4.77-15.32,6.39.5,13.19-4.32,14.47-7.07,7.49-16,26.27,4.69,24.83,20.14-1.12,12-12.5,25.73-9.51,33.1s14.36,12.55,21,7c5.17-4.29,9-16.43,5-24.59-2.45-5-.64-17.49-13.33-33.11-5.48-6.75-13.16-9.6-19.7-12.61-8.87-4.08-11.76-12.16-26.18-12-6.14,0-16.9,4.57-20.51,9.7s-16.5,27.64-19.56,37.77c-5.37,17.82,6.25,23.83,9.08,24.67C97.92,154.12,66.52,116.1,78.93,100.49Z"/><path class="cls-1" d="M63.19,81.93c.07,3.76-.4,7,1,8.92,2.31,3.23-2.05,13-.57,12.43,1-.37,5.17-7.28,4.36-4.73-7.14,22.5-1.25,6.4-1.25,6.4s6.84-11.62,11.37-19.84c3.61-6.54,7.81-6.84,15.84-12.3,3.77-2.56,12.76-3.61,18.72-2.1,7,1.78,14.39,9.77,21.07,13.43,6.84,3.75,16.93,7,21.37,14.17C163,111,164.86,116.8,166,112.4c1.06-4-10.17-19,7-6.12.55.41,11.31,5.74,7.77,3.34C160,95.48,170.73,97.56,176,100c8.62,3.89,4.26.33-2.26-3-3.45-1.79-15.66-14.08-1.81-13.35,3.53.19,6.52,7.34,9.07,11.78,7,12.11-.08-3.58-3.93-11.83-1.71-3.67-7.28-4.4-13.74-8.47-6.66-4.2-9.3-11.4-19.55-10.1-9.16,1.17-5.78,4.62-6.46,11.88-.46,4.81-7.6-4.06-6.34-10.28.33-1.62.05-2.62,1.48-4.74,3.51-5.19,7.19-6,12.07-6.27s11.19,3.73,14.58,7.47,16.53,10.34,17.92,10.41c2.27.13-6.3-2.91-10.12-6.77s-7.32-9.82-16-11.76c-6.05-1.35-11.51-1.35-15.57,1.23-5.14,3.28-6.75,9.68-6.75,9.68A7.2,7.2,0,0,1,126.34,69c-1.17.73-1.38.38-2.19.08a21.43,21.43,0,0,1-4.68-2.26c-.65-.76-2-4-1.09-10.3,1.08-7.27,4.11-11,9.31-12.26s7.13-2,8.84-3.46c2.23-1.89,2.59-3.05,6.67-1.75S151.39,42,151.39,42s1,0,.59-.88c-.67-1.33-3.5-3.86-8.65-5.23-4.3-1.14-5.15.14-6.87.41s-5.36-1.37-4.58.89c.94,2.71-2.22,4.37-4.75,4.93a30.77,30.77,0,0,0-4.72,1.56c-1.61.67-3.07,1.44-3.94.25s-2.42-3-2-4.77c.3-1.39-.69-2.92,1.27-4.15a6.78,6.78,0,0,0,2.49-2.85c-1.51.45-4,2.69-4.87,2.37-2.88-1-1.55-2.77-7-3.1-.34,0-3.24.44-3.54.47-1.35.29,5.33-.29,7.62,2.41,1,1.17-.5,2,.36,6,.4,1.83,1.14,3.24,1.54,5.13.88,4.19.11,6.56-1.19,11.92-.66,2.72-1.12,5.6-4.08,7.07-3.45-.1-6.93-.25-10.45,1-7.65,2.64-2.44-3-10.18-5.78-5.83-2.07-13.71-1.08-10.16-.51,3.94.63,14.87,5.39,2.38,3.23-4-.69-8.44,1.1-13.14,4.73C62.33,70.94,63.13,79.13,63.19,81.93Zm40.08-22.68c-2,0-1.16-4.71-1.52-8s-3.15-3.48-5.82-4-4.6,1.93-8,3a56.39,56.39,0,0,0-10.53,4.88s-1.75-.1.8-2.92c1-1.18,1.18-3.15,1.77-4.22s7.15,1,12.17-1.7c2.45-1.33,7.44-2.38,10.05.13C106.55,50.64,106.28,59.29,103.27,59.25Z"/><path class="cls-1" d="M104.72,94.47c6.41,3,6.26-17.33.74-14.39-3.33,1.77-2.14-1.38,1.86-1.85,2.51-.29,6.85,1.48,7.81,5.36.81,3.23-.62,10,1.77,4.4a7.69,7.69,0,0,0-3.11-9.56c-5.73-2.62-7.8-3.32-10.92-3.11-5.65.37-9,1.34-11.53,3.48-1.5,1.28-2.82,7-1.49,7.85.67.43,1.34-7.08,4.87-8.19,5.85-1.85,6.34,2.81,1.87,2.27-4-.49-6,6.93-3.9,12A2.68,2.68,0,0,0,97,93.84C98.59,92.58,100.66,92.57,104.72,94.47Z"/><path class="cls-1" d="M142.57,80.51c.73-.94,8.09,2.29,10.82,3.52,2.18,1,4.91,3.67,6.88,7.55C168.53,107.76,141.76,81.57,142.57,80.51Z"/><path class="cls-1" d="M85.67,71.43c.7-2.11-.59-2.46-1.83-3.73-2.39-2.44-5.93-2-7.63-1.71-.63.08-10.1,1.55-12.15,9.36S69,91.66,71.83,91c.62-.16-.06-.78,1.67-4.62A27.58,27.58,0,0,1,78,78.86C82.33,74.37,84.74,74.26,85.67,71.43Z"/><path class="cls-1" d="M81,71.52s-4-5.2-11.08-1.72-6,13.44-3.28,16.33-1-3,0-7.41c1.19-5.54,4.56-6.92,7.72-7.62S82.12,72.87,81,71.52Z"/><ellipse class="cls-1" cx="72.32" cy="83.14" rx="2.01" ry="1.87" transform="translate(-16.22 148.73) rotate(-85.51)"/><path class="cls-1" d="M137.59,80.52s3.69-1.5,16.23,7c9.5,6.43,9.74,12.18,9.74,12.18Z"/><path class="cls-1" d="M185.09,145.69c-.21-6.55,1.2-14,2.07-18.67s-1.89-8.71-3.22-.26-1.58,21.77-4.37,22.93-1.94-13.27-4.83-7.41-5.31,6.21-8.43,7.65c-6.18,2.84-5.07,4.13-10.68,7.2a54.73,54.73,0,0,1-11.36,4.5c-8.93,2.44-5,6.05,3.54,1.55,8.18-4.29,12.3-7.23,15.83-8.81,6.19-2.77,12.47-2.32,14.76-2.66S185.34,153.66,185.09,145.69Z"/><path class="cls-1" d="M143.23,72.4c.52-2.1,1.69-3.44,4.5-2.86a17.49,17.49,0,0,1,7.55,3.8c2.35,2,5.5,6,1.5,3.69C149.61,72.9,142.7,74.5,143.23,72.4Z"/><path class="cls-1" d="M129.16,115.18c-.16-1.82-.61-6-2.09-5.16-1.12.63-.47,8.56-10.12,15.26-4.15,2.89-15.2,2.74-20.79,1.23-3.09-.84-.68,2.88.38,4.31,4.52,6.06,19.57,9.74,25.39,3.77C126.4,130,129.77,122,129.16,115.18Z"/><path class="cls-1" d="M120.68,132.36c1.59,1.33,2.65,2-2.13,4.47-2.56,1.33-7.65,1.89-8.83.16-1.62-2.37,4.38-1.18,6.06-2.09C118.67,133.34,118.34,130.39,120.68,132.36Z"/><path class="cls-1" d="M103.23,127.42a33.84,33.84,0,0,0,13-1.84,25.4,25.4,0,0,1-13.84,3.56c-6.41-.15-7.56-2.72-7.56-2.72A56.73,56.73,0,0,0,103.23,127.42Z"/><path class="cls-1" d="M121.9,139.59c-4.21,3.59-9.7,5.3-16-.19-.87-.75,3,3.31,4,3.88a10.54,10.54,0,0,0,14.6-4.21C131.17,126,125,137,121.9,139.59Z"/><path class="cls-1" d="M113,173.34s4,5.7,5.45,10,1.42,7.59,4.63,3.32,16.71-15.41,3.67,1.43S109,215.79,108.5,224.57,163,165.32,163,165.32l10.13-12.87s-20.09,6-26.25,12.36-24.43,19.68-25.38,18.49S113,173.34,113,173.34Z"/><path class="cls-1" d="M111.94,172.87s-4.24-.47-6.21,2.85-6,10.9-6,10.9L84.55,176.19,72.46,155s.91-.58,5.72,2.32c6.34,3.81,3.29,11.29,9.69,17.22s10.91,6.88,10.91,6.88S104.94,171.45,111.94,172.87Z"/><path class="cls-1" d="M114.88,211.79s-3.34-18.5-2.11-18.53c3.61-.08,6.17.79,5.69-5.21s-2.17-13.89-5.45-14.71c-4.06-1-7.28,1.13-11.15,5.7-4.19,5-4.5,7.87-2.84,9.86s3.55,2.23,3.55,3.65-2.91,5.93-3.94,10.44-2.22,7.11-.56,10.19S105.73,226,105.73,226l5.38-1.19Z"/><path class="cls-1" d="M104.94,263.22s11.62,3.56,30.83,4,41.93-2,41.93-2,10.48-3.73,12.62-2.76,2.84,3.59-1.07,5.72,3.67,4.74,7.94-2.61,5-16.6,4.27-19.68-88.93,5.93-97.7,9.72S104.94,263.22,104.94,263.22Z"/><path class="cls-1" d="M236.6,178.1c-2.57-1-5.34-1.54-8-2.28l-16.94-4.71c-5.64-1.57-5.58-.9-8.1-2.77-1.08-.81-3.41-.53-4.6-1.75-10.08-10.32-15.18-15.77-27.73-13.7-2.08-.37-8.39,2.91-12.37,5.36C140.94,169.3,120.36,199,109.21,223c-1,2.14-14.39-12.81-20.27-32.37-1.76-5.84-5.46-23.33-9.39-28-4.21-5-7.91-9.46-9.81-9.87-6-1.28-12.17-1.81-24.52,14.72-7.09,9.48-20.44,21.16-23.44,30.69C20,204,37.08,221.81,36.5,227.83c-.68,7,5.45,6.79,8.61,13.13a34.34,34.34,0,0,0,12.75,13.76c2.28,1.4,6.11.41,7.11-2.22,1.18,5,.82,9.44,3.51,15,1.36,2.8.87,6.32,3.72,5.3l34.36-12.41c2.25-.81,5.28-2.25,7.27-2.28,2.6,0,5.29,1,7.87,1.49A143,143,0,0,0,139.92,262c5.92.41,11.85.54,17.78.58a154.7,154.7,0,0,0,16.82-.32c5.82-.59,11.41-2,16.34-5.3a58.75,58.75,0,0,0,6.74-5.34c2.1-1.89,4.63-3.84,5.48-6.66a7.24,7.24,0,0,0-.29-4.85,4.72,4.72,0,0,0,0-.76c-.18-9.17-9-13.92-5.58-11.84,13,7.83,26.33,1.23,33.44-26.14C232.05,196.07,240.59,179.59,236.6,178.1Z"/><path class="cls-1" d="M213,169.16s-8-3.93-4.77-8.41c0,0,.57-1-3.58-4.48s-10.22-11.08-9.2-19.8,3.76-10.66,8.3-9.12c2.71.92,4.68,3.93,3.95,6.64s-1.26,5.89-.1,7.09,5.16-.82,6.74-2.62,4.31-5.61,2.17-10.73c0,0-1.37-1.7-2.71-.76a6.81,6.81,0,0,1-9.12-1.73c-3.92-4.83,2.39-9.2,5.51-11.15s10.23-4.44,13.94-.83,3.55,5.46,3.55,5.46a46.89,46.89,0,0,1,4.56-5.42c1.41-1.38,4.33-4.68,12.05-2.7,3.83,1,5.26,4.38,4.7,5.65-.36.81,2,.33,3.08.71,2.88,1,5.4,3.86,2.18,7.79a55.39,55.39,0,0,0-9.07,15.2c-1.07,3-1.24,12.8-7.5,17.67s-4,5.72-4,5.72,1,4.41-4.12,6.5S218.48,170.68,213,169.16Z"/><path class="cls-1" d="M199.36,149s4.22,5.09,8.21,6.86,6,3.38,5.61,2.11-2.28-4.25,1.25-1.81,6.65,4.08,11.16,2.85,10.28-4.27,13-8.86,2.4-7.42,2.12-8.88.21.1,2.15-2.76,10.94-14.85,10.89-17,2.92-1.76,1.45,1.3c-1.15,2.42-4.91,6.59-7.69,12a45.35,45.35,0,0,0-3,7.92s-.81,5.94-2.89,9.9-8.86,7.94-8,10.69-2.39,7.28-9.17,7.64-14.24-2.19-8.48-1.35,9.53-.88,11.43-2.38,0-2.16-2.3-2.33-3.93-1.12-.54-1.51-6.17-.53-10.4-1.33-9.49-5.23-12.78-8.63S196.3,145.52,199.36,149Z"/><path class="cls-1" d="M249.13,116.45s.05-5.9-6.94-.37c-4.33,3.42-6.46,7.74-8.29,12.64-2,5.48-1,7.27-2.69,6.34s-5.17-2.48-7-2.44-5.05,1.12-1.13,1.43a33.82,33.82,0,0,1,10.82,3.13c2.26,1.14,4.49,1,2.31-.71-1.27-1-1.76-3.26.7-8.92s5.09-8.39,5.75-8.9C246.08,116,247.08,116.91,249.13,116.45Z"/><path class="cls-1" d="M223.53,124.9s3.5-5.46,1-9.19-2.72-4.17-.48-2.45,5.06,3.77,2.37,7.64C224.72,123.4,220.24,134,223.53,124.9Z"/><path class="cls-1" d="M217,123.56c-.71,1.53-3.47,3.08-8.74,2.25-3.64-.57-2.09,1.23-1.07,1.56a8.67,8.67,0,0,0,3.69.6,9.67,9.67,0,0,0,3.5-1.27c-.35.15.44-.11,1.23.31s1.18,1.66,1.18,1.66a4,4,0,0,1-.07-2.79C218.68,121.48,218,121.39,217,123.56Z"/><path class="cls-1" d="M205.7,137.43c-3.56,4.49,2.46,5.62,4.4,6.55s2.6.46.48-1.54-3.85-2.84-3.09-6.51c.35-1.68.89-5.42-1.2-6.83-.31-.2.71,1.36.61,3.3S206.82,136,205.7,137.43Z"/><path class="cls-1" d="M233,180s1.2,5.34-6.87,14.94-11.29,18.5-7.9,16,3,4-2.66,8.21-10.31,6.79-18.85,1.78-11.74-8.21-15.3-11.06-6.4-2.49,0,4.27,6,11.09,1.06,8.57-13.15-1.1-3.9,3.88S196.72,238,192.81,238s-11.39,1.06-5.34,4.26,8.69,5.34-4.55,10.32S167.55,260,153,259.66s-17.05,2.66,2.25,2.61,22,1.72,33.8-4.23,14.58-11.42,14.58-11.42,2.37-2.37-.24-5.45-4.27-4.27-3.56-5.69,9.75,4.3,6.85,2.34-6.37-9.22-1.63-8,11.43-1.35,15.32-6,11.56-24.07,14.36-33,5.51-12.47,1.9-12.72S233,178.14,233,180Z"/><path class="cls-1" d="M195.06,161.61c-2.85-2.38-6.17-4.15-6.17-5.34s.33-8.89-4-7.5c-6.91,2.22-13.62,4.12-13.62,4.12s4.59-2,7.34,3.14c1.89,3.56-6.5,9.06-6.5,9.06.07-1-3.79,3.63.21,3,4.45-.67,13.76-10.32,20.16-2.55,4.44,5.38-2,19.19-2.59,20.68-1.27,3.53-7.18,11.48-9.5,15.78-3.09,5.7,8.55-8.34,10.46-10.67-.43,1.2-.76,2.12-1,2.63-1.32,3.41-9.15,19.07-3.1,11.6s7.24-2.31,7.71,2.75,6.87,20.37,4.38,5.78-2.49-25.25-.71-20.63,2.49,3.06,2.49-10.67c0-6.8,4.7-13.75,2.94-14.49C197.84,165.93,197,163.24,195.06,161.61Z"/><path class="cls-1" d="M172.29,168.13l-.21-3A11,11,0,0,0,172.29,168.13Z"/><path class="cls-1" d="M169.45,170.5l-19.92,10.2,2.68,9.24s-38.49,33.44-38.49,36.29-3.56,9.48.47,7.82,5.69-2.84,8.54-.71,5.62,5.93,2.33,9.49-5,3.08,0,4.5,4.52,2.37-1.51,2.14-19.55-.52-4.38,2.11,2.37,3.34,2.37,3.34-.1,2.14,13.65,3.56,6.51,2.13-2,1.9-18.73-3.56-18.73-3.56a15.79,15.79,0,0,1-8.06-15.18c.71-10.91.95-13.52,4.74-16.84s38.42-38.18,38.42-38.18l-1.66-7.35,20.39-11.85S178.46,159.12,169.45,170.5Z"/><path class="cls-1" d="M135.54,225.28s3.08.71,14.22,0a74.94,74.94,0,0,0,19-3.56s.94,9,.94,11.86-3.79,3.56-4-1.66-5,1.18-5-1.9-9.72-1.66-14.7-.47-16.6.78-8.06-.8S127,225.52,135.54,225.28Z"/><path class="cls-1" d="M57.16,197.36c-1.43,5.35-3.52,15.85-3.77,21.21-1.45,31.24-11.52,23.2-9.63,29.61s20.42,25.07,21.39,27.37-2.2,10.08,4.69,7.59l22.83-8.24c8.54-3.08,21.63-9.39,12.21-6.78s-26.25,7.35-29.09,7.35-5-2.61,1.66-4,3.2-3.11-4-4-14.79-17.08-9.1-17.31a60.06,60.06,0,0,0,13.76-1.9c4.74-1.19,12.57-5.93,3.56-3.56s-14.25,6.41-15.9,1.19-2.36-9.25-3.08-18.26-3.32-22,.72-12.69,9,17.91,5.21,6.52-10.2-19.42-3.79-18c6.72,1.47,7.06.88,2-1.25C59.22,199,60,186.69,57.16,197.36Z"/><path class="cls-1" d="M73.17,163.62s-.48,14.47-1,17.08-.47,4.5,2.61,3.79,3.87,3.08,2.29,9.25,4.35,16.36,9.21,20.87,19.4,9.72,19.4,9.72S84.55,213,80.52,201.09s1.19-18.26-.24-18.73-7.59.71-5.93-5.93,1.15-16.2.29-18.17C70,147.62,60.48,152.08,56,155.4s-11.72,14.85-19.35,22.34c-11,10.77-18.58,23-17.16,33.65s28.56,35.94,33.3,39,10,7.9,10.91,2.13-4,.47-10.67-11.86S18.36,211.26,28.73,197.5c14.58-19.35,14.94-25.7,31.2-39.42C63.91,154.72,73.32,159.6,73.17,163.62Z"/><path class="cls-1" d="M108.5,194.84s1.67,8.3,1.78,11c.45,10.76-1.07,17.17-1.07,17.17l4.16-8.72S109.74,187.63,108.5,194.84Z"/><path class="cls-1" d="M203.57,168.34l.39-4.54s11.2,2.39,17.18,3.51,17.2,1.29,17.2,1.29l-2.85,9.25s-21.26-6-26.41-7A13.87,13.87,0,0,1,203.57,168.34Z"/><path class="cls-1" d="M234.11,165.09s4.85,1.49,4.23,3.51l-2.85,9.25L214.68,172s-2.75-1.78,4.18,0,13,.67,13.87-.51-1.95-2.42.27-2.69Z"/><path class="cls-1" d="M112.77,178s3.08,8.6,1.78,10.15-3.08,3-.59,2,2.13-5.81,1.3-8.65S112.41,174.28,112.77,178Z"/></g><circle class="cls-4" cx="124.88" cy="123.42" r="120.71"/><g class="cls-5"><path class="cls-6" d="M62.12,252.49s-2.3-.92-2.76,4.35,3.21,11.24,7.57,10.33,5.51-3,5.51-3L70.6,246.75s-5,1-6,3.27A3.65,3.65,0,0,1,62.12,252.49Z"/><path class="cls-7" d="M225.78,189.52s-3,23.57-7.12,27.23-15.32,1.83-21.53.73-14.08-6.59-9.53,2.57S202,240.56,202.1,254.5c0,11.43-2.9,25.29-8.7,33s-2.64,17.72-5.12,25.78,1.14,12.85,1.14,12.85,17.21,16.29-2.75,15.14c-8.75-.5-27.23-.28-31.78-.28S148,335.17,153,330.77s3.55-21.42,2.75-29.42c-2-20.35-10.78-22.26-10.78-22.26l-23.16,7.3s-18.22,11-21.53,18.32-14.49,26.14-14.49,26.14-6.62,6.24-9.52,7.34-16.57,2.56-22.78,2.56-19-1.69-14.91-13.19c4.66-13.07,15.16-9.11,18.88-12s15.2-35.73,16.44-37.2,1.92-7-.15-14-7-21.59-7-21.59-3.73,1.47-9.94-5.86-11.6-9.53-8.7-25.66S51.37,183,58.41,175s16.14-16.49,19.87-16.86,12.84-4,28.57,0,43.9,4,53.42,4,12.84,2.57,17.39,7,9.94,8.06,18.64,4.39,4.34-11.84,12.62-17.7,19.14,2,21.21,5.32Z"/><path class="cls-6" d="M163.5,337.65c-6.34-.16-7.22-6.2-5.85-9.64s17.9,1,6.89-4.64c-10.38-5.36-2.92-22-4.48-25.92-5-12.62,5.29-13.57,10.84-17.63,5.89-4.3-18.65-2-5-6.52,15.24-4.78,9.81-4.64-7.57-2.06-18.58,2.75-38.5,3.41-47.65,2.84C100.15,273.41,73,270,90,273.47c.38.14,22.74,4.53,14.74,5.62-9.12,1.25-21.1-.8-14.91,2s12,3.45,7.57,7.23-24.6,16-15.31,15.66,18-1.9,14.45,4.3c-2.48,4.38-12.12,20.3-18.75,23.22C72,334,66.47,334.21,61.31,334.56s-8.26-6.2-9.63-3.44-8.26,2.75-8.6,1-6.54-2.07-5.16.34-1.73,6.47,10,7.23,25.81.69,29.94,1,14.22-1,15.25-6.54,13.43-30.68,18.12-33.9c12-8.25,21-16.27,27.24-16.27s10.07-6.34,11.13,3.47c1.2,11.19,2.93,27.25,2.24,31.38s-1.33,9-2,13.27-2.43,7.81,6.17,8.48,14.45-1.05,18.92-.35S170.56,337.82,163.5,337.65Z"/><path class="cls-6" d="M197.91,240.1s1.38,5.85,0,10.67-6.19,10.32-10.66,12.73-10.82,8.6-3.52,5.85,8.31.56,3.52,7.22c-10.9,15.14-1.86,27.76-8.38,31.66-7.52,4.5,5.3-1.77,5.45,10.49.09,7.3-8.95,7.4-4.82,7,15.45-1.28,19.17,16.27,16,9.85s-5.74-14.32-4.47-31.18c1.17-15.57,6.88-22.71,10-33.72S203.42,256.27,197.91,240.1Z"/><path class="cls-6" d="M61.31,318.39A7.66,7.66,0,0,0,58.1,317c-2-.35-4.57,0-3.52-.39,3.75-1.45,6.41-10.83,7.7-13.54,3.44-7.22,11.57-24.76,11.57-24.76A34.19,34.19,0,0,0,73.23,267a84.61,84.61,0,0,1-2.58-15.15c-.33-4.82,27.2.73,22.15,8.24-3.79,5.62-18,7.43-17,11a23.78,23.78,0,0,0,3.4,7.52c.69,1.43-3.44,2.58-8.6,11.53-2.33,4-5.67,12.1-3.44,17.08C69.67,312.8,61.38,305.3,61.31,318.39Z"/><path class="cls-1" d="M75.6,156.14l2.57-2.29,25.24,10.32L176.81,149l11.47-.46-2.63,3.67s-23.06,7.34-24,7.8S135.54,191.93,135,192.62s-20.77,30.28-20.77,30.28l-8.49,6-26.15-56Z"/><path class="cls-7" d="M177.67,144.17c1.14,0,3.53.6,6.06.6C181.22,144.78,178.85,144.17,177.67,144.17Z"/><path class="cls-7" d="M116.65,37.31a1.12,1.12,0,0,1-.71.17,1.08,1.08,0,0,0,.65-.17c3-2,5.36-3.29,8.86-2.94C122,34,119.59,35.38,116.65,37.31Z"/><path class="cls-7" d="M133.12,39c2.09.18,5.75-.76,7.1-.64h0C138.86,38.25,135.18,39.19,133.12,39Z"/><path class="cls-7" d="M184.18,132.61c.57,5,2.76,16.7-1.06,17a141.71,141.71,0,0,0-19.62,2.63c-13.66,6.14-20.8,18.13-50.67,17.14-14.79-.49-29.69-11.91-29.45-11.93-5.49-3-9.41-3.33-10-3.9-4.58-4.07-5.67-5.87-9.51-10.75-4.72-6-3.76-34.41-1.48-39.77,2.93-6.9.55-11,.64-12,.32-3.72.74-7.41,1.38-11.09,1.07-6.11,2.28-13.33,6.89-17.25A80.12,80.12,0,0,0,80,54c.31-.53,1.18-3.11,2.53-4.3C84.55,47.84,88.29,47,89,46.39c6.39-5.81,14.35-12.26,21.16-12.27,2.25,0,5.05,4.28,6.69,3.2,3.15-2.07,5.67-3.45,9.57-2.84,2.26.36,3.93,2.72,5.78,4.17,1.36,1.06,6.6-.43,8.28-.28,7.89.72,10.78,5.05,11.68,6a8.8,8.8,0,0,1,1.29,1.37c3.27,5.56,5.92.92,11.49,2.93,3.19,1.14,6.45,2.8,8.3,5.74,6.64,10.54,7.34,5.4,9.54,11.63,1.4,4-2.47,9.55-1.58,12.8,1.18,4.33,7.28,6.74,8,10.59,1.34,7.45.67,14.58-.78,22C187,118.26,183.38,125.73,184.18,132.61Z"/><path class="cls-8" d="M78.78,55.74a38.7,38.7,0,0,1-4.71.53c-2.45.11-6,.94-11.2,5.81s-14.41,14.56-16.5,17S39.79,88,44,93s8.33,9.63,8.9,12.38.05,9.59,2.57,10.39,8.87-6,8.92-16.89c0-1.84-1.39-16.52,2.4-27.28C70.25,61.77,78.78,55.74,78.78,55.74Z"/><path class="cls-8" d="M211.1,95.68C202.36,79.49,196.41,74.8,192,70.79s-9.26-6.19-9.27-3.86-1.36,4.93-1.58,8.41.52,5.06,3.25,8.85,5.15,6.79,5.21,12S188,113.7,186,123.14,183,136.62,183,136.62s-4.87,13.77,9.34,4.19c10.11-6.82,12.4-14.1,17.23-17.29C219.43,117.05,217.12,106.86,211.1,95.68Z"/><path class="cls-9" d="M196.3,81.28s-3.31-8.21-6.9-8.68-7.58.85-6.8,3.75,11.1,10.81,13.39,15,3.35,7.71,3.19,15.4-6.2,16-3.17,18.44,6.71.54,8-.41c9.54-7.19,11.41-4.63,3.46-.08-4.61,2.64-11.94,10.89-13.72,12-4.8,3.1-3.69-4.87-2.64-8.64s3.26-15.56,3.66-18.51-1.58-8.63-3.31-.18-3.92,16.08-5.43,25.69,4.81,5.33,7.16,4.36-.67.82-3.67,2.82-7.26,3.89-7.15-1.25,2.49-6.63,2.18-11.95c-.38-6.55-2.17-9.79.25-23.41,2.48-14-4-19.64-3.11-25.22.15-1-1.18-2.53.07-7.17a18.42,18.42,0,0,0,.79-7.29A17.86,17.86,0,0,1,192,70.79c2.5,2.63,9.4,7.57,19.66,22.85,3.62,5.4,4.62,15,4.47,16.94-.3,3.77-12.06,17.34-11.6-6.09.33-17-7-25.61-6.17-22.57S199,91.63,196.3,81.28Z"/><path class="cls-9" d="M77,56.92s-5,5.16-7.12,6.8-4,4.23-4.77,9.55-2.52,12.17-2.36,13.86-1,4.16-2.11,6.72-4.46,9.75-3.5,6.36,5.15-15.91,2.66-12.55S56.47,99.8,52,94.42s-6.79-11-3.66-12.11,8.83-6.48,7.83-7.87-3.71.45-4.43.85,3.12-5.36,7.15-9.28,9.67-8.94,13.5-9.42S78.71,55.22,77,56.92Z"/><path class="cls-8" d="M108.61,76.21a112.28,112.28,0,0,1,17.55,11.08c3.27,2.59,11.35,6.17,16.93,13.57,7.37,9.78,12.37,24.31,15.79,33.08,7.88,20.24-10.65,27.6-27.46,29.94-11.71,1.63-20.77,3.61-30.5,1.57-14.26-3-33.13-14.36-37-27.18-2.92-9.66,4.23-25.21,9.3-36.31C79.89,87.37,85.94,75,108.61,76.21Z"/><path class="cls-9" d="M80.54,101.27s4.56-6.89,6.54-5.7c1.23.74.93,3.42,3.78,4.74C101,105,100,118.83,102.28,118.9c2.75.07-2-15.35,4.62-14.83,6.17.49,12.75-4.17,14-6.84,7.25-15.5,25.41,4.55,24,19.49-1.09,11.57-12.1,24.89-9.2,32s13.89,12.13,20.35,6.77c5-4.15,8.67-15.88,4.8-23.78-2.37-4.84-.62-16.91-12.89-32-5.3-6.52-12.74-9.28-19.06-12.19-8.58-4-11.38-11.77-25.32-11.65-5.94,0-16.35,4.42-19.85,9.38s-16,26.73-18.91,36.54c-5.2,17.24,6,23.05,8.78,23.86C98.9,153.14,68.53,116.37,80.54,101.27Z"/><path class="cls-6" d="M65.31,83.31c.06,3.65-.38,6.74,1,8.64,2.24,3.12-2,12.56-.56,12,1-.36,5-7,4.22-4.58-6.91,21.77-1.21,6.19-1.21,6.19s6.62-11.24,11-19.19c3.49-6.33,7.55-6.61,15.33-11.89,3.64-2.48,12.34-3.5,18.1-2,6.77,1.72,13.93,9.45,20.38,13,6.62,3.62,16.38,6.8,20.67,13.7,7.65,12.29,9.43,17.88,10.56,13.63,1-3.88-9.84-18.41,6.74-5.92.53.4,10.94,5.55,7.52,3.23-20.12-13.68-9.71-11.67-4.58-9.35,8.33,3.76,4.12.32-2.19-2.94-3.33-1.72-15.15-13.61-1.74-12.9,3.41.18,6.3,7.09,8.77,11.38,6.73,11.72-.08-3.45-3.81-11.44-1.65-3.54-7-4.25-13.29-8.19-6.44-4.06-9-11-18.91-9.77-8.86,1.13-5.59,4.47-6.25,11.5-.44,4.65-7.34-3.93-6.12-10,.31-1.57,0-2.54,1.42-4.59,3.4-5,7-5.81,11.68-6.06s10.82,3.61,14.1,7.22,16,10,17.33,10.08c2.2.12-6.09-2.82-9.78-6.56s-7.08-9.5-15.46-11.37c-5.85-1.3-11.12-1.31-15.05,1.2-5,3.16-6.53,9.35-6.53,9.35a7,7,0,0,1-2.23,3.11c-1.13.71-1.34.37-2.13.07a20.71,20.71,0,0,1-4.53-2.18c-.62-.73-2-3.84-1-10,1-7,4-10.59,9-11.86s6.89-2,8.56-3.35c2.15-1.83,2.5-2.95,6.44-1.69s7.92,2.82,7.92,2.82,1,0,.58-.86c-.65-1.29-3.39-3.74-8.38-5.06-4.15-1.1-5,.14-6.64.4s-5.18-1.33-4.42.86c.9,2.62-2.16,4.23-4.61,4.77a29.81,29.81,0,0,0-4.56,1.51c-1.55.65-3,1.39-3.81.24s-2.34-2.9-2-4.61c.29-1.35-.67-2.83,1.23-4a6.56,6.56,0,0,0,2.41-2.76c-1.47.44-3.82,2.6-4.72,2.3-2.79-.94-1.49-2.68-6.81-3-.33,0-3.12.43-3.42.45-1.3.28,5.16-.28,7.37,2.34,1,1.12-.48,2,.35,5.76.38,1.77,1.1,3.13,1.49,5,.85,4,.1,6.34-1.15,11.52-.64,2.63-1.08,5.42-4,6.84-3.34-.09-6.7-.24-10.11.93-7.4,2.56-2.36-2.94-9.85-5.59-5.64-2-13.25-1-9.82-.5,3.81.62,14.38,5.22,2.3,3.13-3.85-.67-8.16,1.06-12.71,4.58C64.48,72.69,65.25,80.61,65.31,83.31Zm38.76-21.93c-1.95,0-1.11-4.56-1.46-7.73s-3-3.36-5.64-3.84-4.45,1.87-7.77,2.87A53.88,53.88,0,0,0,79,57.39s-1.69-.09.77-2.82c1-1.14,1.14-3,1.72-4.08s6.91,1,11.76-1.65c2.37-1.28,7.2-2.3,9.73.12C107.25,53.05,107,61.42,104.07,61.38Z"/><path class="cls-10" d="M105.48,95.45c6.2,2.91,6-16.77.72-13.92-3.22,1.71-2.07-1.34,1.79-1.79,2.44-.28,6.63,1.43,7.56,5.18.78,3.12-.6,9.71,1.71,4.26a7.44,7.44,0,0,0-3-9.25c-5.54-2.53-7.54-3.21-10.56-3-5.47.36-8.72,1.3-11.15,3.37-1.45,1.24-2.73,6.75-1.45,7.59.65.42,1.31-6.84,4.72-7.92,5.65-1.79,6.13,2.72,1.81,2.19-3.88-.47-5.79,6.71-3.77,11.66a2.6,2.6,0,0,0,4.2,1C99.55,93.62,101.55,93.61,105.48,95.45Z"/><path class="cls-10" d="M142.1,82c.7-.92,7.82,2.21,10.46,3.4,2.11,1,4.75,3.55,6.66,7.3C167.2,108.31,141.31,83,142.1,82Z"/><path class="cls-10" d="M87.06,73.16c.67-2-.58-2.38-1.77-3.6-2.32-2.37-5.74-1.89-7.39-1.67-.61.09-9.77,1.5-11.75,9.06S70.89,92.73,73.67,92c.6-.15-.06-.75,1.61-4.46a26.52,26.52,0,0,1,4.37-7.23C83.82,76,86.16,75.9,87.06,73.16Z"/><path class="cls-1" d="M82.54,73.25s-3.87-5-10.71-1.66-5.83,13-3.17,15.79-.92-2.93,0-7.16c1.16-5.37,4.42-6.7,7.48-7.38S83.62,74.56,82.54,73.25Z"/><ellipse class="cls-1" cx="74.14" cy="84.49" rx="1.94" ry="1.81" transform="translate(-15.89 151.79) rotate(-85.51)"/><path class="cls-6" d="M137.28,82s3.56-1.44,15.69,6.76c9.19,6.21,9.43,11.78,9.43,11.78Z"/><path class="cls-6" d="M183.22,145c-.2-6.33,1.16-13.53,2-18.06s-1.83-8.42-3.12-.25-1.53,21.06-4.23,22.18S176,136,173.21,141.7s-5.14,6-8.16,7.39c-6,2.75-4.9,4-10.32,7a52.5,52.5,0,0,1-11,4.35c-8.63,2.36-4.86,5.85,3.43,1.5,7.91-4.15,11.9-7,15.31-8.52,6-2.68,12.06-2.25,14.28-2.58S183.47,152.7,183.22,145Z"/><path class="cls-7" d="M142.73,74.1c.5-2,1.64-3.33,4.36-2.77a16.91,16.91,0,0,1,7.3,3.68c2.27,1.91,5.32,5.8,1.45,3.57C148.9,74.58,142.22,76.13,142.73,74.1Z"/><path class="cls-10" d="M129.13,115.48c-.16-1.76-.6-5.79-2-5-1.08.61-.46,8.28-9.79,14.76-4,2.79-14.7,2.65-20.11,1.19-3-.81-.66,2.79.37,4.17,4.37,5.86,18.93,9.42,24.56,3.65C126.45,129.83,129.71,122.11,129.13,115.48Z"/><path class="cls-11" d="M120.92,132.09c1.54,1.29,2.56,1.91-2.07,4.33-2.47,1.29-7.39,1.83-8.53.16-1.57-2.29,4.23-1.15,5.86-2C119,133,118.65,130.19,120.92,132.09Z"/><path class="cls-12" d="M104,127.32a32.8,32.8,0,0,0,12.56-1.78A24.57,24.57,0,0,1,103.22,129c-6.2-.14-7.31-2.63-7.31-2.63A55.73,55.73,0,0,0,104,127.32Z"/><path class="cls-10" d="M122.1,139.09c-4.07,3.48-9.38,5.13-15.52-.18a25.31,25.31,0,0,0,3.85,3.75,10.19,10.19,0,0,0,14.12-4.07C131.06,126,125.06,136.56,122.1,139.09Z"/><path class="cls-12" d="M113.5,171.74s3.9,5.51,5.27,9.64,1.38,7.34,4.48,3.21,16.17-14.91,3.55,1.37-17.2,26.84-17.66,35.33S161.9,164,161.9,164l9.79-12.45s-19.43,5.76-25.39,11.95-23.63,19-24.54,17.9S113.5,171.74,113.5,171.74Z"/><path class="cls-12" d="M112.46,171.28s-4.1-.46-6,2.76-5.81,10.55-5.81,10.55L86,174.49,74.28,154s.87-.56,5.53,2.24c6.13,3.69,3.18,10.92,9.37,16.66s10.55,6.65,10.55,6.65S105.69,169.91,112.46,171.28Z"/><path class="cls-13" d="M115.31,208.93s-3.23-17.89-2-17.92c3.49-.08,6,.76,5.5-5s-2.1-13.43-5.27-14.22c-3.93-1-7,1.09-10.78,5.51-4.06,4.79-4.36,7.61-2.76,9.54s3.45,2.16,3.45,3.53-2.83,5.74-3.82,10.1-2.15,6.88-.54,9.86,7.41,12.39,7.41,12.39l5.2-1.15Z"/><path class="cls-6" d="M105.7,258.68s11.24,3.44,29.82,3.9,40.56-1.95,40.56-1.95,10.13-3.61,12.2-2.67,2.75,3.47-1,5.54,3.55,4.58,7.68-2.53,4.82-16.05,4.13-19-86,5.74-94.51,9.41S105.7,258.68,105.7,258.68Z"/><path class="cls-14" d="M233.05,176.34c-2.49-.93-5.17-1.49-7.73-2.2l-16.38-4.56c-5.46-1.52-5.4-.87-7.85-2.68-1-.78-3.29-.51-4.44-1.7C186.9,155.23,182,150,169.82,152c-2-.36-8.11,2.81-12,5.18-17.34,10.69-37.25,39.38-48,62.66-1,2.07-13.92-12.39-19.61-31.31-1.7-5.65-5.28-22.56-9.09-27.06-4.07-4.82-7.64-9.15-9.49-9.55-5.81-1.24-11.77-1.75-23.72,14.23-6.85,9.18-19.76,20.47-22.66,29.7-1.76,5.58,14.79,22.82,14.23,28.64-.66,6.79,5.27,6.56,8.33,12.69a33.21,33.21,0,0,0,12.33,13.31c2.21,1.36,5.91.41,6.88-2.14,1.14,4.85.8,9.13,3.4,14.5,1.31,2.71.84,6.12,3.59,5.12l33.24-12c2.18-.79,5.11-2.18,7-2.21,2.52,0,5.12.93,7.62,1.43a139,139,0,0,0,17.62,2.3c5.73.4,11.47.52,17.2.56a149.65,149.65,0,0,0,16.27-.31c5.63-.57,11-2,15.81-5.13a56.72,56.72,0,0,0,6.51-5.16c2-1.83,4.48-3.72,5.31-6.44a7.08,7.08,0,0,0-.28-4.69c0-.24,0-.49,0-.74-.18-8.87-8.75-13.47-5.4-11.45,12.56,7.57,25.46,1.19,32.34-25.29C228.65,193.73,236.91,177.78,233.05,176.34Z"/><path class="cls-7" d="M210.18,167.69s-7.7-3.8-4.62-8.13c0,0,.56-.93-3.46-4.34s-9.88-10.71-8.89-19.15,3.63-10.3,8-8.81c2.62.89,4.53,3.8,3.82,6.41s-1.22,5.7-.09,6.87,5-.8,6.51-2.54,4.18-5.43,2.1-10.38c0,0-1.32-1.64-2.62-.74a6.58,6.58,0,0,1-8.82-1.67c-3.79-4.68,2.32-8.9,5.33-10.79s9.9-4.29,13.49-.79,3.44,5.27,3.44,5.27a44.51,44.51,0,0,1,4.4-5.24c1.36-1.33,4.19-4.53,11.66-2.61,3.7.94,5.09,4.23,4.54,5.47-.34.78,1.9.32,3,.69,2.78.93,5.21,3.72,2.1,7.52a53.83,53.83,0,0,0-8.77,14.71c-1,2.88-1.2,12.38-7.26,17.09s-3.85,5.54-3.85,5.54.93,4.26-4,6.28S215.52,169.16,210.18,167.69Z"/><path class="cls-6" d="M197,148.21s4.08,4.91,7.93,6.63,5.82,3.27,5.43,2-2.2-4.11,1.22-1.75,6.43,4,10.79,2.76,9.94-4.13,12.6-8.57,2.33-7.18,2.05-8.6.21.1,2.09-2.67,10.57-14.36,10.53-16.43,2.82-1.7,1.4,1.26c-1.12,2.34-4.75,6.37-7.44,11.61a44.33,44.33,0,0,0-2.94,7.65,35.1,35.1,0,0,1-2.8,9.58c-2,3.83-8.57,7.69-7.69,10.35s-2.32,7-8.88,7.39-13.77-2.13-8.19-1.31,9.21-.86,11-2.31,0-2.09-2.22-2.25-3.8-1.08-.52-1.46-6-.51-10.06-1.29-9.18-5.05-12.36-8.34S194.06,144.83,197,148.21Z"/><path class="cls-6" d="M245.17,116.71s.05-5.71-6.71-.36c-4.19,3.31-6.26,7.48-8,12.23-2,5.29-.95,7-2.61,6.13s-5-2.4-6.79-2.36-4.89,1.08-1.1,1.38a32.86,32.86,0,0,1,10.47,3c2.18,1.1,4.34,1,2.24-.68-1.24-1-1.71-3.16.67-8.64s4.93-8.11,5.57-8.6C242.22,116.3,243.19,117.15,245.17,116.71Z"/><path class="cls-6" d="M220.4,124.89s3.39-5.29,1-8.9-2.63-4-.46-2.36,4.9,3.64,2.29,7.39C221.56,123.43,217.22,133.66,220.4,124.89Z"/><path class="cls-6" d="M214.11,123.59c-.69,1.47-3.36,3-8.46,2.18-3.52-.56-2,1.18-1,1.5a8.44,8.44,0,0,0,3.57.58,9.76,9.76,0,0,0,3.39-1.22c-.35.14.42-.11,1.18.29s1.15,1.61,1.15,1.61a3.84,3.84,0,0,1-.07-2.7C215.71,121.57,215.1,121.48,214.11,123.59Z"/><path class="cls-6" d="M203.16,137c-3.44,4.35,2.38,5.43,4.25,6.34s2.52.45.47-1.5-3.72-2.74-3-6.29c.34-1.63.86-5.24-1.16-6.6-.3-.2.68,1.31.59,3.19S204.24,135.64,203.16,137Z"/><path class="cls-15" d="M229.57,178.17s1.16,5.16-6.65,14.45S212,210.51,215.28,208.1s2.93,3.85-2.57,7.94-10,6.57-18.24,1.72-11.35-7.94-14.79-10.69-6.2-2.41,0,4.13,5.83,10.72,1,8.28-12.72-1.06-3.78,3.76,17.55,11,13.77,11-11,1-5.16,4.13,8.4,5.16-4.4,10-14.87,7.22-29,6.88-16.49,2.57,2.18,2.52,21.28,1.67,32.69-4.1,14.1-11,14.1-11,2.3-2.29-.23-5.27-4.13-4.13-3.44-5.51,9.44,4.16,6.63,2.27-6.17-8.92-1.58-7.77,11.05-1.31,14.82-5.82,11.18-23.28,13.89-31.88,5.33-12.06,1.84-12.3S229.57,176.38,229.57,178.17Z"/><path class="cls-15" d="M192.87,160.39c-2.76-2.3-6-4-6-5.16s.31-8.61-3.9-7.25c-6.68,2.14-13.18,4-13.18,4s4.45-1.94,7.1,3c1.84,3.44-6.28,8.76-6.28,8.76.07-.95-3.66,3.51.2,2.94,4.31-.65,13.31-10,19.5-2.47,4.3,5.21-2,18.56-2.5,20-1.23,3.42-7,11.11-9.2,15.27-3,5.51,8.27-8.07,10.13-10.32-.42,1.16-.74,2-.93,2.54-1.28,3.3-8.85,18.44-3,11.22s7-2.24,7.46,2.67,6.64,19.69,4.24,5.59-2.41-24.43-.69-20,2.41,3,2.41-10.32c0-6.58,4.54-13.31,2.83-14C195.56,164.57,194.76,162,192.87,160.39Z"/><path class="cls-15" d="M170.84,166.7l-.2-2.94A11.08,11.08,0,0,0,170.84,166.7Z"/><path class="cls-15" d="M168.09,169l-19.27,9.86,2.6,9s-37.23,32.34-37.23,35.1-3.44,9.17.45,7.56,5.51-2.75,8.26-.68,5.43,5.73,2.26,9.17-4.85,3,0,4.36,4.37,2.29-1.47,2.07-18.91-.51-4.23,2,2.3,3.23,2.3,3.23-.11,2.07,13.2,3.44,6.29,2.07-2,1.84-18.13-3.44-18.13-3.44a15.26,15.26,0,0,1-7.79-14.68c.68-10.56.91-13.08,4.58-16.29s37.16-36.93,37.16-36.93l-1.6-7.11L166.94,166S176.81,158,168.09,169Z"/><path class="cls-15" d="M135.29,222s3,.69,13.76,0a72.7,72.7,0,0,0,18.35-3.44s.92,8.71.92,11.47-3.67,3.44-3.9-1.61-4.82,1.15-4.82-1.83-9.4-1.61-14.22-.46-16,.75-7.8-.77S127,222.21,135.29,222Z"/><path class="cls-15" d="M59.48,195c-1.38,5.18-3.41,15.33-3.65,20.52-1.41,30.22-11.15,22.44-9.31,28.64s19.74,24.25,20.69,26.47-2.13,9.75,4.53,7.35l22.09-8c8.26-3,20.92-9.07,11.81-6.55s-25.39,7.11-28.15,7.11-4.81-2.52,1.61-3.9,3.1-3-3.82-3.9S61,246.21,66.48,246a58.1,58.1,0,0,0,13.31-1.84c4.59-1.15,12.16-5.73,3.44-3.44s-13.78,6.19-15.38,1.15-2.28-9-3-17.67-3.21-21.33.69-12.27,8.71,17.32,5,6.31-9.86-18.79-3.67-17.43c6.5,1.42,6.83.85,1.89-1.21C61.47,196.52,62.23,184.65,59.48,195Z"/><path class="cls-15" d="M75,162.34s-.46,14-.92,16.51-.46,4.36,2.53,3.67,3.74,3,2.21,8.95S83,207.3,87.7,211.66s18.76,9.4,18.76,9.4-20.49-11-24.39-22.48,1.15-17.66-.23-18.12-7.34.69-5.73-5.74,1.11-15.66.28-17.57c-4.51-10.29-13.7-6-18.06-2.76S47,168.75,39.62,176c-10.6,10.41-18,22.22-16.6,32.55s27.63,34.76,32.21,37.74,9.65,7.65,10.56,2.07-3.9.46-10.33-11.47S21.94,208.42,32,195.11c14.1-18.72,14.45-24.87,30.17-38.13C66,153.73,75.1,158.44,75,162.34Z"/><path class="cls-16" d="M109.14,192.53s1.61,8,1.72,10.67c.43,10.41-1,16.6-1,16.6l4-8.44S110.34,185.56,109.14,192.53Z"/><path class="cls-1" d="M201.09,166.9l.39-4.39s10.83,2.31,16.62,3.39,16.63,1.25,16.63,1.25L232,176.1s-20.57-5.78-25.55-6.79A13.55,13.55,0,0,1,201.09,166.9Z"/><path class="cls-12" d="M230.64,163.76s4.69,1.44,4.09,3.39L232,176.1l-20.13-5.68s-2.67-1.72,4,0,12.56.65,13.42-.49-1.89-2.35.26-2.6Z"/><path class="cls-16" d="M113.27,176.27s3,8.32,1.72,9.81-3,2.87-.57,1.95,2.06-5.62,1.26-8.37S112.92,172.65,113.27,176.27Z"/></g></g></g></svg>