<svg xmlns="http://www.w3.org/2000/svg" xmlns:xlink="http://www.w3.org/1999/xlink" viewBox="0 0 326.44 369.7" preserveAspectRatio="none"><defs><style>.cls-1{fill:none;}.cls-2{fill:url(#Безымянный_градиент_169);}.cls-3{fill:url(#Безымянный_градиент_129);}.cls-4{fill:url(#Безымянный_градиент_169-2);}.cls-5{clip-path:url(#clip-path);}.cls-6{fill:#babbbe;}.cls-7{fill:#dfc5a0;}.cls-8{fill:#c2a185;}.cls-9{fill:#726360;}.cls-10{fill:#5f5451;}.cls-11{fill:#221e20;}.cls-12{fill:#fff;}.cls-13{fill:#cfd1d2;}.cls-14{fill:#4a7fbb;}.cls-15{fill:#444445;}.cls-16{fill:#404041;}.cls-17{fill:#bed7ef;}.cls-18{fill:url(#Безымянный_градиент_56);}</style><linearGradient id="Безымянный_градиент_169" x1="-13.32" y1="125.94" x2="316.59" y2="125.94" gradientTransform="translate(-7.27 18.06) rotate(-6.05)" gradientUnits="userSpaceOnUse"><stop offset="0" stop-color="#fc0"/><stop offset="1" stop-color="#ff9700"/></linearGradient><linearGradient id="Безымянный_градиент_129" x1="-17.41" y1="126.73" x2="320.69" y2="126.73" gradientTransform="translate(-7.27 18.06) rotate(-6.05)" gradientUnits="userSpaceOnUse"><stop offset="0" stop-color="#cadcff"/><stop offset="1" stop-color="#fff"/></linearGradient><linearGradient id="Безымянный_градиент_169-2" x1="-12.73" y1="125.48" x2="316.01" y2="125.48" xlink:href="#Безымянный_градиент_169"/><clipPath id="clip-path"><path class="cls-1" d="M320.06,119.81c-4.92-4.58-15-.24-14.86-.18-.66-.18.82-8.62-7.25-7.07-23.47,4.51-22.26-.5-23.52-.58.36-3.78,1.25-4.46-2.24-8.2a11,11,0,0,0-5.57-3.27,121.79,121.79,0,1,0-231.7,72.94,5.09,5.09,0,0,0-3.14-1.53,10,10,0,0,0-10.19,7.25c-1.5,4.83-.31,8.62,2.37,12.58.46.67,4.48,4.23,4.43,5.53-.16,3.87-5.18,11.82-11,23.13-3.47,6.79-11.8,9-12.64,19.15-.4,4.84,2.16,4.33,1.08,6,0,0,0,.05,0,.13-1.84,1.69-2.07,5.42-1.43,7.65,1.23,4.27,4.47,4.16,8.19,4.64,1,1.08,2.74,3.13,4.07,3.12,6.62-.06,12.69-3.21,18.72-5.8,5.6-2.42,20.15-20.21,21.15-25,.39.14,8.76-.75,14.08-3.5,1.25-.64,2.48-1.19,3.68-1.68,23.85,18.15,54.35,27,86.57,24.18C234,243,256.4,203.85,267.13,153.77a61,61,0,0,0,13.34-4.48,21.67,21.67,0,0,0,16.85-4.24c6.2-2,11.19-3.47,17.37-5.51,4.24-1.4,8.18-5,6.31-7.81-2-3,1.18-5.18,1.33-7.22A6.41,6.41,0,0,0,320.06,119.81ZM38.75,182.07c.73,1.48,1.5,2.94,2.28,4.38-.13-.14-.27-.28-.39-.43A11,11,0,0,1,38.75,182.07Z"/></clipPath><linearGradient id="Безымянный_градиент_56" x1="157.22" y1="116.94" x2="171.66" y2="116.94" gradientTransform="translate(-7.27 18.06) rotate(-6.05)" gradientUnits="userSpaceOnUse"><stop offset="0" stop-color="#c7652a"/><stop offset="0.6" stop-color="#e58c27"/><stop offset="0.93" stop-color="#f19b26"/><stop offset="1" stop-color="#f19b26"/></linearGradient></defs><g id="Слой_2" data-name="Слой 2"><g id="Слой_1-2" data-name="Слой 1"><path class="cls-2" d="M320.06,119.81c-4.92-4.58-15-.24-14.86-.18-.66-.18.82-8.62-7.25-7.07-23.47,4.51-22.26-.5-23.52-.58.36-3.78,1.25-4.46-2.24-8.2a11,11,0,0,0-5.57-3.27,121.79,121.79,0,1,0-231.7,72.94,5.09,5.09,0,0,0-3.14-1.53,10,10,0,0,0-10.19,7.25c-1.5,4.83-.31,8.62,2.37,12.58.46.67,4.48,4.23,4.43,5.53-.16,3.87-5.18,11.82-11,23.13-3.47,6.79-11.8,9-12.64,19.15-.4,4.84,2.16,4.33,1.08,6,0,0,0,.05,0,.13-1.84,1.69-2.07,5.42-1.43,7.65,1.23,4.27,4.47,4.16,8.19,4.64,1,1.08,2.74,3.13,4.07,3.12,6.62-.06,12.69-3.21,18.72-5.8,5.6-2.42,20.15-20.21,21.15-25,.39.14,8.76-.75,14.08-3.5,1.25-.64,2.48-1.19,3.68-1.68a121.8,121.8,0,0,0,192.83-71.39,61,61,0,0,0,13.34-4.48,21.67,21.67,0,0,0,16.85-4.24c6.2-2,11.19-3.47,17.37-5.51,4.24-1.4,8.18-5,6.31-7.81-2-3,1.18-5.18,1.33-7.22A6.41,6.41,0,0,0,320.06,119.81ZM38.75,182.07c.73,1.48,1.5,2.94,2.28,4.38-.13-.14-.27-.28-.39-.43A11,11,0,0,1,38.75,182.07Z"/><path class="cls-3" d="M160,258c-30-2-60.94-9.63-86.24-28.13-.43.2-.85.41-1.26.62-4.72,2.43-10.88,3.43-13.16,3.73C55.48,241.54,43.21,256.43,37,259.1c-.8.34-1.59.69-2.39,1-4.88,2.16-9.83,4.35-15.37,4.94-.85.09-1.71.14-2.54.15-2.58,0-4.61-1.78-6.09-3.33-3.45-.4-8.36-1.17-10.15-7.4a13.66,13.66,0,0,1,1-9.76,11,11,0,0,1-.77-5.53c.66-7.87,5-12,8.54-15.36a21,21,0,0,0,4.55-5.32c1.63-3.19,3.22-6.15,4.62-8.75,2.51-4.67,5.1-9.49,5.74-11.84-.35-.42-1-1.1-2-2.18a13.65,13.65,0,0,1-1.54-1.72c-3.75-5.53-4.64-10.49-2.89-16.1A14.12,14.12,0,0,1,28.58,168c-2.85-8.58-5.62-17.43-5.73-26.53C22,71,65.59,0,135,0c63,0,133,40,135.07,97.37a15.29,15.29,0,0,1,5.12,3.61c3.51,3.76,3.95,5.89,3.61,9,1,.27,3.39.59,8.64,0,2.76-.3,6-.8,9.74-1.51a11.66,11.66,0,0,1,1.26-.19,9.35,9.35,0,0,1,6.81,1.62,8.87,8.87,0,0,1,3,4.33,25.21,25.21,0,0,1,3.27-.57c4.68-.5,8.59.57,11.29,3.08.92.85,3.88,3.94,3.57,8a9,9,0,0,1-1.44,3.9c-.15.26-.36.63-.48.88a6.9,6.9,0,0,1,.66,6.06c-1.36,3.94-5.64,6.6-9.18,7.77-4,1.31-7.38,2.38-11,3.51l-.12,0-5.59,1.76a26.24,26.24,0,0,1-12.5,4.84,25,25,0,0,1-5.73-.06,67.1,67.1,0,0,1-10.49,3.68C258.28,209.22,227,258,160,258ZM76.78,221.89a117.7,117.7,0,0,0,186.34-69l.57-2.66,2.67-.51a56,56,0,0,0,12.4-4.18l1.17-.54,1.26.23a16.34,16.34,0,0,0,4.63.17,18.47,18.47,0,0,0,8.87-3.5l.24-.21.81-.46.34-.1c2.27-.73,4.39-1.39,6.46-2,3.6-1.13,7-2.19,10.86-3.47a8.76,8.76,0,0,0,3.78-2.32c-2.12-3.84-.23-7.1.71-8.71.09-.17.21-.38.31-.55a4.18,4.18,0,0,0-.93-1.25c-1.16-1.08-3.26-1.11-4.81-.95A20.7,20.7,0,0,0,307.9,123l-.46,1.54-1.67-.46-1.36.79-.94-1.45-2.18-.73-.13-2a9.27,9.27,0,0,1-.29-1.71,6.63,6.63,0,0,0-.53-2.39h0a3.13,3.13,0,0,0-1,0l-.58.09c-3.85.74-7.32,1.27-10.29,1.59-9.63,1-13.45-.34-15.62-2.22l-3.24-.21.8-4.32c.06-.63.14-1.17.2-1.66a8.13,8.13,0,0,0,.13-1.29,7.67,7.67,0,0,0-1.51-1.91,7.05,7.05,0,0,0-3.59-2.09l-2.41-.62-.56-2.43a117.7,117.7,0,1,0-223.9,70.5l1,2.43L34,178.23l-1.92-1.78a1.9,1.9,0,0,0-.61-.45,8.65,8.65,0,0,0-1,0,5.89,5.89,0,0,0-5,4.36c-.81,2.57-.81,5.08,1.75,8.92l.7.71c2.8,2.85,4.63,4.91,4.53,7.42-.15,3.73-2.83,8.71-6.87,16.23-1.39,2.58-2.95,5.49-4.55,8.61a28,28,0,0,1-6.2,7.53c-3.26,3.09-5.61,5.33-6,10.09-.1,1.26.06,1.48.25,1.77a5.14,5.14,0,0,1,.7,5.19l-.06.43-.87,1.21-.27.25a5.4,5.4,0,0,0-.26,3.5c.31,1.08.34,1.19,3.57,1.56l1.2.14,1.48.19,1.33,1.44c.26.29.94,1,1.41,1.44l1-.08c4.28-.46,8.63-2.38,12.84-4.25l2.56-1.12c4.29-1.85,17.87-18.38,18.75-22.07l1-4.65,3.76,1.38c2.48-.27,8-1.24,11.5-3,1.24-.63,2.55-1.24,4-1.83l2.17-.89ZM37.91,189.11c-.14-.14-.3-.32-.45-.5a14.84,14.84,0,0,1-2.64-5.41l-.9-3.08L41,177.37l1.42,2.89c.67,1.35,1.39,2.74,2.2,4.23l2.27,4.17-5.66,4.06Z"/><path class="cls-4" d="M74.39,224.49l.27.2c24.69,18.79,55.23,26.81,86.15,24.07C237,242,255.55,205,266.55,153.65l.08-.38.39-.08a59.23,59.23,0,0,0,13.2-4.44l.17-.07.18,0a21.26,21.26,0,0,0,16.37-4.1l.2-.11c2.27-.73,4.38-1.39,6.44-2,3.61-1.13,7-2.19,10.92-3.48,3-1,5.6-3,6.24-4.86a2.24,2.24,0,0,0-.23-2.08c-1.53-2.31-.45-4.17.42-5.67a5.41,5.41,0,0,0,.82-1.91c.12-1.58-1.05-3.26-2.09-4.23-4.61-4.29-14-.19-14.12-.14l-.32-.48-.17.57-.07,0-.34-.11v-.19a3.67,3.67,0,0,1-.26-1.3c-.13-1.38-.36-3.69-1.92-4.85a5.51,5.51,0,0,0-4.39-.59c-19.76,3.8-22.37.89-23.49-.36a1.43,1.43,0,0,0-.23-.22l-.6,0,.11-.59c.06-.63.14-1.18.21-1.68.32-2.35.43-3.14-2.3-6.06a10.54,10.54,0,0,0-5.29-3.1l-.34-.09-.08-.35C260,33,196,10,135.24,7.71,68.46,5.2,20.46,74.56,27.51,141a121.31,121.31,0,0,0,8,32.21l1,2.43-1.91-1.78a4.53,4.53,0,0,0-2.78-1.38,9.34,9.34,0,0,0-9.59,6.84c-1.3,4.18-.61,7.79,2.3,12.08.1.15.56.61,1,1.06,2,2.06,3.57,3.73,3.53,4.82-.12,2.92-2.78,7.87-6.46,14.71-1.39,2.58-3,5.51-4.57,8.67a25.33,25.33,0,0,1-5.5,6.58c-3.38,3.22-6.58,6.25-7.09,12.35-.2,2.51.41,3.4.86,4a1.72,1.72,0,0,1,.2,2.14l0,.13-.16.23c-1.7,1.55-1.83,5.1-1.27,7.06,1,3.45,3.33,3.71,6.55,4.08l1.16.13.21,0,.45.5c.83.91,2.38,2.6,3.33,2.59,5.58-.05,10.86-2.38,16-4.65l2.52-1.1C40.59,252.46,55,234.73,56,230.22l.14-.67.64.24c.53,0,8.51-.84,13.61-3.47,1.15-.58,2.36-1.14,3.73-1.7ZM43.82,190.34l-3.33-3.61c-.1-.11-.21-.22-.31-.34a11.76,11.76,0,0,1-2-4.16l1.09-.42c.69,1.4,1.43,2.83,2.27,4.36Z"/><g class="cls-5"><path class="cls-6" d="M161.59,365.74c-1.46.46-11.24,4.23-42.54,3.94S75.51,364.1,93.5,355.76c3.9-1.82,62.73-13.56,77.59-11.62C182.16,345.59,222.66,346.94,161.59,365.74Z"/><path class="cls-6" d="M235.94,337.69c-1.15.39-8.78,3.75-33.68,2.24s-34.82-7.25-20.83-14.83c3-1.65,49.38-11,61.26-8.49C251.54,318.48,283.79,321.41,235.94,337.69Z"/><path class="cls-7" d="M251.56,160c3.23-3.7-.84-18.54-.95-19.65-.44-4.14-10.57-7.46-11-7.76-1.34-2.49-17.92.56-20.35.15s-25.37,3.55-26.27,3.51c.6-.55,3.58-1,4.19-1.55,4.3-4,4.24-4-.06,0-.6.56-7.21,1.84-12.4,4.89.23,0-13.56,10.91-27.74,12.09-13.87,1.14-46.38,3.21-48.45,2.36,4.42,6.71-37.23,30.79-38.26,33-5.3,4.81.21,9,3.61,16.25,3.63,7.67,2.53,15.7,10.19,17.58,3.93,1,2.91,6.27,6.51,4.35,1.54-.82,13.49-9.13,17.82-12.4,6.33,8.87,27.41,41.53,27.85,41.93,0,.71-8,16.86-7.27,22.2a322.6,322.6,0,0,1,2.47,42.2c0,2.57-5.3,7-5.76,7.61-15.7,6.57-10.36,30.35-9.61,33.47.39,1.62,3,5,5.55,4.77,3-.25,27.38-2.75,36.19-6.6,4.44-1.93,8.2-5,8.92-10.41a27.13,27.13,0,0,0,0-5.77c.86-1.09,6.3-23.43,7.45-26.74,2.56-7.41,5.34-14.75,8.61-21.83,1.58-3.43,9.05-16.36,9.78-17.38,0,.31.53,5.34.69,7.55.28,3.74,0,30.58-.19,33.18a25.82,25.82,0,0,0,0,7c.72,3.64,2.4,6.64,5.53,8.47a14.22,14.22,0,0,0,6.55,1.64,60.51,60.51,0,0,0,28.39-5,7.54,7.54,0,0,0,4.32-7.69c-.45-3-2.73-6.39-5.84-6.62l-4.79-.35c-3.72-1.67,9-49.66,9-49.66.4-1.82,2.89-7,4-12.59,2-10.29.85-13.78,1.86-24.21a227.3,227.3,0,0,0,.45-38.17q-.66-9.21-2.07-18.34c-.33-2.08-.64-4.21-1-6.33C241.71,165,250.05,161.77,251.56,160Z"/><path class="cls-7" d="M149.63,24.92a1.06,1.06,0,0,0,.69.14,1,1,0,0,1-.63-.15c-2.89-1.79-5.24-3-8.59-2.58C144.42,21.92,146.76,23.14,149.63,24.92Z"/><path class="cls-7" d="M133.84,27c-2,.24-5.54-.57-6.83-.42h0C128.32,26.41,131.87,27.22,133.84,27Z"/><path class="cls-7" d="M108.07,154c-1.09.09-3.31.93-5.73,1.18C104.74,155,107,154.14,108.07,154Z"/><path class="cls-7" d="M321,131.73c-2-3,1.18-5.18,1.33-7.22a6.41,6.41,0,0,0-2.27-4.7c-4.92-4.58-15-.24-14.86-.18-.66-.18.82-8.62-7.25-7.07-23.47,4.51-22.26-.5-23.52-.58.36-3.78,1.25-4.46-2.24-8.2s-7.89-3.92-12.56-3.79c-3.1.08-7.95,4.8-5,10.78a8.18,8.18,0,0,0,4.38,4.37c-.12.48-1.57,9-1.29,12,.19,2,2.23,6.21,2.27,6.45a6.32,6.32,0,0,0-1.41,7.26c1.32,2.7-1.95,9.84-.55,12,1.79,2.77,11.22,1.62,22.47-3.52a21.67,21.67,0,0,0,16.85-4.24c6.2-2,11.19-3.47,17.37-5.51C318.93,138.14,322.87,134.56,321,131.73Z"/><path class="cls-7" d="M69.05,189.07c-.45-.22-10.34,10.48-10.82,10.41-1-2.24-1.19-1.66-2.7-3.5-3.67-4.49-11.23-5.47-14.89-10-2.58-3.16-2.18-8.14-4.27-10.92-1.16-1.54-2.68-3.07-4.59-3.18a10,10,0,0,0-10.19,7.25c-1.5,4.83-.31,8.62,2.37,12.58.46.67,4.48,4.23,4.43,5.53-.16,3.87-5.18,11.82-11,23.13-3.47,6.79-11.8,9-12.64,19.15-.4,4.84,2.16,4.33,1.08,6,0,0,0,.05,0,.13-1.84,1.69-2.07,5.42-1.43,7.65,1.23,4.28,4.47,4.16,8.19,4.64,1,1.08,2.74,3.13,4.07,3.12,6.62-.06,12.69-3.21,18.72-5.8,5.6-2.42,20.15-20.21,21.15-25,.39.14,8.76-.75,14.08-3.5,7-3.63,13.92-4.54,13.86-6.35C84.28,213.68,74.84,191.89,69.05,189.07Z"/><path class="cls-7" d="M39.2,183.51c-.05-.31-.05-.24,0,0Z"/><path class="cls-8" d="M31.1,226.41s1.53-12.83,7-17.27,13.74-4.68,17.46-1.25-.48.56-1.91.18-9.79-.45-12.51,1.55C31.73,216.53,30.75,231.48,31.1,226.41Z"/><path class="cls-8" d="M298.15,121.87c.63-.09,6.6-2.12,6.6-2.12a2.64,2.64,0,0,0,.25-3c-1.76-3.93-1.18-1.84-.93-.2A3.87,3.87,0,0,1,301.9,120C298.55,121.08,294.52,122.38,298.15,121.87Z"/><path class="cls-8" d="M266.3,148.45s4.35-2.25,2.12-7.46c-11.46-26.73,2.53-22.4-6.66-29.85-4.62-3.74-7.82-11,3.16-11,.87,0-10.06-1.9-11,5.28a9.52,9.52,0,0,0,3.44,8.87,2.86,2.86,0,0,1,1.34,2.17s-.87,5.11-1.17,8.8,1.31,1.89,1.44,1.76C259.33,127,264.71,147.6,266.3,148.45Z"/><path class="cls-8" d="M321.42,133.06a4.66,4.66,0,0,0-1.15-3.78,3.7,3.7,0,0,1,.26-1.14c.48-1.26,2.46-4.64,1.17-6.22s-.95-1.14-1.1.66-.18,2.27-3.23,2.52-5.72,0-6.48.27h0a27.44,27.44,0,0,0-6.88,1.27c-2.05,1.33,2.69-1.35,11.28.82a11.39,11.39,0,0,1,3,1.17l.38.24a3,3,0,0,1,1.54,2.77c-.18,2.23-.26,4.92-5.06,6.33-8.7,2.55-22.17,5-30,1.59C279,136.88,278.12,138,266.47,123c-1,.19,7.67,10.26,6.72,10.44,10,12.41-8.53,18.27-8,19.36,1.73,3.56,15.28-3.49,15.28-3.49,3.68,2.47,16.73-3,19.81-4.28s8.29-3.39,10.69-4.31,6.55-1.41,8.28-2.49S321.46,134.53,321.42,133.06Z"/><path class="cls-8" d="M279,117.6s3.19,2.36,4,4.48a7.55,7.55,0,0,1-2.35,9s-3.59-2.41-2.15-4.55S281.47,120,279,117.6Z"/><path class="cls-8" d="M69.55,190.23s-17-2-14.63,4.65c0,0,10.12,12.24,10.34,27.36,0,2.29-5.19,9.34-9.26,3-5.14-8-.77,16.58-21.72,27.05-4.36,2.18-11.72,4.88-16.18,4.64-2.36-.12-7.75-5.51-4.13-11.22s11.32-6.87,8.19-6.48-7.36,3.55-9.57,6.57c-1.58,2.17-1.35,6-2.74,8-1.11,1.66-6.16-4.49-2.22-9.9a122.18,122.18,0,0,1,8.66-9.48c2.89-2.67,2.28-3.67,1.69-3.09s-6.11,5.63-8.11,7.19c-3.37,2.65-3.12-3.32.81-8.41,2.07-2.67,14.1-16.51,15.86-19.85s6-10.75,5.79-14-4.61-5.49-7.37-7.11-1.79-7.9-2.5-10.23-1.2,4.72-1.2,4.72c-.65,2.34.69,5.5,2.7,8.1,1.84,2.36,4.33,4.2,4.43,5.53.21,2.77-4,9.67-6.28,14.26-6.31,12.6-11.67,16.85-14.88,20.67a10.61,10.61,0,0,0-2.4,9.57c.47,2.07,1.74,1.85,1.74,1.85s-4,3-2.16,9.75S12.6,258,12.6,258c3,5.15,9.55,2.31,17-.31,20.51-7.22,27.4-25.2,27.6-27.17,1,.17,9.83-3,13.43-3.7,9-1.76,7.93,4.14,9.59-3.59,1.36-6.29,4.27-2.76,4.27-2.76Z"/><path class="cls-7" d="M212,160.65a.39.39,0,0,1,0,.13C212.17,160.93,212.2,160.86,212,160.65Z"/><path class="cls-8" d="M171.91,251.09a62.16,62.16,0,0,0-17.62,9.44c-8.38,6.57-15.68,11.4-17.29,12.92s-1.73,5.06-.06,8.94,8.21,13.19,5.25,13.77-10.46,0-8.62,7.95,3.76,14.22,6.73,16.07,10,3.92-3.13,6c-11.47,1.81-18.09,8.88-18.66,13s-1.38,8.64,3.7,17.12c2.21,3.68,9.43,2.11,9.15-.56s1.83-6,2.33-3.57,1.1,7.39,6.5,6,3.28-2.31,3.58-4.24,3.46-5.5,4.16-1.25.88,5.36,8.84,3.12c9.4-2.64,7.92-11.45,8.75-13.16s2.06.85,1.18,5.41,1,10.31-8.62,12.41-33.58,4.31-33.58,4.31-8,4.29-9.48-10.1c-2.26-21.87,7-25.83,10.63-27.85s6.21-4.69,5.76-7.61-.29-16.75-.9-26.68-2.15-19.78-2.15-19.78L157.64,235l12.52,8.68S187.85,242.37,171.91,251.09Z"/><path class="cls-8" d="M219.74,261.26h0c-1.88-.11-15.75,6.58-28.38,6.9s-46.78-4.16-30.49-.41c0,0,20.41,4.15,30.11,3.12,7.15-.76,9.93-.85,13.23-1.66a48.54,48.54,0,0,1-12.07,4.55,87.91,87.91,0,0,1-25.54,1.69c-13.63-1.37-23-1-19.29,0s22.34,3.72,27.43,5.41-.13,2.86-6,16.26c-5.68,13,16.57-21,6.11,7.72-1.25,3.44-4.8,19.51-5.74,26.71s3.71-11.39,8.19-24.78,10.29-22,12.68-26.31,3.2-1.73,3.24,3.4,1,15.42.09,21.46-1.55,14,1,22.55,13.22,7,19.18,6.21-4.5-2-9.38-5.3.83-11.17,3.73-14.72-1.68-6.32-3.46-11.27-1.83-10.08-1.26-16.63,7.78-2.72,11.55-2.85,4.44-17.51,6.93-20.2C223.47,261.14,222.31,260.64,219.74,261.26Z"/><path class="cls-8" d="M188.27,238.54a46.3,46.3,0,0,0,3.7,6.37c1.45,1.74,13.47-.08,23.9-2.27s15.12-.75,18,.66,3.87,8-5.39,16.93c-1.87,1.81,6.24.17,4.45,7.25-7,27.78-18.08,46.12-14,46.77a36.84,36.84,0,0,0,8.24.24,15.76,15.76,0,0,1-.92-6.15c.34-2.75,3.69-21.08,5.59-29.26s4.52-14.16,5.73-18.34,3-11,3.19-14.12,0-8.78,0-8.78-38.87-7.51-39.34-7.19-13.64-7.34-13.64-7.34S186,232.69,188.27,238.54Z"/><path class="cls-8" d="M235,331.9l-25.07,2.51-5.56-1.3s6.5-.55,13.58-1.58,10.77-3,11.06-3.87.89-2.26,1.39-1.1,1.48,3.66,3.16,2.59a6.65,6.65,0,0,0,2.85-6.6c-.36-3.35-5.36-7.22-3.37-6.81s5.92,3.56,6.22,6.37S240,331.24,235,331.9Z"/><path class="cls-7" d="M87.24,118.28a70.18,70.18,0,0,1,2.69,18.3c.43,15.93,6.62,17.56,7.35,17.94,4.06,2.07,9.45-.64,11-.48.72,1,34.37-1.13,48.55-2.3s28-12.08,27.74-12.09c5.19-3,11.79-4.32,12.39-4.89,4.3-4,6.52-5.54,10.08-10.34,4.38-5.89,7.15-15.83,4.09-23.51-.51-1.28-5.19-9.16-7.52-14.26-3-6.55-.82-10.53-.93-11.52-.41-3.57-.91-7.1-1.62-10.63-1.19-5.84-2.55-12.75-7.07-16.39a73.94,73.94,0,0,1-8.6-8.16c-.31-.49-1.21-3-2.54-4.06-2-1.69-5.66-2.4-6.32-3-6.3-5.41-14.12-11.4-20.67-11.23-2.15.06-4.73,4.25-6.34,3.26-3.08-1.91-5.54-3.18-9.27-2.48-2.17.4-3.71,2.72-5.45,4.15-1.28,1.06-6.36-.24-8-.05-7.57.9-10.23,5.14-11.07,6.08a8.46,8.46,0,0,0-1.2,1.34c-3,5.44-5.67,1-11,3.12-3,1.18-6.12,2.87-7.82,5.73-6.11,10.31-6.92,5.39-8.87,11.43-1.24,3.86,2.62,9.12,1.86,12.27-1,4.18-6.82,6.66-7.39,10.39-1.09,7.18-.26,14,1.33,21.15C84.12,104.57,85.47,111.86,87.24,118.28Z"/><path class="cls-9" d="M186.51,41.63a36.6,36.6,0,0,0,4.55.39c2.36,0,5.8.74,10.91,5.29s14.23,13.62,16.3,15.91,6.56,8.36,2.64,13.26-7.75,9.47-8.23,12.14.21,9.22-2.19,10-9.18-12.62-9-16c.08-1.77.9-15.91-3-26.15C194.87,47.2,186.51,41.63,186.51,41.63Z"/><path class="cls-9" d="M44.45,116.33s4-11.09,12-27.6A101.91,101.91,0,0,1,78.09,59.07c4.12-4,8.73-6.19,8.8-4s1.44,4.71,1.74,8.05-.36,4.87-2.89,8.58S81,78.41,81.06,83.47s2,16.73,4.22,25.76,5.06,29.57,5.06,29.57-4.86-2.94-14.63-9.42-16.75-9.94-22.3-9.61S44.13,122.29,44.45,116.33Z"/><path class="cls-10" d="M74.23,69.27s3-8,6.41-8.53,7.31.62,6.64,3.43S76.9,74.85,74.8,79s-3,7.5-2.66,14.89,6.06,16.43,3.21,18.82-7.35,1.41-8.76.85c-4.31-1.72-8.33-.7-3.62,1.26s13.68,5.26,15.42,6.31c4.69,2.86,3.2-3.35,2.1-6.94s-3.55-14.87-4-17.7,1.29-8.33,3.18-.26,4.19,15.36,5.9,24.55,2.48,13.33.19,12.46-2.1,1.4.83,3.24,3.69,3.21,3.45-1.73a149,149,0,0,0-3.21-19.79c-1.18-5-4.85-21.65-5.73-28.66-.62-4.88,0-7.4,1.64-9.78s5.55-7.44,5.56-8.38,1.06-2.46-.26-6.88a17.63,17.63,0,0,1-.94-7,17.28,17.28,0,0,0-9,4.83c-2.33,2.6-11.47,12.47-18.29,22.48-3.52,5.17-5.41,14.12-6.42,15.66-3,4.51,6.95-13.55,8.46-16.59s10.45-14.94,9.7-12S69.12,77.24,74.23,69.27Z"/><path class="cls-10" d="M188.21,42.72s4.93,4.83,7,6.35,3.94,4,4.83,9,2.74,11.63,2.64,13.26,1.1,4,2.2,6.41,4.54,9.25,3.53,6-5.37-15.16-2.88-12,3.55,11.59,7.75,6.3,6.24-10.8,3.2-11.74-8.65-6-7.73-7.36,3.58.34,4.28.7S209.92,54.65,206,51s-9.53-8.33-13.22-8.7S186.56,41.14,188.21,42.72Z"/><path class="cls-9" d="M158.38,62.09a51.78,51.78,0,0,0-17,9.06c-7.13,6-24.43,32.79-29.79,47.74-7,19.67,11,26.25,27.17,28.06,11.3,1.25,20.06,2.92,29.36.71,13.63-3.24,31.46-14.67,34.84-27.09,2.54-9.37-4.73-24.12-9.9-34.66C186.28,72.06,180.14,60.34,158.38,62.09Z"/><path class="cls-10" d="M186,85.44s-4.56-6.51-6.43-5.31-.54,5.88-11.4,7.2c-8,1-16.36-2.26-19.13-3.3S129.73,98.15,127.33,105c-3.7,10.54,9.51,20.61,6.92,27.54s-13,12-19.39,7.05c-4.91-3.86-8.74-15-5.23-22.74s22.43-35.48,30.12-42.17c6.86-6,16.42-11.82,23-12.15,5.7-.28,16.28,3,19.77,7.62s15.94,25.3,19.14,34.62-.15,14.2-2.87,14.49C193.28,119.82,198,99.64,186,85.44Z"/><path class="cls-8" d="M200.19,67.78c0,3.5.54,6.47-.72,8.32-2.07,3.06,2.24,12,.85,11.54-.94-.32-5-6.63-4.18-4.29,7.22,20.74,1.33,5.92,1.33,5.92s-6.65-10.62-11.08-18.15c-3.52-6-6.33-7.39-18.17-10.37-5.45-1.38-10.85-.2-16.35,1.36a38,38,0,0,0-19.63,12.24C117.82,90.81,107,104.13,105.36,98.73c-1.09-3.71-1.34-6.86-6.63-5.52-.62.16-8.91,6.86-7.14,3.3,2.89-5.8,9.75-8.91,4.37-8.45-14.42,1.25,5.24-2.6,4.36-4.75-2.9-7.13-3.46-.58-7.71,1-12.22,4.41,1.09-4.36,1.72-12.11.3-3.75,7.85-11.61,13.29-11.18,10,.8,11.78-14,17.17-5.29,4.52,7.31,5.5,2.51,6.32,9.25.55,4.46,7-4,5.63-9.72-.34-1.5-.1-2.44-1.49-4.37-3.39-4.74-6.84-5.4-11.38-5.52s-10.31,3.75-13.37,7.31-15.1,10-16.39,10.14c-2.1.17,5.78-2.87,9.23-6.56s6.56-9.31,14.56-11.33c5.59-1.41,10.66-1.55,14.5.75,4.86,2.92,6.52,8.82,6.52,8.82a6.71,6.71,0,0,0,2.23,2.93c1.1.65,1.29.32,2,0a19.83,19.83,0,0,0,4.29-2.21c.58-.72,1.79-3.74.75-9.61-1.19-6.72-4.1-10.07-9-11.15s-6.68-1.69-8.32-3c-2.11-1.7-2.48-2.77-6.24-1.46s-7.53,2.92-7.53,2.92-1,0-.58-.81c.59-1.25,3.15-3.68,7.92-5.08,4-1.16,4.79,0,6.39.21s4.94-1.41,4.28.71c-.81,2.55,2.18,4,4.54,4.46a29.11,29.11,0,0,1,4.43,1.33c1.51.59,2.88,1.27,3.67.14S150,31,149.61,29.35c-.31-1.29.57-2.73-1.28-3.83a6.34,6.34,0,0,1-2.4-2.58c1.42.37,3.75,2.39,4.6,2.08,2.65-1,1.36-2.62,6.46-3.06.32,0,3,.33,3.3.34,1.27.23-5-.13-7,2.44-.88,1.11.52,1.87-.18,5.54-.32,1.71-1,3-1.3,4.82-.71,3.91.07,6.1,1.41,11,.68,2.51,1.18,5.18,4,6.47,3.2-.18,6.43-.41,9.74.63,7.18,2.26,2.19-2.89,9.32-5.63,5.37-2.07,12.71-1.36,9.43-.74-3.65.7-13.69,5.4-2.14,3.07,3.69-.74,7.88.81,12.34,4.07C200.7,57.55,200.16,65.18,200.19,67.78ZM162.35,47.72c1.88-.07,1-4.41,1.21-7.46s2.84-3.32,5.31-3.85,4.33,1.68,7.54,2.55a52.2,52.2,0,0,1,9.92,4.27s1.62-.13-.81-2.7c-1-1.06-1.18-2.9-1.76-3.87s-6.63,1.13-11.36-1.27c-2.31-1.17-7-2-9.34.37C159.08,39.8,159.55,47.83,162.35,47.72Z"/><path class="cls-11" d="M163.25,83.2c-5.51,3.62-8.05-15.13-2.59-13.15,3.3,1.2,1.79-1.55-1.95-1.46-2.35.07-6.11,2.27-6.48,6-.32,3.08,1.89,9.16-1,4.29a7.15,7.15,0,0,1,1.6-9.21c4.93-3.16,6.74-4.08,9.65-4.31,5.25-.4,8.47.05,11.07,1.69,1.55,1,3.52,6.06,2.41,7-.56.5-2.18-6.33-5.57-6.89-5.63-.93-5.47,3.43-1.42,2.34,3.62-1,6.42,5.59,5.18,10.58a2.5,2.5,0,0,1-3.86,1.55C168.64,80.66,166.74,80.91,163.25,83.2Z"/><path class="cls-11" d="M101.46,77c.1-7.41,2.75-12.85,11.2-14.74,2.14-.48,7.59-.51,10.47,1.55,4.41,3.15,5,8.75,4.8,10.73a27.92,27.92,0,0,1-4.15,10.12c-2,2.55-5.3,3.76-9.35,3.64C107.67,88.11,101.37,84.26,101.46,77Z"/><path class="cls-12" d="M107.65,69.94s3.29-5.29,10.23-2.72,6.87,12,4.55,15,.62-2.94-.66-7c-1.62-5.1-4.9-6-7.94-6.4S106.72,71.33,107.65,69.94Z"/><path class="cls-12" d="M103.92,76.13a2.11,2.11,0,0,1,3-.9,2.48,2.48,0,0,1,.88,3.21,2.1,2.1,0,0,1-3,.9A2.47,2.47,0,0,1,103.92,76.13Z"/><path class="cls-12" d="M104.44,81.61a1.09,1.09,0,0,1,1.55-.47,1.28,1.28,0,0,1,.46,1.66,1.1,1.1,0,0,1-1.55.47A1.27,1.27,0,0,1,104.44,81.61Z"/><path class="cls-11" d="M179,58.59c-.7-1.94.48-2.3,1.6-3.51,2.16-2.33,5.47-2,7.06-1.79.58.07,9.43,1.19,11.53,8.4s-4.15,15.28-6.83,14.7c-.58-.13,0-.73-1.67-4.25a26.18,26.18,0,0,0-4.38-6.84C182.2,61.24,180,61.2,179,58.59Z"/><path class="cls-12" d="M183.35,58.56s3.6-4.94,10.26-1.88,5.94,12.34,3.46,15.09.81-2.83-.18-6.88c-1.25-5.12-4.42-6.32-7.38-6.89S182.35,59.85,183.35,58.56Z"/><path class="cls-12" d="M190.08,69.71a1.86,1.86,0,0,1,1.09-2.34,1.74,1.74,0,0,1,2.21,1.2,1.88,1.88,0,0,1-1.09,2.35A1.76,1.76,0,0,1,190.08,69.71Z"/><path class="cls-8" d="M131.05,74.23S127.2,77.73,120,84.45c-5,4.66-11.4,2.55-17.46,1.47-1.72-.31,4.55,7.35,4.55,7.35s8.28-4.2,10.43-3.3-1.84,6.92-1.3,6.6C117.32,95.93,131.05,74.23,131.05,74.23Z"/><path class="cls-8" d="M90.15,136.56c0-6.09-1.48-13-2.4-17.3s1.53-8.14,3-.32,2,20.2,4.64,21.21,1.46-12.39,4.3-7,4.6,10.06,7.51,11.38,12.84,3.37,18,4,8.4,2.47-.6,2.12-13-.54-16.28,1-5.43,3.76-7.57,3.51-6.24-1.15-7.78-5S90.11,144,90.15,136.56Z"/><path class="cls-13" d="M71.16,234.16l-7.54-5.36a55.87,55.87,0,0,1,5.82-1.69c1.24-.13,1.58,2.56,1.58,2.56Z"/><path class="cls-12" d="M105.73,154.53s1.43-4.2,5.83-3.86,27.25,1.71,34.9,2.52,22.64-.71,22.64-.71,15.13-10.4,20.4-14.13,8.36-3.85,8.36-3.85,1.93,8.17,2.26,8.94,4.76,54.4,4.76,54.4l-5,18.11-15.93,3Z"/><path class="cls-13" d="M171.25,157.12l9.54,7.91,11.58-17.45s2.66-14.08,1-8S181.46,164.2,171.25,157.12Z"/><path class="cls-12" d="M57.27,188.26l-5.51,4.18s5.08,2.71,10,11.38a70.75,70.75,0,0,1,7.67,17.84A35.19,35.19,0,0,1,71,231.23l10.25-2.16-14.6-40.62Z"/><path class="cls-13" d="M162.15,153.09s-45.64-.78-33.5,2,32.88,14.36,32.88,14.36l6.81-11.81a16.33,16.33,0,0,0-.32,16c4.48,9,11.77,23.09,11.77,23.09s-53.44-39.54-64.64-41.36-13.51-6.06-1.56-5.17S166,151.06,162.15,153.09Z"/><path class="cls-14" d="M169,158.1a16.3,16.3,0,0,0-3.47,7.7c-1.05,6.71,6.09,7.44,6.09,7.44l3.43,15.82,11.81,21,3.75,3.25.48-8s9.28-11.06-.62-21.9c-9.56-10.48-10.76-13.47-10.76-13.47s3.33-3.43,1.43-6.77C177.75,157.17,176.59,160.54,169,158.1Z"/><path class="cls-13" d="M71,231.23l.16,2.93s6.08-1.46,7.59-2.43a9.51,9.51,0,0,0,2.17-1.82L70.6,197.71l-9.46-9.86s-1.34-.14.73,3.34,5.85,14.14,7.75,19.56S74.15,229.08,71,231.23Z"/><path class="cls-15" d="M262.68,133c-2.42-4.19-1.85-10.35-10.08-9.48l-25.55,2.72-11.46,1.24c-3.86.41-8,.43-11.74,1.66-2.9,1-8.61,6.5-9.66,7.72-4.7,5.48-5.34,13.06-5.67,20.18-.38,8.09,1.8,44.47,1.69,52.2C186.47,203,175,187.34,159.9,173.13c-11.25-10.58-30.81-19.45-45.63-19.74-5.12-.09-10-2.35-13.38,2.71-2.5,3.78-6.88,5.56-10.56,8C83,169,67.43,177.7,59,179.89c-4.55,1.18-3.37,6.9-1.42,8.33,11.78,5.06,19.19,42.81,26.07,46a6.67,6.67,0,0,0,9-3.36c4.61-2.69,8.11-4.79,12.78-7.36.24.77,7.59-3.24,9.52,18.5.52,5.86,5.58,9,6.59,8.59,5.37-2.29,3.63,14.28,3.29,20.34-.19,3.21-1.51,6.81,2.15,5.8,18.72-5.17,33.28-35.52,55.56-32.2,6.68,1,3.21-9.77,6-16.42.12-.3.24-.6.35-.91.78,1.67,3,8.21,3.54,10.2,3.06,11,33.46-5.73,47.9,5.87,2.35,1.89,3.08-8.48,3.71-11.34.8-3.62-.7-28.9-1.25-36.78-.49-7.08,2.44-18.16,2.35-19.69a8.08,8.08,0,0,1,2.2-5.14s21.06-10.08,23-14.57C271.92,152.32,264.73,136.56,262.68,133Z"/><path class="cls-15" d="M245.64,172.24h0a3,3,0,0,0,.29-.66h0C245.83,171.81,245.73,172,245.64,172.24Z"/><path class="cls-16" d="M105,161.65,126.05,171l9.35-.72L138.62,184s37.16,12.83,43.68,26.74,4.69,17.59,4.81,21.66.94,11.74-3.45,11.39-12.12,1.58-14.86,2.48-5.59-.92-.13-4.74,13.17-13.17,11.05-22.47-9.94-18.83-25.09-26.14-22.44-4.72-22-9.64.65-10.81.65-10.81-5.41,1.58-9.8-.59S95.92,158.28,105,161.65Z"/><path class="cls-16" d="M149.35,256.73s-7.31,8.33-12.18,4.66-9.79-2.6-7.82-12.54,6.12-26.08,8.73-30.95S148.82,197,140,209s-16.78,28.83-22.23,22.64-6-15.1-3.48-19c13.36-20.22,11.41-18.42,5.6-11.42-4.11,5-7.63,13.68-11.31,1.61-3.86-12.71-8.47-27.21-6.72-15,1.86,13.05,5,26.19,2.32,22.87-5.58-7-4.89-.43-3.69,3.77s-4.6,11.31-8.42,10.9-9-4.07-14-15.63-13-25.58-12.32-23.49,9.72,20.33,13.15,28.89,3.66,15.3,2.36,13.82-1,4.51,2.41,5.17,6.47.91,7-.73c1.23-3.81,10.52-7.64,14.83-10s6.14,2,7.33,6.12,1.5,11,2.36,13.54,2.8,7.44,5.08,7.12,4.3-1.49,5,4.38a58.4,58.4,0,0,1-.08,14.75c-.46,2.79-3.14,8.45,3.08,6.43s10.41-5.29,16.25-10.78S166.59,246.92,149.35,256.73Z"/><path class="cls-16" d="M189.23,223.83s3.32-11.71,5.39-17.06a332.39,332.39,0,0,0,10.48-35.4,97.45,97.45,0,0,0,2.44-19.79L202.33,150l4.78-7s-4.21-6.58-2.08-10.33,4.6-4,7.58-4.59,23.24-2,12.47,1.09-17.7,3.53-17.77,6.78,2.95,10,2.95,10l-3.86,2,6.24,4.21s-9.48,34.27-11.62,42.61,3.19,20.48,4.63,22.22,1.3.41-3,.32-7.73,3.26-4.77,5,3.26,2.22,1.05,5.16-7.13,6.44,4,6.88c7.68.3,19.45-4.55,20.71-10.92,1-4.8,4.17-.51,7,6.35,2.39,5.71,7.72,7.94,4.91,1.1a117.64,117.64,0,0,1-8-35.11c-.69-8.86.39-20.06,1.05-13.91s3.11,27,7.46,37.07.73-6.29.49-13.84.8-12,1.55-7.36,3.07-6.68,1.82-16.14-5.47-15.91-8.91-17.37-6.53-7,.89-3,14.63,9,10.9,2.36-4.93-10.77.87-6,15.4-.85,18.18-3.85,3-8.16,1.26-12.58-.61-6.85,2.91.71,5.62,12.75,2.87,15.8-18.93,11-21.59,12.75-2.53,3.6-3.4,10.76-1.52,6.61-.31,28-.47,29.23-1.13,31.74.45,2.2-3.88.63-12.52-4-20.69-2.47-13,2-16.56,2.38-8.54-2-8.54-2l-3.94-12.19Z"/><path class="cls-17" d="M178,161.48s3.56,5-1.45,7.72-1.91,1-.22-2.14S178.86,162.87,178,161.48Z"/><path class="cls-17" d="M178.77,172.75s1.81,2.32,3.81,5,4.23,5.71,5,7.11a19.33,19.33,0,0,1,2,6.63s1.43,15.88.37,9.08S178.77,172.75,178.77,172.75Z"/><path class="cls-11" d="M175,98.75c-1.77.15-7.56,1.63-9.28,3.15-6.35,5.56-12.94,10.85-22.75,9.28.21-.54-4.34,6.8-4.78,7.68-3.26,6.45,5.29-5,5.29-5,15.67,9.76,31.16,10.38,42.85-4.77C187,110.09,184.38,97.92,175,98.75Z"/><path class="cls-11" d="M170.65,124.49c-6.16.63-12-3.15-10.69-1.46,6.72,8.92,16.54.17,19.91-3.59C181.3,117.86,176.5,123.89,170.65,124.49Z"/><path class="cls-18" d="M169.88,115.86c-2.08-1.2-5.93-1.53-7.75-.43s-.43,4.49,2.92,4.93,12.18-1.1,10.61-4c-1-1.83-2.29-3-3.76-3S171.66,116.89,169.88,115.86Z"/><path class="cls-13" d="M172.84,102.8c6.64-1.69,9.57-1.36,9.57-1.36s-2.36-3.84-10.71-2.34a16.41,16.41,0,0,0-9.18,5.38A52.1,52.1,0,0,0,172.84,102.8Z"/></g></g></g></svg>
