<svg xmlns="http://www.w3.org/2000/svg" xmlns:xlink="http://www.w3.org/1999/xlink" viewBox="0 0 387.17 345.67"><defs><style>.cls-1{fill:none;}.cls-2{fill:url(#Безымянный_градиент_129);}.cls-3{fill:url(#Безымянный_градиент_169);}.cls-4{clip-path:url(#clip-path);}.cls-5{fill:#babbbe;}.cls-6{fill:#dfc5a0;}.cls-7{fill:#c2a185;}.cls-20,.cls-8{fill:#fff;}.cls-9{fill:#4a7fbb;}.cls-10{fill:#cfd1d2;}.cls-11{fill:#444445;}.cls-12{fill:#404041;}.cls-13{fill:#bed7ef;}.cls-14{fill:#0671b8;}.cls-15{fill:#726360;}.cls-16{fill:#5f5451;}.cls-17{fill:#221e20;}.cls-18{fill:#111;}.cls-19{fill:url(#Безымянный_градиент_56);}.cls-20{fill-rule:evenodd;}.cls-21{fill:#fae924;}</style><linearGradient id="Безымянный_градиент_129" y1="123.5" x2="387.17" y2="123.5" gradientUnits="userSpaceOnUse"><stop offset="0" stop-color="#cadcff"/><stop offset="1" stop-color="#fff"/></linearGradient><linearGradient id="Безымянный_градиент_169" x1="5" y1="125.46" x2="377.09" y2="125.46" gradientUnits="userSpaceOnUse"><stop offset="0" stop-color="#fc0"/><stop offset="1" stop-color="#ff9700"/></linearGradient><clipPath id="clip-path"><path class="cls-1" d="M212.33,8c-91,0-164.76,53-164.76,118.46A89.83,89.83,0,0,0,59.06,170a14.42,14.42,0,0,1-5.8,3.53c-4.12,1-3.16,6.17-1.42,7.49l.09.05-1.13,0-5.07,2.61-1.06-.88a2.55,2.55,0,0,1-.38-2.26,8.22,8.22,0,0,0-.18-3.71c0-.1,0-.2-.06-.31a7.11,7.11,0,0,0-2.67-4s0,0,0,0a4.93,4.93,0,0,0-4-1.24,5,5,0,0,0-3.08,1c-.43.35-.85.71-1.26,1.07a9.55,9.55,0,0,0-2.23,2.18l.09-.07A10.52,10.52,0,0,0,28,182.21c-.14,4.61.86,4.54,3.35,6.89-.8.81,3,3.49-15.6,14.36-6.39,3.74-.37,8.58-.72,9.1.09-.15-9.34,2.91-10,8.94a7.23,7.23,0,0,0,.14,2.39h0a1.81,1.81,0,0,0,.3.84A3.77,3.77,0,0,0,6.29,226c1,.94,3,1,4.24,2.14a3.84,3.84,0,0,0,1.27,2.9,2.41,2.41,0,0,0,.8.85,5,5,0,0,0,3.91,1.57c1.34-.22,3.38-1.43,5.22-2.37L24.3,230c2.39-.86,6.54-2.29,9.11-3.17,1.3-.45,4.59-1.56,7.85-3a19.94,19.94,0,0,0,2.86-1.37c2.66-1.39,4.85-3,5.26-4.5l7.17-2.31L61.19,219l9.58-2.31a9.67,9.67,0,0,0,1.7,1.54c3.2,1.56,8.09-1.19,10.6-2.9,4.18-2.34,7.33-3.12,12.66-5.18,29.82,21.48,71.05,34.76,116.6,34.76,91,0,164.76-53,164.76-118.45S303.32,8,212.33,8Z"/></clipPath><linearGradient id="Безымянный_градиент_56" x1="-156.25" y1="72.56" x2="-140.73" y2="72.56" gradientTransform="translate(250.38 19.56) rotate(-16.48)" gradientUnits="userSpaceOnUse"><stop offset="0" stop-color="#c7652a"/><stop offset="0.6" stop-color="#e58c27"/><stop offset="0.93" stop-color="#f19b26"/><stop offset="1" stop-color="#f19b26"/></linearGradient></defs><g id="Слой_2" data-name="Слой 2"><g id="Слой_1-2" data-name="Слой 1"><path class="cls-2" d="M209.17,247c-44.07,0-82.46-9.2-114.16-31.24l-1.86.67a47.5,47.5,0,0,0-7.46,3.16c-2.84,1.91-7,4.1-11,4.1a10,10,0,0,1-4.38-1,5.83,5.83,0,0,1-.91-.55l-9.22,2.22-4.45-3.19-2.92.94a18.78,18.78,0,0,1-6.24,4.72,24.68,24.68,0,0,1-3.37,1.61c-3.19,1.4-6.32,2.48-7.84,3l-.29.09c-2.72.94-6.57,2.27-8.88,3.1l-2.29,1-1,.52a18.92,18.92,0,0,1-5.55,2.27,7.92,7.92,0,0,1-1.29.1,10.21,10.21,0,0,1-6.58-2.72,7.42,7.42,0,0,1-1.63-1.68,8.29,8.29,0,0,1-1.61-2.55,8.74,8.74,0,0,1-3.42-2A8.37,8.37,0,0,1,1,227a7,7,0,0,1-.6-1.46l-.24-.47v-.7A12.89,12.89,0,0,1,.06,221c.53-5.14,4.39-8.67,8.08-10.83a9,9,0,0,1-.19-4.4c.4-1.85,1.17-5.64,5.25-6.62a28.53,28.53,0,0,0,15-9.14,9.63,9.63,0,0,1-3-8c.11-3.44,3.32-11.58,4.62-12.59l1.26-1.08A9.87,9.87,0,0,1,37,166.24a10.09,10.09,0,0,1,1.09-.06,9.87,9.87,0,0,1,6.48,2.43,11.56,11.56,0,0,1,2.78,3,8.75,8.75,0,0,1,4.78-2.94,2.72,2.72,0,0,0,.54-.19,93.68,93.68,0,0,1-10.06-42c0-33.3,18.14-62.12,50.6-85.46,32-23,76-41,121-41s87,20,119,43c32.46,23.34,54,56.71,54,90s-23,57.94-55.42,81.28C299.79,237.26,254.22,247,209.17,247Z"/><path class="cls-3" d="M207.17,6c-44,0-79.7,16.34-108,37-30.27,22.1-51.6,49.64-51.6,83.46A89.83,89.83,0,0,0,59.06,170a14.42,14.42,0,0,1-5.8,3.53c-4.12,1-3.16,6.17-1.42,7.49l.09.05-1.13,0-5.07,2.61-1.06-.88a2.55,2.55,0,0,1-.38-2.26,8.22,8.22,0,0,0-.18-3.71c0-.1,0-.2-.06-.31a7.11,7.11,0,0,0-2.67-4s0,0,0,0a4.93,4.93,0,0,0-4-1.24,5,5,0,0,0-3.08,1c-.43.35-.85.71-1.26,1.07a9.55,9.55,0,0,0-2.23,2.18l.09-.07A10.52,10.52,0,0,0,28,182.21c-.14,4.61.86,4.54,3.35,6.89-.8.81,3,3.49-15.6,14.36-6.39,3.74-.37,8.58-.72,9.1.09-.15-9.34,2.91-10,8.94a7.23,7.23,0,0,0,.14,2.39h0a1.81,1.81,0,0,0,.3.84A3.77,3.77,0,0,0,6.29,226c1,.94,3,1,4.24,2.14a3.84,3.84,0,0,0,1.27,2.9,2.41,2.41,0,0,0,.8.85,5,5,0,0,0,3.91,1.57c1.34-.22,3.38-1.43,5.22-2.37L24.3,230c2.39-.86,6.54-2.29,9.11-3.17,1.3-.45,4.59-1.56,7.85-3a19.94,19.94,0,0,0,2.86-1.37c2.66-1.39,4.85-3,5.26-4.5l7.17-2.31L61.19,219l9.58-2.31a9.67,9.67,0,0,0,1.7,1.54c3.2,1.56,8.09-1.19,10.6-2.9,4.18-2.34,7.33-3.12,12.66-5.18,29.82,21.48,71.05,34.76,116.6,34.76,91,0,164.76-53,164.76-118.45S298.17,6,207.17,6Z"/><g class="cls-4"><path class="cls-5" d="M255.69,338.47c1.61.54,12.25,4.94,46.77,6.26s48.17-3.48,28.63-13c-4.25-2.07-68.7-17.21-85.14-16C233.7,316.65,189,315.94,255.69,338.47Z"/><path class="cls-6" d="M261.94,138.15l-.08,0h0C261.94,138.12,262,138.14,261.94,138.15Z"/><path class="cls-6" d="M202.49,120.51c3.89.77,18-4,21.91-3.52,3.5.43,8-3.29,11.6-3.39,2.91-3,4.06-6.14,4.94-6.06a19.79,19.79,0,0,1,7,1.93,17.63,17.63,0,0,1,5.56,4.51,9.36,9.36,0,0,1,3.82.57c10.73,3.83,21.54,7.51,32.18,11.59,7.93,3,24.74,11.78,25.66,12.24,12.92,6.41,25.87,14,34.42,26A48,48,0,0,1,358,184c1.38,8.06.06,16.16-2.29,23.89s-6.07,15-9.84,22.13c-2,3.75-6.58,6.21-10.72,4.16-3.72-1.83-6.81-7-4.17-10.71,7.16-10.05,10.95-27.51,11-28.16a8.14,8.14,0,0,1-4.05,1c-4.11-.05-8-7.32-8.05-7.45a39.24,39.24,0,0,0-5.06-5.17c0,1,.85,8.48,1.15,10.14,2.17,3.38,4,7.11,4,11.17s-3.93,16.92-4.2,18.41c-.51,2.8,3,20.06-2,35.91-.75,2.36,6.5,10.91,4.28,14.05-.15,1.49-13.24,25.13-22.53,21.83a130.8,130.8,0,0,1-16.18-7.31s-2.47-16.43-3.15-20.54c-.59-3.58-17-14.63-16.26-12.16S277.73,277,277.73,277s11.37,11.76,15.72,13.76c6.52,3.24,13.49,7.57,15.25,11.89,3.1,7.63-5,24.8-9.29,30.32a26.76,26.76,0,0,1-7.16,5.18c-2,.55-11.08-1.1-11.08-1.1-4.21-.62-7.7-4.91-6.87-9.22a8.69,8.69,0,0,1,4.45-6.08l-.27-.31c-.34-.34,2.84-8.91-14.79-20.94-6.11-4.17-20.06-15.59-21.45-17.32-3.71-4.65-5.67-13.49-7-19.27-1.12-4.77-10.25-20.32-7.72-35.41.27-1.57,3.6-15.93,3.31-16.93-.83-2.82-.36-16.35-.36-16.35.07-.56-1.63-10.6-1.71-10.35.13-.45-3.24-19-4.33-21.82-1.29-3.27-11.13-17.15-9.32-15.58-2.3-2-4.45-4.1-6.9-5.94C198.51,134.2,194.48,118.91,202.49,120.51ZM254,261.3l.06-.15,0-.1C254.13,260.72,254,260.69,254,261.3Zm7.91-123.15a4.28,4.28,0,0,0,.57.24.24.24,0,0,1,0-.08l-.21-.1a2.61,2.61,0,0,0-.42-.1h0l-.31,0a2.35,2.35,0,0,0-.37,0A2.85,2.85,0,0,0,261.94,138.15Zm-1,0-.46.09-.21.07h0C261.16,138.22,261.25,138.1,261,138.12Zm-28.42,75.43a2.58,2.58,0,0,0-.74.94A7.87,7.87,0,0,1,232.55,213.55Z"/><path class="cls-7" d="M269.7,254.08s-9.24-5.87-11.79-7.53-13.43-15.29-7-9.61,18.11,11.24,27.5,14.55a87.21,87.21,0,0,0,21.2,4.83c5.29.56,8.86,2.59,3,2.81s-13.79-2.67-7.34,1.71,11,8.7,5.16,10.21-8.93,2.34-7.54,6-.15,9.86,4.38,12.67,16.64,2.87,20.84-2.31,11-19.44,8.51-20.23-18.91,1.09-12.95-1.47,7.11-3,8.51-9.71-4.68-9.65-8.92-11.59c-6.83-3.13-23.61-5.93-32.43-8.66-4.76-1.47-18.38-8.86-10.49-12.85s46.93,5.1,51.38-3.26,5.67-15.28,3.94-18.11-8.44-2.53-12,1-13.63,6.59-3.53-2.24,17-9.32,13.69-14.32-10.84-11-5.68-8.13,7.74,4.14,7.49,11.83,5.42,9.66,4.42,16.44-5.69,13.53-4,23.83,11.26,14.68,10.68,18.62S332,277.76,325.3,285s-8.64,22.36-22.05,10.14c-1.9-1.73-1.62.09-6-1.85s-12.31-7.93-11.55-21.18c.27-4.78-1.19-8.39-4.94-11.36A86.39,86.39,0,0,0,269.7,254.08Z"/><path class="cls-7" d="M280.82,259.14s-11.94-5.58-19-6.87c-6-1.08-16.24-6.46-7.48-1.74,0,0,16.24,7.89,17.59,13.39s4.36,8.3,3.86,14.67-1.8,22.51.87,16,7.59-4.9,8.68-6.46,1.21-.89-3.19-6-5-15-6.23-17.6C272.15,256.75,280.82,259.14,280.82,259.14Z"/><path class="cls-7" d="M281.81,315.35a1.42,1.42,0,0,1-.14.3C281.88,315.08,282,314.89,281.81,315.35Z"/><path class="cls-7" d="M230.83,199.84c.55-3.79-.5-12.75-.5-12.75s4,3.59,8.45,8.33a86.5,86.5,0,0,0,16.3,13.34c5.51,3.39,15.29,10,5.21,5.49s-23.8-17.88-22.53-11.89,4.36,15,7.33,17.4c5.36,4.34,17.42,11.57,4.48,6s-15.84-6.19-17.56-3.22-4,6.72.4,13.38,8.39,13,3.72,9.78-3.59,2.48-1.69,8.56,2.06,13.83,7.75,19S256,281.71,261.65,284s6.73,2.49,7,7.69,3.66,8.71,7.55,14.42c4.95,7.28,14-1.52,10.6,2.42-9.67,11.33-2.61,10.46-6.82,14.25-2.57,2.31-5.36,10.32,2.15,8.8,2.77-.57,2.44-5.48,4.36-1.19.57,1.26-1.23,4.76,5.84,3.43s9.17,1.88,1.25,3.14-9.4,1.15-12.45,0-7-1.15-6.63-5.68,2.31-9.4,3.92-9.93c-.14-2.87-.58-7.21-1.94-9.83-2.18-4.18-6.92-6.75-12.83-11.11s-15.39-11.9-19-15-4.87-4.81-6.39-9.11-1.09-8.29-3.09-12.46-7.76-20.49-8.39-27.88,4.8-20.8,4.39-22.63A59,59,0,0,1,230.83,199.84Z"/><path class="cls-7" d="M328.05,146.86l-1.89.33c-5.33.9-20.69,3.31-29.81,2.76-11.18-.67-31.5-6.55-38.75-13.41S236.42,117,234.94,113.88s1.36-2.25-1.47-3.11-7.67.59-5.8,3.19,13.35,13.38,20.54,21.52,18.1,17.15,29.83,27.25,13.29,3.88,15.32,1,9.27-6.05,17.88-5.44,11.54-1.85,15.16-4.54,19.88,4.68,12.39-.81"/><path class="cls-6" d="M167.45,86.55c.14-4.25-4.31-6.84-4.31-6.84s-3.39-9.88-3.83-13.47-6.83-9.4-9.42-4.93-1.62,11-1.66,14.58-3.68-1.25-4.63,2,2.52,12.42,2.64,18.23-5.82,15.1,5.41,16.74,13.87.1,16.23.45"/><path class="cls-7" d="M309.42,338.79s9.29,1.46,9.88.74,4.88-4.76,2.93-7.95-3.73-9.73-4.34-13.2,1.29-14.31,4.15-20.65,6.23-15,6.23-15-1.93-1.09-2.84-.41-10.66,12.29-12.8,12.62S299,292.57,299,292.57s-2.42,0,1.11,2.26,8.25,5.05,8.72,9c1.11,9.29-3.44,4.82-6.32,24.84-.8,5.51-13.26,8.37-5,9.26A119.68,119.68,0,0,0,309.42,338.79Z"/><path class="cls-6" d="M345.3,238a4,4,0,0,0-.92,3.3c.36,2,3.14-2.23,4.69.64,1.13,2.09,1.53,2.79,2.26,1.08.83-2,1.7,6.1.07,7.58a11.87,11.87,0,0,1-9.63,3.42c-3.82-.34-6.4-5.45-6.4-5.45l-2.29-15.9,5.53-2.52,8.07,3.54Z"/><path class="cls-8" d="M334.51,143.46l-.83-3s-.82,4.38-15.9,9.42-41.25,5.63-41.25,5.63-23.5-18.83-29.36-25-15-19.1-15-19.1l-3.08,1.28L226,115.63l10.84,42.51,38,37.15s60.68-43.62,60.91-44.07S334.51,143.46,334.51,143.46Z"/><path class="cls-9" d="M281.32,170.4a5.76,5.76,0,0,1-2.74,1.86c-2.05.77,1.45,5.47,1.45,5.47s-.27,3.29-.73,3.55S270,188.4,270,188.4l-7.2-10.19s7.07-3.75,7.32-5.33-3.56-2.16-3.52-4.1c.1-6.21,9.24-10.67,9.24-10.67l6.39,11.35Z"/><path class="cls-10" d="M274.44,159.3c-.3.31-7.08,6.53-7.08,6.53a183.24,183.24,0,0,1-13.56-13.58c-5-5.89-12.06-16.59-14.9-20.87s-9.34-18.69-1.62-4.35c1.65,3.06,21.69,29.87,25.83,32.62C271,164.91,280,153.51,274.44,159.3Z"/><path class="cls-11" d="M173.23,119.75c3.82.73,31.13-1.57,44.12-2.76,2.19-.2,13.42-10.51,21.12-8,3.93,1.26-2.77,7.07-1.25,10.79S249,155.5,258.68,168.2c4.3,5.63,8.95,11,13.68,16.26,10.92-10.25,40.83-28.76,58-38.54,7.73-4.4,9.62-.79,11.64,3,9.09,5.62,14.76,14.67,19.08,24.34a99.44,99.44,0,0,1,6.13,17,35.53,35.53,0,0,1-.77,19.29c-1.85,5.89-5.3,11.26-8.9,16.21a63.64,63.64,0,0,1-5.19,6.67c-3.31,3.45-7.78,4.53-12.16,2.3-3-1.51-5.85-3.22-8.74-4.87a22.75,22.75,0,0,1-2.81-1.8c0,.2.1.41.12.49.51,1.67,3.44,7.95,7.43,11,1.93,1.48,2,11.66-3.14,7.81-3.79-2.81-33.31-11.85-47.57-12.13-6.35-.13-16.61-12.44-16.63-12.45h-.41a76.19,76.19,0,0,1-7.1,3c-4.38,1.23-8.69.61-13-.71-3.86-1.2-7.55-2.95-11.26-4.52s-7.07-3.77-7.15-7.93a39.83,39.83,0,0,0-1.18-10.54c-.21-.94-2.39-5.22-2.82-7.6-.82-4.43-.66-7.14-.29-7.48-.51-7.67-2.06-26.11-9.89-34.7-13.11-14.38-38-12.47-42.58-16.14-.88-.71-1.82-8.95-2.32-10.13C169.87,123.6,171.68,119.46,173.23,119.75Z"/><path class="cls-12" d="M270.78,188.08s-13.1-10.26-25.42-21.42-24.85-31.26-24.85-31.26l7.14-3.25-6.53-5.26,1.81-11.16s-4.6-2.75-4.26,2.62a28.15,28.15,0,0,1-1.32,10l7.54,3.52-6.95,3.49s-.82,1.17,2.95,6.24,26.43,29.32,34.4,36.61,14,10.92,14.08,14-.44,8.47-1.67,7-1.81-2.58-3.85-3.46c-3.33-1.46-6.7,1-4.82,5.09,1,2.07,5.92-1.55,4,1.39s-4.09,5.58-6,6.05-7.76,3.53-2.1,2.26,9.47-7.47,9.47-7.47.61.25,1.67.73a2.46,2.46,0,0,1,1.52,2.8c-.21,1.42-4.75,4.3-5.46,4.52s-2.28,3.21,1,1.6,1.93,2.21.93,3.52a9.38,9.38,0,0,1-5.56,3.85c-2.82.56-9.45-2.55-11.9-4.5s-7.81-3.9-3.31-.48,3.77,6.1-.09,3.89-7.7.5-10.66-3.48-2.17-9.34,1.11-6.45,1.22,3,1.63,1.34-3.87-5.54-5-10.71-5.4-12.52-1.46-10.81,5.57,7,6.8,8.51,5.92,3.61,2.89.1-7.7-15.62-11.27-19.85.61-4.16,3.4-2.28,11.88,4.68,2.52-1.85-14.38-11-10.19-4.42,3.45,16.67,2.77,17.85-.66,5.94,1.07,9.69a11.22,11.22,0,0,1,1,6.78c-.66,1.88,2,3.68,1,7.93,0,0-.54,4.53,1.12,5.82s19.32,8.16,20.78,8.62,10.61,2.36,10.61,2.36l7.6-5.42Z"/><path class="cls-12" d="M274.47,189.27s21.4-8.25,30.16-10.83a164.58,164.58,0,0,0,16.55-5.95l.52-8.09,6.33.93,14-16.46a71.15,71.15,0,0,1,21.89,24.68c8.44,16,7.61,21.73,7.61,21.73s-2.81,13-8.09,21.32-16.25,21.67-16.25,21.67l-10-5.17s-9.3-6.2-3-4.3,15.42-.8,16.39-2,14.3-18.41,9.58-13.68-13.22,12.18-5.52,2.52,9.68-22.1,9.59-29.2-10.77-24.3-13-25.75-8.68-5.62-15.55.62-6.43,7.6-9.15,6.39l-2.73-1.2-.75,8.43S288.93,186.23,283.67,188s-9.63,2-10.9,4-1,6.94-1,6.94S268.42,192.09,274.47,189.27Z"/><path class="cls-12" d="M341.25,178.76a44.17,44.17,0,0,1-22.91,14.58c-7,1.87-15.75,7.78-5.82,4.51s15.26-5.92,12.81-2.41-10.48,12.21-5.53,8.85,7.27-5.7,8.81-1.93-.63,7.21-1.17,8-8.5,16.93-3.91,10.55,6.37-8.26,6.47-4.59-3.19,7.05-3.07,11.36,1.56.45,2.6,3.6,3.34,8.87.89,10.45-2.91,1.66-10.14-1.33-12.34-4.58-16.62-8.5c-8.38-7.71-17.62-17.51-13.4-11.1s14,17.09,6.49,14.27-16.44-8-19.55-11.67-5.37-19-5.84-12.89-5.11,8.87.23,13.57,6.29,10.05,10.62,10.68c48.21,7,55.12,17.47,55.12,17.47s1.29-8.06-.44-12.65-4.32-9.25-2.64-14.15c1.33-3.88,8.37-8.76,4-13.92-2.66-3.12,3.75-13.53-.23-15.19S341.25,178.76,341.25,178.76Z"/><path class="cls-10" d="M276,159.21l6.34,10.91a166.44,166.44,0,0,0,15.41-7c7.33-3.87,18.23-9.23,18.23-9.23L331.51,146l3-2.52.37-4.83s-.34,4.42-6.13,7.85c-4.43,2.63-28.8,13.34-36.43,16.3s-9.81,1.68-11.9-.13S273.94,155.68,276,159.21Z"/><path class="cls-13" d="M272.31,163.34s-3.83,2.66-4.28,4c-.75,2.17,2,4.18,5.42,4.42,3.12.22,3.46-.11.71-.59s-5.86-1.67-3.7-5C271.85,164,275.19,160.22,272.31,163.34Z"/><path class="cls-13" d="M272.19,173.74s-2.26,1.81-3.18,2.59-2,1.64-2,1.64l2.1,2.67s-.67-.91,1.76-3.18S275.9,172.94,272.19,173.74Z"/><path class="cls-12" d="M319,221.73s-10.79-3.35-15.94-5.56-9.74-7.22-10.87-5a15,15,0,0,0-1.26,5.29s-.31-2.3,2.47-2.54c1.47-.12,25.48,8.59,26,10.17,4.68,15.16,2,6.1,1.15.06C320.42,223.44,321,223.39,319,221.73Z"/><path class="cls-12" d="M326.39,202.84l-9.34,18.27-.74-.24s3.24-19.73,3.74-20.19-17.47-16.31-17.47-16.31,2.27-1.3,5.51.48c14.81,8.13,21,3.36,21.85,4,2.85,2.06-1.39,10.27-1.39,10.27Z"/><path class="cls-14" d="M316.31,220.87l8.51-22.08s-24.16-15.35-24.25-13.91-4,27.12-4,27.12,4.11,3.5,12.44,6.43C312.39,219.62,316.31,220.87,316.31,220.87Z"/><path class="cls-6" d="M247.05,90.91a53.53,53.53,0,0,1-5.88,12.76c-6.33,10.31-3.07,13.91-2.75,14.46,1.72,3,6.27,3.51,7.16,4.23,0,.94,22.34,13.53,31.85,18.67s22.81,3.9,22.66,3.8c4.57.21,9.31,2.14,9.92,2,4.41-.79,6.44-.83,10.7-2.41,5.23-1.93,11.11-7.11,12.35-13.26.21-1,.49-8,1.12-12.19.81-5.42,3.85-7,4.19-7.72,1.22-2.45,2.36-4.9,3.37-7.44,1.67-4.21,3.67-9.17,2.3-13.36A57.3,57.3,0,0,1,342,81.72a10.72,10.72,0,0,0,.06-3.64c-.59-1.92-2.6-3.87-2.78-4.51-1.77-6.06-4.26-13.11-8.5-15.72-1.39-.86-4.77.74-5.38-.55-1.17-2.5-2.22-4.32-4.87-5.43-1.55-.64-3.49.2-5.19.39-1.26.14-4-2.79-5.05-3.33a11.45,11.45,0,0,0-9.57-.72,6,6,0,0,0-1.32.36c-4.16,2.21-4-1.69-8.27-2.57-2.42-.5-5.09-.71-7.36.41-8.15,4-6.63.56-10.37,3.6-2.39,1.93-2.11,6.88-3.91,8.57-2.38,2.24-7.1,1.42-9,3.55a42.7,42.7,0,0,0-7.93,14C250.74,80.88,248.58,86.09,247.05,90.91Z"/><path class="cls-15" d="M341.85,83.2a27.91,27.91,0,0,0,2.73,2.13c1.48,1,3.38,2.88,4.75,7.89s3.41,14.57,3.78,16.88.71,8-3.82,9.54S340.43,122.45,339,124s-3.69,6-5.56,5.49-.61-11.84.89-13.92c.79-1.09,7.17-9.76,8.92-17.9A26.76,26.76,0,0,0,341.85,83.2Z"/><path class="cls-6" d="M308.75,169.52l0,.09C308.72,169.76,308.77,169.73,308.75,169.52Z"/><path class="cls-15" d="M220.48,71.85s7.16-5.39,19.05-12.6a77.39,77.39,0,0,1,26.09-9.9c4.27-.81,8.12-.31,7.24,1.14s-1,3.59-2.23,5.84-2.25,3-5.4,4.26-5.79,2.27-7.84,5.52-5.63,11.5-8,18.15-9,20.91-9,20.91-1.87-3.88-5.4-12.06-6.54-13.27-10.21-15.36S217.8,75.51,220.48,71.85Z"/><path class="cls-16" d="M258.94,54.24s5.2-3.84,7.61-2.76,4.39,3.42,2.8,4.93-11,2.49-14.07,4.24-5,3.52-7.87,8.37-2.95,13-5.76,13.31-5.26-2.14-5.93-3.09c-2-2.88-5-3.9-2.82-.7s6.52,9,7.19,10.41c1.81,3.76,3.43-.8,4.22-3.55s3.91-10.93,4.79-12.92,4.27-4.76,2.13,1.15-3.7,11.51-6.43,18.07-3.94,9.51-5,8-1.92,0-.81,2.41,1,3.57,2.9.33A111.23,111.23,0,0,0,248,88.52c1.32-3.66,5.89-15.79,8.23-20.61,1.63-3.36,3.06-4.72,5.1-5.55s6.62-2.43,7-3a8.73,8.73,0,0,0,2.69-4.48,13.41,13.41,0,0,1,2.3-4.84,13.06,13.06,0,0,0-7.73-.66,170.12,170.12,0,0,0-21,6.72c-4.38,1.83-9.3,6.75-10.57,7.31-3.75,1.65,10-5.74,12.25-7.05s12.85-5.18,11.15-3.62S252.38,57.2,258.94,54.24Z"/><path class="cls-16" d="M342.48,84.6s1.13,5.11,1.83,7,.88,4.15-.67,7.77-3.07,8.53-3.82,9.53-.94,3-1.25,5-.95,7.77-.25,5.29,2.87-11.87,3.14-8.83-2.54,8.85,2.32,7.22,8.45-4.28,6.91-6.14-3-7.41-1.88-7.89,2.14,1.7,2.44,2.22.1-4.52-.91-8.51-2.61-9.25-4.81-11S342.09,82.91,342.48,84.6Z"/><path class="cls-15" d="M266.47,108.25c-5,1.07-4.49,3.82-4.19,4.94a90.54,90.54,0,0,0,9.93,19.36c6,8.74,17.78,8.95,26.33,8.12s13.13.93,19-1.71,6-7.74,6.27-9.51,1.29-8,2.22-17.75-2.91-15.28-3.53-16.37-1.53-5.1-2-6.83-4.28-2.07-6.32-2.59-4.55-1.11-6.53-1.45-8.92,0-20.06,6.9a141.28,141.28,0,0,0-20.92,16.51"/><path class="cls-7" d="M339.71,105.51c-1.43,2.24-2.33,4.34-3.9,5-2.59,1.09-3.56,8.58-4.25,7.69-.46-.59-.42-6.29-.88-4.46-4,16.19-1.61,4.32-1.61,4.32s1.69-7.7,2.37-14.3-1.54-12.18-7.84-19-14.52-9.68-29.85-3.25-19,9.49-23.39,15c-6.6,8.36-4-.81,0-4.18,18.1-15.37-5.85.1-3.8-6.48.87-2.8,2-4.93-1.94-6.27-.46-.15-8.51.67-5.91-.85,4.25-2.5,9.9-1.63,6.28-3.57-9.69-5.19,4.42.52,4.75-1.22,1.11-5.74-2-1.8-5.3-2.59-9.61-2.26,2.5-2.32,6.11-7,1.75-2.26,9.81-4.14,13.09-1.61,6,4.66,13.31-4,13.13,3.76-.16,6.52,2.46,3.88.18,8.5-1.5,3.07,6.08.36,7.62-3.85.4-1.1.94-1.6.86-3.4-.2-4.42-2.12-6.27-5-8.23s-8.11-1.89-11.53-.89-13.78.12-14.64-.34c-1.41-.76,4.87.57,8.6-.35s8-3.21,13.95-1.18c4.15,1.42,7.43,3.43,8.92,6.49,1.89,3.87.5,8.32.5,8.32a5.14,5.14,0,0,0,.2,2.79c.43.87.69.73,1.29.85a15,15,0,0,0,3.66.37c.66-.22,2.68-1.64,4.45-5.8,2-4.77,1.57-8.11-1.08-10.82s-3.55-3.84-4-5.35c-.65-2-.44-2.79-3.37-3.51s-6-1.27-6-1.27-.61-.39,0-.76c.89-.55,3.53-1,7.14,0,3,.9,3.05,2,4,2.79s3.73,1.14,2.42,2.22c-1.56,1.29-.27,3.46,1.05,4.72a23.19,23.19,0,0,1,2.26,2.69c.72,1,1.31,2,2.28,1.6s2.56-.91,3-2.12c.34-.94,1.5-1.49.77-3a4.93,4.93,0,0,1-.45-2.64c.75.83,1.39,3.08,2.06,3.23,2.1.48,2-1.1,5.39.73.21.12,1.78,1.46,2,1.59.7.67-3.11-2.14-5.48-1.36-1,.34-.45,1.4-2.42,3.45-.91,1-1.88,1.53-2.82,2.53-2.08,2.19-2.49,3.91-3.68,7.61-.61,1.88-1.4,3.78-.16,5.77a19.93,19.93,0,0,1,5.94,4.43c3.63,4.42,2.59-.93,8.27.28,4.27.91,8.65,4.41,6.3,3.44-2.61-1.07-10.95-2.24-2.63,1.07,2.66,1.06,4.68,3.77,6.17,7.7C344.28,99.21,340.78,103.85,339.71,105.51ZM324,77.06c1.23.73,2.43-2.41,3.86-4.25s3.18-.93,5-.24,2.06,2.86,3.75,4.75a39.78,39.78,0,0,1,4.54,6.82s1.09.59.6-2c-.2-1.1.45-2.34.49-3.2s-4.69-2-6.7-5.51c-1-1.71-3.6-4.19-6.1-3.64C325.15,70.66,322.12,76,324,77.06Z"/><path class="cls-16" d="M262.28,113.19s3.2,8.91,4.73,9.5c23.66,9,2.76-17.15,28.92-30.37,4.32-2.18,6.77,6.13,13.78,6.21,6.8.09-3.18,14.94-.37,12.74,5.6-4.38,4.57-11.9,5.48-11.25,6.68,4.69,6.84-8.94,6.67-6.61a5.21,5.21,0,0,0,0,.55c0,2.06.6,3.72,1.11,6.32.55,2.83.32,8,.82,14.4s-.74,10-.61,12.11,1.14,3.27,2-2.5,2.36-13.25,1.06-19.24-3.07-17-7.12-17.83c-4.42-.9-7.81-2.71-11.12-2.76-14.95-.26-31.9,15.07-36.6,19.41s-6.25,5.37-6.94,5.67S261.45,112.8,262.28,113.19Z"/><path class="cls-17" d="M309.66,98c-4.91-1-1.32-10.77,1.7-7.55,1.83,1.94,2.33-1.65-.23-2.87-1.62-.76-4.44-1.6-6,.77-1.28,2-1.87,6.86-2.18,2.54a5.42,5.42,0,0,1,4.25-5.68c4.42-.45,6.92,1.88,8.14,2.17s4.5.76,5.7,2.76c.71,1.2,1.39,5.72.3,6-.54.14-.8-4.86-1.72-5.56C316.23,88,315,92.49,318.11,93c1.56.24,2.54,3.71,0,6.66a1.9,1.9,0,0,1-3.15-.28,3.51,3.51,0,0,1-.36-3.14C315.73,92.45,317.39,99.54,309.66,98Z"/><path class="cls-17" d="M273.05,70.47c3.14-4.68,10.14-3.9,13.18-3,1.59.49,4.32,1.33,5.3,3.84,1.49,3.83-2.27,8.55-3.21,9.74a9.22,9.22,0,0,1-4.24,3.5c-2.34.79-4.93.19-7.46-1.56C272.41,80.09,270,75,273.05,70.47Z"/><path class="cls-8" d="M279.92,68.52s4.29-2,7.64,2.52-.61,10.5-3.32,11.44,1.61-1.61,2.46-4.71c1.08-3.91-.61-5.88-2.4-7.36S278.76,69,279.92,68.52Z"/><path class="cls-8" d="M275,70.92a1.6,1.6,0,0,1,2.27.66,1.87,1.87,0,0,1-.77,2.41,1.6,1.6,0,0,1-2.27-.66A1.87,1.87,0,0,1,275,70.92Z"/><path class="cls-8" d="M273.05,74.62a.83.83,0,0,1,1.18.34,1,1,0,0,1-.4,1.25.83.83,0,0,1-1.18-.34A1,1,0,0,1,273.05,74.62Z"/><path class="cls-17" d="M330.05,90.89c.36-1.53,1.26-1.27,2.47-1.57,2.35-.59,4.3,1,5.24,1.78.34.29,5.51,4.67,3.85,10.13s-9,8-10.43,6.52c-.32-.32.32-.44.69-3.39a19.59,19.59,0,0,0,.05-6.17C331,93.89,329.56,92.94,330.05,90.89Z"/><path class="cls-8" d="M332.82,92.66s4.34-1.65,7.31,3.06-1.34,10.31-4.06,11,1.69-1.47,2.74-4.46c1.33-3.78-.19-5.85-1.84-7.44S331.65,93.07,332.82,92.66Z"/><path class="cls-8" d="M332.48,102.55a1.41,1.41,0,0,1,1.66-1,1.33,1.33,0,0,1,.91,1.68,1.42,1.42,0,0,1-1.67,1A1.32,1.32,0,0,1,332.48,102.55Z"/><path class="cls-7" d="M294.25,80.77s-2.29-.6-9.66.69c-5.11.9-9.92-1.87-13.34-5.07-1-.91-.14,6.56-.14,6.56s7,.76,8,2.23-4,3.63-3.56,3.66C276.51,88.89,294.25,80.77,294.25,80.77Z"/><path class="cls-7" d="M241.17,103.67a64.87,64.87,0,0,0,5.64-12c1.21-3.14,4.35-4.55,2,1s-7.09,13.68-5.83,15.42,6.06-7.28,5.64-2.68-1.25,8.31.06,10.35,6.77,7.47,9.79,10,4.32,5-1.26,1.1-8.07-5.75-10.78-6.1-5,.15-6.27-.91-3.5-3.31-2.87-6.42S238.07,108.37,241.17,103.67Z"/><path class="cls-5" d="M142.58,342.72c-1.33.38-10.2,3.61-38.4,2.83s-39.14-5.75-22.79-13c3.55-1.57,56.75-11.16,70.1-9.17C161.44,324.9,197.9,326.79,142.58,342.72Z"/><path class="cls-5" d="M210,318.68c-1.05.33-8,3.23-30.38,1.45s-31.25-7.1-18.52-13.7c2.77-1.43,44.67-9.09,55.33-6.63C224.41,301.63,253.41,304.81,210,318.68Z"/><path class="cls-6" d="M174.66,136.51c.56-.49,3.25-.83,3.8-1.33,3.94-3.57,3.89-3.56-.05,0-.55.5-6.52,1.55-11.25,4.2.21,0-12.4,9.61-25.2,10.43-12.52.8-41.84,2.12-43.69,1.32,3.88,6.12-34.06,27.11-35,29.1-4.86,4.24,0,8.15,3,14.7,3.14,7,2,14.19,8.89,16,3.52.93,2.51,5.7,5.79,4,1.4-.71,17.67-8.05,21.61-10.92,5.56,8.1,18.65,37.93,19,38.29,0,.64-7.46,15.06-6.92,19.89a290.2,290.2,0,0,1,1.52,38c0,2.32-4.89,6.19-5.31,6.76-14.26,5.66-9.85,27.18-9.23,30,.33,1.46,2.59,4.55,4.93,4.39,2.69-.18,24.71-2,32.71-5.34,4-1.67,7.47-4.35,8.21-9.23a23.73,23.73,0,0,0,.11-5.2c.8-1,6.07-21,7.16-24,2.44-6.63,5.06-13.2,8.13-19.52,1.48-3.07,8.43-14.59,9.1-15.5,0,.28.39,4.82.5,6.82.18,3.38-.48,27.55-.73,29.89a22.78,22.78,0,0,0-.1,6.28,10.71,10.71,0,0,0,4.83,7.72,12.72,12.72,0,0,0,5.88,1.59A54.52,54.52,0,0,0,208,311a6.8,6.8,0,0,0,4-6.86c-.35-2.73-2.35-5.8-5.15-6.06l-4.31-.4c-3.33-1.56,8.91-44.59,8.91-44.59.39-1.63,2.71-6.22,3.77-11.28,1.94-9.23,1-12.4,2.08-21.77a204.62,204.62,0,0,0,1-34.39C218.08,180.06,175.48,136.56,174.66,136.51Z"/><path class="cls-6" d="M97.9,151.07c-1,.06-3,.78-5.19,1C94.88,151.86,96.88,151.15,97.9,151.07Z"/><path class="cls-6" d="M11.48,230.14C11,226.87,7.6,227.32,6.29,226A5.75,5.75,0,0,1,5,221.5c.62-6,10.05-9.09,10-8.94.35-.52-5.67-5.36.72-9.1,18.59-10.87,14.8-13.55,15.6-14.36-2.49-2.35-3.49-2.28-3.35-6.89s3-7.34,6.27-10c2.15-1.79,8.24-1.47,9.81,4.32a7.3,7.3,0,0,1-.38,5.56c.37.26,6.44,5.2,8,7.34,1.07,1.48,2.69,4.29,4.3,4.3,2.31.2,2.56,2.93,3.25,5.51s7.16,5.51,7.5,7.81c.43,2.94-6.64,7.76-17.32,10.95a19.52,19.52,0,0,1-13.94,7.13c-5.37,2.34-9.65,4.3-15,6.58C16.68,233.25,11.89,233.17,11.48,230.14Z"/><path class="cls-7" d="M24.18,221.51c-.45.35-5.5,3-5.5,3a2.36,2.36,0,0,1-2.1-1.71c-1.46-3.6-.47-1.92.44-.74a3.48,3.48,0,0,0,3.57.72C23.42,221.27,26.78,219.46,24.18,221.51Z"/><path class="cls-7" d="M58.49,209s-4.29,1.06-5.87-3.8c-8.1-24.92-15-13.68-13.2-24.19.91-5.28-1.21-12.07-8.67-5.57-.59.51,5.7-7.26,10.61-3a8.59,8.59,0,0,1,2.93,8.06,2.55,2.55,0,0,0,.38,2.26s3.62,3,6,5.28.24,2.06.07,2C50.46,190.31,59.06,207.48,58.49,209Z"/><path class="cls-7" d="M12,231.29A4.22,4.22,0,0,1,10.51,228a3.11,3.11,0,0,0-.85-.61c-1.07-.58-4.41-1.69-4.48-3.53s0-1.33,1.14-.2,1.47,1.43,3.68-.21,3.85-3.43,4.56-3.66h0A25.21,25.21,0,0,1,20,216.6c2.18-.31-2.62.69-7.16,7.26a10.84,10.84,0,0,0-1.37,2.59l-.11.4a2.72,2.72,0,0,0,.6,2.79c1.44,1.4,3.09,3.18,7.18,1.29,7.42-3.44,18-9.78,21.3-16.74,2.61-5.52,3.85-5.26,2.83-22.36.77-.45.9,11.51,1.64,11.07.61,14.33,16.63,7.33,16.92,8.38.94,3.44-12.43,6.7-12.43,6.7-1,3.86-13.14,7.88-16,8.86s-7.64,2.62-9.81,3.43-5.27,2.93-7.09,3.22S12.83,232.31,12,231.29Z"/><path class="cls-7" d="M31.55,195.63s-.75,3.49-.07,5.43a6.81,6.81,0,0,0,7,4.74s1-3.76-1.24-4.36S31.33,198.73,31.55,195.63Z"/><path class="cls-6" d="M191.44,158.77a1,1,0,0,0,0,.12C191.57,159,191.6,159,191.44,158.77Z"/><path class="cls-7" d="M153.79,239.59a55.71,55.71,0,0,0-16,8.21c-7.66,5.78-14.32,10-15.79,11.35s-1.65,4.53-.21,8.05,7.17,12,4.49,12.5-9.42-.15-7.89,7,3.14,12.88,5.79,14.59,9,3.71-2.91,5.35c-10.37,1.44-16.46,7.7-17,11.4s-1.39,7.76,3,15.49c1.93,3.35,8.46,2.06,8.25-.36s1.75-5.32,2.16-3.17.87,6.68,5.76,5.52,3-2,3.3-3.75,3.2-4.9,3.76-1.06.71,4.84,7.91,3c8.52-2.23,7.34-10.19,8.11-11.72s1.84.81,1,4.9.72,9.31-8,11-30.33,3.32-30.33,3.32S101.89,345,100.8,332c-1.67-19.74,6.7-23.16,10-24.92s5.67-4.12,5.31-6.76,0-15.09-.36-24-1.61-17.86-1.61-17.86l27-33.49,11.13,8S168.29,232,153.79,239.59Z"/><path class="cls-7" d="M196.71,249.55h0c-1.7-.13-14.3,5.66-25.69,5.75s-42.08-4.54-27.47-.89c0,0,18.33,4.08,27.08,3.31,6.46-.56,9-.59,12-1.27a43.71,43.71,0,0,1-11,3.9,79.77,79.77,0,0,1-23,1.1c-12.26-1.47-20.7-1.29-17.38-.31s20.06,3.73,24.62,5.33-.16,2.58-5.65,14.55c-5.33,11.65,15.29-18.67,5.38,7.07-1.18,3.07-4.65,17.49-5.61,24s3.53-10.2,7.79-22.19,9.64-19.68,11.86-23.49,2.92-1.51,2.87,3.12.6,13.91-.28,19.33-1.63,12.55.53,20.34,11.79,6.56,17.18,5.91-4-1.9-8.37-4.92.94-10.06,3.61-13.21-1.4-5.72-2.93-10.21-1.48-9.11-.86-15,7.06-2.32,10.46-2.38,4.3-15.7,6.58-18.09C200.08,249.5,199,249,196.71,249.55Z"/><path class="cls-7" d="M168.74,228.55a40.49,40.49,0,0,0,3.23,5.8c1.27,1.59,12.13.16,21.56-1.64s13.64-.42,16.25.9,3.35,7.24-5.14,15.16c-1.72,1.6,5.62.26,3.89,6.61-6.81,24.91-17.06,41.25-13.38,41.9a33.36,33.36,0,0,0,7.42.35,14.21,14.21,0,0,1-.73-5.56c.35-2.46,3.68-18.93,5.53-26.27s4.31-12.67,5.47-16.41,2.91-9.87,3.11-12.67.1-7.92.1-7.92-34.9-7.41-35.32-7.13-12.17-6.85-12.17-6.85S166.8,223.25,168.74,228.55Z"/><path class="cls-7" d="M209.27,313.45l-22.64,1.85-5-1.27s5.87-.39,12.26-1.19,9.76-2.56,10-3.31.85-2,1.28-1,1.27,3.32,2.8,2.39a6,6,0,0,0,2.68-5.9c-.27-3-4.71-6.6-2.93-6.2s5.28,3.31,5.5,5.85S213.76,312.94,209.27,313.45Z"/><path class="cls-10" d="M61.19,219l-4.56-3.16a49.38,49.38,0,0,1,5.27-1.43,33.7,33.7,0,0,1,4.82.55Z"/><path class="cls-8" d="M95.78,151.48a5.25,5.25,0,0,1,5.31-3.38c4,.39,24.53,2,31.41,2.85s20.4-.26,20.4-.26,13.81-9.11,18.62-12.39,7.6-3.32,7.6-3.32,1.6,7.39,1.89,8.09,3.38,49.09,3.38,49.09l-4.83,16.23-14.41,2.48Z"/><path class="cls-10" d="M154.77,154.91l8.46,7.29L174,146.67s2.64-12.64,1.07-7.21S163.84,161.46,154.77,154.91Z"/><path class="cls-8" d="M50.8,181.06l-5.07,2.61s4.5,2.81,8.73,9.66a50.29,50.29,0,0,1,6.42,14.09c1.29,4.13.31,11.58.31,11.58l10.11-5.69L59.24,181.26Z"/><path class="cls-10" d="M146.63,151.13s-41.11-1.47-30.21,1.23,29.38,13.49,29.38,13.49l6.34-10.53a14.7,14.7,0,0,0-.56,14.4c3.89,8.18,10.22,21,10.22,21s-47.49-36.52-57.55-38.35-12.07-5.68-1.32-4.67S150.11,149.36,146.63,151.13Z"/><path class="cls-9" d="M152.74,155.75a14.7,14.7,0,0,0-3.25,6.89c-1.06,6,5.35,6.8,5.35,6.8l2.84,14.32L168,202.83l3.32,3,.57-7.17s8.54-9.81-.2-19.74c-8.43-9.61-9.46-12.31-9.46-12.31s3.05-3,1.39-6.09C160.62,155.07,159.52,158.08,152.74,155.75Z"/><path class="cls-10" d="M63.61,217,61.19,219s7.78-1.48,9.15-2.3,1.67.55,1.67.55l-8.64-27.88L55,180.75s-1.2-.13.6,2.89,5,12.26,6.58,17S65.63,214,63.61,217Z"/><path class="cls-11" d="M184.39,138.63c-2.63.82-7.65-2.66-8.62-1.57-4.33,4.86-5,11.67-5.44,18.08-.48,7.29.88,40.1.64,47.07-3.25-5.72-13.31-20-26.7-33.07-10-9.72-27.43-18-40.78-18.54-4.61-.17-9-2.29-12.1,2.21-2.32,3.37-11.11-3.9-14.46-1.74-6.68,4.3-16.05,20.65-23.67,22.47-4.12,1-3.16,6.17-1.42,7.49,10.53,4.75,14.49,34.19,20.63,37.2,3.2,1.56,8.21-1.47,9.68-4.57,4.2-2.35,8.9-4.14,13.15-6.38.21.7,3.47,0,11.71,5.4,4.44,2.9,6.61,12.57,7.52,12.2,4.88-2,1,19,.58,24.47-.22,2.89-3.31,10,0,9.12,16.95-4.35,28.39-28,48.41-24.6,6,1,3.05-8.74,5.63-14.69q.18-.41.33-.81c.68,1.51,2.56,7.44,3,9.25,2.58,10,30.25-4.61,43.06,6.09,2.09,1.74,2.92-7.59,3.54-10.16.78-3.25-.15-26.05-.52-33.16a61.1,61.1,0,0,1,4.34-24.56,42.69,42.69,0,0,0-12.61-20.18C205.16,141.22,185.66,138.23,184.39,138.63Z"/><path class="cls-11" d="M221.54,169.78h0a3.57,3.57,0,0,0,.27-.59h0C221.72,169.4,221.62,169.58,221.54,169.78Z"/><path class="cls-12" d="M95,157.88l9.33-7.73s.13,10.66,5.48,13.81,12.45,2.24,12.45,2.24l2.67,12.42s33.27,12.18,38.91,24.82,3.93,15.93,4,19.6.65,10.59-3.29,10.2-10.95,1.22-13.44,2-5-.93,0-4.28,12.08-11.64,10.33-20.06-8.64-17.12-22.17-24-20.14-4.63-19.67-9,.76-9.73.76-9.73-5.07,1.65-8.82-.69c-5.06-3.16-6.16,9.39-14.5,7.13-3.85-1-5.84-5.8-6.12-10-.16-2.34-8.34,24.48-17.67,11.61-4-5.51-12.29-10.82-6.45-14C73.24,158.66,94.28,157.6,95,157.88Z"/><path class="cls-12" d="M132.64,241.53a6.9,6.9,0,0,1-8.13-.73c-4.32-3.39-6.2-3.7-4.25-12.63s1.17-14.7,3.6-19,10-18.64,1.89-8-12.13,17-16.94,11.29-8.65-5-6.29-8.41c12.38-18,10.59-16.4,5.24-10.19-3.79,4.39-7.1,12.19-10.21,1.26-3.27-11.52-7.18-24.66-5.81-13.6,1.45,11.79,4.05,23.68,1.71,20.64-4.92-6.38-4.88-2.73-3.87,1.08s-5.72,7.33-9.16,6.9-6.18,1.22-10.49-9.28S58.6,177.6,59.21,179.49,67.63,198,70.58,205.74s.43,9.44-.72,8.08-.4,3.76,2.61,4.41,5.09.43,6.34-.49c3.93-2.84,10.61-4.83,14.53-6.87s8.75,1.71,9.75,5.4,4.67-.18,5.4,2.13-.76,10.71,1.3,10.46,2.7,4.51,3.27,9.81,1.54,6.61,1.56,8.5c0,2.55-3.21,10.78.24,10.55,5.88-.4,7.39-2.39,12.75-7.24S148.34,233,132.64,241.53Z"/><path class="cls-12" d="M169.85,215.32S173,204.82,175,200a301.51,301.51,0,0,0,10-31.72,88.07,88.07,0,0,0,2.53-17.78L182.89,149l4.42-6.23s.42-9.28.3-6.35,2.49,9,2.49,9l-3.51,1.77,5.55,3.89S183,181.82,181,189.29s2.53,18.51,3.8,20.11,1.16.38-2.7.23-7,2.8-4.38,4.4,2.9,2.06.86,4.67S172,224.38,182,225c6.92.4,17.61-3.78,18.85-9.49.94-4.31,3.77-.39,6.24,5.84,2,5.18,6.82,7.28,4.4,1.08a105.72,105.72,0,0,1-6.63-31.78c-.47-8,.69-18.06,1.18-12.51s2.35,24.37,6.1,33.53-.62-5.79.68-12.47c3.22-16.65-4.16-11-1.21-23.76,1-4.23-4.12-6.79-2.6-14.33,3.26-16.24-15.26-2.31-4.1-12.2,3.76-3.33-3.51-4.35-6.72-8-.79-.9,12.64,5.82,19.13,13.51A20.23,20.23,0,0,1,221.54,167c-.76,3.35-1.1,12.23-.74,17.54.74,10.78-5.4,6.21-1.69,18.43,5.61,18.45-.91,26.32-1.54,28.58s.37,2-3.51.5-11.21-3.79-18.59-2.58-11.75,1.62-15,1.88-7.66-1.91-7.66-1.91l-3.35-11Z"/><path class="cls-13" d="M160.73,159s3.13,4.59-1.43,6.94-1.74.88-.17-1.94S161.52,160.22,160.73,159Z"/><path class="cls-13" d="M161.28,169.12s1.59,2.12,3.35,4.57,3.71,5.21,4.42,6.49a17.47,17.47,0,0,1,1.7,6s1,14.34.18,8.2S161.28,169.12,161.28,169.12Z"/><path class="cls-12" d="M181.18,138.39s14.93,1.8,19.67,4.94S217.58,153.62,220,159a34.4,34.4,0,0,1,2.89,10.15s9.16,1.21,10.71,1.7,3.67,1.91-4.67-8.62c-4.68-5.92-13.48-12-11.62-16.55,2.1-5.06-19.13-2.2-6-6.25,6.52-2-16.76-1.38-16.76-3.56,0-4.41-5-6.13,2.36-10.48s16.28-4.23,17-4.54l4.17-1.71.57-3.38-25.48,3.38S167.32,137,181.18,138.39Z"/><path class="cls-6" d="M103.28,145.8s1.91,2.07.54,8.32-.43,8.56,0,10-.09,5.92-4.47,6.46-5.25-1.45-6.35-3.73-1.39-6.64-1.39-6.64a30.58,30.58,0,0,0-3.86,3.56,21.68,21.68,0,0,0-3.22,6.65c-.72,2.83-1.73,6.3-4.55,6.41s-6.77-1-7.49-4.4-.24-4.89-.24-4.89-5.93-1.45-6.6-7c0,0-3.93-2.31-3.47-6.1s1.06-7.79,4.88-10.84a47.84,47.84,0,0,1,18.43-8.28,15.14,15.14,0,0,1,14.94,4.57A11.07,11.07,0,0,1,103.28,145.8Z"/><path class="cls-7" d="M85.07,136.85s.08,4.06,1,5.24c2.95,3.93,7.85,4,11,4.66a6.62,6.62,0,0,1,5.15,4.32c.49,1.44.37,4.39,0,6.84s.74,6.38.9,2.81a60.73,60.73,0,0,1,.86-7.44c.26-1.91,1.16-2.79-.22-6.6s-3.67-11.78-8-11.7-8.57-.17-10.3.34C79,137.2,83.84,135.88,85.07,136.85Z"/><path class="cls-6" d="M187.89,102.91c.77,6,7.56,14.7,3.38,17.09-7.7,4.4-14.61,15.53-15.68,16.11-.22,1-18.05,9.75-29,13.29s-24.54-.28-24.37-.36c-4.8-.64-10.11.46-10.73.23-4.45-1.66-6.56-2.09-10.7-4.55-5.09-3-10.24-9.54-10.36-16.19,0-1.11,1-8.43,1.16-12.94.18-5.8-2.68-8.08-2.9-8.85-.8-2.78-1.53-5.56-2.1-8.4-.94-4.71-2.08-10.26.15-14.38a60.05,60.05,0,0,0,3.85-8.73c.08-.46,0-2.57.63-3.81,1-1.89,3.45-3.54,3.77-4.18,3-6,6.94-12.86,11.85-14.77,1.62-.63,4.84,1.68,5.73.45,1.7-2.38,3.13-4.09,6.11-4.73,1.74-.38,3.61.86,5.34,1.39,1.29.39,4.65-2.15,5.91-2.51,5.9-1.69,9.2.63,10.11,1.07a6.83,6.83,0,0,1,1.31.62c3.92,3.11,4.54-1,9.12-1.1,2.62-.06,5.44.23,7.59,1.83,7.75,5.76,6.82,1.85,10.14,5.74,2.13,2.47.89,7.58,2.44,9.68,2.06,2.8,7.14,2.84,8.72,5.42,3.05,5,4.56,10.35,5.59,16.13C186,91.74,187.21,97.58,187.89,102.91Z"/><path class="cls-15" d="M90.29,76.84A28.68,28.68,0,0,1,87,78.54c-1.74.77-4.08,2.36-6.46,7.33s-6.34,14.54-7.17,16.89-2.27,8.25,2.17,10.67,8.71,4.63,9.89,6.46,2.71,6.91,4.76,6.78S93.12,114.45,92,112c-.61-1.29-5.62-11.55-5.89-20.38C85.82,83.58,90.29,76.84,90.29,76.84Z"/><path class="cls-15" d="M219.07,88.14s-6.44-7-17.47-16.77a81.89,81.89,0,0,0-25.33-15.3c-4.3-1.67-8.41-1.88-7.77-.2s.4,3.94,1.21,6.52,1.79,3.51,4.82,5.48,5.61,3.47,7.13,7.25,3.68,13.07,4.87,20.45S192,119.11,192,119.11s2.7-3.69,7.94-11.55S209.26,95,213.49,93.49,221.16,92.47,219.07,88.14Z"/><path class="cls-16" d="M182.31,62.44s-4.69-5-7.42-4.33-5.23,2.73-3.86,4.61,11,4.7,13.87,7.11,4.58,4.63,6.61,10.23.61,14.09,3.48,15,5.89-1.23,6.77-2.09c2.67-2.62,6-3.11,3.08-.19s-8.53,8.16-9.49,9.49c-2.6,3.58-3.43-1.49-3.72-4.51s-2-12.15-2.54-14.39-3.54-5.79-2.44.79,1.67,12.72,3.26,20.08,2.3,10.67,3.73,9.31,2,.39.39,2.67-1.74,3.53-3.09-.21a118.38,118.38,0,0,1-3.78-15.71c-.68-4.07-3.13-17.59-4.66-23.07-1.06-3.82-2.29-5.5-4.26-6.76s-6.44-3.8-6.73-4.49a9.29,9.29,0,0,1-1.95-5.2,14.36,14.36,0,0,0-1.48-5.48,13.82,13.82,0,0,1,8.19.79,177.74,177.74,0,0,1,20.58,11c4.23,2.74,8.41,8.81,9.64,9.64,3.59,2.43-9.37-7.91-11.44-9.69s-12.42-7.86-10.94-5.91S188.58,66.78,182.31,62.44Z"/><path class="cls-16" d="M89.37,78.18s-2.16,5.12-3.24,6.91-1.7,4.16-.78,8.22,1.58,9.5,2.17,10.67.41,3.3.35,5.45-.49,8.29-.75,5.57-.72-12.93-1.59-9.81,1,9.71-3.8,7.09-8-6.08-6-7.73,4.57-7.15,3.46-7.87-2.55,1.37-3,1.86.75-4.74,2.56-8.71,4.49-9.15,7.12-10.57S90.1,76.49,89.37,78.18Z"/><path class="cls-15" d="M117.56,83.29A41.85,41.85,0,0,1,133,84.73c7.15,2.21,28.34,16.76,37,26.21,11.36,12.41,0,22.9-11.46,29.29-8,4.45-14,8.41-21.59,9.66-11.13,1.83-27.93-1.11-34.31-9.29-4.8-6.16-4-19.39-3.43-28.82C99.94,99.38,100.85,88.76,117.56,83.29Z"/><path class="cls-16" d="M104.29,109.23s1.37-6.25,3.13-5.94,2.23,4.2,10.7,1.8c6.27-1.77,11.45-6.76,13.19-8.4s18.75,4.48,22.65,8.79c6,6.68-.65,18.28,3.44,22.62s13.42,4.88,16.59-.8c2.45-4.39,1.82-13.89-3.18-18.51s-27.71-19.39-35.5-22c-6.95-2.29-15.88-3.68-20.87-1.88-4.32,1.57-11.18,7.26-12.32,11.81s-4,23.76-3.45,31.68,4.53,10.51,6.64,9.87C109.59,137,99.84,123.5,104.29,109.23Z"/><path class="cls-7" d="M88.27,100.52c1.07,2.62,1.61,5,3.12,6,2.49,1.62,2.08,9.62,3,8.83.6-.53,1.64-6.48,1.77-4.48,1.09,17.65.85,4.81.85,4.81s1.64-10,2.59-16.94c.75-5.54,2.4-7.46,10.27-13.36,3.62-2.72,8-3.52,12.57-4.07a30.58,30.58,0,0,1,18.39,3C156.63,92,168.85,98.53,168.35,94c-.35-3.1-1.14-5.52,3.21-6.17.5-.07,8.75,2.33,6.33.23-4-3.41-10-3.58-5.87-4.91,11.09-3.57-4.71-.31-4.73-2.18-.06-6.2,2.4-1.51,6-1.69,10.45-.53-2.17-2.9-5-8.46-1.39-2.69-9.44-6.19-13.35-4.17-7.17,3.7-13.11-6.76-14.4,1.41-1.08,6.84-3.31,3.58-1.82,8.84,1,3.48-6.4-.79-7.21-5.48-.2-1.21-.68-1.84-.25-3.7,1-4.58,3.41-6.15,6.74-7.65s8.83-.41,12.21,1.28,14.34,2.75,15.33,2.43c1.61-.53-5.19-.33-8.9-2s-7.77-4.88-14.34-3.89c-4.59.69-8.4,2.16-10.54,5.07-2.71,3.68-2.1,8.58-2.1,8.58a5.4,5.4,0,0,1-.74,2.87c-.62.83-.86.64-1.52.64a16.53,16.53,0,0,1-3.88-.3c-.65-.36-2.49-2.23-3.54-6.91-1.21-5.37-.09-8.76,3.19-11.08s4.44-3.33,5.24-4.81c1.05-1.92,1-2.83,4.19-3s6.5-.18,6.5-.18.72-.29.18-.78c-.83-.75-3.49-1.75-7.46-1.31-3.31.36-3.56,1.49-4.69,2.14s-4.11.49-3,1.86c1.39,1.64-.38,3.66-2,4.73a22.45,22.45,0,0,0-2.88,2.37c-.94.9-1.75,1.83-2.68,1.24s-2.5-1.45-2.72-2.78c-.17-1.06-1.28-1.85-.24-3.25a5.11,5.11,0,0,0,1-2.66c-.94.72-2,2.94-2.77,3-2.28.09-1.83-1.52-5.76-.27-.24.08-2.14,1.19-2.34,1.28-.87.57,3.64-1.64,6-.37,1,.55.2,1.55,1.86,4.06.78,1.17,1.68,2,2.47,3.18,1.75,2.68,1.85,4.55,2.39,8.64.27,2.08.73,4.21-.94,6a21.4,21.4,0,0,0-7,3.5c-4.63,3.91-2.53-1.46-8.68-1.29-4.63.13-9.86,3-7.23,2.39,2.93-.62,11.85-.25,2.54,1.62-3,.59-5.6,3-7.9,6.86C84.7,93.08,87.48,98.58,88.27,100.52Zm21.87-26.67c-1.42.53-2.08-3-3.22-5.17s-3.14-1.58-5.14-1.2-2.7,2.59-4.81,4.24a41.94,41.94,0,0,0-6,6.25s-1.25.41-.24-2.25c.42-1.11,0-2.52.1-3.43s5.28-1.22,8-4.47c1.36-1.59,4.55-3.68,7.06-2.64C110.11,67,112.25,73.06,110.14,73.85Z"/><path class="cls-17" d="M120.51,100.49c5.22,1,1.27-13.75-2.17-10.58-2.08,1.92-1.81-.59,1-1.68A5.77,5.77,0,0,1,126,90.64c1.19,2.18,1.44,7.39,2.11,2.85a5.76,5.76,0,0,0-4.06-6.34c-4.64-.82-6.27-.94-8.5-.2-4,1.33-6.28,2.67-7.7,4.7-.85,1.21-.73,5.59.39,6,.57.19-.35-5.38,2-6.86,3.88-2.44,5.12.85,1.78,1.3-3,.4-3,6.15-.56,9.47a2,2,0,0,0,3.35,0C115.71,100.28,117.21,99.87,120.51,100.49Z"/><path class="cls-17" d="M164.49,76.68c-2.38-5.48-6-8.7-12.9-7.47-1.75.31-5.81,2-7.31,4.41-2.29,3.71-1,8-.22,9.46a22.51,22.51,0,0,0,6.23,6.23c2.29,1.27,5.11,1.14,8.08-.21C163.33,86.84,166.81,82,164.49,76.68Z"/><path class="cls-8" d="M157.69,73.34s-4.09-2.91-8.45,1.16-1.36,11.07,1.29,12.57-1.37-2-1.67-5.37c-.38-4.29,1.76-6,3.91-7.22S158.81,74.08,157.69,73.34Z"/><path class="cls-8" d="M162.39,76.78a1.7,1.7,0,0,0-2.5.26,2,2,0,0,0,.34,2.66,1.69,1.69,0,0,0,2.49-.26A2,2,0,0,0,162.39,76.78Z"/><path class="cls-8" d="M163.71,81a.88.88,0,0,0-1.3.13,1,1,0,0,0,.17,1.38.88.88,0,0,0,1.3-.13A1,1,0,0,0,163.71,81Z"/><path class="cls-17" d="M101.14,87.11c-.09-1.66-1.08-1.56-2.29-2.11-2.33-1.06-4.67.24-5.79.87-.42.23-6.64,3.81-6,9.82s7.84,10.07,9.65,8.8c.39-.28-.26-.53-.08-3.68a20.53,20.53,0,0,1,1.13-6.44C99.6,90.07,101.26,89.34,101.14,87.11Z"/><path class="cls-8" d="M97.91,88.44s-4.21-2.55-8.21,1.79-.57,11,2.13,12.29-1.48-1.85-2-5.17c-.66-4.2,1.32-6.07,3.34-7.42S99.05,89.08,97.91,88.44Z"/><path class="cls-8" d="M96.38,98.82a1.51,1.51,0,0,0-1.54-1.41A1.42,1.42,0,0,0,93.57,99a1.53,1.53,0,0,0,1.54,1.41A1.4,1.4,0,0,0,96.38,98.82Z"/><path class="cls-7" d="M141.64,83.81s4,1.4,11.39,4.15c5.15,1.91,9.26-1.65,13.43-4.34,1.18-.76-1.1,6.87-1.1,6.87s-7.46-.54-8.77.8,3.52,4.57,3,4.5C158.59,95.66,141.64,83.81,141.64,83.81Z"/><path class="cls-7" d="M189.38,112.64c-1.92-4.51-2.95-10.1-3.6-13.6s-3.67-5.57-2.33.69,4.79,15.63,3.15,17.2-4.94-8.75-5.37-3.87-.13,9.06-2,10.79c-5.71,5.15,3.64,4.08-7.1,12-3.39,2.49-10.77,7.39-4.2,4.33s7.31-4,9.22-6.21c3.56-4.09,6.41-7.33,7.57-8.63a36.82,36.82,0,0,1,6.33-5.17C193.78,118.27,191.71,118.14,189.38,112.64Z"/><path class="cls-7" d="M92.18,155.75c2-3.71-5,3.88-7,7.25-.94,1.62-1.22,7.5-2.32,9.92-1.22,2.67-3.77,5.14-1.57,3.55s2.79-2.88,4.43-8.59a12.59,12.59,0,0,1,3.09-5.31,28.23,28.23,0,0,1,2.75-2.36s.37,3.9.58,4.93c.36,1.8,2.49,6.55,7.16,5.44,1.69-.4-6.94.2-6-6.17C94,160,91.13,157.68,92.18,155.75Z"/><path class="cls-7" d="M66.72,163.68s3.21,1.86,4.45,1.71c2.62-.33,3.47-4.42,3.47-4.42s1.72-.71.62,1.18a20.27,20.27,0,0,0-2,8.14c.12,1.72.11,5.27-.86,2.14-1.27-4.14.41-5-.9-5.16A5.7,5.7,0,0,1,66.72,163.68Z"/><path class="cls-7" d="M66.25,157.29s-2.21,5.22-3.32-2.45c-.5-3.52,1.5-7.9,3.79-10s6.42-5.24,4.45-4-5.8,3.38-6.93,5.94-2.84,6.93-2.09,9,1.7,3.94,3.45,4.79C66,160.74,67.53,155.87,66.25,157.29Z"/><path class="cls-18" d="M135.84,134.51a3.53,3.53,0,0,1-.76,1.55,12.28,12.28,0,0,1-1.29,1.59,13.48,13.48,0,0,1-2.38,1.72,8.73,8.73,0,0,1-2.61,1,7.91,7.91,0,0,1-5.45-.59c0-.12,0-.24-.18-.28-.38-.12-.17-.22,0-.32a1.33,1.33,0,0,0,.79.07l.32,0a.58.58,0,0,0,.76.09,15.17,15.17,0,0,0,5.45-1.17,11.72,11.72,0,0,0,2.9-1.73,25.49,25.49,0,0,0,2.21-2.2C135.78,134.23,135.79,134.39,135.84,134.51Z"/><path class="cls-17" d="M144.52,108.36c-.23-1-.93-1.64-1.65-1.17a18.45,18.45,0,0,0-1.84,1.3,94.76,94.76,0,0,1-10.59,7.3,40,40,0,0,1-10.12,3.38,39.87,39.87,0,0,1-10.77-.51,8.13,8.13,0,0,1-1.25-.17c-.63-.19-.79.44-.93.91a.72.72,0,0,0,.34.89,2.48,2.48,0,0,0,1.87.17c.71-.15,1.4-.57,2.18-.24a4.58,4.58,0,0,1,1.88,1.82,14.5,14.5,0,0,1,1.87,4c.91,2.85,1.69,5.74,3.46,8.23a5.58,5.58,0,0,0,3.76,2.42,13.9,13.9,0,0,0,7-1.24,10.29,10.29,0,0,0,3.8-3.6,16.32,16.32,0,0,0,1.49-4.13c.21-.89.94-6.27,1-7.1a19.82,19.82,0,0,1,1.26-6.22c.77-1.43,1.35-2.44,2.81-3.06,1.1-.47,2.23-.81,3.34-1.24A1.49,1.49,0,0,0,144.52,108.36ZM134,127.64a15.25,15.25,0,0,1-1.5,4.38,7.48,7.48,0,0,1-2.16,2.29,8.36,8.36,0,0,1-2.67,1.19,8.59,8.59,0,0,1-3,.49,18.26,18.26,0,0,1-2.1-.27,3.3,3.3,0,0,1-1.22-.7.47.47,0,0,1-.07-.66,21.19,21.19,0,0,1,4-4.63,8.85,8.85,0,0,1,2.8-1.65c0-.18.05-.29.24-.27a.32.32,0,0,1,.27.3c0,.24-.15.26-.3.3a3.61,3.61,0,0,0-.87,1.85c0,.18-.24.37-.07.6.55-.22.7-.81,1-1.22a8.53,8.53,0,0,1,3.24-2.53,7.3,7.3,0,0,1,1.93-.11C133.87,127,134.15,127.15,134,127.64Z"/><path class="cls-8" d="M135.67,114.25c-.78.64-2,4.82-11.64,7.46-6.13,1.5-9.49-.51-9.51-.59-.23-1-.23-.89.82-.87a33.52,33.52,0,0,0,15.17-3.62,19.83,19.83,0,0,0,3.08-1.78c.61-.45,1.29-.83,1.91-1.28C135.68,113.44,135.76,114.44,135.67,114.25Z"/><path class="cls-18" d="M317.15,117.7l-.27,0q-.08.33-.36.24h0c-.06.25-.2.33-.4.28-.38.06-.6.49-1,.58a.75.75,0,0,1-.8.52c-.49.28-1,.49-1.5.74a8.19,8.19,0,0,1-1.79.42,29.79,29.79,0,0,1-3.64.24,1.4,1.4,0,0,1-.45-.06c-1.78-.3-3.55-.71-5.31-1.13a25.11,25.11,0,0,0-2.45-.93c-.34-.08-.75,0-.87-.52L298,118c-.32-.07-.71,0-.82-.49l-.31-.09c-.31.06-.41-.18-.5-.45l-.3-.12c-.3,0-.55-.1-.61-.5a7.66,7.66,0,0,1-1.82-1.59,32.39,32.39,0,0,1-2.58-3.3,7.17,7.17,0,0,0-1.92-2c-.27-.18-.69-.11-.79-.59l-1.44-.3a4.86,4.86,0,0,1-.86.78l-.25,1.17c.2.06.18.24.15.43a.37.37,0,0,0,.23.39,7.2,7.2,0,0,0,1.39.32c.46.1,1,0,1.3.61l.53.15c.27.06.62,0,.63.48a5.78,5.78,0,0,1,1.82,1.26,18.13,18.13,0,0,1,1.8,1.72c.73.72,1.49,1.41,2.19,2.17s1.25,1.11,1.84,1.73a15.13,15.13,0,0,0,2.69,2.06,8.23,8.23,0,0,0,4,1.26,10.59,10.59,0,0,0,3.64-.51,11,11,0,0,0,1.45-.45c.94-.38,1.86-.84,2.81-1.19a14.77,14.77,0,0,1,3.35-1,2.89,2.89,0,0,1,1.05-.13c0-.26.17-.32.36-.28a2.72,2.72,0,0,1,.85.21l.42.06a.5.5,0,0,1,.63-.28l.08-.22.24-1.1a.38.38,0,0,0-.16-.42C318.48,117.72,317.86,117.32,317.15,117.7Z"/><path class="cls-18" d="M300.34,127a18.31,18.31,0,0,0,2.62.58,1.13,1.13,0,0,1,1.21-.07l.41,0q.18-.36.48-.18h.34c.06-.31.23-.3.42-.22a.55.55,0,0,0,.64-.24c0-.35.2-.4.43-.3a.17.17,0,0,0,.1,0c.05-.15.06-.35.27-.26s.27-.11.27-.31l-.3-.09H307c-.19.53-.5.25-.77.2l-.2,0c-.25.49-.54.3-.83.14l-.43,0c-.58.46-1.1.1-1.63,0l-1-.19c-.06.08-.12.23-.16.23s-.08-.18-.09-.29l-1.08-.26c-.5-.11-1.1,0-1.39-.63L299,125c-.32,0-.69.12-.69-.47l-.38-.13c-.21.09-.48-.26-.66.16l.41.37c.11.15.37.21.22.52l.28.14c.25,0,.33.13.29.4l.22.09c.22,0,.39,0,.36.37l.39.13C299.82,126.58,300.24,126.48,300.34,127Z"/><path class="cls-18" d="M282.27,109.42l0,.35c.22,0,.26.2.16.43l0,.31c.43-.21.3-.7.44-1.05s.09-.79.51-.91a5.22,5.22,0,0,1,2.38-2.85c.21-.1.2-.45.53-.35-.62-.71-2-.3-2.59.31-.17.31-.3.68-.69.66l-.1.23c-.11.29,0,.73-.46.77-.09.4-.17.8-.26,1.2C282.57,108.74,282.3,109.11,282.27,109.42Z"/><path class="cls-18" d="M321.93,115a3.74,3.74,0,0,1,.58,1.71c0,.74.12,1.47.11,2.22,0,.27-.05.54-.08.83,1.26-.85,1.5-2.47.92-4.31-.22,0-.47-.08-.38-.48l-.18-.07c-.27,0-.58,0-.63-.47l-.2,0Z"/><path class="cls-19" d="M129.07,127.59a4,4,0,0,0-.92,2c0,.19-.26.4-.06.66.59-.25.73-.89,1.11-1.33a9.09,9.09,0,0,1,3.47-2.77,7.6,7.6,0,0,1,2.08-.14c.27,0,.57.16.45.68a16.48,16.48,0,0,1-1.57,4.75,8.2,8.2,0,0,1-2.31,2.5,12.78,12.78,0,0,1-6.09,1.87,19,19,0,0,1-2.27-.27,3.44,3.44,0,0,1-1.32-.74.51.51,0,0,1-.09-.72,23.19,23.19,0,0,1,4.28-5,9.48,9.48,0,0,1,3-1.81C129,127.29,129.05,127.43,129.07,127.59Z"/><path class="cls-20" d="M306.74,209.75a5,5,0,0,1-3.09-5.77.51.51,0,0,0-.35-.59h0a.52.52,0,0,0-.67.39,5.73,5.73,0,0,0,10.88,3.35.52.52,0,0,0-.33-.69h0a.51.51,0,0,0-.63.29A5,5,0,0,1,306.74,209.75Z"/><path class="cls-21" d="M318.39,206.36a.36.36,0,0,1-.24-.45c.11-.3.47-.71.76-.65s.75.32.62.63A.93.93,0,0,1,318.39,206.36Zm1.89-2.44a.76.76,0,0,1-.78.48c-.4-.13-.31-.56-.22-.89s2-3.62,2.76-3.38c.29.09.12.49.06.71S320.68,203.06,320.28,203.92Z"/><path class="cls-8" d="M301.9,199.89a1.33,1.33,0,0,1-.17.36,1,1,0,0,1-.27.24.89.89,0,0,1-.36.11H301a5.29,5.29,0,0,1-.57-.15l-1-.3a.3.3,0,0,1-.2-.37l.8-2.59a.3.3,0,0,1,.37-.19l.92.28.56.2a.6.6,0,0,1,.13.09.86.86,0,0,1,.23.28.72.72,0,0,1,.08.32,1.41,1.41,0,0,1-.05.35,1.19,1.19,0,0,1-.08.16,1,1,0,0,1-.13.16.66.66,0,0,1-.17.12l-.07,0c-.08,0-.09.09,0,.16l0,.07a.63.63,0,0,1,.08.23.55.55,0,0,1,0,.22A.6.6,0,0,1,301.9,199.89Zm-.43-1.51a.36.36,0,0,0,0-.25l0-.07a4.81,4.81,0,0,0-.5-.18.28.28,0,0,0-.36.19h0a.31.31,0,0,0,.19.37l.51.13.07,0A.24.24,0,0,0,301.47,198.38Zm-.35,1.24a.36.36,0,0,0,0-.27l0-.09-.49-.19h0a.3.3,0,0,0-.37.19l0,.11a.31.31,0,0,0,.2.37h0a4.26,4.26,0,0,0,.51.13l.08,0A.35.35,0,0,0,301.12,199.62Z"/><path class="cls-8" d="M304.73,199.76a1.17,1.17,0,0,0-.24.18l-1.34,1.11a.64.64,0,0,1-.52.1l-.08,0a.29.29,0,0,1-.2-.37l.8-2.58a.29.29,0,0,1,.37-.2l.17.05a.3.3,0,0,1,.19.37l-.41,1.33-.08.28.24-.19,1.35-1.13a.64.64,0,0,1,.52-.1l.09,0a.3.3,0,0,1,.19.37l-.79,2.59a.31.31,0,0,1-.38.19l-.16,0a.3.3,0,0,1-.2-.37l.4-1.3C304.7,199.89,304.73,199.76,304.73,199.76Z"/><path class="cls-8" d="M306,202.17a.29.29,0,0,1-.2-.37l.8-2.59a.29.29,0,0,1,.37-.19l1.65.51a.3.3,0,0,1,.2.37l0,.08a.28.28,0,0,1-.37.19l-.92-.28a.3.3,0,0,0-.37.2l-.6,1.94a.3.3,0,0,1-.37.19Z"/><path class="cls-8" d="M311.05,202.34c-.05.16-.14.41-.2.56a.78.78,0,0,1-.13.15,1,1,0,0,1-.37.23,1.14,1.14,0,0,1-.46.07,1.67,1.67,0,0,1-.49-.08,1.75,1.75,0,0,1-.46-.21,1.4,1.4,0,0,1-.33-.31,1,1,0,0,1-.18-.41.56.56,0,0,1,0-.19,5.29,5.29,0,0,1,.15-.57l.19-.62c.05-.16.14-.41.2-.56a.65.65,0,0,1,.13-.14,1,1,0,0,1,.39-.22,1.12,1.12,0,0,1,.45-.06,1.5,1.5,0,0,1,.47.08,1.52,1.52,0,0,1,.43.2,1.27,1.27,0,0,1,.34.31.91.91,0,0,1,.19.41.56.56,0,0,1,0,.19c0,.16-.09.42-.14.58Zm-.6-.68c.05-.16.11-.36.13-.46v-.07a.62.62,0,0,0-.07-.19.57.57,0,0,0-.14-.13l-.17-.09-.2,0-.19,0a.42.42,0,0,0-.16.11l-.05.06c0,.09-.11.29-.16.44l-.1.33c-.05.16-.1.36-.12.46v.07a.62.62,0,0,0,.07.19.86.86,0,0,0,.14.13.42.42,0,0,0,.18.08.52.52,0,0,0,.18,0,.54.54,0,0,0,.19,0,.38.38,0,0,0,.17-.12l.05,0a3.36,3.36,0,0,0,.15-.45Z"/><path class="cls-8" d="M314.65,201.4a.3.3,0,0,1,.19.37l-.6,2c-.05.15,0,.3.06.32s.1.17.05.33l-.24.79a.3.3,0,0,1-.37.2l-.09,0a.29.29,0,0,1-.2-.37l.05-.16a.3.3,0,0,0-.2-.37L312,204a.3.3,0,0,0-.37.19l0,.16a.3.3,0,0,1-.37.2l-.09,0a.3.3,0,0,1-.2-.37l.25-.8c.05-.15.14-.26.2-.24a.52.52,0,0,0,.29,0l.07-.06a1,1,0,0,0,.19-.21,1.8,1.8,0,0,0,.17-.31l.07-.15.21-.55.27-.74a.32.32,0,0,1,.39-.19Zm-.72.79a.3.3,0,0,0-.2-.37l-.28-.09a.31.31,0,0,0-.38.19L313,202c0,.16-.13.37-.17.48l0,.1a2,2,0,0,1-.14.3,1.69,1.69,0,0,1-.17.29l-.06.08c-.08.09,0,.19.13.24l.58.18a.29.29,0,0,0,.37-.2Z"/><path class="cls-8" d="M316.82,205.14a.43.43,0,0,0-.28-.38l-.46-.14a.42.42,0,0,0-.45.15l-.05.08a.42.42,0,0,1-.45.15l-.22-.06a.2.2,0,0,1-.11-.33l1.74-2.33a.45.45,0,0,1,.46-.15l.19.06a.46.46,0,0,1,.3.38l.11,2.9a.2.2,0,0,1-.28.21l-.21-.06a.44.44,0,0,1-.29-.39Zm-.59-1.25c0,.06.06.14.22.19l.09,0c.15,0,.28,0,.28,0s0-.25,0-.42V203a1.84,1.84,0,0,0-.18.24l-.19.3Z"/></g></g></g></svg>