<svg xmlns="http://www.w3.org/2000/svg" xmlns:xlink="http://www.w3.org/1999/xlink" viewBox="0 0 251.09 365.36" preserveAspectRatio="none"><defs><style>.cls-1{fill:#fff;}.cls-2{fill:none;}.cls-3{clip-path:url(#clip-path);}.cls-4{fill:url(#Безымянный_градиент_169);}.cls-5{clip-path:url(#clip-path-2);}.cls-6{fill:#4c4847;}.cls-7{fill:#3c3c3b;}.cls-8{fill:#868686;}.cls-9{fill:#c6c6c5;}.cls-10{fill:#796661;}.cls-11{fill:#e4cca6;}.cls-12{fill:#4c7ebc;}.cls-13{fill:#d9d9d9;}.cls-14,.cls-15{fill:#cba989;}.cls-15{opacity:0.5;}.cls-16{fill:#665652;}.cls-17{fill:#1d1d1b;}</style><clipPath id="clip-path"><path class="cls-1" d="M.26,124.34C4.56,59.24,38.68-4.38,124.37.24c74.19,4,113.32,40.76,124.19,104.6,1,6,3.26,17.8,2.3,25.66-8,65.29-61.38,112-126.49,118C50.56,255.24-4.26,192.73.26,124.34Z"/></clipPath><linearGradient id="Безымянный_градиент_169" x1="4.17" y1="123.42" x2="245.59" y2="123.42" gradientUnits="userSpaceOnUse"><stop offset="0" stop-color="#fc0"/><stop offset="1" stop-color="#ff9700"/></linearGradient><clipPath id="clip-path-2"><path class="cls-2" d="M4.44,124.34a120,120,0,0,1,239.59-11c0,.17.24.22.32.36a10.31,10.31,0,0,1,.75,1.49c.18.48-.2,1.52.18,1.8s-1,15.82-1.09,16.43a120,120,0,0,1-239.75-9Z"/></clipPath></defs><g id="Слой_2" data-name="Слой 2"><g id="Слой_1-2" data-name="Слой 1"><path class="cls-1" d="M.26,124.34C4.56,59.24,38.68-4.38,124.37.24c74.19,4,113.32,40.76,124.19,104.6,1,6,3.26,17.8,2.3,25.66-8,65.29-61.38,112-126.49,118C50.56,255.24-4.26,192.73.26,124.34Z"/><g class="cls-3"><path class="cls-1" d="M59.89,256.82s-2.37-.95-2.85,4.5,3.32,11.62,7.83,10.68,5.69-3.09,5.69-3.09l-1.9-18s-5.21,1.06-6.16,3.37A3.78,3.78,0,0,1,59.89,256.82Z"/><path class="cls-1" d="M229.09,191.72s-3.09,24.37-7.37,28.16-15.84,1.89-22.26.75-14.55-6.82-9.84,2.66,14.92,21.2,15,35.61c.05,11.82-3,26.15-9,34.1s-2.73,18.32-5.29,26.66,1.18,13.28,1.18,13.28,17.79,16.84-2.84,15.65c-9-.52-28.15-.28-32.86-.28s-7.14-6-2-10.56,3.66-22.15,2.84-30.42c-2.08-21-11.14-23-11.14-23l-24,7.54s-18.84,11.36-22.26,18.94-15,27-15,27-6.85,6.44-9.84,7.57-17.13,2.66-23.55,2.66-19.65-1.75-15.41-13.64C40.32,320.91,51.17,325,55,322s15.71-36.93,17-38.45,2-7.24-.16-14.44-7.25-22.31-7.25-22.31-3.85,1.51-10.27-6.06-12-9.86-9-26.53,3.43-29.17,10.7-37.51,16.7-17.05,20.55-17.43,13.27-4.16,29.54,0,45.38,4.17,55.22,4.17,13.27,2.65,18,7.2,10.28,8.34,19.27,4.55,4.49-12.24,13-18.31,19.78,2.09,21.92,5.5Z"/><path class="cls-1" d="M164.7,344.86c-6.55-.16-7.47-6.41-6-10s18.49,1.06,7.11-4.81c-10.73-5.53-3-22.77-4.62-26.79-5.22-13,5.46-14,11.2-18.22,6.09-4.45-19.28-2.08-5.16-6.74,15.76-4.95,10.14-4.8-7.82-2.14-19.21,2.85-39.81,3.53-49.27,2.94-10.89-.69-38.95-4.27-21.34-.62.39.14,23.51,4.68,15.24,5.81-9.44,1.28-21.82-.83-15.42,2s12.45,3.56,7.83,7.47S71,310.35,80.58,310s18.56-2,14.94,4.44c-2.56,4.54-12.53,21-19.39,24-6,2.67-11.74,2.86-17.07,3.21s-8.54-6.4-10-3.55-8.54,2.84-8.89,1.06-6.76-2.13-5.34.36-1.78,6.69,10.32,7.47,26.67.71,30.94,1.07S90.84,347,91.9,341.31s13.88-31.72,18.74-35.05c12.45-8.54,21.75-16.82,28.15-16.82s10.41-6.55,11.51,3.59c1.24,11.56,3,28.17,2.31,32.44s-1.37,9.34-2.11,13.72-2.51,8.07,6.38,8.76,14.94-1.08,19.56-.36S172,345,164.7,344.86Z"/><path class="cls-1" d="M200.28,244s1.42,6.05,0,11-6.41,10.67-11,13.16-11.18,8.89-3.63,6.05,8.58.58,3.63,7.47c-11.27,15.65-1.92,28.69-8.66,32.72-7.78,4.66,5.48-1.82,5.63,10.85.1,7.55-9.24,7.65-5,7.29,16-1.33,19.82,16.81,16.55,10.18s-5.94-14.8-4.63-32.23c1.21-16.1,7.12-23.48,10.32-34.86S206,260.73,200.28,244Z"/><path class="cls-1" d="M59.06,325a7.93,7.93,0,0,0-3.32-1.43c-2.06-.35-4.73,0-3.64-.4,3.88-1.49,6.62-11.19,8-14,3.55-7.47,12-25.6,12-25.6a35.59,35.59,0,0,0-.64-11.74,87.2,87.2,0,0,1-2.67-15.66c-.34-5,28.12.76,22.9,8.51C87.69,270.45,73,272.33,74,276a23.94,23.94,0,0,0,3.52,7.77c.71,1.49-3.57,2.67-8.9,11.92-2.41,4.17-5.87,12.51-3.55,17.67C67.7,319.17,59.13,311.42,59.06,325Z"/><path class="cls-1" d="M73.82,157.22l2.67-2.37,26.08,10.67,75.89-15.65,11.86-.48-2.72,3.8s-23.84,7.59-24.79,8.06-27,33-27.62,33.67-21.47,31.31-21.47,31.31l-8.78,6.16-27-57.86Z"/><path class="cls-1" d="M179.35,144.84c1.18,0,3.65.63,6.27.62C183,145.48,180.57,144.84,179.35,144.84Z"/><path class="cls-1" d="M116.26,34.37a1.09,1.09,0,0,1-.73.17,1.06,1.06,0,0,0,.67-.18c3.06-2,5.54-3.39,9.16-3C121.78,31,119.31,32.37,116.26,34.37Z"/><path class="cls-1" d="M133.3,36.1c2.15.19,5.94-.78,7.33-.65h0C139.22,35.34,135.43,36.32,133.3,36.1Z"/><path class="cls-1" d="M186.08,132.89c.59,5.19,2.85,17.26-1.1,17.57a145.88,145.88,0,0,0-20.28,2.73c-14.12,6.34-21.5,18.73-52.39,17.71-15.29-.51-30.69-12.31-30.44-12.33-5.67-3.12-9.72-3.44-10.39-4-4.74-4.21-5.86-6.07-9.83-11.12-4.88-6.2-3.89-35.56-1.53-41.11,3-7.13.56-11.35.66-12.41.33-3.85.77-7.66,1.43-11.47,1.1-6.32,2.36-13.79,7.12-17.83a80.79,80.79,0,0,0,9-9c.33-.54,1.23-3.22,2.62-4.44,2.14-1.88,6-2.75,6.71-3.39,6.61-6,14.83-12.67,21.88-12.68,2.32,0,5.21,4.43,6.91,3.31,3.26-2.14,5.87-3.57,9.89-2.94,2.35.37,4.07,2.82,6,4.31,1.41,1.1,6.83-.44,8.56-.28,8.16.74,11.15,5.22,12.08,6.2a8.8,8.8,0,0,1,1.32,1.41c3.39,5.75,6.13,1,11.89,3,3.29,1.18,6.66,2.9,8.57,5.93,6.87,10.9,7.6,5.59,9.87,12,1.45,4.1-2.55,9.87-1.63,13.23,1.22,4.47,7.52,7,8.24,11,1.39,7.7.69,15.07-.81,22.78C189,118.06,185.26,125.78,186.08,132.89Z"/><path class="cls-1" d="M77.12,53.42a41.39,41.39,0,0,1-4.88.55c-2.53.11-6.21,1-11.57,6S45.77,75,43.61,77.55s-6.8,9.18-2.44,14.34,8.61,10,9.2,12.8.05,9.91,2.65,10.74S62.2,109.21,62.25,98c0-1.9-1.44-17.08,2.48-28.2C68.3,59.65,77.12,53.42,77.12,53.42Z"/><path class="cls-1" d="M213.91,94.71C204.87,78,198.72,73.12,194.17,69s-9.57-6.4-9.58-4-1.4,5.1-1.63,8.7.54,5.23,3.36,9.14,5.32,7,5.38,12.46-1.71,18-3.79,27.81-3,13.94-3,13.94-5,14.23,9.66,4.32c10.45-7,12.82-14.57,17.81-17.87C222.52,116.8,220.14,106.26,213.91,94.71Z"/><path class="cls-1" d="M198.61,79.82s-3.42-8.48-7.14-9-7.83.88-7,3.88,11.48,11.17,13.85,15.54,3.46,8,3.3,15.92-6.42,16.57-3.28,19.06,6.93.56,8.24-.43c9.86-7.43,11.79-4.78,3.57-.07-4.76,2.72-12.34,11.26-14.18,12.44-5,3.2-3.81-5-2.73-8.93s3.37-16.09,3.78-19.14-1.62-8.92-3.42-.19-4,16.63-5.61,26.57,5,5.51,7.41,4.5-.7.85-3.8,2.91-7.51,4-7.39-1.29,2.57-6.85,2.25-12.35c-.39-6.77-2.24-10.12.26-24.2,2.56-14.43-4.12-20.31-3.21-26.08.15-1-1.22-2.61.07-7.4a19.26,19.26,0,0,0,.81-7.54A18.5,18.5,0,0,1,194.17,69c2.58,2.72,9.72,7.82,20.32,23.62,3.75,5.58,4.78,15.54,4.63,17.51-.31,3.9-12.47,17.93-12-6.29.34-17.57-7.28-26.47-6.38-23.34S201.39,90.52,198.61,79.82Z"/><path class="cls-1" d="M75.32,54.64S70.17,60,68,61.67,63.84,66,63,71.54s-2.6,12.58-2.43,14.33-1.08,4.31-2.18,6.95-4.62,10.08-3.63,6.58,5.33-16.45,2.75-13-3.48,12.55-8.15,7S42.36,82,45.6,80.89s9.13-6.7,8.09-8.13-3.83.46-4.58.87S52.34,68.1,56.5,64s10-9.23,14-9.73S77.05,52.89,75.32,54.64Z"/><path class="cls-1" d="M108,74.58A116.46,116.46,0,0,1,126.1,86c3.38,2.67,11.73,6.38,17.5,14,7.62,10.11,12.79,25.13,16.32,34.19,8.15,20.93-11,28.54-28.38,31-12.11,1.69-21.47,3.74-31.54,1.63C85.26,163.76,65.76,152,61.76,138.75c-3-10,4.37-26.07,9.62-37.55C78.27,86.12,84.52,73.34,108,74.58Z"/><path class="cls-1" d="M78.93,100.49s4.72-7.13,6.76-5.89c1.28.76,1,3.53,3.91,4.9,10.44,4.83,9.4,19.14,11.81,19.21,2.85.08-2-15.86,4.77-15.32,6.39.5,13.19-4.32,14.47-7.07,7.49-16,26.27,4.69,24.83,20.14-1.12,12-12.5,25.73-9.51,33.1s14.36,12.55,21,7c5.17-4.29,9-16.43,5-24.59-2.45-5-.64-17.49-13.33-33.11-5.48-6.75-13.16-9.6-19.7-12.61-8.87-4.08-11.76-12.16-26.18-12-6.14,0-16.9,4.57-20.51,9.7s-16.5,27.64-19.56,37.77c-5.37,17.82,6.25,23.83,9.08,24.67C97.92,154.12,66.52,116.1,78.93,100.49Z"/><path class="cls-1" d="M63.19,81.93c.07,3.76-.4,7,1,8.92,2.31,3.23-2.05,13-.57,12.43,1-.37,5.17-7.28,4.36-4.73-7.14,22.5-1.25,6.4-1.25,6.4s6.84-11.62,11.37-19.84c3.61-6.54,7.81-6.84,15.84-12.3,3.77-2.56,12.76-3.61,18.72-2.1,7,1.78,14.39,9.77,21.07,13.43,6.84,3.75,16.93,7,21.37,14.17C163,111,164.86,116.8,166,112.4c1.06-4-10.17-19,7-6.12.55.41,11.31,5.74,7.77,3.34C160,95.48,170.73,97.56,176,100c8.62,3.89,4.26.33-2.26-3-3.45-1.79-15.66-14.08-1.81-13.35,3.53.19,6.52,7.34,9.07,11.78,7,12.11-.08-3.58-3.93-11.83-1.71-3.67-7.28-4.4-13.74-8.47-6.66-4.2-9.3-11.4-19.55-10.1-9.16,1.17-5.78,4.62-6.46,11.88-.46,4.81-7.6-4.06-6.34-10.28.33-1.62.05-2.62,1.48-4.74,3.51-5.19,7.19-6,12.07-6.27s11.19,3.73,14.58,7.47,16.53,10.34,17.92,10.41c2.27.13-6.3-2.91-10.12-6.77s-7.32-9.82-16-11.76c-6.05-1.35-11.51-1.35-15.57,1.23-5.14,3.28-6.75,9.68-6.75,9.68A7.2,7.2,0,0,1,126.34,69c-1.17.73-1.38.38-2.19.08a21.43,21.43,0,0,1-4.68-2.26c-.65-.76-2-4-1.09-10.3,1.08-7.27,4.11-11,9.31-12.26s7.13-2,8.84-3.46c2.23-1.89,2.59-3.05,6.67-1.75S151.39,42,151.39,42s1,0,.59-.88c-.67-1.33-3.5-3.86-8.65-5.23-4.3-1.14-5.15.14-6.87.41s-5.36-1.37-4.58.89c.94,2.71-2.22,4.37-4.75,4.93a30.77,30.77,0,0,0-4.72,1.56c-1.61.67-3.07,1.44-3.94.25s-2.42-3-2-4.77c.3-1.39-.69-2.92,1.27-4.15a6.78,6.78,0,0,0,2.49-2.85c-1.51.45-4,2.69-4.87,2.37-2.88-1-1.55-2.77-7-3.1-.34,0-3.24.44-3.54.47-1.35.29,5.33-.29,7.62,2.41,1,1.17-.5,2,.36,6,.4,1.83,1.14,3.24,1.54,5.13.88,4.19.11,6.56-1.19,11.92-.66,2.72-1.12,5.6-4.08,7.07-3.45-.1-6.93-.25-10.45,1-7.65,2.64-2.44-3-10.18-5.78-5.83-2.07-13.71-1.08-10.16-.51,3.94.63,14.87,5.39,2.38,3.23-4-.69-8.44,1.1-13.14,4.73C62.33,70.94,63.13,79.13,63.19,81.93Zm40.08-22.68c-2,0-1.16-4.71-1.52-8s-3.15-3.48-5.82-4-4.6,1.93-8,3a56.39,56.39,0,0,0-10.53,4.88s-1.75-.1.8-2.92c1-1.18,1.18-3.15,1.77-4.22s7.15,1,12.17-1.7c2.45-1.33,7.44-2.38,10.05.13C106.55,50.64,106.28,59.29,103.27,59.25Z"/><path class="cls-1" d="M104.72,94.47c6.41,3,6.26-17.33.74-14.39-3.33,1.77-2.14-1.38,1.86-1.85,2.51-.29,6.85,1.48,7.81,5.36.81,3.23-.62,10,1.77,4.4a7.69,7.69,0,0,0-3.11-9.56c-5.73-2.62-7.8-3.32-10.92-3.11-5.65.37-9,1.34-11.53,3.48-1.5,1.28-2.82,7-1.49,7.85.67.43,1.34-7.08,4.87-8.19,5.85-1.85,6.34,2.81,1.87,2.27-4-.49-6,6.93-3.9,12A2.68,2.68,0,0,0,97,93.84C98.59,92.58,100.66,92.57,104.72,94.47Z"/><path class="cls-1" d="M142.57,80.51c.73-.94,8.09,2.29,10.82,3.52,2.18,1,4.91,3.67,6.88,7.55C168.53,107.76,141.76,81.57,142.57,80.51Z"/><path class="cls-1" d="M85.67,71.43c.7-2.11-.59-2.46-1.83-3.73-2.39-2.44-5.93-2-7.63-1.71-.63.08-10.1,1.55-12.15,9.36S69,91.66,71.83,91c.62-.16-.06-.78,1.67-4.62A27.58,27.58,0,0,1,78,78.86C82.33,74.37,84.74,74.26,85.67,71.43Z"/><path class="cls-1" d="M81,71.52s-4-5.2-11.08-1.72-6,13.44-3.28,16.33-1-3,0-7.41c1.19-5.54,4.56-6.92,7.72-7.62S82.12,72.87,81,71.52Z"/><ellipse class="cls-1" cx="72.32" cy="83.14" rx="2.01" ry="1.87" transform="translate(-16.22 148.73) rotate(-85.51)"/><path class="cls-1" d="M137.59,80.52s3.69-1.5,16.23,7c9.5,6.43,9.74,12.18,9.74,12.18Z"/><path class="cls-1" d="M185.09,145.69c-.21-6.55,1.2-14,2.07-18.67s-1.89-8.71-3.22-.26-1.58,21.77-4.37,22.93-1.94-13.27-4.83-7.41-5.31,6.21-8.43,7.65c-6.18,2.84-5.07,4.13-10.68,7.2a54.73,54.73,0,0,1-11.36,4.5c-8.93,2.44-5,6.05,3.54,1.55,8.18-4.29,12.3-7.23,15.83-8.81,6.19-2.77,12.47-2.32,14.76-2.66S185.34,153.66,185.09,145.69Z"/><path class="cls-1" d="M143.23,72.4c.52-2.1,1.69-3.44,4.5-2.86a17.49,17.49,0,0,1,7.55,3.8c2.35,2,5.5,6,1.5,3.69C149.61,72.9,142.7,74.5,143.23,72.4Z"/><path class="cls-1" d="M129.16,115.18c-.16-1.82-.61-6-2.09-5.16-1.12.63-.47,8.56-10.12,15.26-4.15,2.89-15.2,2.74-20.79,1.23-3.09-.84-.68,2.88.38,4.31,4.52,6.06,19.57,9.74,25.39,3.77C126.4,130,129.77,122,129.16,115.18Z"/><path class="cls-1" d="M120.68,132.36c1.59,1.33,2.65,2-2.13,4.47-2.56,1.33-7.65,1.89-8.83.16-1.62-2.37,4.38-1.18,6.06-2.09C118.67,133.34,118.34,130.39,120.68,132.36Z"/><path class="cls-1" d="M103.23,127.42a33.84,33.84,0,0,0,13-1.84,25.4,25.4,0,0,1-13.84,3.56c-6.41-.15-7.56-2.72-7.56-2.72A56.73,56.73,0,0,0,103.23,127.42Z"/><path class="cls-1" d="M121.9,139.59c-4.21,3.59-9.7,5.3-16-.19-.87-.75,3,3.31,4,3.88a10.54,10.54,0,0,0,14.6-4.21C131.17,126,125,137,121.9,139.59Z"/><path class="cls-1" d="M113,173.34s4,5.7,5.45,10,1.42,7.59,4.63,3.32,16.71-15.41,3.67,1.43S109,215.79,108.5,224.57,163,165.32,163,165.32l10.13-12.87s-20.09,6-26.25,12.36-24.43,19.68-25.38,18.49S113,173.34,113,173.34Z"/><path class="cls-1" d="M111.94,172.87s-4.24-.47-6.21,2.85-6,10.9-6,10.9L84.55,176.19,72.46,155s.91-.58,5.72,2.32c6.34,3.81,3.29,11.29,9.69,17.22s10.91,6.88,10.91,6.88S104.94,171.45,111.94,172.87Z"/><path class="cls-1" d="M114.88,211.79s-3.34-18.5-2.11-18.53c3.61-.08,6.17.79,5.69-5.21s-2.17-13.89-5.45-14.71c-4.06-1-7.28,1.13-11.15,5.7-4.19,5-4.5,7.87-2.84,9.86s3.55,2.23,3.55,3.65-2.91,5.93-3.94,10.44-2.22,7.11-.56,10.19S105.73,226,105.73,226l5.38-1.19Z"/><path class="cls-1" d="M104.94,263.22s11.62,3.56,30.83,4,41.93-2,41.93-2,10.48-3.73,12.62-2.76,2.84,3.59-1.07,5.72,3.67,4.74,7.94-2.61,5-16.6,4.27-19.68-88.93,5.93-97.7,9.72S104.94,263.22,104.94,263.22Z"/><path class="cls-1" d="M236.6,178.1c-2.57-1-5.34-1.54-8-2.28l-16.94-4.71c-5.64-1.57-5.58-.9-8.1-2.77-1.08-.81-3.41-.53-4.6-1.75-10.08-10.32-15.18-15.77-27.73-13.7-2.08-.37-8.39,2.91-12.37,5.36C140.94,169.3,120.36,199,109.21,223c-1,2.14-14.39-12.81-20.27-32.37-1.76-5.84-5.46-23.33-9.39-28-4.21-5-7.91-9.46-9.81-9.87-6-1.28-12.17-1.81-24.52,14.72-7.09,9.48-20.44,21.16-23.44,30.69C20,204,37.08,221.81,36.5,227.83c-.68,7,5.45,6.79,8.61,13.13a34.34,34.34,0,0,0,12.75,13.76c2.28,1.4,6.11.41,7.11-2.22,1.18,5,.82,9.44,3.51,15,1.36,2.8.87,6.32,3.72,5.3l34.36-12.41c2.25-.81,5.28-2.25,7.27-2.28,2.6,0,5.29,1,7.87,1.49A143,143,0,0,0,139.92,262c5.92.41,11.85.54,17.78.58a154.7,154.7,0,0,0,16.82-.32c5.82-.59,11.41-2,16.34-5.3a58.75,58.75,0,0,0,6.74-5.34c2.1-1.89,4.63-3.84,5.48-6.66a7.24,7.24,0,0,0-.29-4.85,4.72,4.72,0,0,0,0-.76c-.18-9.17-9-13.92-5.58-11.84,13,7.83,26.33,1.23,33.44-26.14C232.05,196.07,240.59,179.59,236.6,178.1Z"/><path class="cls-1" d="M223.53,124.9s3.5-5.46,1-9.19-2.72-4.17-.48-2.45,5.06,3.77,2.37,7.64C224.72,123.4,220.24,134,223.53,124.9Z"/><path class="cls-1" d="M217,123.56c-.71,1.53-3.47,3.08-8.74,2.25-3.64-.57-2.09,1.23-1.07,1.56a8.67,8.67,0,0,0,3.69.6,9.67,9.67,0,0,0,3.5-1.27c-.35.15.44-.11,1.23.31s1.18,1.66,1.18,1.66a4,4,0,0,1-.07-2.79C218.68,121.48,218,121.39,217,123.56Z"/><path class="cls-1" d="M205.7,137.43c-3.56,4.49,2.46,5.62,4.4,6.55s2.6.46.48-1.54-3.85-2.84-3.09-6.51c.35-1.68.89-5.42-1.2-6.83-.31-.2.71,1.36.61,3.3S206.82,136,205.7,137.43Z"/><path class="cls-1" d="M233,180s1.2,5.34-6.87,14.94-11.29,18.5-7.9,16,3,4-2.66,8.21-10.31,6.79-18.85,1.78-11.74-8.21-15.3-11.06-6.4-2.49,0,4.27,6,11.09,1.06,8.57-13.15-1.1-3.9,3.88S196.72,238,192.81,238s-11.39,1.06-5.34,4.26,8.69,5.34-4.55,10.32S167.55,260,153,259.66s-17.05,2.66,2.25,2.61,22,1.72,33.8-4.23,14.58-11.42,14.58-11.42,2.37-2.37-.24-5.45-4.27-4.27-3.56-5.69,9.75,4.3,6.85,2.34-6.37-9.22-1.63-8,11.43-1.35,15.32-6,11.56-24.07,14.36-33,5.51-12.47,1.9-12.72S233,178.14,233,180Z"/><path class="cls-1" d="M195.06,161.61c-2.85-2.38-6.17-4.15-6.17-5.34s.33-8.89-4-7.5c-6.91,2.22-13.62,4.12-13.62,4.12s4.59-2,7.34,3.14c1.89,3.56-6.5,9.06-6.5,9.06.07-1-3.79,3.63.21,3,4.45-.67,13.76-10.32,20.16-2.55,4.44,5.38-2,19.19-2.59,20.68-1.27,3.53-7.18,11.48-9.5,15.78-3.09,5.7,8.55-8.34,10.46-10.67-.43,1.2-.76,2.12-1,2.63-1.32,3.41-9.15,19.07-3.1,11.6s7.24-2.31,7.71,2.75,6.87,20.37,4.38,5.78-2.49-25.25-.71-20.63,2.49,3.06,2.49-10.67c0-6.8,4.7-13.75,2.94-14.49C197.84,165.93,197,163.24,195.06,161.61Z"/><path class="cls-1" d="M172.29,168.13l-.21-3A11,11,0,0,0,172.29,168.13Z"/><path class="cls-1" d="M169.45,170.5l-19.92,10.2,2.68,9.24s-38.49,33.44-38.49,36.29-3.56,9.48.47,7.82,5.69-2.84,8.54-.71,5.62,5.93,2.33,9.49-5,3.08,0,4.5,4.52,2.37-1.51,2.14-19.55-.52-4.38,2.11,2.37,3.34,2.37,3.34-.1,2.14,13.65,3.56,6.51,2.13-2,1.9-18.73-3.56-18.73-3.56a15.79,15.79,0,0,1-8.06-15.18c.71-10.91.95-13.52,4.74-16.84s38.42-38.18,38.42-38.18l-1.66-7.35,20.39-11.85S178.46,159.12,169.45,170.5Z"/><path class="cls-1" d="M135.54,225.28s3.08.71,14.22,0a74.94,74.94,0,0,0,19-3.56s.94,9,.94,11.86-3.79,3.56-4-1.66-5,1.18-5-1.9-9.72-1.66-14.7-.47-16.6.78-8.06-.8S127,225.52,135.54,225.28Z"/><path class="cls-1" d="M57.16,197.36c-1.43,5.35-3.52,15.85-3.77,21.21-1.45,31.24-11.52,23.2-9.63,29.61s20.42,25.07,21.39,27.37-2.2,10.08,4.69,7.59l22.83-8.24c8.54-3.08,21.63-9.39,12.21-6.78s-26.25,7.35-29.09,7.35-5-2.61,1.66-4,3.2-3.11-4-4-14.79-17.08-9.1-17.31a60.06,60.06,0,0,0,13.76-1.9c4.74-1.19,12.57-5.93,3.56-3.56s-14.25,6.41-15.9,1.19-2.36-9.25-3.08-18.26-3.32-22,.72-12.69,9,17.91,5.21,6.52-10.2-19.42-3.79-18c6.72,1.47,7.06.88,2-1.25C59.22,199,60,186.69,57.16,197.36Z"/><path class="cls-1" d="M73.17,163.62s-.48,14.47-1,17.08-.47,4.5,2.61,3.79,3.87,3.08,2.29,9.25,4.35,16.36,9.21,20.87,19.4,9.72,19.4,9.72S84.55,213,80.52,201.09s1.19-18.26-.24-18.73-7.59.71-5.93-5.93,1.15-16.2.29-18.17C70,147.62,60.48,152.08,56,155.4s-11.72,14.85-19.35,22.34c-11,10.77-18.58,23-17.16,33.65s28.56,35.94,33.3,39,10,7.9,10.91,2.13-4,.47-10.67-11.86S18.36,211.26,28.73,197.5c14.58-19.35,14.94-25.7,31.2-39.42C63.91,154.72,73.32,159.6,73.17,163.62Z"/><path class="cls-1" d="M108.5,194.84s1.67,8.3,1.78,11c.45,10.76-1.07,17.17-1.07,17.17l4.16-8.72S109.74,187.63,108.5,194.84Z"/><path class="cls-1" d="M203.57,168.34l.39-4.54s11.2,2.39,17.18,3.51,17.2,1.29,17.2,1.29l-2.85,9.25s-21.26-6-26.41-7A13.87,13.87,0,0,1,203.57,168.34Z"/><path class="cls-1" d="M234.11,165.09s4.85,1.49,4.23,3.51l-2.85,9.25L214.68,172s-2.75-1.78,4.18,0,13,.67,13.87-.51-1.95-2.42.27-2.69Z"/><path class="cls-1" d="M112.77,178s3.08,8.6,1.78,10.15-3.08,3-.59,2,2.13-5.81,1.3-8.65S112.41,174.28,112.77,178Z"/></g><circle class="cls-4" cx="124.88" cy="123.42" r="120.71"/><g class="cls-5"><path class="cls-6" d="M237.16,170.34a36.45,36.45,0,0,0-3.19-10.1,33.36,33.36,0,0,0-5.71-8.58C221.11,143.3,199.09,128.91,190,126c-2-.64-3.79-.49-4.82.38-4.21.23-9.74,11.37-17.56,20.78-4.32,5.19-34.91,40.86-35.61,41.61-1.69-1.27-14.22-10.47-17.08-12.83-2.08-1.71-31.95-30-35.57-34.51a39.07,39.07,0,0,1-4.88-7.58l-.23-.53c-.15-.39-.28-.78-.41-1.18a18.27,18.27,0,0,1-.66-2.72,19.13,19.13,0,0,1,0-2.87,16.45,16.45,0,0,0,.55-5.82,16.81,16.81,0,0,0-1.51-5,2.88,2.88,0,0,0-3.84-1,11.51,11.51,0,0,0-4,2.68,4.77,4.77,0,0,0-1.33,1.65c-.64,1.28-1.28,2.55-1.94,3.82-6.28,1.66-12,4.8-17.48,8.24S32.53,138,28.11,142.74c-4.23,4.51-7.29,10.27-7.4,16.56a43.63,43.63,0,0,0,.67,10.22,41.11,41.11,0,0,0,4,9.7C29.1,186.34,47.3,210.9,49.58,214a5,5,0,0,0-2.7,5.73,33.71,33.71,0,0,0,2,6.78,5.25,5.25,0,0,1-.71,2,9.62,9.62,0,0,0-1,4.71c.21,2.87,3.17,7.77,3.28,7.95A5.36,5.36,0,0,0,48,246.94a88.11,88.11,0,0,0,7.46,21.86c1.31,2.66,5.79,3.36,7.72,1,6.93-8.51,15.23-14.32,25.12-19.12,9.42-4.58,20.11-7.74,30.64-10.54a10.17,10.17,0,0,0,5.2-2.8,11.39,11.39,0,0,0,2.42-5.48q1.18-5.53,2.36-11.08c.38-1.79.22-5.81.41-6.28.65.3.22,3.77.65,5.06l3,9c.94,2.8,1.66,6,3.38,8.42,2,2.88,5.05,4,8.23,5.17,2.79,1,5.55,2,8.3,3.15a251.73,251.73,0,0,1,31.6,15.37q8.81,5.06,17.18,10.78c2.69,1.83,6.37-.08,7.22-2.94q3-10.32,5.91-20.67c1.05-3.79,2.19-7.86.28-11.58a9,9,0,0,0-2.35-2.9L215.6,224c.71-2.3,1.49-4.48.92-6.92a7,7,0,0,0-1.61-3.18c3.71-4.74,7.44-9.47,11-14.31a71.07,71.07,0,0,0,10-18.37A22.42,22.42,0,0,0,237.16,170.34Z"/><path class="cls-1" d="M108,175.1s7.51,15.59,9.22,20.94a87.09,87.09,0,0,1,2.66,11.32l-7.2,3L96.4,176.65Z"/><polyline class="cls-1" points="153.74 190.05 143.71 211.09 148.72 213.78 161.97 190.81 153.74 190.05"/><path class="cls-7" d="M71.51,181.55,45.86,189s-6.48-1.71.62-2.78,11.25-1.82,11.06-3.33-7.12-2.32-9.58-2.57-5.09-2.08.79-1.12,11.23,2,13.77.31,1.28-4.7,1.52-8,.2-6.78,1.93-9.14,3.65-4.26,4.35-3.87-.61.64-1.48,3.1a27.13,27.13,0,0,0-1.7,8.37c0,2.5-.83,5.08.61,7.34A21.34,21.34,0,0,0,71.51,181.55Z"/><path class="cls-7" d="M58.84,129.3c-1.28,3-4.38,8-4.65,9.91s2.15,2.51,3.88-3.06,2.12-9.42,3.33-10.26,2.88-.84,1.91,1.88-2.19,8.51-1.23,8.64,1.13-1.23,1.31-3.18,1.83-7,1.79-.34,3.15,18.36,4.37,20.35.8-1.15.66-2.52-5.14-21.9-5-25.58.82-9-.73-6.76A92.88,92.88,0,0,0,58.84,129.3Z"/><path class="cls-7" d="M164.58,190.92s29.45-.17,36.15,0,8,0,11.21-.11,9.52-3,2.33-2.85-41.48,1.11-43,1.11c-1.72,0,1.37-5.5,3.47-8.85s5.76-9.67,7.59-13c2.19-4,4-12.06,1.56-7.7C182.65,161.72,164.58,190.92,164.58,190.92Z"/><path class="cls-7" d="M170.12,156.87s13.46-28,14.36-29.84,3.46-2.32,7.21,0,14.32,8,8.39,5.5-8.75-3.18-3.42-.14,8.07,8,4.07,5.12-13.4-10-13.53-7.95,1.48,3,2.87,4.27-.37,3.64-2.59.69-3.32-4.23-4.88-1.31S170.12,156.87,170.12,156.87Z"/><path class="cls-7" d="M102.35,220.73s-32,10-35.21,11.15-10.58-1.66-14.27-7.62-6.1-4.57-3.84-.53,4,9,7.7,11.93,2.07,7.54-2.56,1.4-8.14-.52-.6,5.44,5,5.7,2.2,3.51-7.14-6-8.31-11.57,1.46-7.93,1.46-7.93-4.17-8.12.11-12.73c0,0,.2.3,5.09,5.74s11.12,8.86,27,2.54,38.7-14,38.7-14-4.67-7.2,5-4.33c10.11,3,23.89,10.08,23.89,10.08s-1.37,1.47,1.83,3,38,14.41,38,14.41,8.15,1.85,11.4-.87,14.94-16.38,14.94-16.38,3.94,2,.55,10.55-4.53,9.5-3,9.86,4.73,3.74,1.62,13.1-2.67,7-3.46,0-2.15-10.73-6.71-6.78-6.23,1.05-1.38-1.76,10.37-7.72,6-8.77-6.06,2-10.27,4.39-14.29-.66-30-6.34-37.12-10.34-37.12-10.34l-4,.57s-1.35-.29-3.72,5.23-6.31,11.23-5.52,8.86,6.93-16.4,4.38-15.09-7.39,8.78-8.78,8.43-1.45-3.08,2.7-6.67,1.31-5-4.42-2.4S102.35,220.73,102.35,220.73Z"/><path class="cls-8" d="M50.79,177.34c-2.71-1-9.73-5.2-10-3s1,3.76,7.92,4.81,11.46.48,9,0S50.79,177.34,50.79,177.34Z"/><path class="cls-8" d="M49.62,185.82c-2.44.36-7.51,1.34-8,.45s-.68-2.11,5.45-1.76S57,184.73,49.62,185.82Z"/><path class="cls-8" d="M70.77,183.69c28.91-4.14,23.69.1,28.94,3.83,2.41,1.72-2.28-6.88-4.21-8.87-2.8-2.88-10.9,0-26.6,4.22-24,6.44-23.75,8.59-23.75,8.59S61.29,185.05,70.77,183.69Z"/><path class="cls-8" d="M181,160.2c.24-2.46.46-7.65,1.58-7.83s2.58,0,.57,5.8S180.34,167.67,181,160.2Z"/><path class="cls-9" d="M109.9,181.67a5.71,5.71,0,0,0-4.31-3c-3.07-.36-4.48,1.13-4.3,3S110.8,202,110.8,202s1.82,8.27-.38,3.71l-12.2-25.27-1.82-3.78L108,175.1S111.39,183.49,109.9,181.67Z"/><path class="cls-9" d="M150.55,199.79s-.1-2.12-1.68.48-5,10.41-5,10.41-.35.75,1.24,1.33a25.94,25.94,0,0,1,3.58,1.77s3.49-5,2-5.34-3-2.36-2.22-4S150.55,199.79,150.55,199.79Z"/><path class="cls-9" d="M92.53,365.33c-.89.06-24.31,0-42.55,0s-2.57-8.89,8.58-10.48c2.43-.34,38.8-.34,47.1,1.2C111.85,357.2,129.43,363,92.53,365.33Z"/><path class="cls-9" d="M193.1,363.36c-1.06.08-8.26,1-29.76-2.06s-29.28-6.84-15.87-9.25c2.92-.53,44.86-.77,54.84,1.58C209.75,355.38,237.46,359.85,193.1,363.36Z"/><path class="cls-8" d="M187.77,193.76c7.19.58,25.79,2.68,26.82-.46s-4.3-.87-28.85-1.18-22.47.76-22.47.76S178.33,193,187.77,193.76Z"/><path class="cls-8" d="M203.74,134.26s15.81,8.43,25.09,19.59c8.76,10.53,7.63,20.22,7.63,20.22s-2.19,7.43-5.7-11C228,148.59,203.74,134.26,203.74,134.26Z"/><path class="cls-10" d="M184,57.22a36.89,36.89,0,0,0,3.92,1.62c2.08.71,4.94,2.28,8.2,7.48s8.82,15.31,10,17.79,3.48,8.77-1.37,11.69-9.52,5.59-10.69,7.65-2.39,7.66-4.75,7.65-4.61-13-3.53-15.76c.57-1.44,5.25-12.86,4.62-22.43C189.87,64.21,184,57.22,184,57.22Z"/><path class="cls-11" d="M189.16,89.5c.63-3.06,1.18-6.12,1.53-9.23C191.27,75.11,192,69,189,64.73a66.4,66.4,0,0,1-5.35-9.19c-.14-.49-.25-2.78-1.12-4.07-1.33-2-4.35-3.6-4.78-4.26-4.07-6.27-9.33-13.44-15.19-15.18-1.93-.57-5.39,2.15-6.53.87-2.21-2.46-4-4.2-7.54-4.7-2-.29-4.05,1.18-6,1.87-1.43.5-5.58-2-7.05-2.32-7-1.42-10.52,1.31-11.52,1.84a7.36,7.36,0,0,0-1.44.77c-4.18,3.62-5.32-.77-10.61-.58-3,.12-6.23.62-8.54,2.5-8.29,6.74-7.64,2.46-11,6.88C90.11,42,92.06,47.42,90.5,49.8c-2.07,3.16-7.91,3.55-9.45,6.45-3,5.62-4.15,11.49-4.73,17.82-.53,5.78-1.36,12.18-1.59,18-.25,6.54-1.59,10.77-2.73,15.86-.76,3.41-2.7,10.19-2.7,11,0,3.72,6.84,5.47,10.21,7,5.7,2.55,11.46,5,17.24,7.37,5.34,2.2,10.74,4.28,16.21,6.14a89.66,89.66,0,0,0,17.84,4.55c6,.73,12.12-.53,17.92-2a112,112,0,0,0,16.63-5.67,89.81,89.81,0,0,0,14.22-7.51c5.54-3.6,10.45-8.35,9.89-15.56-.1-1.2-2.05-9-2.7-13.91C185.94,93,189,90.34,189.16,89.5Z"/><path class="cls-1" d="M76.25,136.68s10.84,18.47,36,38.3c3,2.37,22.49,7.62,29.95.88a196.26,196.26,0,0,0,14.13-14.37l24.44-31.68s-16.46,13-27.72,14.87-29.86-1.26-29.86-1.26L89,137.28Z"/><path class="cls-12" d="M121.64,153.67l8,6.11s-.81,2.14-2,6.38a39.79,39.79,0,0,0-1.25,9.34s6,5.43,6.5,5.78,10.84-4.55,10.84-4.55a16.37,16.37,0,0,0-.15-6c-.68-3.33-5.27-10.23-6.83-10.73s.18-.63,1.41-2.23a71.45,71.45,0,0,1,5.23-5.3s-3.28-5.4-4-5.67-9.28-3.4-9.28-3.4Z"/><path class="cls-1" d="M69.3,120.05s17.24,11.7,45.34,18.64c15,3.69,24.49,6.58,36,2.72s30.4-13.9,32.15-15.22-.27,1.13-3.74,5.66-19.84,24.56-22.19,27.93a33.28,33.28,0,0,1-4.58,5.34,49.85,49.85,0,0,1-7.3-8.06c-3-4.32-8.3-9.34-12.12-9.81s-3.28.79-5.71,2.65-7.27,8.36-8.67,13.44-2.35,6.15-6.2,3.91-25.22-14.71-32.95-25.8S68,124.26,69.3,120.05Z"/><path class="cls-13" d="M138.06,149.18s6.33,5.22,9.79,8.75,4.3,6.22,5.79,5.41a37.42,37.42,0,0,0,6.11-5.41c0-.3,10.73-15.28,15-20.29a121.85,121.85,0,0,0,8.41-11.45s-7.66,7.17-9,9.11-12.82,18-17.9,20.69S133.23,145.07,138.06,149.18Z"/><path class="cls-11" d="M142.8,210s-10.85-4.25-15.36-5.57L119,202l11.59-16s12.28-.13,13.13.2,9.55,3.49,9.55,3.49Z"/><path class="cls-11" d="M180.67,165.13c-.6-.94-4.65-2.63-7.57-2.1-1.56.28-4.53,1-5.36-.16a22.5,22.5,0,0,0,.94-2.42,8.44,8.44,0,0,0-1.79-8.27c-1.62-1.85-5.41-3.83-7.06-2.17s.14,6.88-.69,9.6a23,23,0,0,1-4.61,8.44c-.83.19-4.61,1-5.86,1.3,0,0-18.4,5.9-29,6.29-8.59.33-10.68-1.24-10,3,.5,3,3.63,7.79,4.61,10.54a67.18,67.18,0,0,1,3,8.77A4.16,4.16,0,0,0,124.4,200c2.36-2.55,6.32-4.26,9.48-5.83a43,43,0,0,1,18.77-4.91c2.88,0,7.52.71,8.35.71,4.42,0,4.32.49,9-7.17C172.42,178.84,181.34,166.17,180.67,165.13Z"/><path class="cls-11" d="M107.85,173.36a33.92,33.92,0,0,0-11.67-7.8c-1.94-.73-15.33-6.32-23.43-6.28-2.89,0-4.93,2.54-5.67,5.24a30.35,30.35,0,0,0-.73,6.51,7.64,7.64,0,0,0,.25,1.91,5.68,5.68,0,0,0,.05,5.3c.77,1.67,3.12,4,4.86,3.31,1.31-.5,6.92-2.67,18.9-4.69,4.24-.72,7.89-.79,11.12-1.65C103.77,174.61,109.78,174.92,107.85,173.36Z"/><path class="cls-11" d="M96.59,353.13c0-.06-.07-.16-.15-.34Z"/><path class="cls-11" d="M203.71,351.9a12.61,12.61,0,0,0-6.82-8,27.13,27.13,0,0,0-3.77-1.4c-.51-5.4-1.06-10.79-1.42-16.19-.78-11.77,1-20.83,4.54-32.07a110.14,110.14,0,0,0,4.25-10.55c1.18-3.45,3.15-7.88,1.82-11.47-1.53-4.18-5.73-6.19-9.52-8-11.38-5.37-22.31-11.56-33.63-17a137.43,137.43,0,0,0-18.31-7.5l-.1,0c-5.78-2.06-9.44-26.48-11.72-25.92-1.47.36-6.9,24.28-9.26,25.84-.83.55-20,5.42-25.88,7.6-11.78,4.34-21.44,12.22-30.7,20.49-3.23,2.89-6.26,5.92-5.89,10.66.32,4,3.44,17.05,4,18.68.43,7.62.62,15.44,2.2,22.9q1.41,6.63,3.45,13.09c1.18,3.71,2.32,7.74,4.53,11a6.63,6.63,0,0,0-.62,2.51,9.35,9.35,0,0,0-2.11.91c-5.31,3.15-6.07,11.12-.47,14.45,3.34,2,7.74,1.32,11.46,1.27l10.81-.12a7.57,7.57,0,0,0,5.9-3.39c2.22-3-2.12-11.77-1-14.82,1.41-6.48,7-22.46,9.47-28.87.11,0,33.57-6.5,55.1,14.6,2,1.9,8.88,7.37,10.43,10.6s.34,8,1,10.72a11.18,11.18,0,0,0,7.26,8.13c2.85,1,6.18.6,9.15.58l9.27-.08A6.92,6.92,0,0,0,203.71,351.9Z"/><path class="cls-10" d="M37.12,78.15s6.68-8,18.33-19.33A91.14,91.14,0,0,1,83,40.57c4.76-2.09,9.47-2.6,8.91-.74s0,4.29-.7,7.13-1.69,3.92-5,6.25-6.09,4.13-7.43,8.32S75.91,75.92,75.32,84s-3.77,25.83-3.77,25.83-3.49-3.82-10.34-12-12.09-13-17.11-14.3S35.17,83,37.12,78.15Z"/><path class="cls-14" d="M153.74,244.71a89.85,89.85,0,0,0-10.43-4.2c-2.84-.88-3.72-1.46-3.77-1.57-2.29-2.17-4.51-8.57-6-13.18-.07-.22-1.56-4.79-1.68-5.22-.48-1.87-2.16-10-3.74-5.24-1.41,4.25-6.61,23.22-8.28,24.25a22.1,22.1,0,0,1-3.5,1.23c-7,1.95-17.89,4.37-26,7.95A83.43,83.43,0,0,0,69.9,261.92C62.43,268.84,57,273.11,57,274.81c.13,5.7,1.27,9.68,2.51,15.22.6,2.69,1.3,5.34,1.69,8.07s.28,5.65.43,8.5a76.52,76.52,0,0,0,1.07,9,163.51,163.51,0,0,0,4.22,17.42c.76,2.2,1.43,4.05,2,6.3a30.46,30.46,0,0,0,2.42,4.57c.37.63-.62,2.1-.52,2.66.12.75,2.52-1.48,10.15-.69.75.07,1-1.38,1-2.18-.06-1.88-.94-2.48-2.36-3.29-6.21-3.54,2.12-9.85-3.63-13.26-7-4.13-6.8-9.33-7.66-14.71-.21-1.37-.46-2.75-.57-4.13-.13-1.56-2-7.49,2.89-5.42a1.76,1.76,0,0,0,1.77-3c-2.07-1.59-5.4-2.88-6.35-5.53-1.08-3,2.24-4.29,4.62-3.49l.86.35a1.39,1.39,0,0,0,1.59-.34,1.31,1.31,0,0,0,1-.2,36.41,36.41,0,0,0,5.71,1.08c2.07.23,2.22-2.83.47-3.45-2.91-1-6.29-2.14-8.17-4.76-2.09-2.92-1.52-6.95-.89-10.24.73-3.86,2.1-6.76,5.21-9.24,2.82-2.25,7.39-6.43,10.62-8,12-6,18.18-8.42,32.8-10.26,4.27-.54,14.15-2.05,21.09-1.25C150.85,245.63,160.12,247.56,153.74,244.71Z"/><path class="cls-14" d="M96.44,340.59c-2.54,2.65-10.41,3.12-10.41,4s2.74,1.12,3.69,1.2c.64.05,3.23.5,3.93.5a1.79,1.79,0,0,0,1.75-1.76C95.45,344.13,96.09,342.23,96.44,340.59Z"/><path class="cls-14" d="M201.3,355c-4.42.21-8.83.07-13.24-.16-3.35-.17-10.48.4-12.33-3.26-2.92-5.79,3-5.67.78-10.75-1.46-3.36-4.87-11.82-11.2-15.41a1.72,1.72,0,0,0-.5-2.5c-.93-.58-.68-2-.69-2.92a3.34,3.34,0,0,0-1.25-3,19.54,19.54,0,0,0-3-1.68l-2.69-1.44c-4.18-2.42,11.81-3.66,13.42-5.63.75-.91.66-2.69-.77-2.93-2.33-.4-4.57.11-6.9.36s-5,.44-7.43.54c-4.93.2-9.87.19-14.8.07-9.81-.23-19.61-1.16-29-4-2.17-.65-3.08,2.71-.93,3.38l6.28,2c-1.16.55-2.23,1.28-3.41,1.79a22.24,22.24,0,0,1-5,1.4,11.52,11.52,0,0,1-2.72.39c-2.18-.56-3,4.94-.74,4.72a95.26,95.26,0,0,1,12-.89c8.83.06,25.08,2.1,33.79,8.53,5.77,4.25,11.83,8.84,16.33,13.62,2.69,2.87,4.44,4.4,4,11.18a13.57,13.57,0,0,0,3.47,9.27c3.15,2.94,7.74,2.79,11.61,3,5,.27,13.81.19,15.46-2C203.12,356.86,203.56,354.87,201.3,355Z"/><path class="cls-14" d="M193.66,343.16a1.8,1.8,0,0,0-1-.81,1.72,1.72,0,0,0-1.35.18l-.52.36a1.89,1.89,0,0,0-.81,1.05,1.76,1.76,0,0,0,2.58,2l.52-.36a1.86,1.86,0,0,0,.8-1.05A1.77,1.77,0,0,0,193.66,343.16Z"/><path class="cls-14" d="M146.08,294.25c-11.4.94-22.26-.24-27.88-2.27-2.13-.77-3,2.62-.93,3.38,6.09,2.21,12.6,2.67,19,2.67,5.61,0,16.78-1,21.89-3.84C168.31,288.57,151.16,293.83,146.08,294.25Z"/><path class="cls-15" d="M201.92,272c-.8-2.09-4.25-5.61-3.44-3.5.87,2.3,1,9.18-.12,11.42-1,2-3.34,18.36-.56,10.81.38-1,3.13-7.86,3.47-8.79a25.38,25.38,0,0,0,1-3.91A10,10,0,0,0,201.92,272Z"/><path class="cls-14" d="M64.53,353.63c-.26,2.79.49,8.92,6.21,9.31S86,363.1,86,363.1s4.55.2,7-1c1.6-.75,3.43-.95,3.87-3.51s0-3.5,0-3.5-.44-1.5-1.67,1.49-2.45,4.14-5.08,4.14c-1.79,0-3.52-.23-3.52-2.36s-.87-5.2-1-3.63.39,5.57-2.24,5.75-7.32.54-7.76-2.12-1.05-4.77-1.14-2.57.27,4.95-2.46,4.47c-3.85-.68-6.12-1.83-6.37-4.6C65.38,352,64.8,350.75,64.53,353.63Z"/><path class="cls-14" d="M111.54,183.26s-.83-5.29,2.25-.22,17,4.7,19.66,4.48c11.53-1,14.51-.64,16.61-4.05s.49,2.5,5.61,3.59c4.4.94,9.13,2.81,11.19-.52a68.57,68.57,0,0,1,7-9.65c-1,1.3-2.88,4.37-4.29,6.58-1.13,1.75-3.22,6.58-6,6.51-3.15-.08-6.59-.41-10.7-.68a18.69,18.69,0,0,0-5.25.41c-9.72,2.09-10.63,3-13.71,4.5A125.76,125.76,0,0,0,122.22,201a34.51,34.51,0,0,1-3.15,2.08s-2.26-7.38-3.5-10.63S111.54,183.26,111.54,183.26Z"/><path class="cls-14" d="M167,152.32s-2.18-1.54-1.67-.41,2,3.11,1.83,5.21-.74,4.81-1.5,5.92a6.94,6.94,0,0,0-1,2.15c-.4,1,2.55-1.13,3.12-2.32,1.07-2.24,1.75-4.34,1.21-6.52C168.28,153.65,167.53,152.76,167,152.32Z"/><path class="cls-14" d="M120.64,203.07s13.4,2.22,22.16,7l10-19.54s-3.31.47-4.18,2.9a11.46,11.46,0,0,1-9.06,7.93c-6.21,1.26-12.19-1.26-13.76-1S120.64,203.07,120.64,203.07Z"/><path class="cls-14" d="M74.53,113.37c.26-4.27,1-19.09-2.12-7s-3.15,13.27-3.15,13.27,4.15,3.8,13.5,7.78,24,9.44,34.61,11.74,17.28,3.46,23.38,3.46,19.5-4.54,26.81-8.51S183.87,125,183.87,125s-.1-1.62-4.41,1.08S156.07,137,150.41,138.26s-14,4.53-31.48-1.41S74,121.19,74.53,113.37Z"/><path class="cls-16" d="M76.69,47.87s4.86-5.72,8.07-5.19,6.3,2.6,4.93,4.72S77.49,53.24,74.48,56,69.71,61.35,68,67.54,68.74,82.82,65.54,84s-6.91-.94-8-1.8c-3.35-2.65-7.19-3-3.56,0s10.66,8.25,11.91,9.62c3.37,3.69,3.78-1.85,3.8-5.13s1-13.27,1.4-15.73,3.47-6.5,2.89.69-.58,13.86-1.63,21.93-1.52,11.7-3.31,10.32-2.26.56-.17,2.91,2.38,3.71,3.54-.43a120,120,0,0,0,2.68-17.24c.35-4.45,1.75-19.24,2.93-25.27.82-4.19,2.06-6.1,4.19-7.59s7-4.55,7.27-5.32a9.39,9.39,0,0,0,1.69-5.75,14.41,14.41,0,0,1,1.12-6A16.82,16.82,0,0,0,83,40.57,201,201,0,0,0,60.45,53.86c-4.57,3.26-9.3,8.75-10.62,9.72-3.88,2.88,10.5-7.82,12.69-9.89s13.45-9.33,12-7.13S69.93,53,76.69,47.87Z"/><path class="cls-16" d="M185.22,58.61s3,5.39,4.46,7.24,2.39,4.39,1.76,8.85-.82,10.37-1.37,11.68-.12,3.6.17,5.92,1.44,8.92,1.45,6-.53-14,.79-10.71-.08,10.56,5.12,7.4,8.56-7.11,6.12-8.76-6-7.42-4.8-8.27,3.07,1.3,3.6,1.8-1.37-5.08-3.87-9.24-6.13-9.6-9.3-10.95S184.2,56.83,185.22,58.61Z"/><path class="cls-13" d="M79.34,126.56c-3-1.09.9,6.88,4.88,13.67s17.87,18.54,22.85,21c2.49,1.21,6.08,1.48,11.91-6.4,3.71-5,10.71-7.44,11.28-8.25,1.13-1.61-11.95,10.33-14,21.94,0,0-6.31-1.91-10.38-5.08s-18-11.08-26.55-22-10.71-16.1-10.07-21.82C69.26,119.63,91.64,131.08,79.34,126.56Z"/><path class="cls-10" d="M103.35,106c-5.54,2.59-4,5.51-3.31,6.68a111.91,111.91,0,0,0,18.09,18.84c9.9,8.1,23.92,5.06,33.73,1.77s15.79-2.59,21.85-7.16,4.56-10.3,4.26-12.35-1.12-9.3-3.22-20.4a29.51,29.51,0,0,0-9.56-17.29c-1.08-1-3.48-5.26-4.66-7s-5.73-1.13-8.3-1.13-5.73,0-8.19.18-10.52,2.43-21.38,13.25a156.83,156.83,0,0,0-19.24,24.2"/><path class="cls-14" d="M188.32,82.18a10.65,10.65,0,0,1-4.3,5.64c-1.39,1-2.5,4.29-2.56,6.62-.18,7.12-1,5.2-1,5.2A166.52,166.52,0,0,0,178.51,83c-1.37-7.55-5.82-13.15-15.49-19s-20.33-6.78-36.29,4.63S107.43,84.5,104.09,91.9c-5,11.16-1.36,1.37-1.39-4.65,0-5.21-4.1-5.64-5.63-7.7-2.63-3.52-3.38-5.48-6.57-5.5-.59,0-4.94,8.52-4.53,5,.58-5,2.72-4.85,4.74-9.47a57.25,57.25,0,0,0,3.15-10.11c1.2-6.18,3.57-2.63,6-4.9s5.2-6.16,10.27-6.35,11.29,2,11.86,5.94c.64,4.47,4.26-2.94,5.26-3.5,3.52-2,0,6.73,1.16,9.91,1.29,3.69,7.28-1.28,7.71-6.41.11-1.33.59-2-.1-4-1.69-4.87-4.56-6.41-8.56-7.81a14.3,14.3,0,0,0-11.89,1.28c-3.7,2.06-18,8-19.2,7.67-1.91-.46,4.63-1.82,8.72-3.88s11.83-7.28,17.2-7.14S132.13,42,134.89,45a14.21,14.21,0,0,1,3.33,9.14,5.72,5.72,0,0,0,1.15,3c.8.85,1.06.63,1.81.6a19.84,19.84,0,0,0,4.43-.6c.72-.43,2.63-2.57,3.35-7.7.82-5.89-.83-9.48-4.84-11.77s-5.45-3.3-6.54-4.85c-1.4-2-1.43-3-5.13-3s-7.5.26-7.5.26-.85-.27-.28-.84c.87-.86,3.82-2.13,8.44-1.92,3.84.17,4.25,1.37,5.61,2s4.78.25,3.6,1.81c-1.43,1.87.81,3.93,2.79,5a28.56,28.56,0,0,1,3.55,2.36c1.18.92,2.21,1.87,3.22,1.17s2.72-1.74,2.83-3.2c.09-1.15,1.27-2.08-.07-3.52a5.61,5.61,0,0,1-1.4-2.81c1.16.71,2.65,3,3.5,3,2.62,0,1.94-1.77,6.59-.67.28.06,2.58,1.13,2.83,1.22,1.05.55-4.37-1.53-6.91,0-1.1.66-.07,1.69-1.71,4.52-.77,1.32-1.72,2.23-2.5,3.6-1.73,3-1.65,5-1.84,9.51-.09,2.26-.4,4.6,1.72,6.47a57,57,0,0,1,8.46,3.3c2.82,1.27,5.09,3.79,6.72,4,3.58.37,2.79-3.79,3.93-5.13.49-.58,3.2-.53,1.95-2.95-.62-1.21.51.47,2.53,2.1s5.13,3.38,3.83,3.05a26.15,26.15,0,0,0-3.17-1.4c-1.14-.31-4.37,3.89-.12,5,5.57,1.44,4.37.93,8.93,3.65S189,80,188.32,82.18ZM160.88,55.33c1.69.47,2.08-3.37,3.16-5.81s3.45-1.92,5.79-1.65,3.36,2.62,6,4.26a49.82,49.82,0,0,1,7.61,6.35s1.48.36,0-2.45c-.6-1.17-.23-2.73-.48-3.7s-3-2.48-4.5-4.48c-1.9-2.45-1.69,3.52-5.22.19-1.72-1.63-5.62-3.67-8.38-2.37C160.19,47.86,158.37,54.62,160.88,55.33Z"/><path class="cls-16" d="M100,112.69s6.71,9,8.71,9.28c30.87,3.48-2.4-19.88,24.11-41.87,4.37-3.62,10.18,5.63,18.3,3.12,3.69-1.15.66,10.93,3.11,11.13s-.16-12.19,1.11-11.67c13.45,5.48,7.42-11.09,8-8.44l.15.62c.63,2.31,1.94,4,3.39,6.75,1.58,3,3,8.82,5.71,15.82s2.43,11.4,3.27,13.67,2.42,3.34,1.55-3.33S175.85,92.33,172.34,86s-9.21-18.11-14.27-17.91c-5.51.22-10.1-.86-14,0C126.33,72,111.38,93.73,107.26,99.87s-5.59,7.73-6.31,8.25S98.93,112.48,100,112.69Z"/><path class="cls-17" d="M150.94,82.68c-6.05-.94-5.1-11.65-.48-8.89,2.79,1.66,2.21-2.48-1.22-3.13-2.16-.41-5.76-.57-6.78,2.5-.85,2.56.06,8.16-1.74,3.44a5.94,5.94,0,0,1,3.15-7.51c5.07-1.73,8.78.18,10.32.17s5.56-.41,7.63,1.5c1.23,1.13,3.52,6,2.33,6.6-.6.31-2.55-5.2-3.86-5.73-4.91-2-4.91,3.39-1,3.07,1.91-.16,4.21,3.43,2.17,7.43a2.39,2.39,0,0,1-3.81.56c-1.28-1.12-.94-2.42-1.46-3.4C154,75.16,154.53,83.23,150.94,82.68Z"/><path class="cls-9" d="M136.25,153.85c.31-1.47.72-2.56,1.73-2.18s1.93,1.57.52,3C135.91,157.21,136,155.08,136.25,153.85Z"/><path class="cls-9" d="M137.24,168.93c-1.16-2-3.82-6.14-3-6.9s2.14-1.42,3.66,4.15S140.75,175.07,137.24,168.93Z"/><path class="cls-17" d="M170.79,100a11,11,0,0,0-.69-3.16c-1.12-3.08-9,2.1-12.8,2.48a36.06,36.06,0,0,1-13.75-.79c-1.09-.3-2.72.68-1.63,1A48.73,48.73,0,0,0,156,101.18a21.06,21.06,0,0,0,6.13-1.17c2.44-.83,6.33-1,7,.48C170.82,104.44,170.87,101.56,170.79,100Z"/><path class="cls-17" d="M166.47,102c-2.44,1.18-6.68,1.55-9.39,1.53a.88.88,0,0,0,0,1.75,19,19,0,0,0,8.61-2C166.71,102.8,167.49,101.48,166.47,102Z"/><path class="cls-16" d="M175.56,121.91c-8.39,2.45-6.91-3.71-6.94-6.34-.06-5-5.12-7.75-6.57-7.6s-9.19-.07-12.81,4.82c-4.56,6.15-5,10.94-11.11,14.24-7.56,4.05-17.64-.17-19.93.67-2.51.92-1.38,1.28.63,3.58,1.34,1.51,3.67,2.33,5.54,2.91a21.46,21.46,0,0,0,2.1.52c7.06,2.71,15.27,1.57,22.37-.78,2.42-.8,4.8-1.73,7.17-2.66,2-.8,4.67-2.37,6.89-1.85,1.71.4,3.57.59,4.76-.54a2.26,2.26,0,0,0,1.57-.4L172.5,126C173.62,125.21,177,121.5,175.56,121.91Z"/><circle class="cls-17" cx="108.91" cy="64.09" r="12.99"/><path class="cls-1" d="M105,55s5.84-3.89,12.3,1.77,2.34,15.18-1.46,17.18,1.93-2.69,2.25-7.32c.41-5.86-2.75-8.28-5.9-10S103.45,56,105,55Z"/><circle class="cls-1" cx="101.41" cy="68.66" r="2.34" transform="translate(17.32 157.69) rotate(-80.73)"/><path class="cls-1" d="M102.13,73.16a1.22,1.22,0,1,1,1.22,1.22A1.22,1.22,0,0,1,102.13,73.16Z"/><path class="cls-17" d="M171.91,70.65a10.17,10.17,0,1,1,7.6,16.91c-.39,0-.87-3.79-.93-4.17C177.16,74.4,170.32,72.44,171.91,70.65Z"/><path class="cls-1" d="M176.49,70.27s4.56-3,9.62,1.39,1.82,11.87-1.15,13.43,1.51-2.1,1.76-5.72c.33-4.59-2.15-6.48-4.61-7.8S175.24,71.05,176.49,70.27Z"/><circle class="cls-1" cx="180.24" cy="81.35" r="1.62"/><path class="cls-14" d="M97,170.46s-6.5-3.89-11-6c-9.72-4.55-12.87.21-15.33.15-3.56-.08-2.46-5.44,1.68-5.69s7.1.5,11.19,2.25S94.9,167.48,97,170.46Z"/></g></g></g></svg>