<svg xmlns="http://www.w3.org/2000/svg" xmlns:xlink="http://www.w3.org/1999/xlink" viewBox="0 0 643.3 714" preserveAspectRatio="none"><defs><style>.cls-1{isolation:isolate;}.cls-2{fill:url(#Безымянный_градиент_284);}.cls-3{fill:url(#Безымянный_градиент_88);}.cls-4{fill:url(#Безымянный_градиент_302);}.cls-5{opacity:0.5;mix-blend-mode:screen;fill:url(#Безымянный_градиент_228);}.cls-6{fill:#fff;}</style><linearGradient id="Безымянный_градиент_284" y1="361.1" x2="642.24" y2="361.1" gradientUnits="userSpaceOnUse"><stop offset="0" stop-color="#004ac2"/><stop offset="1" stop-color="#0083c2"/></linearGradient><linearGradient id="Безымянный_градиент_88" x1="322.18" y1="705.79" x2="322.18" gradientUnits="userSpaceOnUse"><stop offset="0" stop-color="#00eff1"/><stop offset="1" stop-color="#0098ff"/></linearGradient><radialGradient id="Безымянный_градиент_302" cx="323.22" cy="314.75" r="256.5" gradientTransform="translate(0 -272.9) scale(1 2)" gradientUnits="userSpaceOnUse"><stop offset="0" stop-color="#0025ae"/><stop offset="1" stop-color="#008cca"/></radialGradient><linearGradient id="Безымянный_градиент_228" x1="12.42" y1="99.01" x2="570.96" y2="99.01" gradientUnits="userSpaceOnUse"><stop offset="0" stop-color="#23786e"/><stop offset="0.18" stop-color="#1e685f"/><stop offset="0.54" stop-color="#123e39"/><stop offset="1"/></linearGradient></defs><g class="cls-1"><g id="Слой_2" data-name="Слой 2"><g id="Слой_1-2" data-name="Слой 1"><path class="cls-2" d="M5.17,75.23c-13.93,34.39,3.32,565.44,16,608.28C33,723.36,605.14,725,628,683.51s16.22-609.57-5-647.83S39.85-10.43,5.17,75.23Z"/><path class="cls-3" d="M6.22,67c-13.92,34.38,3.33,565.43,16,608.27,11.82,39.86,583.94,41.45,606.75,0s16.22-609.57-5-647.83S40.9-18.63,6.22,67Z"/><path class="cls-4" d="M10.33,76C-3.36,109.77,8.48,607.46,26.19,665.77c11.82,39,572.5,53.08,598.88,0,29.49-59.33,15.87-591.09-5-628.72S44.44-8.29,10.33,76Z"/><path class="cls-5" d="M17,81.29s-27.83,77.28,53.52,97.77S368.73,84,439.77,60.37,571,31.14,571,31.14,105.1-24.45,17,81.29Z"/><path class="cls-6" d="M15.12,107.22s-2.17-16,5.07-29.55S66.82,37.58,70.33,44.25,31.22,111.54,15.12,107.22Z"/><path class="cls-6" d="M18.14,122.75c-3.46-4.21-9.66,15.06-2.33,22.66S22.38,127.93,18.14,122.75Z"/><path class="cls-6" d="M615.42,681.3c-3.74-3.09,15.1-41.24,16.89-38.44s-.63,25.21-3.47,30.25S617.94,683.37,615.42,681.3Z"/></g></g></g></svg>