<svg xmlns="http://www.w3.org/2000/svg" xmlns:xlink="http://www.w3.org/1999/xlink" viewBox="0 0 62.29 52.35"><defs><style>.cls-1{isolation:isolate;}.cls-2{fill:url(#Безымянный_градиент_163);}.cls-3{fill:url(#Безымянный_градиент_160);}.cls-4{fill:url(#Безымянный_градиент_169);}.cls-10,.cls-11,.cls-12,.cls-13,.cls-14,.cls-15,.cls-17,.cls-5,.cls-6,.cls-8,.cls-9{mix-blend-mode:screen;}.cls-5{fill:url(#Безымянный_градиент_155);}.cls-6{fill:url(#Безымянный_градиент_168);}.cls-7{fill:#ffffab;}.cls-8{fill:url(#Безымянный_градиент_168-2);}.cls-9{fill:url(#Безымянный_градиент_168-3);}.cls-10{fill:url(#Безымянный_градиент_168-4);}.cls-11{fill:url(#Безымянный_градиент_168-5);}.cls-12{fill:url(#Безымянный_градиент_168-6);}.cls-13{fill:url(#Безымянный_градиент_168-7);}.cls-14{fill:url(#Безымянный_градиент_168-8);}.cls-15{fill:url(#Безымянный_градиент_168-9);}.cls-16{fill:#fff;}.cls-17{fill:url(#Безымянный_градиент_172);}</style><radialGradient id="Безымянный_градиент_163" cx="-7.42" cy="48.65" r="45.14" gradientTransform="translate(36.11) scale(0.53 1)" gradientUnits="userSpaceOnUse"><stop offset="0" stop-color="#ffbd00"/><stop offset="1" stop-color="#ff772c"/></radialGradient><linearGradient id="Безымянный_градиент_160" x1="31.15" y1="49.96" x2="31.15" y2="0.48" gradientUnits="userSpaceOnUse"><stop offset="0" stop-color="#fff300"/><stop offset="1" stop-color="#ff9700"/></linearGradient><linearGradient id="Безымянный_градиент_169" x1="31.15" y1="49.06" x2="31.15" y2="1" gradientUnits="userSpaceOnUse"><stop offset="0" stop-color="#fc0"/><stop offset="1" stop-color="#ff9700"/></linearGradient><linearGradient id="Безымянный_градиент_155" x1="-181.68" y1="42.55" x2="-128.14" y2="42.55" gradientTransform="matrix(-1, 0, 0, 1, -123.49, 0)" gradientUnits="userSpaceOnUse"><stop offset="0" stop-color="#ff6140"/><stop offset="0.1" stop-color="#ef5b3c"/><stop offset="0.29" stop-color="#c54b31"/><stop offset="0.55" stop-color="#813120"/><stop offset="0.88" stop-color="#240e09"/><stop offset="1"/></linearGradient><radialGradient id="Безымянный_градиент_168" cx="176.79" cy="-534.47" r="1.52" gradientTransform="matrix(-0.06, -1, 1, -0.06, 562.49, 159.67)" gradientUnits="userSpaceOnUse"><stop offset="0" stop-color="#00b359"/><stop offset="0.13" stop-color="#009148"/><stop offset="0.34" stop-color="#005e2f"/><stop offset="0.54" stop-color="#00351a"/><stop offset="0.73" stop-color="#00180c"/><stop offset="0.89" stop-color="#000603"/><stop offset="1"/></radialGradient><radialGradient id="Безымянный_градиент_168-2" cx="183.19" cy="-532.01" r="1.52" xlink:href="#Безымянный_градиент_168"/><radialGradient id="Безымянный_градиент_168-3" cx="164.53" cy="-534.35" r="1.52" xlink:href="#Безымянный_градиент_168"/><radialGradient id="Безымянный_градиент_168-4" cx="184.29" cy="-540.19" r="4.26" xlink:href="#Безымянный_градиент_168"/><radialGradient id="Безымянный_градиент_168-5" cx="153.31" cy="-529.99" r="2.04" xlink:href="#Безымянный_градиент_168"/><radialGradient id="Безымянный_градиент_168-6" cx="145.83" cy="-548.29" r="1.02" xlink:href="#Безымянный_градиент_168"/><radialGradient id="Безымянный_градиент_168-7" cx="165.78" cy="-518.76" r="1.02" xlink:href="#Безымянный_градиент_168"/><radialGradient id="Безымянный_градиент_168-8" cx="150.93" cy="-533.81" r="0.76" xlink:href="#Безымянный_градиент_168"/><radialGradient id="Безымянный_градиент_168-9" cx="150.02" cy="-522" r="1.59" xlink:href="#Безымянный_градиент_168"/><linearGradient id="Безымянный_градиент_172" x1="3.45" y1="11.15" x2="60.74" y2="11.15" gradientUnits="userSpaceOnUse"><stop offset="0" stop-color="#ff9840"/><stop offset="0.1" stop-color="#ef8e3c"/><stop offset="0.29" stop-color="#c57531"/><stop offset="0.55" stop-color="#814d20"/><stop offset="0.88" stop-color="#241609"/><stop offset="1"/></linearGradient></defs><g class="cls-1"><g id="Слой_2" data-name="Слой 2"><g id="Слой_1-2" data-name="Слой 1"><path class="cls-2" d="M1.14,46.86c2.17,8.48,54.4,6.66,58.87-2.15,4.07-8,2.11-34.4-1.37-40.11C53.9-3.19,7.51,0,3.68,6.13.1,11.85-1.11,38.08,1.14,46.86Z"/><path class="cls-3" d="M1.31,45.36c2.16,8.18,54.08,4.56,58.54-3.93,4-7.72,2.15-31-1.31-36.49C53.82-2.57,7.6.43,3.78,6.34.22,11.85-.93,36.9,1.31,45.36Z"/><path class="cls-4" d="M2,44.64c2.12,7.93,52.91,4.3,57.27-3.94,4-7.49,2.1-30-1.29-35.35C53.32-1.93,8.11.91,4.37,6.65.88,12-.23,36.42,2,44.64Z"/><path class="cls-5" d="M58.19,40.85S34.67,52.92,4.65,46c0,0,19.18-1,27.86-4.19C47.24,36.39,54.32,34.8,58.19,40.85Z"/><path class="cls-6" d="M18.36,13.54a1.52,1.52,0,1,1-1.43,1.61A1.52,1.52,0,0,1,18.36,13.54Z"/><path class="cls-7" d="M18.54,14.63A.43.43,0,0,1,19,15a.42.42,0,0,1-.4.44.42.42,0,0,1-.05-.84Z"/><path class="cls-8" d="M20.43,7A1.52,1.52,0,1,1,19,8.61,1.52,1.52,0,0,1,20.43,7Z"/><path class="cls-7" d="M20.61,8.09a.43.43,0,0,1,.45.4.43.43,0,0,1-.85,0A.43.43,0,0,1,20.61,8.09Z"/><path class="cls-9" d="M19.21,25.76a1.52,1.52,0,1,1-1.43,1.61A1.52,1.52,0,0,1,19.21,25.76Z"/><path class="cls-7" d="M19.39,26.85a.43.43,0,1,1-.4.45A.44.44,0,0,1,19.39,26.85Z"/><path class="cls-10" d="M12,3.65A4.26,4.26,0,1,1,8,8.16,4.27,4.27,0,0,1,12,3.65Z"/><path class="cls-7" d="M12.55,6.71A1.18,1.18,0,1,1,11.44,8,1.18,1.18,0,0,1,12.55,6.71Z"/><path class="cls-11" d="M24.2,36.19a2,2,0,1,1-1.91,2.16A2,2,0,0,1,24.2,36.19Z"/><path class="cls-7" d="M24.44,37.65a.57.57,0,1,1-.53.6A.57.57,0,0,1,24.44,37.65Z"/><path class="cls-12" d="M6.44,45.76a1,1,0,1,1-1,1.08A1,1,0,0,1,6.44,45.76Z"/><path class="cls-7" d="M6.56,46.49a.28.28,0,0,1,.3.27.29.29,0,0,1-.26.3.28.28,0,0,1-.3-.27A.29.29,0,0,1,6.56,46.49Z"/><path class="cls-13" d="M34.72,24.09a1,1,0,0,1,1.08,1,1,1,0,1,1-1.08-1Z"/><path class="cls-7" d="M34.85,24.82a.28.28,0,0,1,.29.27.28.28,0,1,1-.29-.27Z"/><path class="cls-14" d="M20.6,40.07a.76.76,0,1,1-.71.8A.75.75,0,0,1,20.6,40.07Z"/><path class="cls-7" d="M20.69,40.61a.21.21,0,1,1,0,.42.2.2,0,0,1-.22-.2A.21.21,0,0,1,20.69,40.61Z"/><path class="cls-15" d="M32.39,39.44a1.59,1.59,0,1,1-1.49,1.69A1.61,1.61,0,0,1,32.39,39.44Z"/><path class="cls-7" d="M32.58,40.59a.44.44,0,1,1,.06.87.44.44,0,1,1-.06-.87Z"/><path class="cls-16" d="M56.79,42.37c-.27-.91,2.13-5,2.74-5s.07,2.73-.3,3.36S56.93,42.82,56.79,42.37Z"/><path class="cls-17" d="M4.24,6.68S39.57-4.59,58.06,5.48c0,0,1.94,1.55,2.68,7.57,0,0-1.48-5.29-12.54-4.54C38.67,9.16,23.91,25.14,8.48,20,.73,17.41,4.24,6.68,4.24,6.68Z"/><path class="cls-16" d="M4.24,11.33S2.55,7,5.8,5.45s13.94-3,14.47-2.62S15.75,5,13.15,6,5.56,12.06,4.24,11.33Z"/></g></g></g></svg>