<svg xmlns="http://www.w3.org/2000/svg" xmlns:xlink="http://www.w3.org/1999/xlink" viewBox="0 0 185.61 128.29"><defs><style>.cls-1{isolation:isolate;}.cls-2{fill:url(#Безымянный_градиент_163);}.cls-3{fill:url(#Безымянный_градиент_160);}.cls-4{fill:url(#Безымянный_градиент_169);}.cls-10,.cls-11,.cls-12,.cls-13,.cls-14,.cls-15,.cls-17,.cls-5,.cls-6,.cls-8,.cls-9{mix-blend-mode:screen;}.cls-5{fill:url(#Безымянный_градиент_155);}.cls-6{fill:url(#Безымянный_градиент_168);}.cls-7{fill:#ffffab;}.cls-8{fill:url(#Безымянный_градиент_168-2);}.cls-9{fill:url(#Безымянный_градиент_168-3);}.cls-10{fill:url(#Безымянный_градиент_168-4);}.cls-11{fill:url(#Безымянный_градиент_168-5);}.cls-12{fill:url(#Безымянный_градиент_168-6);}.cls-13{fill:url(#Безымянный_градиент_168-7);}.cls-14{fill:url(#Безымянный_градиент_168-8);}.cls-15{fill:url(#Безымянный_градиент_168-9);}.cls-16{fill:#fff;}.cls-17{fill:url(#Безымянный_градиент_172);}</style><radialGradient id="Безымянный_градиент_163" cx="147.09" cy="119.22" r="157.26" gradientTransform="translate(28.81) scale(0.46 1)" gradientUnits="userSpaceOnUse"><stop offset="0" stop-color="#ffbd00"/><stop offset="1" stop-color="#ff772c"/></radialGradient><linearGradient id="Безымянный_градиент_160" x1="92.82" y1="121.55" x2="92.82" y2="1.19" gradientUnits="userSpaceOnUse"><stop offset="0" stop-color="#fff300"/><stop offset="1" stop-color="#ff9700"/></linearGradient><linearGradient id="Безымянный_градиент_169" x1="92.82" y1="119.29" x2="92.82" y2="2.49" gradientUnits="userSpaceOnUse"><stop offset="0" stop-color="#fc0"/><stop offset="1" stop-color="#ff9700"/></linearGradient><linearGradient id="Безымянный_градиент_155" x1="-359.25" y1="104.85" x2="-192.2" y2="104.85" gradientTransform="matrix(-1, 0, 0, 1, -182.54, 0)" gradientUnits="userSpaceOnUse"><stop offset="0" stop-color="#ff6140"/><stop offset="0.1" stop-color="#ef5b3c"/><stop offset="0.29" stop-color="#c54b31"/><stop offset="0.55" stop-color="#813120"/><stop offset="0.88" stop-color="#240e09"/><stop offset="1"/></linearGradient><radialGradient id="Безымянный_градиент_168" cx="1582.55" cy="1063.85" r="3.77" gradientTransform="matrix(-0.05, -1, 0.85, -0.06, -787.13, 1684.17)" gradientUnits="userSpaceOnUse"><stop offset="0" stop-color="#00b359"/><stop offset="0.13" stop-color="#009148"/><stop offset="0.34" stop-color="#005e2f"/><stop offset="0.54" stop-color="#00351a"/><stop offset="0.73" stop-color="#00180c"/><stop offset="0.89" stop-color="#000603"/><stop offset="1"/></radialGradient><radialGradient id="Безымянный_градиент_168-2" cx="1598.41" cy="1069.93" r="3.77" xlink:href="#Безымянный_градиент_168"/><radialGradient id="Безымянный_градиент_168-3" cx="1552.2" cy="1064.15" r="3.77" xlink:href="#Безымянный_градиент_168"/><radialGradient id="Безымянный_градиент_168-4" cx="1601.14" cy="1049.68" r="10.56" xlink:href="#Безымянный_градиент_168"/><radialGradient id="Безымянный_градиент_168-5" cx="1524.4" cy="1074.95" r="5.04" xlink:href="#Безымянный_градиент_168"/><radialGradient id="Безымянный_градиент_168-6" cx="1516.3" cy="1029.46" r="2.52" xlink:href="#Безымянный_градиент_168"/><radialGradient id="Безымянный_градиент_168-7" cx="1555.29" cy="1102.76" r="2.52" xlink:href="#Безымянный_градиент_168"/><radialGradient id="Безымянный_градиент_168-8" cx="1518.51" cy="1065.49" r="1.88" xlink:href="#Безымянный_градиент_168"/><radialGradient id="Безымянный_градиент_168-9" cx="1516.25" cy="1094.73" r="3.94" xlink:href="#Безымянный_градиент_168"/><linearGradient id="Безымянный_градиент_172" x1="9.47" y1="28.7" x2="182.1" y2="28.7" gradientUnits="userSpaceOnUse"><stop offset="0" stop-color="#ff9840"/><stop offset="0.1" stop-color="#ef8e3c"/><stop offset="0.29" stop-color="#c57531"/><stop offset="0.55" stop-color="#814d20"/><stop offset="0.88" stop-color="#241609"/><stop offset="1"/></linearGradient></defs><g class="cls-1"><g id="Слой_2" data-name="Слой 2"><g id="Слой_1-2" data-name="Слой 1"><path class="cls-2" d="M2.23,109.45c4.59,21,168.87,26.89,178.34,5.06,8.6-19.83,5.1-90.83-2.26-105C168.29-9.76,16.4,3.78,8.29,19,.72,33.12-2.53,87.69,2.23,109.45Z"/><path class="cls-3" d="M2.6,105.74c4.57,20.24,168.19,21.68,177.62.64,8.57-19.12,5.2-82.36-2.13-96-10-18.6-161.5-5.54-169.59,9.1C1,33.12-2.14,84.76,2.6,105.74Z"/><path class="cls-4" d="M4,104c4.47,19.64,165.7,21,174.93.62C187.29,86,184,24.65,176.82,11.4,167.05-6.65,17.66,6,9.75,20.23,2.38,33.48-.66,83.59,4,104Z"/><path class="cls-5" d="M176.71,105s-103.52,19.51-167,2.29c0,0,41.27,7.85,59.63,0C100.46,93.91,168.52,90,176.71,105Z"/><path class="cls-6" d="M39.35,37.3a3.45,3.45,0,0,1,3.41,3.54,3.61,3.61,0,0,1-3,4,3.45,3.45,0,0,1-3.41-3.54A3.62,3.62,0,0,1,39.35,37.3Z"/><path class="cls-7" d="M39.74,40a1,1,0,0,1,.94,1,1,1,0,0,1-.84,1.1,1,1,0,0,1-.94-1A1,1,0,0,1,39.74,40Z"/><path class="cls-8" d="M43.73,21.11a3.45,3.45,0,0,1,3.41,3.54,3.62,3.62,0,0,1-3,4A3.45,3.45,0,0,1,40.7,25.1,3.61,3.61,0,0,1,43.73,21.11Z"/><path class="cls-7" d="M44.12,23.81a1,1,0,0,1,.94,1,1,1,0,0,1-.84,1.11,1,1,0,0,1-.94-1A1,1,0,0,1,44.12,23.81Z"/><path class="cls-9" d="M41.14,67.58a3.44,3.44,0,0,1,3.41,3.54,3.6,3.6,0,0,1-3,4,3.45,3.45,0,0,1-3.41-3.54A3.61,3.61,0,0,1,41.14,67.58Z"/><path class="cls-7" d="M41.53,70.28a1,1,0,0,1,.95,1,1,1,0,0,1-.84,1.11,1,1,0,0,1-1-1A1,1,0,0,1,41.53,70.28Z"/><ellipse class="cls-10" cx="26.51" cy="23.36" rx="9.02" ry="10.56"/><path class="cls-7" d="M27.06,20.39a2.66,2.66,0,0,1,2.64,2.74,2.8,2.8,0,0,1-2.34,3.09,2.66,2.66,0,0,1-2.64-2.74A2.78,2.78,0,0,1,27.06,20.39Z"/><path class="cls-11" d="M51.7,93.41c2.38-.16,4.42,2,4.56,4.73s-1.67,5.17-4,5.34-4.42-2-4.56-4.73S49.33,93.58,51.7,93.41Z"/><path class="cls-7" d="M52.22,97a1.27,1.27,0,0,1,1.26,1.31,1.34,1.34,0,0,1-1.11,1.48,1.29,1.29,0,0,1-1.27-1.31A1.34,1.34,0,0,1,52.22,97Z"/><path class="cls-12" d="M13.45,106.73a2.3,2.3,0,0,1,2.28,2.36,2.41,2.41,0,0,1-2,2.67,2.31,2.31,0,0,1-2.28-2.37A2.41,2.41,0,0,1,13.45,106.73Z"/><path class="cls-7" d="M13.71,108.53a.64.64,0,0,1,.63.66.68.68,0,0,1-.56.74.64.64,0,0,1-.63-.66A.68.68,0,0,1,13.71,108.53Z"/><path class="cls-13" d="M74,63.44a2.31,2.31,0,0,1,2.28,2.37,2.43,2.43,0,0,1-2,2.67A2.31,2.31,0,0,1,72,66.11,2.42,2.42,0,0,1,74,63.44Z"/><path class="cls-7" d="M74.24,65.25a.64.64,0,0,1,.63.66.68.68,0,0,1-.56.74.64.64,0,0,1-.63-.66A.67.67,0,0,1,74.24,65.25Z"/><path class="cls-14" d="M44.1,103a1.73,1.73,0,0,1,1.7,1.77,1.82,1.82,0,0,1-1.51,2,1.72,1.72,0,0,1-1.7-1.77A1.8,1.8,0,0,1,44.1,103Z"/><path class="cls-7" d="M44.29,104.36a.47.47,0,0,1,.47.49.49.49,0,0,1-.42.55.48.48,0,0,1-.47-.49A.51.51,0,0,1,44.29,104.36Z"/><path class="cls-15" d="M69.05,101.47a3.6,3.6,0,0,1,3.56,3.7,3.77,3.77,0,0,1-3.16,4.16,3.59,3.59,0,0,1-3.56-3.69A3.77,3.77,0,0,1,69.05,101.47Z"/><path class="cls-7" d="M69.45,104.29a1,1,0,0,1,1,1,1,1,0,0,1-.87,1.15,1,1,0,0,1-1-1A1.05,1.05,0,0,1,69.45,104.29Z"/><path class="cls-16" d="M173.75,108.72c-.57-2.25,4.51-12.49,5.8-12.45s.14,6.74-.64,8.3S174,109.84,173.75,108.72Z"/><path class="cls-17" d="M9.47,20.32S138-13.24,177.09,11.72c0,0,3.44,9.47,5,24.38a51.92,51.92,0,0,1-35.78,18.75c-20.15,1.61-92.84-28.5-109.84-32.23S9.47,20.32,9.47,20.32Z"/><path class="cls-16" d="M9.47,23.93A24.77,24.77,0,0,1,19.31,13c6.89-3.82,17.51-2.38,18.62-1.41s-1.81,3.52-7.32,5.88S12.28,25.75,9.47,23.93Z"/><path class="cls-16" d="M9.82,25.84C8.41,26.09,4.87,39,5.08,41.07s4.47-4.58,5.13-8.13A17.06,17.06,0,0,0,9.82,25.84Z"/></g></g></g></svg>