<svg xmlns="http://www.w3.org/2000/svg" xmlns:xlink="http://www.w3.org/1999/xlink" viewBox="0 0 57.49 50.18"><defs><style>.cls-1{isolation:isolate;}.cls-2{fill:url(#Безымянный_градиент_144);}.cls-3{fill:url(#Безымянный_градиент_129);}.cls-4{fill:url(#Безымянный_градиент_396);}.cls-10,.cls-11,.cls-12,.cls-13,.cls-14,.cls-15,.cls-17,.cls-5,.cls-6,.cls-8,.cls-9{mix-blend-mode:screen;}.cls-5{fill:url(#Безымянный_градиент_155);}.cls-6{fill:url(#Безымянный_градиент_168);}.cls-7{fill:#ffffab;}.cls-8{fill:url(#Безымянный_градиент_168-2);}.cls-9{fill:url(#Безымянный_градиент_168-3);}.cls-10{fill:url(#Безымянный_градиент_168-4);}.cls-11{fill:url(#Безымянный_градиент_168-5);}.cls-12{fill:url(#Безымянный_градиент_168-6);}.cls-13{fill:url(#Безымянный_градиент_168-7);}.cls-14{fill:url(#Безымянный_градиент_168-8);}.cls-15{fill:url(#Безымянный_градиент_168-9);}.cls-16{fill:#fff;}.cls-17{fill:url(#Безымянный_градиент_172);}</style><radialGradient id="Безымянный_градиент_144" cx="-71.19" cy="46.63" r="41.67" gradientTransform="translate(67.65) scale(0.53 1)" gradientUnits="userSpaceOnUse"><stop offset="0" stop-color="#d0cdea"/><stop offset="1" stop-color="#7d75da"/></radialGradient><linearGradient id="Безымянный_градиент_129" x1="28.75" y1="47.65" x2="28.75" y2="0.44" gradientUnits="userSpaceOnUse"><stop offset="0" stop-color="#cadcff"/><stop offset="1" stop-color="#fff"/></linearGradient><linearGradient id="Безымянный_градиент_396" x1="28.75" y1="46.82" x2="28.75" y2="0.91" gradientUnits="userSpaceOnUse"><stop offset="0" stop-color="#fafafd"/><stop offset="1" stop-color="#c3bfee"/></linearGradient><linearGradient id="Безымянный_градиент_155" x1="-42.31" y1="40.28" x2="7.39" y2="40.28" gradientTransform="matrix(-1, 0, 0, 1, 11.65, 0)" gradientUnits="userSpaceOnUse"><stop offset="0" stop-color="#ff6140"/><stop offset="0.1" stop-color="#ef5b3c"/><stop offset="0.29" stop-color="#c54b31"/><stop offset="0.55" stop-color="#813120"/><stop offset="0.88" stop-color="#240e09"/><stop offset="1"/></linearGradient><radialGradient id="Безымянный_градиент_168" cx="248.94" cy="-604.24" r="1.4" gradientTransform="matrix(-0.06, -1, 1, -0.06, 634.89, 226.27)" gradientUnits="userSpaceOnUse"><stop offset="0" stop-color="#00b359"/><stop offset="0.13" stop-color="#009148"/><stop offset="0.34" stop-color="#005e2f"/><stop offset="0.54" stop-color="#00351a"/><stop offset="0.73" stop-color="#00180c"/><stop offset="0.89" stop-color="#000603"/><stop offset="1"/></radialGradient><radialGradient id="Безымянный_градиент_168-2" cx="254.8" cy="-601.99" r="1.4" xlink:href="#Безымянный_градиент_168"/><radialGradient id="Безымянный_градиент_168-3" cx="237.72" cy="-604.13" r="1.4" xlink:href="#Безымянный_градиент_168"/><radialGradient id="Безымянный_градиент_168-4" cx="255.81" cy="-609.48" r="3.9" xlink:href="#Безымянный_градиент_168"/><radialGradient id="Безымянный_градиент_168-5" cx="227.44" cy="-600.14" r="1.86" xlink:href="#Безымянный_градиент_168"/><radialGradient id="Безымянный_градиент_168-6" cx="220.59" cy="-616.9" r="0.93" xlink:href="#Безымянный_градиент_168"/><radialGradient id="Безымянный_градиент_168-7" cx="238.86" cy="-589.86" r="0.93" xlink:href="#Безымянный_градиент_168"/><radialGradient id="Безымянный_градиент_168-8" cx="225.26" cy="-603.64" r="0.7" xlink:href="#Безымянный_градиент_168"/><radialGradient id="Безымянный_градиент_168-9" cx="224.43" cy="-592.83" r="1.46" xlink:href="#Безымянный_градиент_168"/><linearGradient id="Безымянный_градиент_172" x1="3.16" y1="10.21" x2="55.62" y2="10.21" gradientUnits="userSpaceOnUse"><stop offset="0" stop-color="#ff9840"/><stop offset="0.1" stop-color="#ef8e3c"/><stop offset="0.29" stop-color="#c57531"/><stop offset="0.55" stop-color="#814d20"/><stop offset="0.88" stop-color="#241609"/><stop offset="1"/></linearGradient></defs><g class="cls-1"><g id="Слой_2" data-name="Слой 2"><g id="Слой_1-2" data-name="Слой 1"><path class="cls-2" d="M1,42.92c2,7.76,50.49,10.43,54.58,2.36C59.35,38,56.89,9.44,53.7,4.21,49.36-2.92,6.88,0,3.37,5.62.09,10.85-1,34.87,1,42.92Z"/><path class="cls-3" d="M1.2,41.54c2,7.49,50.19,8.51,54.27.74,3.71-7.08,1.31-32.71-1.86-37.76C49.28-2.35,7,.39,3.46,5.81.2,10.85-.85,33.79,1.2,41.54Z"/><path class="cls-4" d="M1.8,40.88c1.93,7.26,49.11,8.28,53.1.73C58.53,34.74,56.16,9.8,53.06,4.9,48.83-1.77,7.43.83,4,6.09.81,11-.21,33.36,1.8,40.88Z"/><path class="cls-5" d="M54,41.74s-22.2,6.72-49.69.36c0,0,17.56-.94,25.51-3.84C43.26,33.33,50.41,36.21,54,41.74Z"/><path class="cls-6" d="M16.81,12.4a1.39,1.39,0,1,1-1.31,1.47A1.4,1.4,0,0,1,16.81,12.4Z"/><path class="cls-7" d="M17,13.4a.39.39,0,0,1,.05.77.38.38,0,0,1-.41-.36A.38.38,0,0,1,17,13.4Z"/><path class="cls-8" d="M18.71,6.41A1.39,1.39,0,1,1,17.4,7.88,1.38,1.38,0,0,1,18.71,6.41Z"/><path class="cls-7" d="M18.87,7.41a.38.38,0,0,1,.41.36.38.38,0,0,1-.36.41.39.39,0,1,1-.05-.77Z"/><path class="cls-9" d="M17.59,23.59a1.4,1.4,0,1,1-1.31,1.48A1.39,1.39,0,0,1,17.59,23.59Z"/><path class="cls-7" d="M17.76,24.59a.4.4,0,0,1,.41.36.39.39,0,0,1-.78.05A.39.39,0,0,1,17.76,24.59Z"/><path class="cls-10" d="M11,3.34A3.91,3.91,0,1,1,7.36,7.47,3.92,3.92,0,0,1,11,3.34Z"/><path class="cls-7" d="M11.49,6.14a1.08,1.08,0,1,1,.13,2.16,1.08,1.08,0,0,1-.13-2.16Z"/><path class="cls-11" d="M22.16,33.14a1.87,1.87,0,1,1-1.75,2A1.87,1.87,0,0,1,22.16,33.14Z"/><path class="cls-7" d="M22.38,34.48a.52.52,0,1,1-.48.55A.52.52,0,0,1,22.38,34.48Z"/><path class="cls-12" d="M5.9,41.91a.93.93,0,1,1-.88,1A.93.93,0,0,1,5.9,41.91Z"/><path class="cls-7" d="M6,42.58a.26.26,0,1,1-.24.27A.26.26,0,0,1,6,42.58Z"/><path class="cls-13" d="M31.8,22.06a.93.93,0,1,1-.88,1A.93.93,0,0,1,31.8,22.06Z"/><path class="cls-7" d="M31.91,22.73a.25.25,0,0,1,.27.24.26.26,0,0,1-.24.28.26.26,0,0,1-.27-.24A.26.26,0,0,1,31.91,22.73Z"/><path class="cls-14" d="M18.87,36.69A.7.7,0,0,1,19,38.08a.7.7,0,1,1-.08-1.39Z"/><path class="cls-7" d="M19,37.19a.2.2,0,0,1,0,.39.2.2,0,0,1-.2-.18A.19.19,0,0,1,19,37.19Z"/><path class="cls-15" d="M29.67,36.12a1.46,1.46,0,1,1-1.37,1.54A1.47,1.47,0,0,1,29.67,36.12Z"/><path class="cls-7" d="M29.84,37.17a.4.4,0,1,1-.38.42A.4.4,0,0,1,29.84,37.17Z"/><path class="cls-16" d="M52.67,43.14c-.25-.83,1.95-4.62,2.51-4.61s.06,2.5-.28,3.08S52.8,43.55,52.67,43.14Z"/><path class="cls-16" d="M3.88,10.37S2.33,6.4,5.31,5s12.77-2.76,13.25-2.4-4.13,2-6.52,2.9S5.1,11.05,3.88,10.37Z"/><path class="cls-17" d="M3.88,6.12S36.24-4.21,53.17,5c0,0,1.77,1.42,2.45,6.93,0,0-1.35-4.85-11.48-4.15C35.42,8.39,21.9,23,7.77,18.31.67,15.94,3.88,6.12,3.88,6.12Z"/></g></g></g></svg>