<svg xmlns="http://www.w3.org/2000/svg" xmlns:xlink="http://www.w3.org/1999/xlink" viewBox="0 0 82.15 67.93" preserveAspectRatio="none"><defs><style>.cls-1{isolation:isolate;}.cls-2{fill:url(#Безымянный_градиент_163);}.cls-3{fill:url(#Безымянный_градиент_160);}.cls-4{fill:url(#Безымянный_градиент_169);}.cls-10,.cls-11,.cls-12,.cls-13,.cls-14,.cls-15,.cls-18,.cls-5,.cls-6,.cls-8,.cls-9{mix-blend-mode:screen;}.cls-5{fill:url(#Безымянный_градиент_155);}.cls-6{fill:url(#Безымянный_градиент_168);}.cls-7{fill:#ffffab;}.cls-8{fill:url(#Безымянный_градиент_168-2);}.cls-9{fill:url(#Безымянный_градиент_168-3);}.cls-10{fill:url(#Безымянный_градиент_168-4);}.cls-11{fill:url(#Безымянный_градиент_168-5);}.cls-12{fill:url(#Безымянный_градиент_168-6);}.cls-13{fill:url(#Безымянный_градиент_168-7);}.cls-14{fill:url(#Безымянный_градиент_168-8);}.cls-15{fill:url(#Безымянный_градиент_168-9);}.cls-16{fill:#fff;}.cls-17{fill:#ff5200;}.cls-18{fill:url(#Безымянный_градиент_172);}</style><radialGradient id="Безымянный_градиент_163" cx="-272.48" cy="63.13" r="59.52" gradientTransform="translate(187.73) scale(0.53 1)" gradientUnits="userSpaceOnUse"><stop offset="0" stop-color="#ffbd00"/><stop offset="1" stop-color="#ff772c"/></radialGradient><linearGradient id="Безымянный_градиент_160" x1="41.08" y1="64.36" x2="41.08" y2="0.63" gradientUnits="userSpaceOnUse"><stop offset="0" stop-color="#fff300"/><stop offset="1" stop-color="#ff9700"/></linearGradient><linearGradient id="Безымянный_градиент_169" x1="41.08" y1="63.17" x2="41.08" y2="1.32" gradientUnits="userSpaceOnUse"><stop offset="0" stop-color="#fc0"/><stop offset="1" stop-color="#ff9700"/></linearGradient><linearGradient id="Безымянный_градиент_155" x1="449.6" y1="55.52" x2="520.25" y2="55.52" gradientTransform="matrix(-1, 0, 0, 1, 526.23, 0)" gradientUnits="userSpaceOnUse"><stop offset="0" stop-color="#ff6140"/><stop offset="0.1" stop-color="#ef5b3c"/><stop offset="0.29" stop-color="#c54b31"/><stop offset="0.55" stop-color="#813120"/><stop offset="0.88" stop-color="#240e09"/><stop offset="1"/></linearGradient><radialGradient id="Безымянный_градиент_168" cx="1393.24" cy="80.21" r="2" gradientTransform="matrix(-0.06, -1, 1, -0.06, 27.48, 1417.26)" gradientUnits="userSpaceOnUse"><stop offset="0" stop-color="#00b359"/><stop offset="0.13" stop-color="#009148"/><stop offset="0.34" stop-color="#005e2f"/><stop offset="0.54" stop-color="#00351a"/><stop offset="0.73" stop-color="#00180c"/><stop offset="0.89" stop-color="#000603"/><stop offset="1"/></radialGradient><radialGradient id="Безымянный_градиент_168-2" cx="1401.64" cy="83.43" r="2" xlink:href="#Безымянный_градиент_168"/><radialGradient id="Безымянный_градиент_168-3" cx="1377.17" cy="80.36" r="2" xlink:href="#Безымянный_градиент_168"/><radialGradient id="Безымянный_градиент_168-4" cx="1403.09" cy="72.7" r="5.59" xlink:href="#Безымянный_градиент_168"/><radialGradient id="Безымянный_градиент_168-5" cx="1362.46" cy="86.08" r="2.67" xlink:href="#Безымянный_градиент_168"/><radialGradient id="Безымянный_градиент_168-6" cx="1358.17" cy="61.99" r="1.34" xlink:href="#Безымянный_градиент_168"/><radialGradient id="Безымянный_градиент_168-7" cx="1378.81" cy="100.81" r="1.34" xlink:href="#Безымянный_градиент_168"/><radialGradient id="Безымянный_градиент_168-8" cx="1359.34" cy="81.07" r="1" xlink:href="#Безымянный_градиент_168"/><radialGradient id="Безымянный_градиент_168-9" cx="1358.14" cy="96.56" r="2.09" xlink:href="#Безымянный_градиент_168"/><linearGradient id="Безымянный_градиент_172" x1="5.87" y1="15.2" x2="79.97" y2="15.2" gradientUnits="userSpaceOnUse"><stop offset="0" stop-color="#ff9840"/><stop offset="0.1" stop-color="#ef8e3c"/><stop offset="0.29" stop-color="#c57531"/><stop offset="0.55" stop-color="#814d20"/><stop offset="0.88" stop-color="#241609"/><stop offset="1"/></linearGradient></defs><g class="cls-1"><g id="Слой_2" data-name="Слой 2"><g id="Слой_1-2" data-name="Слой 1"><path class="cls-2" d="M1.38,58C4.23,69.07,73.15,72.19,79,60.64c5.33-10.51,3.16-48.1-1.4-55.6C71.41-5.17,10.17,2,5.14,10,.45,17.54-1.57,46.43,1.38,58Z"/><path class="cls-3" d="M1.61,56c2.84,10.72,71.35,11.48,77.2.34C84.12,46.21,82,12.72,77.49,5.49,71.3-4.36,10.28,2.56,5.27,10.31.6,17.54-1.33,44.88,1.61,56Z"/><path class="cls-4" d="M2.46,55c2.78,10.4,69.81,11.15,75.53.33C83.19,45.55,81.15,13.05,76.7,6,70.64-3.52,11,3.19,6,10.71,1.47,17.73-.41,44.26,2.46,55Z"/><path class="cls-5" d="M76.63,55.57S45.36,65.9,6,56.79c0,0,25.58,4.15,37,0C62.27,49.73,71.55,47.64,76.63,55.57Z"/><path class="cls-6" d="M24.39,19.75a2,2,0,1,1-1.88,2.12A2,2,0,0,1,24.39,19.75Z"/><path class="cls-7" d="M24.63,21.18a.56.56,0,1,1-.52.59A.56.56,0,0,1,24.63,21.18Z"/><path class="cls-8" d="M27.1,11.18a2,2,0,1,1-1.87,2.11A2,2,0,0,1,27.1,11.18Z"/><path class="cls-7" d="M27.34,12.61a.55.55,0,1,1-.52.58A.56.56,0,0,1,27.34,12.61Z"/><path class="cls-9" d="M25.5,35.78a2,2,0,1,1-1.87,2.12A2,2,0,0,1,25.5,35.78Z"/><path class="cls-7" d="M25.74,37.21a.57.57,0,0,1,.59.52.56.56,0,0,1-.52.59.55.55,0,0,1-.59-.52A.56.56,0,0,1,25.74,37.21Z"/><path class="cls-10" d="M16.1,6.79a5.59,5.59,0,1,1-5.25,5.91A5.58,5.58,0,0,1,16.1,6.79Z"/><path class="cls-7" d="M16.77,10.8a1.55,1.55,0,1,1-1.45,1.63A1.54,1.54,0,0,1,16.77,10.8Z"/><path class="cls-11" d="M32.05,49.46a2.67,2.67,0,1,1-2.51,2.83A2.67,2.67,0,0,1,32.05,49.46Z"/><path class="cls-7" d="M32.37,51.38a.73.73,0,0,1,.78.69.74.74,0,1,1-.78-.69Z"/><path class="cls-12" d="M8.34,56.51a1.34,1.34,0,1,1-1.26,1.41A1.34,1.34,0,0,1,8.34,56.51Z"/><path class="cls-7" d="M8.5,57.47a.37.37,0,1,1-.35.39A.38.38,0,0,1,8.5,57.47Z"/><path class="cls-13" d="M45.85,33.59A1.34,1.34,0,1,1,44.6,35,1.33,1.33,0,0,1,45.85,33.59Z"/><path class="cls-7" d="M46,34.55a.37.37,0,0,1,.39.35.37.37,0,1,1-.39-.35Z"/><path class="cls-14" d="M27.33,54.55a1,1,0,1,1-.93,1.05A1,1,0,0,1,27.33,54.55Z"/><path class="cls-7" d="M27.45,55.26a.28.28,0,0,1,.29.26.27.27,0,0,1-.26.29.28.28,0,0,1,0-.55Z"/><path class="cls-15" d="M42.8,53.73a2.08,2.08,0,1,1-2,2.21A2.08,2.08,0,0,1,42.8,53.73Z"/><path class="cls-7" d="M43.05,55.23a.57.57,0,0,1,.61.54.58.58,0,0,1-.54.61.57.57,0,0,1-.61-.54A.57.57,0,0,1,43.05,55.23Z"/><path class="cls-16" d="M74.8,57.57c-.36-1.19,2.79-6.62,3.59-6.6s.09,3.57-.4,4.4S75,58.16,74.8,57.57Z"/><path class="cls-17" d="M57.79,33l-4.13.72-2,14.16h-5c-.16-3.16-.89-11.07-4.14-10.69-3,.36-3.78,7-4,10.69H34a140.13,140.13,0,0,1-3.16-14.16h-3.6s9.58-18,14.2-18.35S57.79,33,57.79,33Z"/><path class="cls-18" d="M5.87,10.76S52.61-7,76.87,6.21A52.43,52.43,0,0,1,80,19.12S72.3,28.05,57.79,29C45.3,29.9,33.15,14,22.61,12S5.87,10.76,5.87,10.76Z"/><path class="cls-16" d="M6.47,12.67a13.86,13.86,0,0,1,6.1-5.8c4.27-2,16.41-4.05,17.1-3.53s-5.92,2.9-9.34,4.15S8.21,13.64,6.47,12.67Z"/><path class="cls-16" d="M6.09,13.68c-.88.13-3.07,7-2.94,8.06s2.77-2.42,3.18-4.3A7.86,7.86,0,0,0,6.09,13.68Z"/></g></g></g></svg>