<svg xmlns="http://www.w3.org/2000/svg" xmlns:xlink="http://www.w3.org/1999/xlink" viewBox="0 0 87.73 72.17"><defs><style>.cls-1{isolation:isolate;}.cls-2{fill:url(#Безымянный_градиент_163);}.cls-3{fill:url(#Безымянный_градиент_160);}.cls-4{fill:url(#Безымянный_градиент_169);}.cls-10,.cls-11,.cls-12,.cls-13,.cls-14,.cls-15,.cls-18,.cls-5,.cls-6,.cls-8,.cls-9{mix-blend-mode:screen;}.cls-5{fill:url(#Безымянный_градиент_155);}.cls-6{fill:url(#Безымянный_градиент_168);}.cls-7{fill:#ffffab;}.cls-8{fill:url(#Безымянный_градиент_168-2);}.cls-9{fill:url(#Безымянный_градиент_168-3);}.cls-10{fill:url(#Безымянный_градиент_168-4);}.cls-11{fill:url(#Безымянный_градиент_168-5);}.cls-12{fill:url(#Безымянный_градиент_168-6);}.cls-13{fill:url(#Безымянный_градиент_168-7);}.cls-14{fill:url(#Безымянный_градиент_168-8);}.cls-15{fill:url(#Безымянный_градиент_168-9);}.cls-16{fill:#ff5200;}.cls-17{fill:#fff;}.cls-18{fill:url(#Безымянный_градиент_172);}</style><radialGradient id="Безымянный_градиент_163" cx="-231.44" cy="67.07" r="63.56" gradientTransform="translate(168.72) scale(0.53 1)" gradientUnits="userSpaceOnUse"><stop offset="0" stop-color="#ffbd00"/><stop offset="1" stop-color="#ff772c"/></radialGradient><linearGradient id="Безымянный_градиент_160" x1="43.87" y1="68.37" x2="43.87" y2="0.6" gradientUnits="userSpaceOnUse"><stop offset="0" stop-color="#fff300"/><stop offset="1" stop-color="#ff9700"/></linearGradient><linearGradient id="Безымянный_градиент_169" x1="43.87" y1="67.1" x2="43.87" y2="1.27" gradientUnits="userSpaceOnUse"><stop offset="0" stop-color="#fc0"/><stop offset="1" stop-color="#ff9700"/></linearGradient><linearGradient id="Безымянный_градиент_155" x1="362.95" y1="58.95" x2="438.18" y2="58.95" gradientTransform="matrix(-1, 0, 0, 1, 444.78, 0)" gradientUnits="userSpaceOnUse"><stop offset="0" stop-color="#ff6140"/><stop offset="0.1" stop-color="#ef5b3c"/><stop offset="0.29" stop-color="#c54b31"/><stop offset="0.55" stop-color="#813120"/><stop offset="0.88" stop-color="#240e09"/><stop offset="1"/></linearGradient><radialGradient id="Безымянный_градиент_168" cx="689.24" cy="-577.43" r="2.13" gradientTransform="matrix(-0.06, -1, 1, -0.06, 643.8, 676.58)" gradientUnits="userSpaceOnUse"><stop offset="0" stop-color="#00b359"/><stop offset="0.13" stop-color="#009148"/><stop offset="0.34" stop-color="#005e2f"/><stop offset="0.54" stop-color="#00351a"/><stop offset="0.73" stop-color="#00180c"/><stop offset="0.89" stop-color="#000603"/><stop offset="1"/></radialGradient><radialGradient id="Безымянный_градиент_168-2" cx="698.19" cy="-574" r="2.13" xlink:href="#Безымянный_градиент_168"/><radialGradient id="Безымянный_градиент_168-3" cx="672.13" cy="-577.27" r="2.13" xlink:href="#Безымянный_градиент_168"/><radialGradient id="Безымянный_градиент_168-4" cx="699.73" cy="-585.42" r="5.95" xlink:href="#Безымянный_градиент_168"/><radialGradient id="Безымянный_градиент_168-5" cx="656.46" cy="-571.18" r="2.84" xlink:href="#Безымянный_градиент_168"/><radialGradient id="Безымянный_градиент_168-6" cx="651.89" cy="-596.83" r="1.42" xlink:href="#Безымянный_градиент_168"/><radialGradient id="Безымянный_градиент_168-7" cx="673.87" cy="-555.5" r="1.42" xlink:href="#Безымянный_градиент_168"/><radialGradient id="Безымянный_градиент_168-8" cx="653.14" cy="-576.51" r="1.06" xlink:href="#Безымянный_градиент_168"/><radialGradient id="Безымянный_градиент_168-9" cx="651.86" cy="-560.02" r="2.22" xlink:href="#Безымянный_градиент_168"/><linearGradient id="Безымянный_градиент_172" x1="10.29" y1="16.57" x2="85.38" y2="16.57" gradientUnits="userSpaceOnUse"><stop offset="0" stop-color="#ff9840"/><stop offset="0.1" stop-color="#ef8e3c"/><stop offset="0.29" stop-color="#c57531"/><stop offset="0.55" stop-color="#814d20"/><stop offset="0.88" stop-color="#241609"/><stop offset="1"/></linearGradient></defs><g class="cls-1"><g id="Слой_2" data-name="Слой 2"><g id="Слой_1-2" data-name="Слой 1"><path class="cls-2" d="M1.7,61.54c3,11.84,76.42,15.17,82.67,2.86C90.05,53.22,87.8,18.07,83,10.09,76.33-.79,10.22-3.5,4.86,5.06-.13,13-1.44,49.28,1.7,61.54Z"/><path class="cls-3" d="M1.94,59.45c3,11.41,76,12.23,82.21.37C89.8,49,87.64,18.26,82.8,10.57,76.21.08,10.34-2.91,5,5.35,0,13-1.19,47.62,1.94,59.45Z"/><path class="cls-4" d="M2.85,58.44c2.95,11.08,74.34,11.87,80.43.36C88.81,48.33,86.7,18.61,82,11.15,75.51,1,11.05-2.23,5.83,5.78,1,13.25-.21,47,2.85,58.44Z"/><path class="cls-5" d="M81.83,59S48.53,70,6.6,60.3c0,0,27.24,4.43,39.36,0C66.53,52.79,76.42,50.56,81.83,59Z"/><path class="cls-6" d="M26.2,20.86a2.13,2.13,0,1,1-2,2.25A2.13,2.13,0,0,1,26.2,20.86Z"/><path class="cls-7" d="M26.45,22.39a.59.59,0,1,1-.55.62A.59.59,0,0,1,26.45,22.39Z"/><path class="cls-8" d="M29.09,11.73a2.13,2.13,0,1,1-2,2.25A2.13,2.13,0,0,1,29.09,11.73Z"/><path class="cls-7" d="M29.34,13.26a.59.59,0,1,1,.07,1.17.58.58,0,0,1-.62-.55A.59.59,0,0,1,29.34,13.26Z"/><path class="cls-9" d="M27.38,37.93a2.13,2.13,0,1,1-2,2.25A2.13,2.13,0,0,1,27.38,37.93Z"/><path class="cls-7" d="M27.64,39.46a.59.59,0,1,1-.56.62A.6.6,0,0,1,27.64,39.46Z"/><path class="cls-10" d="M17.37,7.06a6,6,0,1,1-5.59,6.3A6,6,0,0,1,17.37,7.06Z"/><path class="cls-7" d="M18.09,11.33a1.64,1.64,0,0,1,1.74,1.54,1.65,1.65,0,1,1-3.29.2A1.64,1.64,0,0,1,18.09,11.33Z"/><path class="cls-11" d="M34.35,52.5a2.85,2.85,0,1,1-2.67,3A2.85,2.85,0,0,1,34.35,52.5Z"/><path class="cls-7" d="M34.69,54.54a.8.8,0,0,1,.84.74.79.79,0,1,1-.84-.74Z"/><path class="cls-12" d="M9.11,60a1.42,1.42,0,1,1-1.34,1.5A1.42,1.42,0,0,1,9.11,60Z"/><path class="cls-7" d="M9.28,61a.39.39,0,0,1,.41.37.38.38,0,0,1-.37.41.38.38,0,0,1-.41-.36A.39.39,0,0,1,9.28,61Z"/><path class="cls-13" d="M49.05,35.6a1.44,1.44,0,0,1,1.51,1.34,1.42,1.42,0,1,1-1.51-1.34Z"/><path class="cls-7" d="M49.22,36.62a.4.4,0,0,1,.42.37.39.39,0,0,1-.37.42.4.4,0,0,1-.42-.37A.41.41,0,0,1,49.22,36.62Z"/><path class="cls-14" d="M29.33,57.92a1.06,1.06,0,1,1-1,1.12A1.05,1.05,0,0,1,29.33,57.92Z"/><path class="cls-7" d="M29.46,58.68a.29.29,0,1,1-.28.31A.29.29,0,0,1,29.46,58.68Z"/><path class="cls-15" d="M45.8,57.05a2.22,2.22,0,1,1-2.09,2.34A2.22,2.22,0,0,1,45.8,57.05Z"/><path class="cls-7" d="M46.07,58.64a.62.62,0,1,1-.58.65A.62.62,0,0,1,46.07,58.64Z"/><path class="cls-16" d="M29.63,19.3a13,13,0,0,0-.16,6.18H57.68A6.88,6.88,0,0,0,58.79,21Z"/><path class="cls-16" d="M29.8,32.79A12.83,12.83,0,0,0,29.65,39h28.2a10.74,10.74,0,0,0,.28-6.17Z"/><path class="cls-16" d="M29.77,45.57a7.4,7.4,0,0,0-.12,4.85h28.2a10.79,10.79,0,0,0,.28-6.18Z"/><path class="cls-17" d="M79.87,61.13c-.37-1.27,3-7,3.83-7s.09,3.8-.42,4.69S80.06,61.77,79.87,61.13Z"/><path class="cls-18" d="M10.29,3.93s46-6.68,71.85,7.39c0,0,2.21.46,3.24,8.87,0,0-8.16,9.51-23.61,10.57-13.3.91-22.6-13.36-34.69-19.44A152.32,152.32,0,0,0,10.29,3.93Z"/><path class="cls-17" d="M7.11,13.32S5.13,6.17,9.68,4s17.85-1.08,18.58-.53S21.82,6.38,18.18,7.71,9,14.35,7.11,13.32Z"/><path class="cls-17" d="M6.71,14.4c-.94.14-3,6.46-1.94,8,.69,1,2.79-1.9,3.23-3.9S6.71,14.4,6.71,14.4Z"/></g></g></g></svg>