<svg xmlns="http://www.w3.org/2000/svg" xmlns:xlink="http://www.w3.org/1999/xlink" viewBox="0 0 76.56 64.35"><defs><style>.cls-1{isolation:isolate;}.cls-2{fill:url(#Безымянный_градиент_163);}.cls-3{fill:url(#Безымянный_градиент_160);}.cls-4{fill:url(#Безымянный_градиент_169);}.cls-10,.cls-11,.cls-12,.cls-13,.cls-14,.cls-15,.cls-17,.cls-5,.cls-6,.cls-8,.cls-9{mix-blend-mode:screen;}.cls-5{fill:url(#Безымянный_градиент_155);}.cls-6{fill:url(#Безымянный_градиент_168);}.cls-7{fill:#ffffab;}.cls-8{fill:url(#Безымянный_градиент_168-2);}.cls-9{fill:url(#Безымянный_градиент_168-3);}.cls-10{fill:url(#Безымянный_градиент_168-4);}.cls-11{fill:url(#Безымянный_градиент_168-5);}.cls-12{fill:url(#Безымянный_градиент_168-6);}.cls-13{fill:url(#Безымянный_градиент_168-7);}.cls-14{fill:url(#Безымянный_градиент_168-8);}.cls-15{fill:url(#Безымянный_градиент_168-9);}.cls-16{fill:#fff;}.cls-17{fill:url(#Безымянный_градиент_172);}</style><radialGradient id="Безымянный_градиент_163" cx="660.75" cy="59.8" r="55.48" gradientTransform="translate(-312.85) scale(0.53 1)" gradientUnits="userSpaceOnUse"><stop offset="0" stop-color="#ffbd00"/><stop offset="1" stop-color="#ff772c"/></radialGradient><linearGradient id="Безымянный_градиент_160" x1="38.29" y1="61.4" x2="38.29" y2="0.58" gradientUnits="userSpaceOnUse"><stop offset="0" stop-color="#fff300"/><stop offset="1" stop-color="#ff9700"/></linearGradient><linearGradient id="Безымянный_градиент_169" x1="38.29" y1="60.3" x2="38.29" y2="1.23" gradientUnits="userSpaceOnUse"><stop offset="0" stop-color="#fc0"/><stop offset="1" stop-color="#ff9700"/></linearGradient><linearGradient id="Безымянный_градиент_155" x1="-1690.47" y1="52.3" x2="-1624.66" y2="52.3" gradientTransform="matrix(-1, 0, 0, 1, -1618.95, 0)" gradientUnits="userSpaceOnUse"><stop offset="0" stop-color="#ff6140"/><stop offset="0.1" stop-color="#ef5b3c"/><stop offset="0.29" stop-color="#c54b31"/><stop offset="0.55" stop-color="#813120"/><stop offset="0.88" stop-color="#240e09"/><stop offset="1"/></linearGradient><radialGradient id="Безымянный_градиент_168" cx="-1606.47" cy="-831.99" r="1.87" gradientTransform="matrix(-0.06, -1, 1, -0.06, 757.42, -1634.66)" gradientUnits="userSpaceOnUse"><stop offset="0" stop-color="#00b359"/><stop offset="0.13" stop-color="#009148"/><stop offset="0.34" stop-color="#005e2f"/><stop offset="0.54" stop-color="#00351a"/><stop offset="0.73" stop-color="#00180c"/><stop offset="0.89" stop-color="#000603"/><stop offset="1"/></radialGradient><radialGradient id="Безымянный_градиент_168-2" cx="-1598.6" cy="-828.97" r="1.87" xlink:href="#Безымянный_градиент_168"/><radialGradient id="Безымянный_градиент_168-3" cx="-1621.53" cy="-831.85" r="1.87" xlink:href="#Безымянный_градиент_168"/><radialGradient id="Безымянный_градиент_168-4" cx="-1597.25" cy="-839.02" r="5.24" xlink:href="#Безымянный_градиент_168"/><radialGradient id="Безымянный_градиент_168-5" cx="-1635.33" cy="-826.49" r="2.5" xlink:href="#Безымянный_градиент_168"/><radialGradient id="Безымянный_градиент_168-6" cx="-1644.52" cy="-848.97" r="1.25" xlink:href="#Безымянный_градиент_168"/><radialGradient id="Безымянный_градиент_168-7" cx="-1620" cy="-812.68" r="1.25" xlink:href="#Безымянный_градиент_168"/><radialGradient id="Безымянный_градиент_168-8" cx="-1638.25" cy="-831.18" r="0.93" xlink:href="#Безымянный_градиент_168"/><radialGradient id="Безымянный_градиент_168-9" cx="-1639.37" cy="-816.67" r="1.95" xlink:href="#Безымянный_градиент_168"/><linearGradient id="Безымянный_градиент_172" x1="4.24" y1="13.71" x2="74.65" y2="13.71" gradientUnits="userSpaceOnUse"><stop offset="0" stop-color="#ff9840"/><stop offset="0.1" stop-color="#ef8e3c"/><stop offset="0.29" stop-color="#c57531"/><stop offset="0.55" stop-color="#814d20"/><stop offset="0.88" stop-color="#241609"/><stop offset="1"/></linearGradient></defs><g class="cls-1"><g id="Слой_2" data-name="Слой 2"><g id="Слой_1-2" data-name="Слой 1"><path class="cls-2" d="M1.4,57.6C4.06,68,68.27,65.78,73.76,55c5-9.85,2.59-42.28-1.68-49.31C66.25-3.92,9.23,0,4.52,7.54.13,14.56-1.37,46.8,1.4,57.6Z"/><path class="cls-3" d="M1.61,55.76c2.66,10,66.48,5.6,72-4.84,5-9.49,2.65-38.08-1.61-44.85C66.15-3.16,9.34.53,4.65,7.79.27,14.56-1.14,45.35,1.61,55.76Z"/><path class="cls-4" d="M2.41,54.87C5,64.62,67.44,60.16,72.8,50c4.87-9.21,2.58-36.87-1.59-43.44C65.53-2.38,10,1.12,5.37,8.17,1.09,14.74-.28,44.77,2.41,54.87Z"/><path class="cls-5" d="M71.52,50.21S42.61,65.05,5.71,56.51c0,0,23.58-1.27,34.25-5.16C58.06,44.73,66.76,42.77,71.52,50.21Z"/><path class="cls-6" d="M22.56,16.64a1.87,1.87,0,1,1-1.75,2A1.86,1.86,0,0,1,22.56,16.64Z"/><path class="cls-7" d="M22.79,18a.52.52,0,1,1-.49.55A.53.53,0,0,1,22.79,18Z"/><path class="cls-8" d="M25.11,8.6a1.87,1.87,0,1,1-1.76,2A1.88,1.88,0,0,1,25.11,8.6Z"/><path class="cls-7" d="M25.33,9.94a.53.53,0,0,1,.55.49.52.52,0,0,1-.49.55.51.51,0,0,1-.54-.49A.52.52,0,0,1,25.33,9.94Z"/><path class="cls-9" d="M23.61,31.66a1.87,1.87,0,1,1-1.76,2A1.88,1.88,0,0,1,23.61,31.66Z"/><path class="cls-7" d="M23.83,33a.52.52,0,1,1,.06,1,.52.52,0,0,1-.06-1Z"/><path class="cls-10" d="M14.79,4.49A5.24,5.24,0,1,1,9.88,10,5.25,5.25,0,0,1,14.79,4.49Z"/><path class="cls-7" d="M15.43,8.25a1.45,1.45,0,1,1-1.37,1.53A1.44,1.44,0,0,1,15.43,8.25Z"/><path class="cls-11" d="M29.74,44.48a2.5,2.5,0,1,1-2.35,2.65A2.51,2.51,0,0,1,29.74,44.48Z"/><path class="cls-7" d="M30,46.28a.69.69,0,0,1,.73.65.68.68,0,0,1-.65.73A.69.69,0,0,1,30,46.28Z"/><path class="cls-12" d="M7.92,56.25a1.24,1.24,0,0,1,1.32,1.17,1.25,1.25,0,1,1-1.32-1.17Z"/><path class="cls-7" d="M8.07,57.15a.33.33,0,0,1,.36.32.35.35,0,0,1-.32.37.35.35,0,0,1-.37-.33A.35.35,0,0,1,8.07,57.15Z"/><path class="cls-13" d="M42.68,29.61a1.25,1.25,0,1,1-1.18,1.33A1.25,1.25,0,0,1,42.68,29.61Z"/><path class="cls-7" d="M42.83,30.51a.35.35,0,0,1,.37.33.35.35,0,0,1-.33.36.35.35,0,1,1,0-.69Z"/><path class="cls-14" d="M25.32,49.25a.93.93,0,1,1-.87,1A.93.93,0,0,1,25.32,49.25Z"/><path class="cls-7" d="M25.43,49.92a.26.26,0,0,1,.28.24.26.26,0,0,1-.24.27.26.26,0,0,1-.28-.24A.26.26,0,0,1,25.43,49.92Z"/><path class="cls-15" d="M39.81,48.48A2,2,0,1,1,38,50.55,2,2,0,0,1,39.81,48.48Z"/><path class="cls-7" d="M40.05,49.88a.54.54,0,0,1,.57.51.53.53,0,0,1-.5.57.54.54,0,0,1-.58-.5A.55.55,0,0,1,40.05,49.88Z"/><path class="cls-16" d="M69.8,52.08c-.33-1.12,2.62-6.2,3.37-6.18s.08,3.35-.37,4.12S70,52.64,69.8,52.08Z"/><path class="cls-17" d="M5.21,8.22S48.64-5.65,71.36,6.74c0,0,2.38,1.9,3.29,9.3,0,0-1.81-6.51-15.41-5.58-11.71.8-29.85,20.44-48.81,14.11C.9,21.39,5.21,8.22,5.21,8.22Z"/><path class="cls-16" d="M5.21,13.92S3.13,8.6,7.13,6.7,24.26,3,24.91,3.48,19.36,6.2,16.16,7.37,6.84,14.83,5.21,13.92Z"/><path class="cls-16" d="M34.51,20,13.68,42.06l19-10.4,9.91,10.4L63.25,20,44.5,30.23Z"/></g></g></g></svg>