<svg xmlns="http://www.w3.org/2000/svg" xmlns:xlink="http://www.w3.org/1999/xlink" viewBox="0 0 234.18 84.25"><defs><style>.cls-1{isolation:isolate;}.cls-2{fill:url(#Безымянный_градиент_302);}.cls-3{fill:url(#Безымянный_градиент_163);}.cls-4{fill:url(#Безымянный_градиент_240);}.cls-16,.cls-5{mix-blend-mode:screen;}.cls-5{fill:url(#Безымянный_градиент_172);}.cls-6{fill:url(#Безымянный_градиент_163-2);}.cls-7{fill:url(#Безымянный_градиент_169);}.cls-8{fill:url(#Безымянный_градиент_163-3);}.cls-9{fill:url(#Безымянный_градиент_247);}.cls-10{fill:url(#Безымянный_градиент_163-4);}.cls-11{fill:url(#Безымянный_градиент_247-2);}.cls-12{fill:url(#Безымянный_градиент_163-5);}.cls-13{fill:url(#Безымянный_градиент_247-3);}.cls-14{fill:url(#Безымянный_градиент_163-6);}.cls-15{fill:url(#Безымянный_градиент_247-4);}.cls-16{fill:url(#Безымянный_градиент_172-2);}.cls-17,.cls-18{fill:#fff;}.cls-18{font-size:47.42px;font-family:Noteworthy-Bold, Noteworthy;font-weight:700;}</style><radialGradient id="Безымянный_градиент_302" cx="117.09" cy="6728.33" r="109.97" gradientTransform="translate(0 -3282.97) scale(1 0.49)" gradientUnits="userSpaceOnUse"><stop offset="0" stop-color="#0025ae"/><stop offset="1" stop-color="#008cca"/></radialGradient><radialGradient id="Безымянный_градиент_163" cx="968.46" cy="-23.78" r="22.79" gradientTransform="matrix(0.85, -0.53, 0.53, 0.85, -775.19, 570.84)" gradientUnits="userSpaceOnUse"><stop offset="0" stop-color="#ffbd00"/><stop offset="1" stop-color="#ff772c"/></radialGradient><linearGradient id="Безымянный_градиент_240" x1="975.49" y1="2.28" x2="975.49" y2="-49.86" gradientTransform="translate(-933.11 62.02)" gradientUnits="userSpaceOnUse"><stop offset="0" stop-color="#fc0"/><stop offset="1" stop-color="#ffbd00"/></linearGradient><linearGradient id="Безымянный_градиент_172" x1="959.21" y1="-25.56" x2="990.61" y2="-25.56" gradientTransform="matrix(0.85, -0.53, 0.53, 0.85, -775.19, 570.84)" gradientUnits="userSpaceOnUse"><stop offset="0" stop-color="#ff9840"/><stop offset="0.1" stop-color="#ef8e3c"/><stop offset="0.29" stop-color="#c57531"/><stop offset="0.55" stop-color="#814d20"/><stop offset="0.88" stop-color="#241609"/><stop offset="1"/></linearGradient><radialGradient id="Безымянный_градиент_163-2" cx="975.48" cy="-23.79" r="16.06" xlink:href="#Безымянный_градиент_163"/><linearGradient id="Безымянный_градиент_169" x1="974.62" y1="-5.44" x2="974.62" y2="-42.13" gradientTransform="matrix(0.85, -0.53, 0.53, 0.85, -775.19, 570.84)" gradientUnits="userSpaceOnUse"><stop offset="0" stop-color="#fc0"/><stop offset="1" stop-color="#ff9700"/></linearGradient><radialGradient id="Безымянный_градиент_163-3" cx="2265.6" cy="1939.25" r="2.1" gradientTransform="matrix(-0.5, -0.87, 0.74, -0.43, -254.25, 2819.91)" xlink:href="#Безымянный_градиент_163"/><linearGradient id="Безымянный_градиент_247" x1="2263.81" y1="1939.02" x2="2267.4" y2="1938.88" gradientTransform="matrix(-0.5, -0.87, 0.74, -0.43, -254.25, 2819.91)" gradientUnits="userSpaceOnUse"><stop offset="0" stop-color="#00fff4"/><stop offset="1" stop-color="#30a7fb"/></linearGradient><radialGradient id="Безымянный_градиент_163-4" cx="2287.07" cy="1920.4" r="2.1" gradientTransform="matrix(-0.5, -0.87, 0.74, -0.43, -254.25, 2819.91)" xlink:href="#Безымянный_градиент_163"/><linearGradient id="Безымянный_градиент_247-2" x1="2285.27" y1="1920.16" x2="2288.87" y2="1920.02" xlink:href="#Безымянный_градиент_247"/><radialGradient id="Безымянный_градиент_163-5" cx="2243.59" cy="1922.05" r="2.1" gradientTransform="matrix(-0.5, -0.87, 0.74, -0.43, -254.25, 2819.91)" xlink:href="#Безымянный_градиент_163"/><linearGradient id="Безымянный_градиент_247-3" x1="2241.8" y1="1921.81" x2="2245.39" y2="1921.67" xlink:href="#Безымянный_градиент_247"/><radialGradient id="Безымянный_градиент_163-6" cx="2264.55" cy="1901.4" r="2.1" gradientTransform="matrix(-0.5, -0.87, 0.74, -0.43, -254.25, 2819.91)" xlink:href="#Безымянный_градиент_163"/><linearGradient id="Безымянный_градиент_247-4" x1="2262.76" y1="1901.16" x2="2266.35" y2="1901.03" xlink:href="#Безымянный_градиент_247"/><linearGradient id="Безымянный_градиент_172-2" x1="952.28" y1="-42.77" x2="968.47" y2="-42.77" xlink:href="#Безымянный_градиент_172"/></defs><g class="cls-1"><g id="Слой_2" data-name="Слой 2"><g id="Слой_1-2" data-name="Слой 1"><path class="cls-2" d="M6.87,10.84c-8,9.23-9.32,51.39-2.3,63.24,6.52,11,208.11,12.39,220.7.92s11.29-56-.42-66.59S20-4.25,6.87,10.84Z"/><path class="cls-3" d="M52.45,31.94c7,11.31,10,22.59,2.9,28.84-.59.52-4.6,2.84-5.28,3.26-8.87,5.48-22.2,0-29.76-12.26s-6.49-26.62,2.38-32.1c.55-.35,5.39-3.43,6-3.69C37.47,12.12,45.36,20.45,52.45,31.94Z"/><ellipse class="cls-4" cx="42.36" cy="38.17" rx="18.88" ry="26.07" transform="translate(-13.73 27.94) rotate(-31.69)"/><path class="cls-5" d="M21.47,35.32,62.9,50.2l.53-6.68L24.07,20.59S20.57,25.43,21.47,35.32Z"/><path class="cls-6" d="M53.69,31.18C59,39.82,58.28,50,52,53.82a7.87,7.87,0,0,1-.69.38c-6.24,3.2-15.16-.7-20.3-9S26.4,27.18,32,23c.23-.17.46-.33.71-.48C39,18.66,48.36,22.53,53.69,31.18Z"/><path class="cls-7" d="M52.23,32.08c5.11,8.28,4.64,17.94-.91,22.12-6.24,3.2-15.16-.7-20.3-9S26.4,27.18,32,23C38.23,19.88,47.1,23.77,52.23,32.08Z"/><path class="cls-8" d="M55.55,28.29a2,2,0,0,1,2.61.94A1.82,1.82,0,1,1,55,31,2,2,0,0,1,55.55,28.29Z"/><path class="cls-9" d="M55.48,28.69a1.82,1.82,0,0,1,1.79,3.12,1.82,1.82,0,0,1-1.79-3.12Z"/><path class="cls-10" d="M30.89,17.69a2,2,0,0,1,2.61.93,1.82,1.82,0,1,1-3.12,1.79A2,2,0,0,1,30.89,17.69Z"/><path class="cls-11" d="M30.82,18.08a1.68,1.68,0,0,1,2.22.8,1.55,1.55,0,1,1-2.66,1.53A1.69,1.69,0,0,1,30.82,18.08Z"/><path class="cls-12" d="M53.74,54.71a2.12,2.12,0,1,1-.51,2.71A2,2,0,0,1,53.74,54.71Z"/><path class="cls-13" d="M53.67,55.1a1.82,1.82,0,0,1,1.79,3.12,1.82,1.82,0,0,1-1.79-3.12Z"/><path class="cls-14" d="M28,45.3a2.12,2.12,0,0,1,2.09,3.64A2.12,2.12,0,0,1,28,45.3Z"/><path class="cls-15" d="M27.93,45.69a1.82,1.82,0,0,1,1.79,3.12,1.82,1.82,0,0,1-1.79-3.12Z"/><path class="cls-16" d="M15.58,39l5.89-3.64s-1.53-6,2-14.36l-5.7,3.86S14,32.62,15.58,39Z"/><path class="cls-17" d="M21.29,32.81c.08.63,2.91-4.35,2.75-6.64s-.32-3.86-.9-3.84S20.79,28.84,21.29,32.81Z"/><path class="cls-17" d="M62.32,50.2c-1.29,1.38.06-4.87.56-5S63.5,49,62.32,50.2Z"/><text class="cls-18" transform="translate(77.99 63.63)">1000</text></g></g></g></svg>