<svg xmlns="http://www.w3.org/2000/svg" xmlns:xlink="http://www.w3.org/1999/xlink" viewBox="0 0 66.87 64.37"><defs><style>.cls-1{isolation:isolate;}.cls-2{fill:url(#Безымянный_градиент_163);}.cls-3{fill:url(#Безымянный_градиент_160);}.cls-4{fill:url(#Безымянный_градиент_169);}.cls-10,.cls-11,.cls-12,.cls-5,.cls-7,.cls-9{mix-blend-mode:screen;}.cls-5{fill:url(#Безымянный_градиент_172);}.cls-6{fill:#fff;}.cls-7{fill:url(#Безымянный_градиент_168);}.cls-8{fill:#ffffab;}.cls-9{fill:url(#Безымянный_градиент_168-2);}.cls-10{fill:url(#Безымянный_градиент_168-3);}.cls-11{fill:url(#Безымянный_градиент_168-4);}.cls-12{fill:url(#Безымянный_градиент_168-5);}</style><radialGradient id="Безымянный_градиент_163" cx="33.43" cy="32.43" r="32.7" gradientUnits="userSpaceOnUse"><stop offset="0" stop-color="#ffbd00"/><stop offset="1" stop-color="#ff772c"/></radialGradient><linearGradient id="Безымянный_градиент_160" x1="33.43" y1="62.04" x2="33.43" y2="0.49" gradientUnits="userSpaceOnUse"><stop offset="0" stop-color="#fff300"/><stop offset="1" stop-color="#ff9700"/></linearGradient><linearGradient id="Безымянный_градиент_169" x1="33.43" y1="61.49" x2="33.43" gradientUnits="userSpaceOnUse"><stop offset="0" stop-color="#fc0"/><stop offset="1" stop-color="#ff9700"/></linearGradient><linearGradient id="Безымянный_градиент_172" x1="0.14" y1="14.28" x2="66" y2="14.28" gradientUnits="userSpaceOnUse"><stop offset="0" stop-color="#ff9840"/><stop offset="0.1" stop-color="#ef8e3c"/><stop offset="0.29" stop-color="#c57531"/><stop offset="0.55" stop-color="#814d20"/><stop offset="0.88" stop-color="#241609"/><stop offset="1"/></linearGradient><radialGradient id="Безымянный_градиент_168" cx="-65.67" cy="-1111.42" r="1.81" gradientTransform="matrix(-0.06, -1, 1, -0.06, 1124.59, -86.8)" gradientUnits="userSpaceOnUse"><stop offset="0" stop-color="#00b359"/><stop offset="0.13" stop-color="#009148"/><stop offset="0.34" stop-color="#005e2f"/><stop offset="0.54" stop-color="#00351a"/><stop offset="0.73" stop-color="#00180c"/><stop offset="0.89" stop-color="#000603"/><stop offset="1"/></radialGradient><radialGradient id="Безымянный_градиент_168-2" cx="-48.94" cy="-1089.66" r="1.81" xlink:href="#Безымянный_градиент_168"/><radialGradient id="Безымянный_градиент_168-3" cx="-47.63" cy="-1099.4" r="5.08" xlink:href="#Безымянный_градиент_168"/><radialGradient id="Безымянный_градиент_168-4" cx="-70.78" cy="-1110.51" r="1.21" xlink:href="#Безымянный_градиент_168"/><radialGradient id="Безымянный_градиент_168-5" cx="-72.46" cy="-1088.03" r="1.21" xlink:href="#Безымянный_градиент_168"/></defs><g class="cls-1"><g id="Слой_2" data-name="Слой 2"><g id="Слой_1-2" data-name="Слой 1"><path class="cls-2" d="M33.43.48c5.82,0,10.3,20.86,10.3,20.86s21.21-2.19,23,3.34S50.09,40.92,50.09,40.92,58.72,60.42,54,63.84,33.43,53,33.43,53,17.55,67.26,12.85,63.84s3.93-22.92,3.93-22.92S-1.67,30.21.13,24.68s23-3.34,23-3.34S27.62.48,33.43.48Z"/><path class="cls-3" d="M50.08,39.44S58.72,58.23,54,61.53,33.43,51.1,33.43,51.1,17.55,64.82,12.84,61.53s3.95-22.09,3.95-22.09S-1.67,29.13.12,23.8l0,0c1.82-5.3,23-3.2,23-3.2S27.61.49,33.43.49,43.72,20.58,43.72,20.58,61.81,18.79,66,22.7a2.56,2.56,0,0,1,.74,1.1C68.54,29.13,50.08,39.44,50.08,39.44Z"/><path class="cls-4" d="M50.08,39S58.72,57.74,54,61,33.43,48.41,33.43,48.41,17.55,64.33,12.84,61,16.79,39,16.79,39-1.67,28.64.12,23.31l0,0c1.82-5.3,23-3.2,23-3.2S27.61,0,33.43,0,43.72,20.09,43.72,20.09,61.81,18.3,66,22.21a2.56,2.56,0,0,1,.74,1.1C68.54,28.64,50.08,39,50.08,39Z"/><path class="cls-5" d="M66,22.7a5.14,5.14,0,0,1-1,.93C56,30,39.1,28.81,20.58,24.68,2.78,20.7.29,23.56.14,23.78c1.82-5.3,23-3.2,23-3.2S27.61.49,33.43.49,43.72,20.58,43.72,20.58,61.81,18.79,66,22.7Z"/><path class="cls-6" d="M27.79,7.22s2.81-6,4.63-5.86S32.56,6,32,6.55,28.34,7.69,27.79,7.22Z"/><path class="cls-6" d="M1.49,23.05c-.17.92,6.78-.86,6.8-1.74S1.9,20.81,1.49,23.05Z"/><path class="cls-6" d="M55,56.22c-.51-.86-1.43,5.73-1,5.31A3.87,3.87,0,0,0,55,56.22Z"/><path class="cls-7" d="M19,43.18a1.81,1.81,0,1,1-1.7,1.92A1.81,1.81,0,0,1,19,43.18Z"/><path class="cls-8" d="M19.2,44.48a.5.5,0,0,1,.53.47.49.49,0,0,1-.47.53.5.5,0,0,1-.53-.47A.51.51,0,0,1,19.2,44.48Z"/><path class="cls-9" d="M39.7,25.18A1.82,1.82,0,1,1,38,27.1,1.82,1.82,0,0,1,39.7,25.18Z"/><path class="cls-8" d="M39.92,26.49a.49.49,0,0,1,.53.47.5.5,0,0,1-.47.53.51.51,0,0,1-.53-.47A.5.5,0,0,1,39.92,26.49Z"/><path class="cls-10" d="M29.71,21.2a5.08,5.08,0,1,1-4.77,5.37A5.07,5.07,0,0,1,29.71,21.2Z"/><path class="cls-8" d="M30.32,24.84A1.41,1.41,0,1,1,29,26.33,1.4,1.4,0,0,1,30.32,24.84Z"/><path class="cls-11" d="M20.23,48.82a1.22,1.22,0,1,1-1.14,1.29A1.22,1.22,0,0,1,20.23,48.82Z"/><path class="cls-8" d="M20.38,49.69a.33.33,0,0,1,.35.32.34.34,0,0,1-.67,0A.34.34,0,0,1,20.38,49.69Z"/><path class="cls-12" d="M42.77,49.17a1.2,1.2,0,0,1,1.28,1.13,1.21,1.21,0,1,1-1.28-1.13Z"/><path class="cls-8" d="M42.91,50a.33.33,0,0,1,.36.31.34.34,0,0,1-.32.36.34.34,0,0,1,0-.67Z"/></g></g></g></svg>