<svg xmlns="http://www.w3.org/2000/svg" xmlns:xlink="http://www.w3.org/1999/xlink" viewBox="0 0 258.61 123.72"><defs><style>.cls-1{isolation:isolate;}.cls-2{fill:url(#Безымянный_градиент_139);}.cls-3{fill:url(#Безымянный_градиент_129);}.cls-4{fill:#fff;}.cls-5{fill:#ced6ff;mix-blend-mode:multiply;}.cls-6{fill:url(#Безымянный_градиент_163);}.cls-7{fill:url(#Безымянный_градиент_160);}.cls-8{fill:url(#Безымянный_градиент_169);}.cls-9{fill:#ff5200;}.cls-10,.cls-11,.cls-12,.cls-14,.cls-15,.cls-16,.cls-17,.cls-18,.cls-19,.cls-20,.cls-21,.cls-22,.cls-23,.cls-24,.cls-25{mix-blend-mode:screen;}.cls-10{fill:url(#Безымянный_градиент_172);}.cls-11{fill:url(#Безымянный_градиент_155);}.cls-12{fill:url(#Безымянный_градиент_168);}.cls-13{fill:#ffffab;}.cls-14{fill:url(#Безымянный_градиент_168-2);}.cls-15{fill:url(#Безымянный_градиент_168-3);}.cls-16{fill:url(#Безымянный_градиент_168-4);}.cls-17{fill:url(#Безымянный_градиент_168-5);}.cls-18{fill:url(#Безымянный_градиент_168-6);}.cls-19{fill:url(#Безымянный_градиент_168-7);}.cls-20{fill:url(#Безымянный_градиент_168-8);}.cls-21{fill:url(#Безымянный_градиент_168-9);}.cls-22{fill:url(#Безымянный_градиент_168-10);}.cls-23{fill:url(#Безымянный_градиент_168-11);}.cls-24{fill:url(#Безымянный_градиент_168-12);}.cls-25{fill:url(#Безымянный_градиент_168-13);}</style><linearGradient id="Безымянный_градиент_139" x1="129.3" y1="123.72" x2="129.3" y2="3.89" gradientUnits="userSpaceOnUse"><stop offset="0" stop-color="#8b9ad1"/><stop offset="1" stop-color="#cee0ff"/></linearGradient><linearGradient id="Безымянный_градиент_129" x1="129.3" y1="119.84" x2="129.3" gradientUnits="userSpaceOnUse"><stop offset="0" stop-color="#cadcff"/><stop offset="1" stop-color="#fff"/></linearGradient><radialGradient id="Безымянный_градиент_163" cx="130.88" cy="104.33" r="92.35" gradientUnits="userSpaceOnUse"><stop offset="0" stop-color="#ffbd00"/><stop offset="1" stop-color="#ff772c"/></radialGradient><linearGradient id="Безымянный_градиент_160" x1="127.02" y1="106.24" x2="127.02" y2="7.34" gradientUnits="userSpaceOnUse"><stop offset="0" stop-color="#fff300"/><stop offset="1" stop-color="#ff9700"/></linearGradient><linearGradient id="Безымянный_градиент_169" x1="127.02" y1="104.38" x2="127.02" y2="8.41" gradientUnits="userSpaceOnUse"><stop offset="0" stop-color="#fc0"/><stop offset="1" stop-color="#ff9700"/></linearGradient><linearGradient id="Безымянный_градиент_172" x1="24.57" y1="27.69" x2="240.16" y2="27.69" gradientUnits="userSpaceOnUse"><stop offset="0" stop-color="#ff9840"/><stop offset="0.1" stop-color="#ef8e3c"/><stop offset="0.29" stop-color="#c57531"/><stop offset="0.55" stop-color="#814d20"/><stop offset="0.88" stop-color="#241609"/><stop offset="1"/></linearGradient><linearGradient id="Безымянный_градиент_155" x1="60.36" y1="92.51" x2="265.88" y2="92.51" gradientTransform="matrix(-1, 0, 0, 1, 290.8, 0)" gradientUnits="userSpaceOnUse"><stop offset="0" stop-color="#ff6140"/><stop offset="0.1" stop-color="#ef5b3c"/><stop offset="0.29" stop-color="#c54b31"/><stop offset="0.55" stop-color="#813120"/><stop offset="0.88" stop-color="#240e09"/><stop offset="1"/></linearGradient><radialGradient id="Безымянный_градиент_168" cx="-1018.65" cy="-2189.3" r="2.85" gradientTransform="matrix(-0.06, -1, 1, -0.06, 2168.77, -1105.65)" gradientUnits="userSpaceOnUse"><stop offset="0" stop-color="#00b359"/><stop offset="0.13" stop-color="#009148"/><stop offset="0.34" stop-color="#005e2f"/><stop offset="0.54" stop-color="#00351a"/><stop offset="0.73" stop-color="#00180c"/><stop offset="0.89" stop-color="#000603"/><stop offset="1"/></radialGradient><radialGradient id="Безымянный_градиент_168-2" cx="-1006.68" cy="-2184.71" r="2.85" xlink:href="#Безымянный_градиент_168"/><radialGradient id="Безымянный_градиент_168-3" cx="-1041.56" cy="-2189.08" r="2.85" xlink:href="#Безымянный_градиент_168"/><radialGradient id="Безымянный_градиент_168-4" cx="-1004.62" cy="-2200" r="7.97" xlink:href="#Безымянный_градиент_168"/><radialGradient id="Безымянный_градиент_168-5" cx="-1071.98" cy="-2040.17" r="7.97" xlink:href="#Безымянный_градиент_168"/><radialGradient id="Безымянный_градиент_168-6" cx="-1066.46" cy="-1998.89" r="3.81" xlink:href="#Безымянный_градиент_168"/><radialGradient id="Безымянный_градиент_168-7" cx="-1062.54" cy="-2180.93" r="3.81" xlink:href="#Безымянный_градиент_168"/><radialGradient id="Безымянный_градиент_168-8" cx="-1052.96" cy="-2071.01" r="1.9" xlink:href="#Безымянный_градиент_168"/><radialGradient id="Безымянный_градиент_168-9" cx="-1068.65" cy="-2215.27" r="1.9" xlink:href="#Безымянный_градиент_168"/><radialGradient id="Безымянный_градиент_168-10" cx="-1039.23" cy="-2159.94" r="1.9" xlink:href="#Безымянный_градиент_168"/><radialGradient id="Безымянный_градиент_168-11" cx="-1066.99" cy="-2188.07" r="1.42" xlink:href="#Безымянный_градиент_168"/><radialGradient id="Безымянный_градиент_168-12" cx="-1078.22" cy="-2089.87" r="2.97" xlink:href="#Безымянный_градиент_168"/><radialGradient id="Безымянный_градиент_168-13" cx="-1076.62" cy="-2152.54" r="2.97" xlink:href="#Безымянный_градиент_168"/></defs><g class="cls-1"><g id="Слой_2" data-name="Слой 2"><g id="Слой_1-2" data-name="Слой 1"><path class="cls-2" d="M248.58,109.57a6.06,6.06,0,0,1-.78.71c-22.1,18-213.58,17.41-240.25,1.19a6.89,6.89,0,0,1-2.78-2.67C-4.69,89.12.45,29.87,15.47,17.05,31.59,3.32,224.19-2.89,244.1,14.57,258.71,27.37,265.67,91.62,248.58,109.57Z"/><path class="cls-3" d="M4.77,104.91c9.12,19,225,20.52,243.81.77,17.09-18,10.14-82.2-4.47-95C224.2-6.78,31.59-.57,15.47,13.17.44,26-4.68,85.22,4.77,104.91Z"/><path class="cls-4" d="M13.61,98.44s29.15,15.61,119,15.61S236.78,98.44,236.78,98.44Z"/><path class="cls-5" d="M247.8,98.43v11.85c-22.1,18-213.58,17.41-240.25,1.19l.56-3.56,5.49-9.48L243.84,87.74Z"/><path class="cls-6" d="M11.51,96.29c8.28,17.25,208.81,22.1,225.89,4.17,15.51-16.3,9.2-74.63-4.07-86.27C215.25-1.66,37.07,9.47,22.43,22,8.79,33.58,2.93,78.42,11.51,96.29Z"/><path class="cls-7" d="M12.18,93.25c8.24,16.63,207.59,17.82,224.6.53,15.45-15.71,9.37-67.68-3.84-78.89C214.93-.39,37.4,10.34,22.82,22.37,9.23,33.58,3.63,76,12.18,93.25Z"/><path class="cls-8" d="M14.66,91.78c8.07,16.13,203.1,17.29,219.74.51,15.12-15.25,9.18-65.67-3.75-76.55C213,.91,39.34,11.32,25.08,23,11.78,33.87,6.3,75.05,14.66,91.78Z"/><path class="cls-9" d="M97.83,70.21a16.74,16.74,0,0,1-.54,4.49A12.78,12.78,0,0,1,95.9,78,9.31,9.31,0,0,1,94,80.28a9.84,9.84,0,0,1-2.19,1.42,10.63,10.63,0,0,1-2.14.73,9,9,0,0,1-1.77.21c-.26,0-.61,0-1.07,0s-1-.11-1.56-.21-1.22-.27-1.93-.47a17,17,0,0,1-2.22-.86l.36-8.18A11.82,11.82,0,0,0,84.86,75a7.67,7.67,0,0,0,2.55.55,3.44,3.44,0,0,0,3-1.46,6.48,6.48,0,0,0,1-3.79,9.57,9.57,0,0,0-.77-3.49A14.88,14.88,0,0,0,88,62.68l-2.76-3.25a28.37,28.37,0,0,1-2.59-3.6,20.68,20.68,0,0,1-1.92-4.12A14.72,14.72,0,0,1,80,46.94a15.82,15.82,0,0,1,.89-5.62,11.41,11.41,0,0,1,2.38-3.93,9.61,9.61,0,0,1,3.43-2.32,11.06,11.06,0,0,1,4-.76,15.23,15.23,0,0,1,3.78.5,18.11,18.11,0,0,1,3.88,1.54l-.62,8.18A8,8,0,0,0,96,42.83a8.69,8.69,0,0,0-1.78-1,8.2,8.2,0,0,0-1.59-.42,10.76,10.76,0,0,0-1.22-.1,3.3,3.3,0,0,0-1.74.48,4.4,4.4,0,0,0-1.36,1.26A6.17,6.17,0,0,0,87.41,45a7.88,7.88,0,0,0-.33,2.29,7,7,0,0,0,.8,3.34,17.52,17.52,0,0,0,2,3q1.2,1.45,2.58,3A26.5,26.5,0,0,1,95,60a19.72,19.72,0,0,1,2,4.42A18.86,18.86,0,0,1,97.83,70.21Z"/><path class="cls-9" d="M117.56,41.87c-.69,0-1.49-.07-2.39-.09s-1.85,0-2.87,0c-.15,2-.28,4.1-.37,6.25s-.18,4.34-.25,6.56-.1,4.44-.13,6.68,0,4.45,0,6.64c0,2.49,0,4.89,0,7.22s.1,4.57.21,6.73h-6.91q.28-5.5.45-11.74t.16-12.56q0-4.12-.09-8.05c-.07-2.62-.13-5.17-.2-7.66-1,0-2,0-3,0s-1.76,0-2.5.1l.07-6.79c.77.07,1.65.12,2.62.15l3.07.08,3.3,0,3.31,0h3.06c1,0,1.83,0,2.58-.07Z"/><path class="cls-9" d="M133.59,82c-.11-1.49-.21-3-.31-4.51s-.21-3-.34-4.57l-2.76-.2c-.88-.06-1.78-.09-2.69-.09h-.42c-.11,1.55-.21,3.09-.29,4.6s-.17,3-.23,4.52l-8.12-.13q2-11.59,3.64-23.11t2.76-23.24l9.77.16q1.23,11.59,3,23t4.07,23Zm-3.8-38.55q-.64,6-1.23,11.91t-1.07,12c.45,0,.92.06,1.4.06h3.57c-.37-4-.78-8-1.24-12S130.29,47.42,129.79,43.4Z"/><path class="cls-9" d="M162.77,49a24,24,0,0,1-.41,4.37,18.94,18.94,0,0,1-1.31,4.22,17.54,17.54,0,0,1-2.34,3.79,14.78,14.78,0,0,1-3.51,3.13q1.83,4.65,4,8.91a76.53,76.53,0,0,0,4.89,8.23l-8.12.46-5.51-15.68q.12,4,.32,7.85t.49,7.69h-7.92q.51-7.36.76-14.73t.25-14.83c0-2.88,0-5.75-.07-8.62s-.13-5.76-.26-8.68a17.51,17.51,0,0,1,3.49-.68c1.18-.11,2.18-.16,3-.16a15.35,15.35,0,0,1,2.13.18,11.14,11.14,0,0,1,2.61.72A12.34,12.34,0,0,1,158,36.71a10,10,0,0,1,2.4,2.65,14.71,14.71,0,0,1,1.72,4A21,21,0,0,1,162.77,49ZM150.4,61.15a6.19,6.19,0,0,0,2-1,8.25,8.25,0,0,0,1.51-1.44A9.17,9.17,0,0,0,155,57a12.57,12.57,0,0,0,.73-1.82,17.86,17.86,0,0,0,.75-4.61s0-.31,0-.79a16.54,16.54,0,0,0-.17-1.83c-.11-.74-.27-1.54-.47-2.41a12.76,12.76,0,0,0-.9-2.51,8.15,8.15,0,0,0-1.49-2.16,5,5,0,0,0-2.21-1.33q-.39,5.1-.6,10.14t-.21,10.18Z"/><path class="cls-9" d="M182.44,41.87c-.7,0-1.49-.07-2.39-.09s-1.85,0-2.87,0c-.15,2-.28,4.1-.38,6.25s-.17,4.34-.24,6.56-.11,4.44-.13,6.68,0,4.45,0,6.64c0,2.49,0,4.89,0,7.22s.1,4.57.21,6.73h-6.91q.28-5.5.45-11.74t.16-12.56q0-4.12-.1-8.05t-.19-7.66c-1,0-2,0-2.95,0s-1.77,0-2.5.1l.06-6.79c.78.07,1.66.12,2.63.15l3.07.08,3.29,0,3.31,0h3.07c1,0,1.82,0,2.58-.07Z"/><path class="cls-10" d="M24.57,23.07S160.57-4.51,231.12,16a54.41,54.41,0,0,1,9,20s-25.7,9.19-62,10.84S103.92,28,73.28,25,24.57,23.07,24.57,23.07Z"/><path class="cls-11" d="M230.44,92.6s-91,16-205.53,1.88c0,0,74.42,6.46,107.53,0C188.65,83.53,215.67,80.29,230.44,92.6Z"/><path class="cls-4" d="M19.47,30a21.46,21.46,0,0,1,9.47-9c6.62-3.14,25.46-6.29,26.54-5.49S46.3,20.06,41,22,22.18,31.54,19.47,30Z"/><path class="cls-4" d="M18.89,31.61c-1.37.21-4.76,10.78-4.56,12.51s4.29-3.75,4.93-6.67A12.18,12.18,0,0,0,18.89,31.61Z"/><path class="cls-12" d="M44,38.81a2.85,2.85,0,1,1-2.68,3A2.85,2.85,0,0,1,44,38.81Z"/><path class="cls-13" d="M44.29,40.85a.79.79,0,1,1-.74.84A.79.79,0,0,1,44.29,40.85Z"/><path class="cls-14" d="M47.81,26.59a2.85,2.85,0,1,1-2.67,3A2.85,2.85,0,0,1,47.81,26.59Z"/><path class="cls-13" d="M48.16,28.63a.79.79,0,1,1-.74.83A.78.78,0,0,1,48.16,28.63Z"/><path class="cls-15" d="M45.53,61.66a2.85,2.85,0,1,1-2.67,3A2.84,2.84,0,0,1,45.53,61.66Z"/><path class="cls-13" d="M45.88,63.7a.79.79,0,1,1-.74.84A.79.79,0,0,1,45.88,63.7Z"/><path class="cls-16" d="M32.13,20.33a8,8,0,1,1-7.48,8.43A8,8,0,0,1,32.13,20.33Z"/><path class="cls-13" d="M33.09,26A2.21,2.21,0,1,1,31,28.38,2.21,2.21,0,0,1,33.09,26Z"/><path class="cls-17" d="M195.68,78a8,8,0,1,1-7.48,8.43A8,8,0,0,1,195.68,78Z"/><path class="cls-13" d="M196.65,83.76a2.21,2.21,0,1,1-2.08,2.33A2.2,2.2,0,0,1,196.65,83.76Z"/><path class="cls-18" d="M236.81,74.23a3.81,3.81,0,1,1-3.57,4A3.8,3.8,0,0,1,236.81,74.23Z"/><path class="cls-13" d="M237.27,77a1.05,1.05,0,1,1,.12,2.1,1,1,0,0,1-1.11-1A1,1,0,0,1,237.27,77Z"/><path class="cls-19" d="M54.86,81.16a3.81,3.81,0,1,1-3.57,4A3.82,3.82,0,0,1,54.86,81.16Z"/><path class="cls-13" d="M55.32,83.89a1.06,1.06,0,1,1-1,1.12A1.07,1.07,0,0,1,55.32,83.89Z"/><path class="cls-20" d="M164.13,67a1.9,1.9,0,0,1,.23,3.8,1.9,1.9,0,1,1-.23-3.8Z"/><path class="cls-13" d="M164.36,68.31a.53.53,0,0,1,.56.5.52.52,0,0,1-.5.55.51.51,0,0,1-.55-.49A.53.53,0,0,1,164.36,68.31Z"/><path class="cls-21" d="M21.07,91.21a1.9,1.9,0,1,1-1.79,2A1.9,1.9,0,0,1,21.07,91.21Z"/><path class="cls-13" d="M21.3,92.58a.51.51,0,0,1,.55.49.53.53,0,1,1-1.05.06A.52.52,0,0,1,21.3,92.58Z"/><path class="cls-22" d="M74.54,58.54a1.9,1.9,0,1,1,.23,3.8,1.9,1.9,0,0,1-.23-3.8Z"/><path class="cls-13" d="M74.77,59.91A.53.53,0,1,1,74.83,61a.51.51,0,0,1-.55-.49A.53.53,0,0,1,74.77,59.91Z"/><path class="cls-23" d="M48.14,88.41a1.42,1.42,0,1,1-1.33,1.5A1.41,1.41,0,0,1,48.14,88.41Z"/><path class="cls-13" d="M48.31,89.43a.39.39,0,1,1,0,.78.39.39,0,0,1-.42-.37A.4.4,0,0,1,48.31,89.43Z"/><path class="cls-24" d="M146.74,92.22A3,3,0,1,1,144,95.36,3,3,0,0,1,146.74,92.22Z"/><path class="cls-13" d="M147.1,94.35a.82.82,0,0,1,.1,1.64.82.82,0,0,1-.1-1.64Z"/><path class="cls-25" d="M84.09,94.36A3,3,0,1,1,81.3,97.5,3,3,0,0,1,84.09,94.36Z"/><path class="cls-13" d="M84.45,96.49a.82.82,0,1,1-.78.87A.83.83,0,0,1,84.45,96.49Z"/><path class="cls-4" d="M228,97.14c-.95-1.7,7.47-9.43,9.61-9.4s.23,5.09-1.06,6.27S228.46,98,228,97.14Z"/></g></g></g></svg>