<svg xmlns="http://www.w3.org/2000/svg" xmlns:xlink="http://www.w3.org/1999/xlink" viewBox="0 0 69.11 67.16"><defs><style>.cls-1{fill:#00d6c2;}.cls-2{fill:url(#Безымянный_градиент_236);}</style><linearGradient id="Безымянный_градиент_236" x1="34.55" y1="66.03" x2="34.55" gradientUnits="userSpaceOnUse"><stop offset="0" stop-color="#008ec2"/><stop offset="1" stop-color="#003bc2"/></linearGradient></defs><g id="Слой_2" data-name="Слой 2"><g id="Слой_1-2" data-name="Слой 1"><path class="cls-1" d="M34.55,1.13c6,0,10.64,21.55,10.64,21.55S67.12,20.42,69,26.14,51.77,42.92,51.77,42.92s8.92,20.16,4.06,23.69S34.55,55.43,34.55,55.43,18.14,70.14,13.28,66.61s4.06-23.69,4.06-23.69S-1.73,31.86.13,26.14s23.79-3.46,23.79-3.46S28.54,1.13,34.55,1.13Z"/><path class="cls-2" d="M34.55,0c6,0,10.64,21.56,10.64,21.56S67.12,19.3,69,25,51.77,41.79,51.77,41.79,60.69,62,55.83,65.48,34.55,54.3,34.55,54.3,18.14,69,13.28,65.48s4.06-23.69,4.06-23.69S-1.73,30.73.13,25s23.79-3.45,23.79-3.45S28.54,0,34.55,0Z"/></g></g></svg>