<svg xmlns="http://www.w3.org/2000/svg" xmlns:xlink="http://www.w3.org/1999/xlink" viewBox="0 0 259.68 124.24"><defs><style>.cls-1{isolation:isolate;}.cls-2{fill:url(#Безымянный_градиент_139);}.cls-3{fill:url(#Безымянный_градиент_129);}.cls-4{fill:#fff;}.cls-5{fill:#ced6ff;mix-blend-mode:multiply;}.cls-6{fill:url(#Безымянный_градиент_4);}.cls-7{fill:url(#Безымянный_градиент_5);}.cls-8{fill:url(#Безымянный_градиент_2);}.cls-10,.cls-11,.cls-13,.cls-14,.cls-15,.cls-16,.cls-17,.cls-18,.cls-19,.cls-20,.cls-21,.cls-22,.cls-23,.cls-24,.cls-9{mix-blend-mode:screen;}.cls-9{fill:url(#Безымянный_градиент_10);}.cls-10{fill:url(#Безымянный_градиент_8);}.cls-11{fill:url(#Безымянный_градиент_12);}.cls-12{fill:#bec7ff;}.cls-13{fill:url(#Безымянный_градиент_12-2);}.cls-14{fill:url(#Безымянный_градиент_12-3);}.cls-15{fill:url(#Безымянный_градиент_12-4);}.cls-16{fill:url(#Безымянный_градиент_12-5);}.cls-17{fill:url(#Безымянный_градиент_12-6);}.cls-18{fill:url(#Безымянный_градиент_12-7);}.cls-19{fill:url(#Безымянный_градиент_12-8);}.cls-20{fill:url(#Безымянный_градиент_12-9);}.cls-21{fill:url(#Безымянный_градиент_12-10);}.cls-22{fill:url(#Безымянный_градиент_12-11);}.cls-23{fill:url(#Безымянный_градиент_12-12);}.cls-24{fill:url(#Безымянный_градиент_12-13);}.cls-25{opacity:0.09;}.cls-26{fill:#2e3192;}</style><linearGradient id="Безымянный_градиент_139" x1="129.84" y1="124.24" x2="129.84" y2="3.91" gradientUnits="userSpaceOnUse"><stop offset="0" stop-color="#8b9ad1"/><stop offset="1" stop-color="#cee0ff"/></linearGradient><linearGradient id="Безымянный_градиент_129" x1="129.84" y1="120.33" x2="129.84" gradientUnits="userSpaceOnUse"><stop offset="0" stop-color="#cadcff"/><stop offset="1" stop-color="#fff"/></linearGradient><radialGradient id="Безымянный_градиент_4" cx="131.43" cy="104.76" r="92.74" gradientUnits="userSpaceOnUse"><stop offset="0" stop-color="#aeaaff"/><stop offset="1" stop-color="#d0f8ff"/></radialGradient><linearGradient id="Безымянный_градиент_5" x1="127.54" y1="106.68" x2="127.54" y2="7.37" gradientUnits="userSpaceOnUse"><stop offset="0" stop-color="#9e9eff"/><stop offset="1" stop-color="#5b87b0"/></linearGradient><linearGradient id="Безымянный_градиент_2" x1="127.54" y1="104.82" x2="127.54" y2="8.45" gradientUnits="userSpaceOnUse"><stop offset="0" stop-color="#9dabff"/><stop offset="1" stop-color="#9debff"/></linearGradient><linearGradient id="Безымянный_градиент_10" x1="24.67" y1="27.81" x2="241.16" y2="27.81" gradientUnits="userSpaceOnUse"><stop offset="0" stop-color="#8d59ff"/><stop offset="0.1" stop-color="#8453ef"/><stop offset="0.29" stop-color="#6d45c5"/><stop offset="0.55" stop-color="#472d81"/><stop offset="0.88" stop-color="#140d24"/><stop offset="1"/></linearGradient><linearGradient id="Безымянный_градиент_8" x1="-2338.1" y1="92.9" x2="-2131.72" y2="92.9" gradientTransform="matrix(-1, 0, 0, 1, -2106.71, 0)" gradientUnits="userSpaceOnUse"><stop offset="0" stop-color="#596aff"/><stop offset="0.1" stop-color="#5363ef"/><stop offset="0.29" stop-color="#4552c5"/><stop offset="0.55" stop-color="#2d3681"/><stop offset="0.88" stop-color="#0d0f24"/><stop offset="1"/></linearGradient><radialGradient id="Безымянный_градиент_12" cx="-2293.51" cy="-997.24" r="2.86" gradientTransform="matrix(-0.06, -1, 1, -0.06, 903.05, -2306.99)" gradientUnits="userSpaceOnUse"><stop offset="0" stop-color="#3a12b3"/><stop offset="0.13" stop-color="#2f0f91"/><stop offset="0.34" stop-color="#1e095e"/><stop offset="0.54" stop-color="#110535"/><stop offset="0.73" stop-color="#080218"/><stop offset="0.89" stop-color="#020106"/><stop offset="1"/></radialGradient><radialGradient id="Безымянный_градиент_12-2" cx="-2281.49" cy="-992.63" r="2.86" xlink:href="#Безымянный_градиент_12"/><radialGradient id="Безымянный_градиент_12-3" cx="-2316.51" cy="-997.01" r="2.86" xlink:href="#Безымянный_градиент_12"/><radialGradient id="Безымянный_градиент_12-4" cx="-2279.42" cy="-1007.98" r="8" xlink:href="#Безымянный_градиент_12"/><radialGradient id="Безымянный_градиент_12-5" cx="-2347.06" cy="-847.48" r="8" xlink:href="#Безымянный_градиент_12"/><radialGradient id="Безымянный_градиент_12-6" cx="-2341.52" cy="-806.03" r="3.82" xlink:href="#Безымянный_градиент_12"/><radialGradient id="Безымянный_градиент_12-7" cx="-2337.58" cy="-988.83" r="3.82" xlink:href="#Безымянный_градиент_12"/><radialGradient id="Безымянный_градиент_12-8" cx="-2327.96" cy="-878.45" r="1.91" xlink:href="#Безымянный_градиент_12"/><radialGradient id="Безымянный_градиент_12-9" cx="-2343.72" cy="-1023.31" r="1.91" xlink:href="#Безымянный_градиент_12"/><radialGradient id="Безымянный_градиент_12-10" cx="-2314.17" cy="-967.75" r="1.91" xlink:href="#Безымянный_градиент_12"/><radialGradient id="Безымянный_градиент_12-11" cx="-2342.05" cy="-996" r="1.42" xlink:href="#Безымянный_градиент_12"/><radialGradient id="Безымянный_градиент_12-12" cx="-2353.32" cy="-897.39" r="2.99" xlink:href="#Безымянный_градиент_12"/><radialGradient id="Безымянный_градиент_12-13" cx="-2351.72" cy="-960.32" r="2.99" xlink:href="#Безымянный_градиент_12"/></defs><g class="cls-1"><g id="Слой_2" data-name="Слой 2"><g id="Слой_1-2" data-name="Слой 1"><path class="cls-2" d="M249.61,110a5.45,5.45,0,0,1-.78.72c-22.19,18.11-214.47,17.48-241.24,1.19a6.89,6.89,0,0,1-2.8-2.67C-4.71,89.49.45,30,15.53,17.12c16.19-13.79,209.59-20,229.59-2.49C259.79,27.49,266.78,92,249.61,110Z"/><path class="cls-3" d="M4.79,105.35c9.15,19.07,226,20.6,244.82.77,17.16-18,10.18-82.54-4.49-95.4-20-17.53-213.4-11.29-229.59,2.5C.44,26.09-4.7,85.57,4.79,105.35Z"/><path class="cls-4" d="M13.67,98.85s29.27,15.67,119.44,15.67S237.76,98.85,237.76,98.85Z"/><path class="cls-5" d="M248.83,98.84v11.9c-22.19,18.11-214.47,17.48-241.24,1.19l.56-3.57,5.51-9.52L244.85,88.1Z"/><path class="cls-6" d="M11.56,96.69c8.31,17.32,209.68,22.19,226.82,4.18,15.58-16.36,9.24-74.94-4.08-86.62C216.15-1.66,37.22,9.51,22.53,22,8.83,33.72,2.94,78.74,11.56,96.69Z"/><path class="cls-7" d="M12.23,93.63c8.28,16.7,208.45,17.9,225.53.54,15.52-15.78,9.41-68-3.86-79.22-18.08-15.34-196.34-4.57-211,7.51C9.27,33.72,3.64,76.33,12.23,93.63Z"/><path class="cls-8" d="M14.72,92.16c8.1,16.2,203.94,17.36,220.65.51,15.19-15.31,9.22-65.94-3.77-76.87C213.91.91,39.5,11.37,25.18,23.09,11.82,34,6.32,75.36,14.72,92.16Z"/><path class="cls-9" d="M24.67,23.16s136.56-27.69,207.41-7.1a54.85,54.85,0,0,1,9.08,20.12s-25.81,9.23-62.26,10.89-74.54-18.94-105.31-22S24.67,23.16,24.67,23.16Z"/><path class="cls-10" d="M231.4,93S140.05,109.08,25,94.88c0,0,74.72,6.47,108,0C189.44,83.88,216.56,80.62,231.4,93Z"/><path class="cls-4" d="M19.56,30.17a21.51,21.51,0,0,1,9.5-9c6.65-3.15,25.57-6.31,26.65-5.51s-9.22,4.53-14.55,6.48S22.27,31.67,19.56,30.17Z"/><path class="cls-4" d="M19,31.74c-1.37.21-4.79,10.82-4.58,12.57s4.31-3.78,4.95-6.71A12.12,12.12,0,0,0,19,31.74Z"/><path class="cls-11" d="M44.13,39a2.86,2.86,0,1,1-2.69,3A2.86,2.86,0,0,1,44.13,39Z"/><path class="cls-12" d="M44.47,41a.8.8,0,0,1,.84.75.79.79,0,0,1-1.58.09A.79.79,0,0,1,44.47,41Z"/><path class="cls-13" d="M48,26.7a2.86,2.86,0,1,1-2.68,3A2.86,2.86,0,0,1,48,26.7Z"/><path class="cls-12" d="M48.36,28.75a.79.79,0,0,1,.84.74.8.8,0,0,1-1.59.09A.79.79,0,0,1,48.36,28.75Z"/><path class="cls-14" d="M45.72,61.92a2.86,2.86,0,1,1-2.68,3A2.86,2.86,0,0,1,45.72,61.92Z"/><path class="cls-12" d="M46.07,64a.79.79,0,0,1,.09,1.58A.79.79,0,1,1,46.07,64Z"/><path class="cls-15" d="M32.26,20.41a8,8,0,1,1-7.51,8.47A8,8,0,0,1,32.26,20.41Z"/><path class="cls-12" d="M33.23,26.15a2.22,2.22,0,1,1-2.08,2.35A2.21,2.21,0,0,1,33.23,26.15Z"/><path class="cls-16" d="M196.5,78.37A8,8,0,1,1,189,86.83,8,8,0,0,1,196.5,78.37Z"/><path class="cls-12" d="M197.46,84.11a2.21,2.21,0,1,1-2.08,2.34A2.22,2.22,0,0,1,197.46,84.11Z"/><path class="cls-17" d="M237.79,74.54a3.82,3.82,0,1,1-3.59,4A3.81,3.81,0,0,1,237.79,74.54Z"/><path class="cls-12" d="M238.25,77.28a1.06,1.06,0,1,1-1,1.12A1.05,1.05,0,0,1,238.25,77.28Z"/><path class="cls-18" d="M55.09,81.5a3.82,3.82,0,1,1-3.59,4A3.81,3.81,0,0,1,55.09,81.5Z"/><path class="cls-12" d="M55.55,84.24a1.07,1.07,0,0,1,1.12,1,1.06,1.06,0,1,1-1.12-1Z"/><path class="cls-19" d="M164.81,67.22a1.91,1.91,0,1,1-1.79,2A1.91,1.91,0,0,1,164.81,67.22Z"/><path class="cls-12" d="M165,68.59a.54.54,0,0,1,.56.5.53.53,0,0,1-.49.56.52.52,0,0,1-.56-.5A.53.53,0,0,1,165,68.59Z"/><path class="cls-20" d="M21.15,91.59a1.91,1.91,0,1,1-1.79,2A1.92,1.92,0,0,1,21.15,91.59Z"/><path class="cls-12" d="M21.39,93a.52.52,0,0,1,.55.5.53.53,0,0,1-.49.56.53.53,0,0,1-.56-.5A.53.53,0,0,1,21.39,93Z"/><path class="cls-21" d="M74.85,58.79a1.91,1.91,0,1,1-1.79,2A1.9,1.9,0,0,1,74.85,58.79Z"/><path class="cls-12" d="M75.08,60.16a.53.53,0,0,1,.56.49.53.53,0,1,1-.56-.49Z"/><path class="cls-22" d="M48.34,88.78A1.42,1.42,0,1,1,47,90.28,1.42,1.42,0,0,1,48.34,88.78Z"/><path class="cls-12" d="M48.51,89.8a.39.39,0,0,1,.42.37.4.4,0,0,1-.37.42.41.41,0,0,1-.42-.37A.4.4,0,0,1,48.51,89.8Z"/><path class="cls-23" d="M147.35,92.6a3,3,0,1,1-2.8,3.16A3,3,0,0,1,147.35,92.6Z"/><path class="cls-12" d="M147.71,94.74a.83.83,0,0,1,.1,1.65.83.83,0,1,1-.1-1.65Z"/><path class="cls-24" d="M84.44,94.75a3,3,0,1,1-2.8,3.16A3,3,0,0,1,84.44,94.75Z"/><path class="cls-12" d="M84.8,96.89a.83.83,0,1,1-.78.87A.83.83,0,0,1,84.8,96.89Z"/><path class="cls-4" d="M228.93,97.54c-1-1.71,7.5-9.47,9.64-9.44s.24,5.11-1.06,6.3S229.4,98.39,228.93,97.54Z"/><g class="cls-25"><path class="cls-26" d="M102.35,74.49a17.26,17.26,0,0,1-.53,4.5,12.93,12.93,0,0,1-1.4,3.31,9.47,9.47,0,0,1-1.93,2.27A10.15,10.15,0,0,1,96.3,86a9.69,9.69,0,0,1-2.14.73,9,9,0,0,1-1.77.21c-.26,0-.62,0-1.07,0a13,13,0,0,1-1.56-.21,19.09,19.09,0,0,1-1.93-.47,14.18,14.18,0,0,1-2.22-.86L86,77.15a12.05,12.05,0,0,0,3.43,2.18,7.57,7.57,0,0,0,2.54.55,3.47,3.47,0,0,0,3-1.46,6.49,6.49,0,0,0,1-3.8,9.59,9.59,0,0,0-.76-3.49A15,15,0,0,0,92.52,67l-2.76-3.24a29.28,29.28,0,0,1-2.6-3.61A20.39,20.39,0,0,1,85.25,56a14.72,14.72,0,0,1-.75-4.77,16,16,0,0,1,.89-5.61,11.43,11.43,0,0,1,2.39-3.93,9.58,9.58,0,0,1,3.42-2.32,10.9,10.9,0,0,1,4-.76,15.11,15.11,0,0,1,3.78.5,17.91,17.91,0,0,1,3.88,1.54l-.61,8.18a8,8,0,0,0-1.77-1.7,7.87,7.87,0,0,0-1.79-1,6.72,6.72,0,0,0-1.59-.42,8.6,8.6,0,0,0-1.21-.1,3.39,3.39,0,0,0-1.74.47,4.21,4.21,0,0,0-1.36,1.27,6.31,6.31,0,0,0-.9,1.88,8.17,8.17,0,0,0-.32,2.29,7,7,0,0,0,.79,3.34,18.28,18.28,0,0,0,2,3c.8,1,1.66,2,2.58,3a24.25,24.25,0,0,1,2.58,3.47,19.65,19.65,0,0,1,2,4.41A19,19,0,0,1,102.35,74.49Z"/><path class="cls-26" d="M122.08,46.16c-.69,0-1.48-.08-2.38-.1s-1.86,0-2.87,0c-.16,2-.28,4.09-.38,6.25s-.17,4.33-.24,6.55-.11,4.45-.13,6.69,0,4.45,0,6.64c0,2.48,0,4.89,0,7.22s.1,4.57.21,6.73h-6.92q.3-5.52.46-11.75T110,61.8q0-4.12-.1-8c-.06-2.62-.13-5.17-.19-7.66-1,0-2,0-3,0s-1.76,0-2.49.09l.06-6.78c.78.07,1.66.11,2.63.15l3.07.08,3.29,0h6.38q1.44,0,2.58-.06Z"/><path class="cls-26" d="M138.12,86.24c-.11-1.49-.22-3-.31-4.51s-.21-3-.34-4.58L134.71,77c-.89-.07-1.79-.1-2.69-.1h-.43c-.1,1.56-.2,3.09-.29,4.61s-.16,3-.23,4.51L123,85.85q2-11.58,3.63-23.11t2.76-23.23l9.77.16q1.23,11.58,3,23t4.08,23Zm-3.8-38.56c-.43,4-.85,8-1.23,11.92s-.75,7.95-1.07,12c.45,0,.91.07,1.39.07H137q-.55-6-1.23-12T134.32,47.68Z"/><path class="cls-26" d="M167.29,53.27a23.9,23.9,0,0,1-.4,4.36,18.3,18.3,0,0,1-1.32,4.22,17.17,17.17,0,0,1-2.33,3.8,15.41,15.41,0,0,1-3.51,3.13,97.53,97.53,0,0,0,4,8.91,79.16,79.16,0,0,0,4.88,8.23l-8.11.45L155,70.69q.13,4,.33,7.86c.13,2.59.29,5.16.48,7.69h-7.91q.51-7.36.76-14.73t.24-14.84c0-2.87,0-5.75-.06-8.61s-.13-5.76-.26-8.68a17.44,17.44,0,0,1,3.48-.69c1.18-.1,2.18-.16,3-.16a15.22,15.22,0,0,1,2.12.18,11.13,11.13,0,0,1,2.62.73A12.57,12.57,0,0,1,162.51,41a10.27,10.27,0,0,1,2.4,2.64,15.24,15.24,0,0,1,1.72,4A21,21,0,0,1,167.29,53.27ZM154.93,65.44a6.34,6.34,0,0,0,2-1A7.66,7.66,0,0,0,158.43,63a9.56,9.56,0,0,0,1.09-1.72,14.4,14.4,0,0,0,.73-1.82,18.37,18.37,0,0,0,.75-4.61s0-.31,0-.8a14.87,14.87,0,0,0-.18-1.83c-.11-.74-.26-1.54-.47-2.4a12.2,12.2,0,0,0-.89-2.52A8.4,8.4,0,0,0,158,45.18a5.15,5.15,0,0,0-2.21-1.33q-.39,5.1-.6,10.15t-.21,10.17Z"/><path class="cls-26" d="M187,46.16c-.69,0-1.49-.08-2.38-.1s-1.86,0-2.88,0q-.22,3-.37,6.25t-.24,6.55q-.1,3.33-.13,6.69c0,2.24,0,4.45,0,6.64q0,3.72.05,7.22c0,2.32.11,4.57.21,6.73h-6.91q.3-5.52.45-11.75t.17-12.56q0-4.12-.1-8t-.19-7.66c-1,0-2,0-3,0s-1.76,0-2.5.09l.07-6.78c.78.07,1.65.11,2.63.15l3.06.08,3.3,0h6.38q1.44,0,2.58-.06Z"/></g></g></g></g></svg>