<svg xmlns="http://www.w3.org/2000/svg" xmlns:xlink="http://www.w3.org/1999/xlink" viewBox="0 0 157.34 130.57" preserveAspectRatio="none"><defs><style>.cls-1{isolation:isolate;}.cls-2{fill:url(#Безымянный_градиент_163);}.cls-3{fill:url(#Безымянный_градиент_160);}.cls-4{fill:url(#Безымянный_градиент_169);}.cls-10,.cls-11,.cls-12,.cls-13,.cls-14,.cls-15,.cls-17,.cls-5,.cls-6,.cls-8,.cls-9{mix-blend-mode:screen;}.cls-5{fill:url(#Безымянный_градиент_155);}.cls-6{fill:url(#Безымянный_градиент_168);}.cls-7{fill:#ffffab;}.cls-8{fill:url(#Безымянный_градиент_168-2);}.cls-9{fill:url(#Безымянный_градиент_168-3);}.cls-10{fill:url(#Безымянный_градиент_168-4);}.cls-11{fill:url(#Безымянный_градиент_168-5);}.cls-12{fill:url(#Безымянный_градиент_168-6);}.cls-13{fill:url(#Безымянный_градиент_168-7);}.cls-14{fill:url(#Безымянный_градиент_168-8);}.cls-15{fill:url(#Безымянный_градиент_168-9);}.cls-16{fill:#fff;}.cls-17{fill:url(#Безымянный_градиент_172);}.cls-18{fill:#1d6eff;}</style><radialGradient id="Безымянный_градиент_163" cx="5949.07" cy="183.29" r="133.31" gradientTransform="matrix(-0.46, 0, 0, 1.2, 2786.6, -98.73)" gradientUnits="userSpaceOnUse"><stop offset="0" stop-color="#ffbd00"/><stop offset="1" stop-color="#ff772c"/></radialGradient><linearGradient id="Безымянный_градиент_160" x1="3414.68" y1="123.71" x2="3414.68" y2="1.21" gradientTransform="matrix(-1, 0, 0, 1, 3493.34, 0)" gradientUnits="userSpaceOnUse"><stop offset="0" stop-color="#fff300"/><stop offset="1" stop-color="#ff9700"/></linearGradient><linearGradient id="Безымянный_градиент_169" x1="3414.68" y1="121.41" x2="3414.68" y2="2.53" gradientTransform="matrix(-1, 0, 0, 1, 3493.34, 0)" gradientUnits="userSpaceOnUse"><stop offset="0" stop-color="#fc0"/><stop offset="1" stop-color="#ff9700"/></linearGradient><linearGradient id="Безымянный_градиент_155" x1="-1177.69" y1="106.71" x2="-1036.09" y2="106.71" gradientTransform="translate(1185.24)" gradientUnits="userSpaceOnUse"><stop offset="0" stop-color="#ff6140"/><stop offset="0.1" stop-color="#ef5b3c"/><stop offset="0.29" stop-color="#c54b31"/><stop offset="0.55" stop-color="#813120"/><stop offset="0.88" stop-color="#240e09"/><stop offset="1"/></linearGradient><radialGradient id="Безымянный_градиент_168" cx="2922.03" cy="3829.97" r="3.2" gradientTransform="matrix(0.05, -1.2, -0.85, -0.07, 3241.22, 3817.94)" gradientUnits="userSpaceOnUse"><stop offset="0" stop-color="#00b359"/><stop offset="0.13" stop-color="#009148"/><stop offset="0.34" stop-color="#005e2f"/><stop offset="0.54" stop-color="#00351a"/><stop offset="0.73" stop-color="#00180c"/><stop offset="0.89" stop-color="#000603"/><stop offset="1"/></radialGradient><radialGradient id="Безымянный_градиент_168-2" cx="2935.48" cy="3835.13" r="3.2" xlink:href="#Безымянный_градиент_168"/><radialGradient id="Безымянный_градиент_168-3" cx="2896.31" cy="3830.22" r="3.2" xlink:href="#Безымянный_градиент_168"/><radialGradient id="Безымянный_градиент_168-4" cx="2937.79" cy="3817.96" r="8.95" xlink:href="#Безымянный_градиент_168"/><radialGradient id="Безымянный_градиент_168-5" cx="2872.75" cy="3839.38" r="4.27" xlink:href="#Безымянный_градиент_168"/><radialGradient id="Безымянный_градиент_168-6" cx="2865.88" cy="3800.82" r="2.14" xlink:href="#Безымянный_градиент_168"/><radialGradient id="Безымянный_градиент_168-7" cx="2898.92" cy="3862.95" r="2.14" xlink:href="#Безымянный_градиент_168"/><radialGradient id="Безымянный_градиент_168-8" cx="2867.75" cy="3831.36" r="1.59" xlink:href="#Безымянный_градиент_168"/><radialGradient id="Безымянный_градиент_168-9" cx="2865.84" cy="3856.15" r="3.34" xlink:href="#Безымянный_градиент_168"/><linearGradient id="Безымянный_градиент_172" x1="3344.03" y1="29.21" x2="3490.36" y2="29.21" gradientTransform="matrix(-1, 0, 0, 1, 3493.34, 0)" gradientUnits="userSpaceOnUse"><stop offset="0" stop-color="#ff9840"/><stop offset="0.1" stop-color="#ef8e3c"/><stop offset="0.29" stop-color="#c57531"/><stop offset="0.55" stop-color="#814d20"/><stop offset="0.88" stop-color="#241609"/><stop offset="1"/></linearGradient></defs><g class="cls-1"><g id="Слой_2" data-name="Слой 2"><g id="Слой_1-2" data-name="Слой 1"><path class="cls-2" d="M155.45,111.39c-3.89,21.36-143.15,27.37-151.17,5.16C-3,96.36,0,24.1,6.19,9.7c8.5-19.64,137.25-5.85,144.12,9.6C156.73,33.71,159.48,89.25,155.45,111.39Z"/><path class="cls-3" d="M155.14,107.62c-3.88,20.59-142.57,22.07-150.57.65C-2.7,88.81.16,24.45,6.37,10.56c8.47-18.93,136.91-5.64,143.76,9.26C156.52,33.71,159.15,86.27,155.14,107.62Z"/><path class="cls-4" d="M154,105.79c-3.79,20-140.46,21.42-148.28.64C-1.42,87.54,1.37,25.09,7.45,11.61c8.29-18.37,134.92-5.48,141.62,9C155.33,34.07,157.9,85.07,154,105.79Z"/><path class="cls-5" d="M7.55,106.81s87.75,19.86,141.6,2.34c0,0-35,8-50.55,0C72.18,95.58,14.49,91.56,7.55,106.81Z"/><path class="cls-6" d="M124,38c-1.5-.12-2.8,1.49-2.89,3.61s1.06,3.93,2.57,4.06,2.8-1.49,2.89-3.6S125.49,38.09,124,38Z"/><path class="cls-7" d="M123.66,40.72c-.42,0-.78.41-.81,1s.3,1.09.71,1.12.78-.41.81-1S124.07,40.75,123.66,40.72Z"/><path class="cls-8" d="M120.27,21.48c-1.5-.13-2.8,1.49-2.89,3.6S118.44,29,120,29.15s2.8-1.49,2.89-3.61S121.78,21.61,120.27,21.48Z"/><path class="cls-7" d="M119.94,24.23c-.41,0-.77.42-.8,1s.3,1.09.71,1.13.78-.41.8-1S120.36,24.27,119.94,24.23Z"/><path class="cls-9" d="M122.46,68.78c-1.5-.13-2.8,1.48-2.89,3.6s1.06,3.94,2.57,4.06,2.8-1.48,2.89-3.6S124,68.9,122.46,68.78Z"/><path class="cls-7" d="M122.13,71.53c-.41,0-.77.41-.8,1s.3,1.09.71,1.12.78-.41.8-1A1,1,0,0,0,122.13,71.53Z"/><ellipse class="cls-10" cx="134.87" cy="23.77" rx="7.65" ry="10.75"/><path class="cls-7" d="M134.4,20.75c-1.17-.1-2.17,1.15-2.24,2.79s.82,3.05,2,3.15,2.17-1.15,2.24-2.79S135.57,20.85,134.4,20.75Z"/><path class="cls-11" d="M113.51,95.07c-2-.17-3.74,2-3.86,4.82s1.41,5.26,3.43,5.43,3.74-2,3.86-4.82S115.52,95.24,113.51,95.07Z"/><path class="cls-7" d="M113.07,98.75c-.56,0-1,.55-1.07,1.34s.39,1.45,1,1.5,1-.55,1.07-1.33S113.63,98.8,113.07,98.75Z"/><path class="cls-12" d="M145.94,108.62c-1-.08-1.88,1-1.94,2.41s.71,2.63,1.72,2.71,1.87-1,1.93-2.4S146.94,108.71,145.94,108.62Z"/><path class="cls-7" d="M145.71,110.46c-.27,0-.51.28-.53.67s.2.73.47.75.52-.27.54-.67A.67.67,0,0,0,145.71,110.46Z"/><path class="cls-13" d="M94.63,64.57c-1-.08-1.87,1-1.93,2.41s.7,2.63,1.71,2.71,1.87-1,1.93-2.4S95.64,64.66,94.63,64.57Z"/><path class="cls-7" d="M94.41,66.41c-.28,0-.52.28-.54.67s.2.73.48.75.52-.28.53-.67S94.69,66.43,94.41,66.41Z"/><path class="cls-14" d="M120,104.84c-.75-.06-1.4.74-1.44,1.8s.53,2,1.28,2,1.39-.74,1.44-1.79S120.71,104.91,120,104.84Z"/><path class="cls-7" d="M119.79,106.21c-.2,0-.38.21-.39.5a.49.49,0,0,0,.35.56c.21,0,.39-.2.4-.49S120,106.23,119.79,106.21Z"/><path class="cls-15" d="M98.81,103.27c-1.57-.13-2.92,1.55-3,3.76s1.11,4.11,2.68,4.24,2.92-1.55,3-3.76S100.38,103.4,98.81,103.27Z"/><path class="cls-7" d="M98.46,106.15c-.43,0-.8.43-.83,1s.31,1.14.74,1.17.81-.43.84-1S98.9,106.18,98.46,106.15Z"/><path class="cls-16" d="M10.06,110.65c.48-2.29-3.82-12.71-4.92-12.67s-.12,6.86.55,8.45S9.81,111.79,10.06,110.65Z"/><path class="cls-17" d="M149.31,20.69S40.39-13.47,7.23,11.93A134.49,134.49,0,0,0,3,36.74S13.47,53.92,33.31,55.82c17.08,1.65,78.7-29,93.1-32.8S149.31,20.69,149.31,20.69Z"/><path class="cls-16" d="M149.31,24.36S146.8,17.1,141,13.21s-14.84-2.42-15.79-1.44,1.54,3.58,6.21,6S146.93,26.21,149.31,24.36Z"/><path class="cls-16" d="M149,26.3c1.2.25,4.2,13.34,4,15.49s-3.78-4.65-4.35-8.26A20.94,20.94,0,0,1,149,26.3Z"/><path class="cls-18" d="M61.47,26.47s17.7,6.87,42.84,36.69a113.06,113.06,0,0,1-42.84,35.1l-5.62-9.1s17-12.12,27.68-26.8c0,0-7.18-15.55-25.55-26.68Z"/></g></g></g></svg>
