<svg xmlns="http://www.w3.org/2000/svg" xmlns:xlink="http://www.w3.org/1999/xlink" viewBox="0 0 48.28 52.3" preserveAspectRatio="none"><defs><style>.cls-1{isolation:isolate;}.cls-2{fill:url(#Безымянный_градиент_163);}.cls-3{fill:url(#Безымянный_градиент_240);}.cls-15,.cls-4{mix-blend-mode:screen;}.cls-4{fill:url(#Безымянный_градиент_172);}.cls-5{fill:url(#Безымянный_градиент_163-2);}.cls-6{fill:url(#Безымянный_градиент_169);}.cls-7{fill:url(#Безымянный_градиент_163-3);}.cls-8{fill:url(#Безымянный_градиент_247);}.cls-9{fill:url(#Безымянный_градиент_163-4);}.cls-10{fill:url(#Безымянный_градиент_247-2);}.cls-11{fill:url(#Безымянный_градиент_163-5);}.cls-12{fill:url(#Безымянный_градиент_247-3);}.cls-13{fill:url(#Безымянный_градиент_163-6);}.cls-14{fill:url(#Безымянный_градиент_247-4);}.cls-15{fill:url(#Безымянный_градиент_172-2);}.cls-16{fill:#fff;}</style><radialGradient id="Безымянный_градиент_163" cx="-1132.65" cy="221.74" r="22.79" gradientTransform="matrix(0.85, -0.53, 0.53, 0.85, 868.49, -755.66)" gradientUnits="userSpaceOnUse"><stop offset="0" stop-color="#ffbd00"/><stop offset="1" stop-color="#ff772c"/></radialGradient><linearGradient id="Безымянный_градиент_240" x1="-1125.63" y1="247.8" x2="-1125.63" y2="195.66" gradientTransform="translate(1152.77 -197.5)" gradientUnits="userSpaceOnUse"><stop offset="0" stop-color="#fc0"/><stop offset="1" stop-color="#ffbd00"/></linearGradient><linearGradient id="Безымянный_градиент_172" x1="-1141.91" y1="219.96" x2="-1110.51" y2="219.96" gradientTransform="matrix(0.85, -0.53, 0.53, 0.85, 868.49, -755.66)" gradientUnits="userSpaceOnUse"><stop offset="0" stop-color="#ff9840"/><stop offset="0.1" stop-color="#ef8e3c"/><stop offset="0.29" stop-color="#c57531"/><stop offset="0.55" stop-color="#814d20"/><stop offset="0.88" stop-color="#241609"/><stop offset="1"/></linearGradient><radialGradient id="Безымянный_градиент_163-2" cx="-1125.64" cy="221.73" r="16.06" xlink:href="#Безымянный_градиент_163"/><linearGradient id="Безымянный_градиент_169" x1="-1126.49" y1="240.08" x2="-1126.49" y2="203.39" gradientTransform="matrix(0.85, -0.53, 0.53, 0.85, 868.49, -755.66)" gradientUnits="userSpaceOnUse"><stop offset="0" stop-color="#fc0"/><stop offset="1" stop-color="#ff9700"/></linearGradient><radialGradient id="Безымянный_градиент_163-3" cx="-3071.03" cy="-2160.71" r="2.1" gradientTransform="matrix(-0.5, -0.87, 0.74, -0.43, 115.83, -3566.38)" xlink:href="#Безымянный_градиент_163"/><linearGradient id="Безымянный_градиент_247" x1="-3072.83" y1="-2160.95" x2="-3069.23" y2="-2161.09" gradientTransform="matrix(-0.5, -0.87, 0.74, -0.43, 115.83, -3566.38)" gradientUnits="userSpaceOnUse"><stop offset="0" stop-color="#00fff4"/><stop offset="1" stop-color="#30a7fb"/></linearGradient><radialGradient id="Безымянный_градиент_163-4" cx="-3049.56" cy="-2179.57" r="2.1" gradientTransform="matrix(-0.5, -0.87, 0.74, -0.43, 115.83, -3566.38)" xlink:href="#Безымянный_градиент_163"/><linearGradient id="Безымянный_градиент_247-2" x1="-3051.36" y1="-2179.81" x2="-3047.77" y2="-2179.95" xlink:href="#Безымянный_градиент_247"/><radialGradient id="Безымянный_градиент_163-5" cx="-3093.04" cy="-2177.92" r="2.1" gradientTransform="matrix(-0.5, -0.87, 0.74, -0.43, 115.83, -3566.38)" xlink:href="#Безымянный_градиент_163"/><linearGradient id="Безымянный_градиент_247-3" x1="-3094.84" y1="-2178.16" x2="-3091.25" y2="-2178.3" xlink:href="#Безымянный_градиент_247"/><radialGradient id="Безымянный_градиент_163-6" cx="-3072.08" cy="-2198.57" r="2.1" gradientTransform="matrix(-0.5, -0.87, 0.74, -0.43, 115.83, -3566.38)" xlink:href="#Безымянный_градиент_163"/><linearGradient id="Безымянный_градиент_247-4" x1="-3073.87" y1="-2198.8" x2="-3070.28" y2="-2198.94" xlink:href="#Безымянный_градиент_247"/><linearGradient id="Безымянный_градиент_172-2" x1="-1148.83" y1="202.75" x2="-1132.65" y2="202.75" xlink:href="#Безымянный_градиент_172"/></defs><g class="cls-1"><g id="Слой_2" data-name="Слой 2"><g id="Слой_1-2" data-name="Слой 1"><path class="cls-2" d="M37.26,18.07c7,11.31,10,22.59,2.9,28.85-.59.52-4.59,2.83-5.27,3.25-8.88,5.48-22.2,0-29.76-12.26S-1.37,11.29,7.5,5.81c.56-.34,5.39-3.43,6-3.69C22.28-1.74,30.18,6.59,37.26,18.07Z"/><ellipse class="cls-3" cx="27.17" cy="24.3" rx="18.88" ry="26.07" transform="translate(-8.72 17.89) rotate(-31.69)"/><path class="cls-4" d="M6.28,21.46,47.71,36.34l.53-6.69L8.89,6.72S5.38,11.57,6.28,21.46Z"/><path class="cls-5" d="M38.51,17.31C43.84,26,43.09,36.09,36.83,40c-.23.14-.47.27-.7.38-6.23,3.19-15.16-.7-20.3-9s-4.62-18,1-22.17c.22-.17.46-.33.7-.48C23.78,4.79,33.17,8.67,38.51,17.31Z"/><path class="cls-6" d="M37,18.21c5.12,8.29,4.65,17.95-.91,22.13-6.23,3.19-15.16-.7-20.3-9s-4.62-18,1-22.17C23,6,31.92,9.91,37,18.21Z"/><path class="cls-7" d="M40.37,14.43a2,2,0,0,1,2.6.93,2,2,0,0,1-.51,2.72,2,2,0,0,1-2.61-.93A2,2,0,0,1,40.37,14.43Z"/><path class="cls-8" d="M40.29,14.82a1.69,1.69,0,0,1,2.23.8,1.56,1.56,0,1,1-2.67,1.53A1.7,1.7,0,0,1,40.29,14.82Z"/><path class="cls-9" d="M15.71,3.82a2,2,0,0,1,2.6.93,2,2,0,0,1-.51,2.72,2,2,0,0,1-2.61-.93A2,2,0,0,1,15.71,3.82Z"/><path class="cls-10" d="M15.63,4.22A1.69,1.69,0,0,1,17.86,5a1.69,1.69,0,0,1-.44,2.33,1.69,1.69,0,0,1-2.23-.8A1.69,1.69,0,0,1,15.63,4.22Z"/><path class="cls-11" d="M38.56,40.84a2.13,2.13,0,0,1,2.09,3.65,2.13,2.13,0,0,1-2.09-3.65Z"/><path class="cls-12" d="M38.48,41.23A1.82,1.82,0,1,1,38,43.56,1.69,1.69,0,0,1,38.48,41.23Z"/><path class="cls-13" d="M12.82,31.43a2,2,0,0,1,2.61.93,2,2,0,0,1-.51,2.72,2,2,0,0,1-2.61-.93A2,2,0,0,1,12.82,31.43Z"/><path class="cls-14" d="M12.75,31.82a1.82,1.82,0,0,1,1.79,3.12,1.82,1.82,0,0,1-1.79-3.12Z"/><path class="cls-15" d="M.39,25.09l5.89-3.63s-1.52-6,2-14.37L2.59,11S-1.2,18.75.39,25.09Z"/><path class="cls-16" d="M6.1,18.94c.08.64,2.91-4.34,2.76-6.64S8.54,8.44,8,8.47,5.6,15,6.1,18.94Z"/><path class="cls-16" d="M47.14,36.34c-1.29,1.37,0-4.87.56-5S48.31,35.09,47.14,36.34Z"/></g></g></g></svg>
