<svg xmlns="http://www.w3.org/2000/svg" xmlns:xlink="http://www.w3.org/1999/xlink" viewBox="0 0 255.71 365.08" preserveAspectRatio="none"><defs><style>.cls-1{fill:#fff;}.cls-2{fill:none;}.cls-3{clip-path:url(#clip-path);}.cls-4{fill:#fbea00;}.cls-5{clip-path:url(#clip-path-2);}.cls-6{fill:#c4a286;}.cls-7{fill:#dfc5a0;}.cls-8{fill:#716360;}.cls-9{fill:#5e5351;}.cls-10{fill:#231f20;}.cls-11{fill:url(#Безымянный_градиент_26);}.cls-12{fill:#d0d2d3;}.cls-13{fill:#4b7fbb;}.cls-14{fill:#444445;}.cls-15{fill:#404041;}.cls-16{fill:#bfd8f0;}</style><clipPath id="clip-path"><path class="cls-1" d="M.26,140.77c3.59-54.42,28-107.8,86-121.16.74-.17,4.22-4.75,5-4.9C102,12.44,104.75-.68,117.9,0c7.11.38,10,1.81,17.62,5.61,3.62,1.82,9.85.42,13.4,2.56,1.41.85,3.46,4.37,4.85,5.23,3.43,2.14,9.18,1.14,12.38,3.19,5.45,3.49,9.52,11.94,13.91,14.08,41.38,20.16,66.17,59,67.89,98.67,0,.17.23,20.13.17,20.76-5.56,65.54-58.64,108.76-123.75,114.75C50.56,271.67-4.26,209.16.26,140.77Z"/></clipPath><clipPath id="clip-path-2"><path class="cls-2" d="M4.44,140.77A120,120,0,0,1,70.62,33.46c2.5-1.26,7.92-9.88,10.51-11,14.23-5.94,24.22-20.56,40.6-20.56,16.19,0,28.67,9.25,42.76,15.07,5.85,2.4,17.17,18,22.51,21.26A120.7,120.7,0,0,1,219.59,67.5c.12.16.5.08.5.08s3.78-.07,5.82,2.11a5.23,5.23,0,0,1,1,3.16,12.52,12.52,0,0,1,2.88.43,4.9,4.9,0,0,1,2.18,1.89c.62.72.14,2.3.14,2.3a10.07,10.07,0,0,1,2.49.43,3.52,3.52,0,0,1,2,2.68c.08.69.48,1.25-2.92,5.46-.16.2-1.33,1.8-1.21,2A119.31,119.31,0,0,1,244,129.74c0,.08.49,4.62.53,8.93.05,5.39-.34,10.81-.37,11.15A120,120,0,0,1,190.56,241c-7.47,4.93,9.95,15,.11,21.23-15.15,9.67-58.49,15.06-73.28,15.06-20.21,0-45.46-7.78-60.26-20.93-6.89-6.13,3.09-14.07-.82-16.77A119.92,119.92,0,0,1,4.44,140.77Z"/></clipPath><linearGradient id="Безымянный_градиент_26" x1="2121.49" y1="-111.5" x2="2131.68" y2="-111.5" gradientTransform="matrix(-0.96, 0.27, 0.27, 0.96, 2196.57, -387.3)" gradientUnits="userSpaceOnUse"><stop offset="0" stop-color="#c7652b"/><stop offset="0.61" stop-color="#e58d27"/><stop offset="0.93" stop-color="#f19c26"/><stop offset="1" stop-color="#f19c26"/></linearGradient></defs><g id="Слой_2" data-name="Слой 2"><g id="Слой_1-2" data-name="Слой 1"><path class="cls-1" d="M.26,140.77c3.59-54.42,28-107.8,86-121.16.74-.17,4.22-4.75,5-4.9C102,12.44,104.75-.68,117.9,0c7.11.38,10,1.81,17.62,5.61,3.62,1.82,9.85.42,13.4,2.56,1.41.85,3.46,4.37,4.85,5.23,3.43,2.14,9.18,1.14,12.38,3.19,5.45,3.49,9.52,11.94,13.91,14.08,41.38,20.16,66.17,59,67.89,98.67,0,.17.23,20.13.17,20.76-5.56,65.54-58.64,108.76-123.75,114.75C50.56,271.67-4.26,209.16.26,140.77Z"/><g class="cls-3"><path class="cls-1" d="M59.89,273.25s-2.37-.95-2.85,4.5,3.32,11.62,7.83,10.67,5.69-3.08,5.69-3.08l-1.9-18s-5.21,1.06-6.16,3.37A3.78,3.78,0,0,1,59.89,273.25Z"/><path class="cls-1" d="M229.09,208.15s-3.09,24.37-7.37,28.15-15.84,1.9-22.26.76-14.55-6.82-9.84,2.65,14.92,21.21,15,35.62c.05,11.82-3,26.14-9,34.1s-2.73,18.32-5.29,26.66,1.18,13.28,1.18,13.28,17.79,16.84-2.84,15.65c-9-.52-28.15-.29-32.86-.29s-7.14-6-2-10.55,3.66-22.15,2.84-30.42c-2.08-21-11.14-23-11.14-23l-24,7.53s-18.84,11.37-22.26,18.95-15,27-15,27-6.85,6.44-9.84,7.57-17.13,2.66-23.55,2.66-19.65-1.75-15.41-13.64c4.81-13.52,15.66-9.42,19.52-12.45S70.74,301.47,72,300s2-7.24-.16-14.44-7.25-22.31-7.25-22.31-3.85,1.51-10.27-6.07-12-9.85-9-26.52,3.43-29.17,10.7-37.51,16.7-17.05,20.55-17.43,13.27-4.17,29.54,0,45.38,4.17,55.22,4.17,13.27,2.65,18,7.2,10.28,8.33,19.27,4.55,4.49-12.25,13-18.31,19.78,2.09,21.92,5.5Z"/><path class="cls-1" d="M164.7,361.29c-6.55-.16-7.47-6.41-6-10s18.49,1.06,7.11-4.81c-10.73-5.53-3-22.78-4.62-26.79-5.22-13.05,5.46-14,11.2-18.22,6.09-4.45-19.28-2.09-5.16-6.74,15.76-4.95,10.14-4.8-7.82-2.14-19.21,2.85-39.81,3.53-49.27,2.94-10.89-.69-38.95-4.27-21.34-.62.39.14,23.51,4.68,15.24,5.81-9.44,1.28-21.82-.83-15.42,2s12.45,3.56,7.83,7.47S71,326.78,80.58,326.43s18.56-2,14.94,4.44c-2.56,4.54-12.53,21-19.39,24-6,2.67-11.74,2.86-17.07,3.21s-8.54-6.4-10-3.55-8.54,2.84-8.89,1.06-6.76-2.13-5.34.36-1.78,6.68,10.32,7.47,26.67.71,30.94,1.07,14.71-1.07,15.77-6.76,13.88-31.72,18.74-35.05c12.45-8.54,21.75-16.82,28.15-16.82s10.41-6.55,11.51,3.59c1.24,11.56,3,28.17,2.31,32.44s-1.37,9.34-2.11,13.72-2.51,8.07,6.38,8.76,14.94-1.08,19.56-.36S172,361.46,164.7,361.29Z"/><path class="cls-1" d="M200.28,260.44s1.42,6.05,0,11-6.41,10.67-11,13.16-11.18,8.89-3.63,6.05,8.58.58,3.63,7.47c-11.27,15.65-1.92,28.69-8.66,32.72-7.78,4.66,5.48-1.82,5.63,10.85.1,7.55-9.24,7.65-5,7.29,16-1.33,19.82,16.81,16.55,10.18s-5.94-14.8-4.63-32.23c1.21-16.1,7.12-23.48,10.32-34.86S206,277.16,200.28,260.44Z"/><path class="cls-1" d="M59.06,341.37A8,8,0,0,0,55.74,340c-2.06-.36-4.73,0-3.64-.4,3.88-1.5,6.62-11.19,8-14C63.61,318.08,72,300,72,300a35.59,35.59,0,0,0-.64-11.74,87.2,87.2,0,0,1-2.67-15.66c-.34-5,28.12.75,22.9,8.51C87.69,286.88,73,288.76,74,292.45a23.94,23.94,0,0,0,3.52,7.77c.71,1.48-3.57,2.67-8.9,11.92-2.41,4.17-5.87,12.51-3.55,17.67C67.7,335.6,59.13,327.85,59.06,341.37Z"/><path class="cls-1" d="M73.82,173.65l2.67-2.37L102.57,182l75.89-15.65,11.86-.48-2.72,3.8s-23.84,7.59-24.79,8.06-27,33-27.62,33.67-21.47,31.31-21.47,31.31l-8.78,6.16L77.91,191Z"/><path class="cls-1" d="M179.35,161.27c1.18,0,3.65.62,6.27.62C183,161.9,180.57,161.27,179.35,161.27Z"/><path class="cls-1" d="M116.26,50.8a1.09,1.09,0,0,1-.73.17,1.06,1.06,0,0,0,.67-.18c3.06-2,5.54-3.39,9.16-3C121.78,47.42,119.31,48.8,116.26,50.8Z"/><path class="cls-1" d="M133.3,52.53c2.15.19,5.94-.78,7.33-.65h0C139.22,51.77,135.43,52.74,133.3,52.53Z"/><path class="cls-1" d="M186.08,149.32c.59,5.19,2.85,17.26-1.1,17.57a145.88,145.88,0,0,0-20.28,2.73c-14.12,6.34-21.5,18.73-52.39,17.71C97,186.82,81.62,175,81.87,175c-5.67-3.12-9.72-3.44-10.39-4-4.74-4.21-5.86-6.07-9.83-11.12-4.88-6.21-3.89-35.57-1.53-41.11,3-7.13.56-11.35.66-12.41.33-3.85.77-7.67,1.43-11.47,1.1-6.32,2.36-13.79,7.12-17.83a79.44,79.44,0,0,0,9-9c.33-.53,1.23-3.21,2.62-4.43,2.14-1.88,6-2.75,6.71-3.39,6.61-6,14.83-12.67,21.88-12.68,2.32,0,5.21,4.43,6.91,3.31,3.26-2.14,5.87-3.57,9.89-2.94,2.35.37,4.07,2.82,6,4.31,1.41,1.1,6.83-.44,8.56-.29C149,52.64,152,57.12,153,58.1a8.39,8.39,0,0,1,1.32,1.41c3.39,5.75,6.13,1,11.89,3,3.29,1.18,6.66,2.9,8.57,5.93,6.87,10.9,7.6,5.59,9.87,12,1.45,4.11-2.55,9.88-1.63,13.24,1.22,4.47,7.52,7,8.24,11,1.39,7.7.69,15.07-.81,22.78C189,134.49,185.26,142.2,186.08,149.32Z"/><path class="cls-1" d="M77.12,69.85a40.21,40.21,0,0,1-4.88.54c-2.53.12-6.21,1-11.57,6S45.77,91.46,43.61,94s-6.8,9.18-2.44,14.34,8.61,10,9.2,12.8S50.42,131,53,131.86s9.18-6.22,9.23-17.46c0-1.91-1.44-17.08,2.48-28.2C68.3,76.08,77.12,69.85,77.12,69.85Z"/><path class="cls-1" d="M213.91,111.14c-9-16.74-15.19-21.59-19.74-25.73s-9.57-6.4-9.58-4-1.4,5.1-1.63,8.7.54,5.22,3.36,9.14,5.32,7,5.38,12.46-1.71,18.05-3.79,27.81-3,13.94-3,13.94-5,14.23,9.66,4.32c10.45-7,12.82-14.58,17.81-17.87C222.52,133.23,220.14,122.69,213.91,111.14Z"/><path class="cls-1" d="M198.61,96.25s-3.42-8.49-7.14-9-7.83.88-7,3.88,11.48,11.17,13.85,15.54,3.46,8,3.3,15.92-6.42,16.57-3.28,19.06,6.93.55,8.24-.43c9.86-7.43,11.79-4.78,3.57-.07-4.76,2.72-12.34,11.26-14.18,12.44-5,3.2-3.81-5-2.73-8.93s3.37-16.09,3.78-19.14-1.62-8.92-3.42-.19-4,16.63-5.61,26.57,5,5.51,7.41,4.5-.7.85-3.8,2.91-7.51,4-7.39-1.29,2.57-6.85,2.25-12.35c-.39-6.77-2.24-10.12.26-24.2,2.56-14.43-4.12-20.31-3.21-26.08.15-1-1.22-2.61.07-7.4a19.26,19.26,0,0,0,.81-7.54,18.5,18.5,0,0,1,9.81,4.93c2.58,2.72,9.72,7.82,20.32,23.62,3.75,5.58,4.78,15.54,4.63,17.51-.31,3.9-12.47,17.93-12-6.29.34-17.58-7.28-26.48-6.38-23.34S201.39,107,198.61,96.25Z"/><path class="cls-1" d="M75.32,71.07s-5.15,5.33-7.36,7S63.84,82.47,63,88s-2.6,12.58-2.43,14.33-1.08,4.3-2.18,7-4.62,10.08-3.63,6.57,5.33-16.44,2.75-13-3.48,12.55-8.15,7-7-11.43-3.78-12.52,9.13-6.7,8.09-8.14-3.83.47-4.58.88,3.23-5.54,7.39-9.6,10-9.23,14-9.73S77.05,69.32,75.32,71.07Z"/><path class="cls-1" d="M108,91a116.46,116.46,0,0,1,18.14,11.46c3.38,2.67,11.73,6.37,17.5,14,7.62,10.11,12.79,25.13,16.32,34.19,8.15,20.93-11,28.53-28.38,30.95-12.11,1.69-21.47,3.74-31.54,1.63-14.74-3.08-34.24-14.84-38.24-28.1-3-10,4.37-26.06,9.62-37.54C78.27,102.55,84.52,89.77,108,91Z"/><path class="cls-1" d="M78.93,116.92s4.72-7.13,6.76-5.9c1.28.77,1,3.54,3.91,4.91,10.44,4.83,9.4,19.14,11.81,19.21,2.85.08-2-15.86,4.77-15.32,6.39.5,13.19-4.32,14.47-7.07,7.49-16,26.27,4.69,24.83,20.14-1.12,12-12.5,25.73-9.51,33.1s14.36,12.55,21,7c5.17-4.3,9-16.43,5-24.59-2.45-5-.64-17.49-13.33-33.11-5.48-6.75-13.16-9.6-19.7-12.61-8.87-4.08-11.76-12.16-26.18-12-6.14,0-16.9,4.57-20.51,9.7S65.75,128,62.69,138.12c-5.37,17.82,6.25,23.83,9.08,24.67C97.92,170.55,66.52,132.53,78.93,116.92Z"/><path class="cls-1" d="M63.19,98.35c.07,3.77-.4,7,1,8.93,2.31,3.23-2.05,13-.57,12.43,1-.38,5.17-7.28,4.36-4.73-7.14,22.5-1.25,6.4-1.25,6.4s6.84-11.62,11.37-19.85C81.72,95,85.92,94.7,94,89.24c3.77-2.56,12.76-3.61,18.72-2.1,7,1.78,14.39,9.77,21.07,13.43,6.84,3.75,16.93,7,21.37,14.17,7.91,12.71,9.75,18.49,10.91,14.09,1.06-4-10.17-19,7-6.12.55.41,11.31,5.74,7.77,3.34-20.79-14.14-10-12.06-4.73-9.67,8.62,3.89,4.26.33-2.26-3-3.45-1.79-15.66-14.08-1.81-13.35,3.53.19,6.52,7.34,9.07,11.77,7,12.12-.08-3.57-3.93-11.83-1.71-3.66-7.28-4.39-13.74-8.46-6.66-4.2-9.3-11.4-19.55-10.1-9.16,1.17-5.78,4.62-6.46,11.88-.46,4.81-7.6-4.06-6.34-10.28.33-1.62.05-2.63,1.48-4.74,3.51-5.19,7.19-6,12.07-6.28s11.19,3.74,14.58,7.48,16.53,10.34,17.92,10.41c2.27.12-6.3-2.91-10.12-6.78s-7.32-9.82-16-11.75C144.92,70,139.46,70,135.4,72.55c-5.14,3.28-6.75,9.68-6.75,9.68a7.2,7.2,0,0,1-2.31,3.21c-1.17.73-1.38.38-2.19.07a21.41,21.41,0,0,1-4.68-2.25c-.65-.76-2-4-1.09-10.3,1.08-7.27,4.11-10.95,9.31-12.26s7.13-2,8.84-3.47c2.23-1.88,2.59-3,6.67-1.74s8.19,2.91,8.19,2.91,1,0,.59-.88c-.67-1.33-3.5-3.87-8.65-5.23-4.3-1.14-5.15.14-6.87.41s-5.36-1.38-4.58.89c.94,2.71-2.22,4.37-4.75,4.93a30.77,30.77,0,0,0-4.72,1.56c-1.61.67-3.07,1.44-3.94.25s-2.42-3-2-4.77c.3-1.39-.69-2.92,1.27-4.15a6.78,6.78,0,0,0,2.49-2.85c-1.51.45-4,2.69-4.87,2.37-2.88-1-1.55-2.77-7-3.1-.34,0-3.24.44-3.54.47-1.35.28,5.33-.29,7.62,2.41,1,1.17-.5,2,.36,6,.4,1.82,1.14,3.24,1.54,5.13.88,4.19.11,6.56-1.19,11.92-.66,2.72-1.12,5.59-4.08,7.07-3.45-.1-6.93-.26-10.45,1-7.65,2.64-2.44-3-10.18-5.78-5.83-2.07-13.71-1.08-10.16-.51,3.94.63,14.87,5.39,2.38,3.23-4-.69-8.44,1.1-13.14,4.73C62.33,87.37,63.13,95.56,63.19,98.35Zm40.08-22.67c-2,0-1.16-4.71-1.52-8s-3.15-3.48-5.82-4-4.6,1.93-8,3a56.65,56.65,0,0,0-10.53,4.87s-1.75-.09.8-2.91c1-1.18,1.18-3.16,1.77-4.22s7.15,1,12.17-1.7c2.45-1.33,7.44-2.39,10.05.12C106.55,67.07,106.28,75.72,103.27,75.68Z"/><path class="cls-1" d="M104.72,110.9c6.41,3,6.26-17.33.74-14.39-3.33,1.77-2.14-1.38,1.86-1.85,2.51-.29,6.85,1.48,7.81,5.36.81,3.22-.62,10,1.77,4.4a7.69,7.69,0,0,0-3.11-9.56c-5.73-2.62-7.8-3.32-10.92-3.12-5.65.37-9,1.35-11.53,3.49-1.5,1.28-2.82,7-1.49,7.84.67.44,1.34-7.07,4.87-8.18,5.85-1.85,6.34,2.81,1.87,2.27-4-.49-6,6.93-3.9,12A2.68,2.68,0,0,0,97,110.27C98.59,109,100.66,109,104.72,110.9Z"/><path class="cls-1" d="M142.57,96.94c.73-.94,8.09,2.29,10.82,3.52,2.18,1,4.91,3.67,6.88,7.55C168.53,124.19,141.76,98,142.57,96.94Z"/><path class="cls-1" d="M85.67,87.86c.7-2.11-.59-2.46-1.83-3.73-2.39-2.44-5.93-1.95-7.63-1.72-.63.09-10.1,1.55-12.15,9.37s4.9,16.31,7.77,15.6c.62-.16-.06-.78,1.67-4.62A27.58,27.58,0,0,1,78,95.29C82.33,90.8,84.74,90.69,85.67,87.86Z"/><path class="cls-1" d="M81,88s-4-5.2-11.08-1.72-6,13.44-3.28,16.33-1-3,0-7.41c1.19-5.54,4.56-6.92,7.72-7.63S82.12,89.3,81,88Z"/><ellipse class="cls-1" cx="72.32" cy="99.57" rx="2.01" ry="1.87" transform="translate(-32.6 163.88) rotate(-85.51)"/><path class="cls-1" d="M137.59,97s3.69-1.5,16.23,7c9.5,6.43,9.74,12.18,9.74,12.18Z"/><path class="cls-1" d="M185.09,162.11c-.21-6.54,1.2-14,2.07-18.67s-1.89-8.7-3.22-.25-1.58,21.77-4.37,22.93-1.94-13.27-4.83-7.41-5.31,6.21-8.43,7.65c-6.18,2.83-5.07,4.13-10.68,7.2a54.2,54.2,0,0,1-11.36,4.49c-8.93,2.45-5,6.06,3.54,1.56,8.18-4.29,12.3-7.23,15.83-8.81,6.19-2.77,12.47-2.33,14.76-2.67S185.34,170.09,185.09,162.11Z"/><path class="cls-1" d="M143.23,88.83c.52-2.1,1.69-3.44,4.5-2.86a17.49,17.49,0,0,1,7.55,3.8c2.35,2,5.5,6,1.5,3.69C149.61,89.33,142.7,90.93,143.23,88.83Z"/><path class="cls-1" d="M129.16,131.61c-.16-1.82-.61-6-2.09-5.16-1.12.63-.47,8.56-10.12,15.26-4.15,2.89-15.2,2.73-20.79,1.23-3.09-.84-.68,2.88.38,4.31,4.52,6.06,19.57,9.74,25.39,3.77C126.4,146.44,129.77,138.46,129.16,131.61Z"/><path class="cls-1" d="M120.68,148.78c1.59,1.34,2.65,2-2.13,4.48-2.56,1.33-7.65,1.89-8.83.16-1.62-2.37,4.38-1.18,6.06-2.1C118.67,149.76,118.34,146.82,120.68,148.78Z"/><path class="cls-1" d="M103.23,143.85a33.84,33.84,0,0,0,13-1.84,25.44,25.44,0,0,1-13.84,3.55c-6.41-.14-7.56-2.72-7.56-2.72S96.48,143.32,103.23,143.85Z"/><path class="cls-1" d="M121.9,156c-4.21,3.59-9.7,5.3-16-.19-.87-.75,3,3.31,4,3.88a10.54,10.54,0,0,0,14.6-4.21C131.17,142.47,125,153.4,121.9,156Z"/><path class="cls-1" d="M113,189.77s4,5.69,5.45,10,1.42,7.59,4.63,3.32,16.71-15.41,3.67,1.43S109,232.22,108.5,241,163,181.75,163,181.75l10.13-12.87s-20.09,6-26.25,12.36-24.43,19.68-25.38,18.49S113,189.77,113,189.77Z"/><path class="cls-1" d="M111.94,189.3s-4.24-.48-6.21,2.84-6,10.91-6,10.91L84.55,192.62l-12.09-21.2s.91-.58,5.72,2.32c6.34,3.81,3.29,11.29,9.69,17.22s10.91,6.88,10.91,6.88S104.94,187.88,111.94,189.3Z"/><path class="cls-1" d="M114.88,228.22s-3.34-18.5-2.11-18.53c3.61-.08,6.17.79,5.69-5.21s-2.17-13.89-5.45-14.71c-4.06-1-7.28,1.13-11.15,5.69-4.19,5-4.5,7.88-2.84,9.87s3.55,2.23,3.55,3.65-2.91,5.93-3.94,10.44-2.22,7.11-.56,10.19,7.66,12.81,7.66,12.81l5.38-1.19Z"/><path class="cls-1" d="M104.94,279.65s11.62,3.56,30.83,4,41.93-2,41.93-2,10.48-3.74,12.62-2.76,2.84,3.59-1.07,5.72,3.67,4.74,7.94-2.61,5-16.6,4.27-19.68-88.93,5.93-97.7,9.72S104.94,279.65,104.94,279.65Z"/><path class="cls-1" d="M236.6,194.53c-2.57-1-5.34-1.54-8-2.28l-16.94-4.71c-5.64-1.57-5.58-.9-8.1-2.78-1.08-.8-3.41-.52-4.6-1.74-10.08-10.32-15.18-15.77-27.73-13.7-2.08-.37-8.39,2.91-12.37,5.36-17.93,11-38.51,40.7-49.66,64.77-1,2.15-14.39-12.8-20.27-32.37-1.76-5.83-5.46-23.32-9.39-28-4.21-5-7.91-9.46-9.81-9.87-6-1.28-12.17-1.81-24.52,14.72-7.09,9.48-20.44,21.16-23.44,30.69-1.81,5.77,15.3,23.59,14.72,29.61-.68,7,5.45,6.79,8.61,13.13a34.41,34.41,0,0,0,12.75,13.76c2.28,1.4,6.11.41,7.11-2.22,1.18,5,.82,9.43,3.51,15,1.36,2.8.87,6.32,3.72,5.3l34.36-12.41c2.25-.81,5.28-2.25,7.27-2.28,2.6,0,5.29,1,7.87,1.49a143,143,0,0,0,18.22,2.36c5.92.42,11.85.54,17.78.59a154.7,154.7,0,0,0,16.82-.32c5.82-.59,11.41-2,16.34-5.31A57.59,57.59,0,0,0,197.6,268c2.1-1.89,4.63-3.84,5.48-6.66a7.24,7.24,0,0,0-.29-4.85,4.78,4.78,0,0,0,0-.76c-.18-9.17-9-13.92-5.58-11.84,13,7.83,26.33,1.23,33.44-26.14C232.05,212.5,240.59,196,236.6,194.53Z"/><path class="cls-1" d="M213,185.59s-8-3.93-4.77-8.41c0,0,.57-1-3.58-4.48s-10.22-11.08-9.2-19.8,3.76-10.66,8.3-9.12c2.71.92,4.68,3.93,3.95,6.63s-1.26,5.9-.1,7.1,5.16-.82,6.74-2.62,4.31-5.61,2.17-10.73c0,0-1.37-1.7-2.71-.76a6.81,6.81,0,0,1-9.12-1.73c-3.92-4.84,2.39-9.2,5.51-11.15s10.23-4.44,13.94-.83,3.55,5.46,3.55,5.46a47.51,47.51,0,0,1,4.56-5.43c1.41-1.37,4.33-4.67,12.05-2.7,3.83,1,5.26,4.39,4.7,5.66-.36.81,2,.33,3.08.71,2.88,1,5.4,3.86,2.18,7.79a55.52,55.52,0,0,0-9.07,15.19c-1.07,3-1.24,12.81-7.5,17.68s-4,5.72-4,5.72,1,4.41-4.12,6.49S218.48,187.11,213,185.59Z"/><path class="cls-1" d="M199.36,165.44s4.22,5.09,8.21,6.86,6,3.38,5.61,2.11-2.28-4.25,1.25-1.81,6.65,4.08,11.16,2.85,10.28-4.27,13-8.86,2.4-7.42,2.12-8.89.21.11,2.15-2.75,10.94-14.85,10.89-17,2.92-1.76,1.45,1.3c-1.15,2.42-4.91,6.59-7.69,12a45.09,45.09,0,0,0-3,7.91s-.81,6-2.89,9.91-8.86,7.94-8,10.69-2.39,7.28-9.17,7.64-14.24-2.2-8.48-1.35,9.53-.89,11.43-2.39,0-2.16-2.3-2.32-3.93-1.12-.54-1.51-6.17-.53-10.4-1.34-9.49-5.22-12.78-8.62S196.3,162,199.36,165.44Z"/><path class="cls-1" d="M249.13,132.88s.05-5.9-6.94-.38c-4.33,3.43-6.46,7.75-8.29,12.65-2,5.48-1,7.27-2.69,6.34s-5.17-2.48-7-2.44-5.05,1.12-1.13,1.43a33.82,33.82,0,0,1,10.82,3.13c2.26,1.14,4.49,1,2.31-.71-1.27-1-1.76-3.26.7-8.92s5.09-8.39,5.75-8.9C246.08,132.45,247.08,133.33,249.13,132.88Z"/><path class="cls-1" d="M223.53,141.33s3.5-5.46,1-9.19-2.72-4.17-.48-2.45,5.06,3.77,2.37,7.64C224.72,139.83,220.24,150.4,223.53,141.33Z"/><path class="cls-1" d="M217,140c-.71,1.53-3.47,3.08-8.74,2.25-3.64-.57-2.09,1.23-1.07,1.55a8.5,8.5,0,0,0,3.69.61,9.67,9.67,0,0,0,3.5-1.27c-.35.15.44-.11,1.23.3s1.18,1.67,1.18,1.67a4,4,0,0,1-.07-2.79C218.68,137.91,218,137.81,217,140Z"/><path class="cls-1" d="M205.7,153.86c-3.56,4.49,2.46,5.62,4.4,6.55s2.6.46.48-1.54-3.85-2.84-3.09-6.51c.35-1.68.89-5.42-1.2-6.83-.31-.2.71,1.36.61,3.3S206.82,152.45,205.7,153.86Z"/><path class="cls-1" d="M233,196.41s1.2,5.34-6.87,14.94-11.29,18.5-7.9,16,3,4-2.66,8.21-10.31,6.79-18.85,1.78-11.74-8.21-15.3-11.06-6.4-2.49,0,4.27,6,11.09,1.06,8.57-13.15-1.1-3.9,3.88,18.14,11.38,14.23,11.38-11.39,1.07-5.34,4.27,8.69,5.34-4.55,10.32-15.37,7.47-29.95,7.11-17.05,2.66,2.25,2.61,22,1.72,33.8-4.23,14.58-11.42,14.58-11.42,2.37-2.37-.24-5.45-4.27-4.27-3.56-5.7,9.75,4.31,6.85,2.35-6.37-9.22-1.63-8,11.43-1.35,15.32-6,11.56-24.07,14.36-32.95,5.51-12.47,1.9-12.72S233,194.57,233,196.41Z"/><path class="cls-1" d="M195.06,178c-2.85-2.38-6.17-4.15-6.17-5.34s.33-8.9-4-7.5c-6.91,2.22-13.62,4.12-13.62,4.12s4.59-2,7.34,3.14c1.89,3.56-6.5,9.06-6.5,9.06.07-1-3.79,3.63.21,3,4.45-.67,13.76-10.32,20.16-2.55,4.44,5.38-2,19.19-2.59,20.68-1.27,3.53-7.18,11.48-9.5,15.78-3.09,5.69,8.55-8.34,10.46-10.67-.43,1.2-.76,2.12-1,2.63-1.32,3.41-9.15,19.06-3.1,11.59s7.24-2.31,7.71,2.76,6.87,20.37,4.38,5.78-2.49-25.25-.71-20.63,2.49,3.06,2.49-10.67c0-6.8,4.7-13.75,2.94-14.5C197.84,182.36,197,179.67,195.06,178Z"/><path class="cls-1" d="M172.29,184.56l-.21-3A11,11,0,0,0,172.29,184.56Z"/><path class="cls-1" d="M169.45,186.93l-19.92,10.19,2.68,9.25s-38.49,33.44-38.49,36.29-3.56,9.48.47,7.82,5.69-2.84,8.54-.71,5.62,5.93,2.33,9.49-5,3.08,0,4.5,4.52,2.37-1.51,2.14-19.55-.53-4.38,2.11,2.37,3.34,2.37,3.34-.1,2.13,13.65,3.56,6.51,2.13-2,1.89-18.73-3.55-18.73-3.55a15.79,15.79,0,0,1-8.06-15.18c.71-10.91.95-13.52,4.74-16.84s38.42-38.18,38.42-38.18l-1.66-7.35,20.39-11.85S178.46,175.55,169.45,186.93Z"/><path class="cls-1" d="M135.54,241.71s3.08.71,14.22,0a74.94,74.94,0,0,0,19-3.56s.94,9,.94,11.86-3.79,3.55-4-1.66-5,1.18-5-1.9S151,244.79,146,246s-16.6.78-8.06-.8S127,241.94,135.54,241.71Z"/><path class="cls-1" d="M57.16,213.79c-1.43,5.35-3.52,15.85-3.77,21.21-1.45,31.24-11.52,23.2-9.63,29.6S64.18,289.68,65.15,292s-2.2,10.08,4.69,7.6l22.83-8.24c8.54-3.09,21.63-9.39,12.21-6.78s-26.25,7.35-29.09,7.35-5-2.61,1.66-4,3.2-3.11-4-4-14.79-17.08-9.1-17.31a60.61,60.61,0,0,0,13.76-1.9c4.74-1.19,12.57-5.93,3.56-3.56s-14.25,6.4-15.9,1.19S63.46,253,62.74,244s-3.32-22.06.72-12.69,9,17.91,5.21,6.52-10.2-19.42-3.79-18c6.72,1.47,7.06.88,2-1.25C59.22,215.38,60,203.12,57.16,213.79Z"/><path class="cls-1" d="M73.17,180.05s-.48,14.47-1,17.07-.47,4.51,2.61,3.8,3.87,3.08,2.29,9.25,4.35,16.36,9.21,20.87,19.4,9.72,19.4,9.72-21.18-11.38-25.21-23.24,1.19-18.26-.24-18.74-7.59.72-5.93-5.92,1.15-16.2.29-18.17C70,164.05,60.48,168.51,56,171.83s-11.72,14.85-19.35,22.34c-11,10.76-18.58,23-17.16,33.65s28.56,35.94,33.3,39,10,7.91,10.91,2.14-4,.47-10.67-11.86-34.65-29.43-24.28-43.19c14.58-19.35,14.94-25.71,31.2-39.42C63.91,171.15,73.32,176,73.17,180.05Z"/><path class="cls-1" d="M108.5,211.26s1.67,8.31,1.78,11c.45,10.76-1.07,17.16-1.07,17.16l4.16-8.72S109.74,204.06,108.5,211.26Z"/><path class="cls-1" d="M203.57,184.76l.39-4.53s11.2,2.39,17.18,3.51,17.2,1.29,17.2,1.29l-2.85,9.25s-21.26-6-26.41-7A13.71,13.71,0,0,1,203.57,184.76Z"/><path class="cls-1" d="M234.11,181.52S239,183,238.34,185l-2.85,9.25-20.81-5.87s-2.75-1.78,4.18,0,13,.67,13.87-.51-1.95-2.42.27-2.69Z"/><path class="cls-1" d="M112.77,194.45s3.08,8.6,1.78,10.14-3.08,3-.59,2,2.13-5.81,1.3-8.66S112.41,190.71,112.77,194.45Z"/></g><circle class="cls-4" cx="124.88" cy="139.85" r="120.71"/><g class="cls-5"><path class="cls-6" d="M76.19,184.51s-1.89-.76-2.27,3.59,2.65,9.25,6.24,8.5,4.53-2.46,4.53-2.46l-1.51-14.36s-4.16.85-4.91,2.69A3,3,0,0,1,76.19,184.51Z"/><path class="cls-7" d="M211,132.65s-2.46,19.41-5.87,22.43-12.61,1.51-17.73.6-11.59-5.43-7.84,2.11,11.89,16.89,11.93,28.38c0,9.41-2.38,20.82-7.16,27.16s-2.17,14.6-4.22,21.24.95,10.58.95,10.58,14.17,13.41-2.27,12.47c-7.21-.42-22.42-.23-26.18-.23s-5.68-4.78-1.59-8.41,2.92-17.64,2.27-24.23c-1.66-16.76-8.88-18.33-8.88-18.33l-19.08,6s-15,9-17.73,15.09-11.93,21.53-11.93,21.53-5.46,5.13-7.85,6-13.64,2.11-18.75,2.11-15.66-1.39-12.28-10.87c3.83-10.76,12.48-7.5,15.55-9.91S84.83,207,85.86,205.79s1.57-5.77-.13-11.51S80,176.51,80,176.51s-3.07,1.21-8.18-4.83-9.55-7.85-7.16-21.13,2.73-23.24,8.52-29.88,13.3-13.59,16.37-13.89,10.57-3.32,23.53,0,36.15,3.32,44,3.32,10.57,2.12,14.32,5.74,8.19,6.64,15.35,3.62,3.57-9.75,10.4-14.58,15.76,1.66,17.46,4.38Z"/><path class="cls-6" d="M159.69,254.64c-5.22-.12-5.95-5.1-4.82-7.93s14.74.85,5.67-3.83c-8.55-4.41-2.4-18.14-3.68-21.34-4.16-10.4,4.35-11.18,8.92-14.52,4.85-3.54-15.36-1.66-4.11-5.37,12.55-3.94,8.08-3.82-6.23-1.7-15.3,2.27-31.71,2.81-39.25,2.34-8.68-.55-31-3.4-17-.5.31.12,18.73,3.73,12.14,4.63-7.52,1-17.38-.66-12.28,1.61s9.92,2.83,6.23,5.95S85,227.16,92.67,226.87s14.79-1.56,11.9,3.54c-2,3.62-10,16.72-15.44,19.13-4.82,2.13-9.35,2.28-13.6,2.56s-6.8-5.1-7.94-2.83-6.8,2.26-7.08.85-5.39-1.7-4.25.28-1.42,5.33,8.22,6,21.25.57,24.65.85,11.71-.85,12.56-5.38,11.06-25.27,14.93-27.92c9.92-6.8,17.32-13.41,22.42-13.41s8.3-5.21,9.17,2.87c1,9.21,2.41,22.44,1.85,25.84s-1.1,7.44-1.68,10.93-2,6.43,5.08,7,11.9-.87,15.58-.29S165.5,254.78,159.69,254.64Z"/><path class="cls-6" d="M188,174.31a20.39,20.39,0,0,1,0,8.78c-1.14,4-5.1,8.5-8.79,10.49s-8.9,7.08-2.89,4.81,6.84.47,2.89,6c-9,12.47-1.53,22.86-6.89,26.07-6.2,3.71,4.36-1.45,4.48,8.65.08,6-7.36,6.09-4,5.81,12.72-1.06,15.78,13.39,13.17,8.11s-4.72-11.8-3.68-25.68c1-12.83,5.67-18.71,8.22-27.77S192.56,187.62,188,174.31Z"/><path class="cls-6" d="M75.53,238.78a6.32,6.32,0,0,0-2.65-1.13c-1.64-.29-3.76,0-2.89-.32,3.08-1.19,5.27-8.92,6.33-11.15,2.84-6,9.54-20.39,9.54-20.39a28.41,28.41,0,0,0-.52-9.35A69.79,69.79,0,0,1,83.22,184c-.28-4,22.4.6,18.24,6.78-3.12,4.63-14.79,6.12-14,9.06a19.54,19.54,0,0,0,2.8,6.2c.57,1.18-2.83,2.12-7.08,9.49-1.92,3.32-4.68,10-2.84,14.07C82.41,234.18,75.58,228,75.53,238.78Z"/><path class="cls-1" d="M87.29,105.16l2.12-1.89,20.78,8.5,60.46-12.46,9.44-.38-2.16,3s-19,6-19.75,6.42-21.52,26.26-22,26.83-17.11,24.94-17.11,24.94l-7,4.91L90.55,119Z"/><path class="cls-7" d="M171.36,95.3c.94,0,2.9.5,5,.49C174.28,95.81,172.33,95.3,171.36,95.3Z"/><path class="cls-7" d="M121.1,7.29a.86.86,0,0,1-.58.14.83.83,0,0,0,.53-.14c2.44-1.6,4.42-2.7,7.3-2.42C125.49,4.6,123.52,5.7,121.1,7.29Z"/><path class="cls-7" d="M134.67,8.68c1.72.15,4.73-.63,5.84-.53h0C139.39,8.07,136.37,8.85,134.67,8.68Z"/><path class="cls-7" d="M176.71,85.78c.48,4.13,2.28,13.75-.87,14A118.11,118.11,0,0,0,159.69,102c-11.25,5-17.13,14.93-41.74,14.11-12.18-.4-24.45-9.81-24.25-9.82-4.52-2.49-7.75-2.74-8.27-3.21-3.78-3.36-4.67-4.84-7.84-8.86-3.88-4.94-3.09-28.33-1.22-32.75,2.41-5.68.45-9,.53-9.89.26-3.06.61-6.1,1.14-9.14.88-5,1.88-11,5.67-14.2A64.72,64.72,0,0,0,90.88,21c.25-.43,1-2.56,2.08-3.53,1.7-1.5,4.79-2.19,5.34-2.7,5.27-4.79,11.82-10.09,17.43-10.1,1.85,0,4.16,3.52,5.51,2.64,2.6-1.71,4.67-2.85,7.88-2.35,1.87.3,3.24,2.25,4.76,3.43,1.13.88,5.44-.35,6.82-.22,6.5.59,8.88,4.16,9.62,4.94a6.59,6.59,0,0,1,1.06,1.12c2.7,4.59,4.88.76,9.47,2.42,2.62.94,5.31,2.31,6.83,4.72,5.47,8.68,6,4.45,7.86,9.58,1.15,3.27-2,7.87-1.3,10.55,1,3.56,6,5.55,6.57,8.72,1.1,6.13.55,12-.65,18.14C179.07,74,176.06,80.11,176.71,85.78Z"/><path class="cls-8" d="M89.92,22.47a31.61,31.61,0,0,1-3.89.44c-2,.09-5,.77-9.22,4.78s-11.86,12-13.59,14S57.8,49,61.28,53.12s6.85,7.93,7.33,10.2,0,7.89,2.11,8.55S78,66.92,78.07,58c0-1.52-1.15-13.6,2-22.46C82.89,27.44,89.92,22.47,89.92,22.47Z"/><path class="cls-8" d="M198.89,55.37c-7.2-13.34-12.1-17.2-15.73-20.51s-7.62-5.09-7.63-3.17-1.11,4.06-1.3,6.93.43,4.16,2.68,7.28,4.24,5.6,4.28,9.93-1.36,14.37-3,22.16-2.41,11.1-2.41,11.1-4,11.33,7.69,3.44c8.33-5.61,10.22-11.61,14.2-14.23C205.75,73,203.85,64.57,198.89,55.37Z"/><path class="cls-9" d="M186.7,43.5S184,36.74,181,36.36s-6.24.7-5.61,3.09,9.15,8.9,11,12.37,2.75,6.35,2.63,12.69-5.12,13.2-2.62,15.18,5.53.45,6.56-.34c7.86-5.92,9.4-3.81,2.85-.06-3.79,2.18-9.83,9-11.29,9.92-4,2.55-3-4-2.18-7.12s2.69-12.81,3-15.24-1.29-7.11-2.72-.15-3.23,13.24-4.48,21.16,4,4.39,5.91,3.59-.56.67-3,2.32-6,3.2-5.89-1,2.05-5.46,1.8-9.84c-.32-5.4-1.79-8.07.2-19.28,2-11.5-3.27-16.18-2.56-20.78.13-.79-1-2.08.06-5.9a15.33,15.33,0,0,0,.65-6,14.77,14.77,0,0,1,7.81,3.92c2.06,2.17,7.75,6.24,16.19,18.82,3,4.45,3.81,12.39,3.69,13.95-.24,3.11-9.93,14.29-9.56-5,.28-14-5.79-21.09-5.07-18.59S188.92,52,186.7,43.5Z"/><path class="cls-9" d="M88.48,23.44s-4.1,4.25-5.86,5.61-3.29,3.47-3.93,7.86-2.08,10-2,11.41-.85,3.43-1.73,5.54-3.68,8-2.89,5.24S76.37,46,74.31,48.76s-2.77,10-6.49,5.57-5.6-9.1-3-10,7.28-5.33,6.45-6.48-3,.38-3.65.7,2.57-4.41,5.89-7.64,8-7.36,11.12-7.76S89.86,22.05,88.48,23.44Z"/><path class="cls-8" d="M114.48,39.33a92.32,92.32,0,0,1,14.46,9.13c2.69,2.13,9.34,5.08,13.94,11.17,6.07,8.06,10.18,20,13,27.24,6.49,16.68-8.77,22.74-22.61,24.66-9.65,1.34-17.11,3-25.12,1.3C96.4,110.37,80.86,101,77.68,90.45c-2.4-8,3.48-20.77,7.66-29.91C90.83,48.52,95.81,38.34,114.48,39.33Z"/><path class="cls-9" d="M91.36,60s3.76-5.68,5.39-4.7c1,.62.77,2.82,3.11,3.91,8.32,3.85,7.49,15.25,9.41,15.31,2.26.06-1.63-12.64,3.8-12.21,5.08.4,10.5-3.44,11.53-5.64,6-12.76,20.92,3.75,19.77,16-.89,9.53-10,20.5-7.57,26.37s11.44,10,16.76,5.58c4.12-3.42,7.14-13.08,3.95-19.58-1.95-4-.51-13.93-10.62-26.38-4.36-5.38-10.48-7.65-15.69-10-7.07-3.26-9.37-9.7-20.85-9.6-4.9,0-13.47,3.65-16.35,7.73s-13.14,22-15.58,30.09c-4.28,14.2,5,19,7.23,19.65C106.49,102.69,81.47,72.41,91.36,60Z"/><path class="cls-6" d="M78.82,45.18c.05,3-.32,5.55.8,7.11,1.85,2.57-1.63,10.34-.45,9.9.79-.3,4.12-5.8,3.47-3.77-5.69,17.93-1,5.1-1,5.1s5.44-9.25,9.06-15.81c2.87-5.21,6.21-5.44,12.62-9.79,3-2,10.16-2.88,14.91-1.67C123.81,37.67,129.7,44,135,47s13.49,5.6,17,11.28c6.3,10.13,7.76,14.73,8.69,11.23.84-3.2-8.1-15.16,5.55-4.88.44.33,9,4.57,6.19,2.66-16.56-11.26-8-9.61-3.77-7.7,6.87,3.1,3.39.26-1.8-2.42-2.75-1.42-12.48-11.21-1.44-10.63,2.82.15,5.19,5.85,7.23,9.38,5.54,9.65-.06-2.85-3.14-9.42-1.36-2.92-5.8-3.5-10.94-6.75-5.31-3.34-7.41-9.08-15.58-8-7.29.93-4.6,3.67-5.14,9.46-.36,3.84-6.05-3.23-5.05-8.19.26-1.29,0-2.09,1.17-3.78,2.8-4.13,5.74-4.78,9.62-5s8.92,3,11.62,5.95,13.17,8.24,14.27,8.3c1.81.09-5-2.33-8.06-5.4s-5.83-7.83-12.72-9.37c-4.82-1.07-9.17-1.08-12.41,1-4.09,2.61-5.37,7.7-5.37,7.7a5.79,5.79,0,0,1-1.84,2.56c-.93.59-1.1.3-1.75.06a17.46,17.46,0,0,1-3.73-1.79c-.51-.61-1.62-3.17-.87-8.21.86-5.79,3.28-8.72,7.42-9.76s5.68-1.61,7.05-2.77c1.77-1.5,2.06-2.42,5.31-1.39s6.52,2.32,6.52,2.32.82,0,.47-.7c-.53-1.06-2.78-3.08-6.89-4.17-3.42-.9-4.1.11-5.47.33s-4.27-1.1-3.65.7c.75,2.17-1.77,3.49-3.79,3.93A24.86,24.86,0,0,0,126,14.69c-1.28.53-2.45,1.15-3.14.2s-1.93-2.39-1.63-3.8c.23-1.11-.56-2.33,1-3.31a5.42,5.42,0,0,0,2-2.27c-1.2.36-3.14,2.14-3.88,1.89-2.3-.77-1.23-2.21-5.61-2.47-.27,0-2.58.35-2.82.37-1.07.23,4.25-.23,6.07,1.93.79.92-.4,1.61.29,4.74.31,1.46.91,2.58,1.22,4.09.71,3.34.09,5.23-.94,9.49-.53,2.17-.89,4.46-3.26,5.64-2.74-.08-5.51-.21-8.32.76-6.09,2.11-1.94-2.42-8.11-4.61-4.64-1.64-10.92-.86-8.09-.4,3.14.51,11.85,4.3,1.9,2.57-3.18-.55-6.73.88-10.47,3.78C78.13,36.43,78.77,43,78.82,45.18Zm31.93-18.06c-1.62,0-.93-3.76-1.21-6.37S107,18,104.9,17.59s-3.67,1.54-6.4,2.36a44.71,44.71,0,0,0-8.39,3.88s-1.39-.07.63-2.32c.84-.94.94-2.52,1.42-3.36s5.69.81,9.69-1.36c2-1,5.92-1.9,8,.1C113.36,20.26,113.14,27.15,110.75,27.12Z"/><path class="cls-10" d="M111.9,55.17c5.11,2.4,5-13.8.6-11.46-2.66,1.41-1.71-1.1,1.47-1.47,2-.24,5.46,1.17,6.23,4.26.64,2.58-.49,8,1.41,3.51a6.12,6.12,0,0,0-2.48-7.61c-4.57-2.09-6.21-2.65-8.7-2.49-4.5.3-7.18,1.08-9.18,2.78-1.2,1-2.25,5.56-1.2,6.25.54.35,1.08-5.63,3.89-6.52,4.65-1.48,5,2.24,1.49,1.81-3.19-.39-4.77,5.52-3.11,9.6a2.14,2.14,0,0,0,3.46.84C107,53.67,108.67,53.66,111.9,55.17Z"/><path class="cls-10" d="M142.06,44.06c.58-.76,6.44,1.81,8.62,2.8,1.73.78,3.91,2.92,5.48,6C162.74,65.76,141.41,44.9,142.06,44.06Z"/><path class="cls-10" d="M96.73,36.82c.55-1.68-.47-2-1.46-3-1.9-2-4.73-1.56-6.08-1.37-.5.07-8,1.24-9.68,7.46s3.91,13,6.19,12.43c.5-.12,0-.62,1.33-3.68a22.16,22.16,0,0,1,3.6-5.95C94.07,39.16,96,39.07,96.73,36.82Z"/><path class="cls-1" d="M93,36.89s-3.19-4.14-8.82-1.37-4.8,10.71-2.61,13-.76-2.41,0-5.9c1-4.42,3.64-5.51,6.16-6.08S93.9,38,93,36.89Z"/><ellipse class="cls-1" cx="86.09" cy="46.15" rx="1.6" ry="1.49" transform="matrix(0.08, -1, 1, 0.08, 33.35, 128.37)"/><path class="cls-6" d="M138.09,44.06S141,42.87,151,49.62c7.57,5.12,7.76,9.71,7.76,9.71Z"/><path class="cls-6" d="M175.93,96c-.17-5.21,1-11.14,1.65-14.87s-1.5-6.93-2.57-.2-1.25,17.34-3.48,18.27-1.54-10.58-3.85-5.91-4.23,4.95-6.71,6.09c-4.93,2.26-4,3.3-8.51,5.74a43,43,0,0,1-9.05,3.58c-7.11,2-4,4.82,2.82,1.24,6.52-3.41,9.8-5.76,12.61-7,4.93-2.21,9.93-1.86,11.76-2.13S176.13,102.33,175.93,96Z"/><path class="cls-7" d="M142.58,37.59c.41-1.67,1.35-2.74,3.59-2.28a13.87,13.87,0,0,1,6,3c1.87,1.57,4.39,4.78,1.2,2.94C147.66,38,142.16,39.26,142.58,37.59Z"/><path class="cls-10" d="M131.38,71.67c-.13-1.45-.49-4.76-1.67-4.11-.89.5-.38,6.82-8.06,12.16-3.31,2.3-12.11,2.18-16.56,1-2.47-.67-.55,2.29.3,3.43,3.6,4.83,15.59,7.76,20.23,3C129.18,83.49,131.86,77.13,131.38,71.67Z"/><path class="cls-11" d="M124.62,85.36c1.26,1.06,2.11,1.56-1.7,3.56-2,1.06-6.09,1.51-7,.13-1.29-1.89,3.48-.94,4.83-1.67C123,86.14,122.75,83.79,124.62,85.36Z"/><path class="cls-12" d="M110.71,81.42A27.08,27.08,0,0,0,121.06,80a20.23,20.23,0,0,1-11,2.83c-5.11-.12-6-2.17-6-2.17A44.07,44.07,0,0,0,110.71,81.42Z"/><path class="cls-10" d="M125.59,91.12c-3.35,2.86-7.72,4.22-12.78-.15A20.63,20.63,0,0,0,116,94.06a8.39,8.39,0,0,0,11.63-3.35C133,80.33,128,89,125.59,91.12Z"/><path class="cls-12" d="M118.51,118a39,39,0,0,1,4.34,7.93c1.13,3.4,1.13,6.05,3.69,2.65s13.31-12.28,2.92,1.13-14.17,22.1-14.54,29.09,43.45-47.19,43.45-47.19l8.06-10.25s-16,4.74-20.91,9.84-19.46,15.68-20.21,14.73S118.51,118,118.51,118Z"/><path class="cls-12" d="M117.65,117.63s-3.37-.38-4.94,2.27-4.78,8.69-4.78,8.69l-12.09-8.31-9.63-16.89s.72-.47,4.55,1.84c5,3,2.62,9,7.72,13.72s8.69,5.48,8.69,5.48S112.08,116.5,117.65,117.63Z"/><path class="cls-13" d="M120,148.64s-2.66-14.74-1.68-14.76c2.87-.07,4.91.62,4.53-4.16s-1.73-11.06-4.34-11.71c-3.24-.8-5.8.9-8.88,4.53-3.34,3.95-3.59,6.27-2.27,7.86s2.83,1.78,2.83,2.91-2.32,4.72-3.14,8.31-1.77,5.67-.45,8.13,6.11,10.2,6.11,10.2L117,159Z"/><path class="cls-6" d="M112.08,189.61s9.26,2.83,24.56,3.21a295,295,0,0,0,33.4-1.61s8.35-3,10.05-2.19,2.27,2.86-.85,4.56,2.93,3.77,6.33-2.08,4-13.23,3.4-15.68-70.84,4.72-77.83,7.74S112.08,189.61,112.08,189.61Z"/><path class="cls-14" d="M217,121.8c-2.05-.77-4.26-1.23-6.37-1.82l-13.49-3.75c-4.5-1.25-4.45-.72-6.46-2.21-.86-.64-2.71-.42-3.66-1.4-8-8.21-12.09-12.56-22.1-10.91-1.65-.29-6.67,2.32-9.85,4.27-14.28,8.81-30.68,32.43-39.56,51.61-.79,1.7-11.46-10.2-16.15-25.79-1.4-4.65-4.35-18.58-7.48-22.29-3.35-4-6.3-7.53-7.82-7.86-4.78-1-9.69-1.44-19.53,11.72-5.65,7.56-16.28,16.86-18.67,24.46-1.44,4.59,12.19,18.79,11.72,23.59-.54,5.59,4.34,5.4,6.87,10.45a27.27,27.27,0,0,0,10.15,11c1.82,1.12,4.87.34,5.67-1.76.94,4,.65,7.51,2.8,11.94,1.08,2.23.69,5,3,4.22l27.37-9.88c1.79-.65,4.2-1.79,5.79-1.82,2.07,0,4.21.77,6.27,1.18A112.43,112.43,0,0,0,140,188.6c4.71.33,9.44.43,14.16.46a124.8,124.8,0,0,0,13.4-.25,28.39,28.39,0,0,0,13-4.22,46.7,46.7,0,0,0,5.37-4.26c1.67-1.5,3.68-3.06,4.36-5.3a5.78,5.78,0,0,0-.23-3.86,6,6,0,0,0,0-.61c-.15-7.31-7.21-11.09-4.45-9.43,10.34,6.23,21,1,26.64-20.83C213.34,136.11,220.15,123,217,121.8Z"/><path class="cls-7" d="M198.13,114.67s-6.34-3.13-3.8-6.7c0,0,.46-.76-2.85-3.57s-8.14-8.82-7.33-15.77,3-8.49,6.61-7.26a4.67,4.67,0,0,1,3.15,5.28c-.58,2.16-1,4.7-.08,5.66s4.11-.66,5.37-2.09a7.87,7.87,0,0,0,1.73-8.55s-1.1-1.35-2.16-.61a5.41,5.41,0,0,1-7.26-1.37c-3.13-3.85,1.9-7.33,4.38-8.89S204,67.27,207,70.15s2.83,4.34,2.83,4.34a36.8,36.8,0,0,1,3.63-4.32c1.12-1.09,3.45-3.72,9.6-2.15,3.05.78,4.19,3.49,3.74,4.51-.28.64,1.56.26,2.46.56,2.29.78,4.3,3.07,1.73,6.2a44.07,44.07,0,0,0-7.22,12.11c-.85,2.38-1,10.2-6,14.08s-3.17,4.56-3.17,4.56.76,3.51-3.28,5.17S202.53,115.89,198.13,114.67Z"/><path class="cls-6" d="M187.3,98.63s3.36,4.05,6.53,5.46,4.8,2.69,4.48,1.68-1.82-3.39,1-1.45,5.29,3.26,8.89,2.28,8.18-3.4,10.38-7.06,1.91-5.91,1.68-7.08.17.08,1.72-2.2,8.71-11.83,8.67-13.53,2.33-1.4,1.16,1c-.92,1.93-3.92,5.24-6.13,9.56a36.25,36.25,0,0,0-2.42,6.3,28.76,28.76,0,0,1-2.31,7.89c-1.65,3.16-7,6.33-6.33,8.52s-1.91,5.8-7.31,6.09-11.34-1.75-6.75-1.08,7.58-.7,9.1-1.9,0-1.72-1.83-1.85-3.13-.9-.43-1.21-4.92-.42-8.29-1.06-7.56-4.16-10.18-6.87S184.86,95.84,187.3,98.63Z"/><path class="cls-6" d="M226.94,72.68s.05-4.7-5.52-.29c-3.45,2.72-5.15,6.16-6.6,10.07-1.63,4.36-.78,5.79-2.15,5.05s-4.12-2-5.6-1.94-4,.89-.9,1.13a27,27,0,0,1,8.62,2.5c1.8.91,3.58.78,1.84-.56-1-.79-1.4-2.6.56-7.12s4.06-6.68,4.58-7.08C224.52,72.34,225.31,73.05,226.94,72.68Z"/><path class="cls-6" d="M206.55,79.42s2.79-4.35.83-7.33-2.16-3.31-.38-1.94,4,3,1.89,6.08C207.5,78.22,203.93,86.65,206.55,79.42Z"/><path class="cls-6" d="M201.37,78.35c-.57,1.21-2.77,2.45-7,1.79-2.89-.45-1.66,1-.84,1.24a6.68,6.68,0,0,0,2.93.48,7.75,7.75,0,0,0,2.79-1c-.28.12.35-.09,1,.24s.94,1.33.94,1.33a3.17,3.17,0,0,1-.06-2.22C202.69,76.69,202.18,76.62,201.37,78.35Z"/><path class="cls-6" d="M192.35,89.4c-2.83,3.58,2,4.47,3.5,5.21s2.08.38.38-1.22-3.06-2.26-2.45-5.19c.28-1.34.7-4.32-1-5.44-.25-.16.56,1.08.48,2.63S193.24,88.27,192.35,89.4Z"/><path class="cls-15" d="M214.1,123.3s1,4.25-5.48,11.9-9,14.74-6.29,12.75,2.42,3.17-2.12,6.55-8.22,5.4-15,1.41A77.33,77.33,0,0,1,173,147.1c-2.84-2.26-5.1-2,0,3.4s4.81,8.83.84,6.83-10.48-.88-3.11,3.09,14.45,9.07,11.34,9.07-9.07.85-4.25,3.4,6.92,4.25-3.63,8.22-12.24,5.95-23.86,5.66-13.58,2.12,1.79,2.08,17.53,1.37,26.93-3.37,11.61-9.1,11.61-9.1,1.89-1.89-.19-4.34-3.4-3.4-2.83-4.53,7.77,3.42,5.45,1.86S188,162,191.81,163s9.1-1.08,12.2-4.79,9.21-19.17,11.44-26.25S219.84,122,217,121.8,214.1,121.83,214.1,123.3Z"/><path class="cls-15" d="M183.87,108.66c-2.27-1.89-4.91-3.31-4.91-4.25s.26-7.09-3.21-6c-5.5,1.77-10.86,3.28-10.86,3.28s3.67-1.59,5.85,2.51c1.51,2.83-5.17,7.22-5.17,7.22.05-.78-3,2.89.17,2.41,3.54-.53,10.95-8.22,16-2,3.54,4.29-1.63,15.29-2.06,16.48-1,2.81-5.72,9.14-7.57,12.57-2.46,4.54,6.81-6.65,8.33-8.5-.34,1-.6,1.69-.76,2.1-1,2.71-7.29,15.18-2.47,9.23s5.77-1.84,6.14,2.2,5.48,16.22,3.49,4.6-2-20.12-.56-16.43,2,2.43,2-8.5c0-5.42,3.75-11,2.34-11.55C186.09,112.11,185.43,110,183.87,108.66Z"/><path class="cls-15" d="M165.74,113.85l-.17-2.41A8.48,8.48,0,0,0,165.74,113.85Z"/><path class="cls-15" d="M163.47,115.74l-15.87,8.13,2.13,7.36s-30.66,26.64-30.66,28.91-2.83,7.55.38,6.23,4.53-2.27,6.8-.57,4.47,4.73,1.86,7.56-4,2.46,0,3.59,3.6,1.89-1.21,1.7-15.57-.41-3.48,1.68,1.89,2.67,1.89,2.67-.09,1.7,10.87,2.83,5.18,1.7-1.62,1.51-14.92-2.83-14.92-2.83a12.56,12.56,0,0,1-6.42-12.09c.56-8.69.75-10.77,3.77-13.42s30.61-30.41,30.61-30.41l-1.32-5.86,16.24-9.44S170.65,106.67,163.47,115.74Z"/><path class="cls-15" d="M136.45,159.38s2.46.57,11.34,0a60,60,0,0,0,15.11-2.83s.76,7.18.76,9.44-3,2.84-3.21-1.32-4,1-4-1.51-7.75-1.32-11.71-.38-13.23.62-6.43-.63S129.65,159.57,136.45,159.38Z"/><path class="cls-15" d="M74,137.14A107,107,0,0,0,71,154c-1.16,24.88-6.2,13.8-4.69,18.9s8.93,6.4,13.47,6.21c.33,0,4.79,12.83,6.07,14,.36.33-2.75-11.32-2.35-10.93,3.45,3.35,8.07,8.24,8.73,8.18,2.72-.23-9.77-10.66-1.5-12.79,3.77-1,10-4.72,2.84-2.83s-11.35,5.1-12.67.94-1.88-7.36-2.45-14.54-2.64-17.57.57-10.11,7.18,14.26,4.16,5.19-8.13-15.47-3-14.35c5.36,1.17,5.63.7,1.56-1C75.66,138.41,76.28,128.64,74,137.14Z"/><path class="cls-15" d="M86.77,110.26s-.38,11.53-.76,13.61-.38,3.58,2.08,3,3.08,2.45,1.83,7.37,3.47,13,7.34,16.62,15.45,7.75,15.45,7.75-16.87-9.07-20.09-18.52.95-14.54-.18-14.92-6,.56-4.73-4.73.92-12.9.23-14.47c-3.71-8.48-11.28-4.92-14.87-2.27s-9.33,11.82-15.41,17.79c-8.73,8.58-14.81,18.31-13.67,26.81S66.74,177,70.52,179.41s8,6.3,8.69,1.7-3.21.37-8.5-9.45S43.1,148.22,51.37,137.25c11.61-15.41,11.9-20.48,24.85-31.4C79.39,103.17,86.89,107.06,86.77,110.26Z"/><path class="cls-16" d="M114.91,135.13s1.33,6.62,1.42,8.78a55.17,55.17,0,0,1-.85,13.68l3.32-7S115.9,129.39,114.91,135.13Z"/><path class="cls-1" d="M190.65,114l.32-3.62s8.91,1.91,13.68,2.8a110.62,110.62,0,0,0,13.7,1l-2.27,7.37s-16.93-4.77-21-5.6A11,11,0,0,1,190.65,114Z"/><path class="cls-12" d="M215,111.44s3.86,1.18,3.37,2.79l-2.27,7.37-16.58-4.68s-2.19-1.41,3.33,0,10.35.54,11.06-.4-1.56-1.94.21-2.15Z"/><path class="cls-16" d="M118.32,121.74s2.45,6.85,1.41,8.08-2.45,2.36-.47,1.6,1.7-4.63,1-6.89S118,118.76,118.32,121.74Z"/></g></g></g></svg>