<svg xmlns="http://www.w3.org/2000/svg" xmlns:xlink="http://www.w3.org/1999/xlink" viewBox="0 0 162 113.1" preserveAspectRatio="none"><defs><style>.cls-1{isolation:isolate;}.cls-2{fill:url(#Безымянный_градиент_6);}.cls-3{fill:url(#Безымянный_градиент_3);}.cls-4{opacity:0.23;mix-blend-mode:multiply;}</style><linearGradient id="Безымянный_градиент_6" x1="81" y1="113.1" x2="81" gradientUnits="userSpaceOnUse"><stop offset="0" stop-color="#798490"/><stop offset="1" stop-color="#505260"/></linearGradient><radialGradient id="Безымянный_градиент_3" cx="-86.66" cy="33.86" r="66.05" gradientTransform="translate(154.4 40.6) scale(0.85 1.68)" gradientUnits="userSpaceOnUse"><stop offset="0" stop-color="#879ca1"/><stop offset="1" stop-color="#798390"/></radialGradient></defs><g class="cls-1"><g id="Слой_2" data-name="Слой 2"><g id="Слой_1-2" data-name="Слой 1"><path class="cls-2" d="M4.75,14.77C-.79,27.35-1.69,84.8,3.16,101c4.51,15,144,16.87,152.67,1.25s7.81-76.32-.29-90.74S13.82-5.79,4.75,14.77Z"/><path class="cls-3" d="M9.1,22c-5.09,11.18-4,59.76.47,74.1,4.14,13.35,132.12,15,140.11,1.11s9.27-68.28,1.84-81.09S17.42,3.68,9.1,22Z"/><path class="cls-4" d="M96.88,50.13H93.39V43.52c0-4.88-5.7-8.86-12.67-8.86s-12.66,4-12.66,8.86v6.61H64.57c-2.58,0-4.68,1.48-4.68,3.27V75.57c0,1.8,2.1,3.27,4.68,3.27H96.88c2.57,0,4.68-1.47,4.68-3.27V53.4C101.56,51.61,99.45,50.13,96.88,50.13ZM85.53,69.81c.29.67-.43,1.35-1.43,1.35H77.34c-1,0-1.71-.68-1.42-1.35l2-4.59c-1.7-.69-2.85-2-2.85-3.43,0-2.19,2.54-4,5.67-4s5.68,1.78,5.68,4c0,1.47-1.16,2.74-2.86,3.43Zm3.18-19.68h-16V43.52c0-3.08,3.58-5.59,8-5.59s8,2.51,8,5.59Z"/></g></g></g></svg>
