<svg xmlns="http://www.w3.org/2000/svg" xmlns:xlink="http://www.w3.org/1999/xlink" viewBox="0 0 70.67 61.68" preserveAspectRatio="none"><defs><style>.cls-1{isolation:isolate;}.cls-2{fill:url(#Безымянный_градиент_144);}.cls-3{fill:url(#Безымянный_градиент_129);}.cls-4{fill:url(#Безымянный_градиент_396);}.cls-10,.cls-11,.cls-12,.cls-13,.cls-14,.cls-15,.cls-17,.cls-5,.cls-6,.cls-8,.cls-9{mix-blend-mode:screen;}.cls-5{fill:url(#Безымянный_градиент_155);}.cls-6{fill:url(#Безымянный_градиент_168);}.cls-7{fill:#ffffab;}.cls-8{fill:url(#Безымянный_градиент_168-2);}.cls-9{fill:url(#Безымянный_градиент_168-3);}.cls-10{fill:url(#Безымянный_градиент_168-4);}.cls-11{fill:url(#Безымянный_градиент_168-5);}.cls-12{fill:url(#Безымянный_градиент_168-6);}.cls-13{fill:url(#Безымянный_градиент_168-7);}.cls-14{fill:url(#Безымянный_градиент_168-8);}.cls-15{fill:url(#Безымянный_градиент_168-9);}.cls-16{fill:#fff;}.cls-17{fill:url(#Безымянный_градиент_172);}.cls-18{fill:#2e3192;}</style><radialGradient id="Безымянный_градиент_144" cx="757.28" cy="57.32" r="51.22" gradientTransform="translate(-367.37) scale(0.53 1)" gradientUnits="userSpaceOnUse"><stop offset="0" stop-color="#d0cdea"/><stop offset="1" stop-color="#7d75da"/></radialGradient><linearGradient id="Безымянный_градиент_129" x1="35.34" y1="58.57" x2="35.34" y2="0.54" gradientUnits="userSpaceOnUse"><stop offset="0" stop-color="#cadcff"/><stop offset="1" stop-color="#fff"/></linearGradient><linearGradient id="Безымянный_градиент_396" x1="35.34" y1="57.54" x2="35.34" y2="1.12" gradientUnits="userSpaceOnUse"><stop offset="0" stop-color="#fafafd"/><stop offset="1" stop-color="#c3bfee"/></linearGradient><linearGradient id="Безымянный_градиент_155" x1="-1918.91" y1="49.51" x2="-1857.83" y2="49.51" gradientTransform="matrix(-1, 0, 0, 1, -1852.6, 0)" gradientUnits="userSpaceOnUse"><stop offset="0" stop-color="#ff6140"/><stop offset="0.1" stop-color="#ef5b3c"/><stop offset="0.29" stop-color="#c54b31"/><stop offset="0.55" stop-color="#813120"/><stop offset="0.88" stop-color="#240e09"/><stop offset="1"/></linearGradient><radialGradient id="Безымянный_градиент_168" cx="-1641.73" cy="-624.98" r="1.71" gradientTransform="matrix(-0.06, -1, 1, -0.06, 546.78, -1659.07)" gradientUnits="userSpaceOnUse"><stop offset="0" stop-color="#00b359"/><stop offset="0.13" stop-color="#009148"/><stop offset="0.34" stop-color="#005e2f"/><stop offset="0.54" stop-color="#00351a"/><stop offset="0.73" stop-color="#00180c"/><stop offset="0.89" stop-color="#000603"/><stop offset="1"/></radialGradient><radialGradient id="Безымянный_градиент_168-2" cx="-1634.52" cy="-622.22" r="1.71" xlink:href="#Безымянный_градиент_168"/><radialGradient id="Безымянный_градиент_168-3" cx="-1655.52" cy="-624.85" r="1.71" xlink:href="#Безымянный_градиент_168"/><radialGradient id="Безымянный_градиент_168-4" cx="-1633.28" cy="-631.42" r="4.8" xlink:href="#Безымянный_градиент_168"/><radialGradient id="Безымянный_градиент_168-5" cx="-1668.15" cy="-619.94" r="2.29" xlink:href="#Безымянный_градиент_168"/><radialGradient id="Безымянный_градиент_168-6" cx="-1676.57" cy="-640.54" r="1.15" xlink:href="#Безымянный_градиент_168"/><radialGradient id="Безымянный_градиент_168-7" cx="-1654.12" cy="-607.3" r="1.15" xlink:href="#Безымянный_градиент_168"/><radialGradient id="Безымянный_градиент_168-8" cx="-1670.83" cy="-624.24" r="0.85" xlink:href="#Безымянный_градиент_168"/><radialGradient id="Безымянный_градиент_168-9" cx="-1671.86" cy="-610.95" r="1.79" xlink:href="#Безымянный_градиент_168"/><linearGradient id="Безымянный_градиент_172" x1="3.88" y1="12.55" x2="68.37" y2="12.55" gradientUnits="userSpaceOnUse"><stop offset="0" stop-color="#ff9840"/><stop offset="0.1" stop-color="#ef8e3c"/><stop offset="0.29" stop-color="#c57531"/><stop offset="0.55" stop-color="#814d20"/><stop offset="0.88" stop-color="#241609"/><stop offset="1"/></linearGradient></defs><g class="cls-1"><g id="Слой_2" data-name="Слой 2"><g id="Слой_1-2" data-name="Слой 1"><path class="cls-2" d="M1.28,52.75c2.44,9.54,62.05,12.82,67.09,2.91,4.57-9,1.55-44-2.36-50.49C60.67-3.59,8.46,0,4.14,6.9.11,13.34-1.25,42.86,1.28,52.75Z"/><path class="cls-3" d="M1.47,51.06c2.44,9.2,61.7,10.46,66.71.9,4.56-8.69,1.61-40.2-2.29-46.4C60.58-2.89,8.56.48,4.25,7.14.24,13.34-1,41.53,1.47,51.06Z"/><path class="cls-4" d="M2.21,50.25c2.38,8.92,60.37,10.17,65.27.89C71.94,42.71,69,12.05,65.21,6,60-2.18,9.13,1,4.92,7.48,1,13.5-.26,41,2.21,50.25Z"/><path class="cls-5" d="M66.31,51.31S39,59.57,5.23,51.75c0,0,21.59-1.16,31.36-4.73C53.17,41,62,44.5,66.31,51.31Z"/><path class="cls-6" d="M20.66,15.24a1.71,1.71,0,1,1-1.61,1.81A1.71,1.71,0,0,1,20.66,15.24Z"/><path class="cls-7" d="M20.87,16.47a.46.46,0,0,1,.5.44.47.47,0,0,1-.44.51.49.49,0,0,1-.51-.45A.48.48,0,0,1,20.87,16.47Z"/><path class="cls-8" d="M23,7.88a1.71,1.71,0,1,1-1.61,1.81A1.71,1.71,0,0,1,23,7.88Z"/><path class="cls-7" d="M23.2,9.11a.46.46,0,0,1,.5.44.48.48,0,0,1-.44.51.49.49,0,0,1-.51-.45A.48.48,0,0,1,23.2,9.11Z"/><path class="cls-9" d="M21.62,29A1.71,1.71,0,1,1,20,30.81,1.71,1.71,0,0,1,21.62,29Z"/><path class="cls-7" d="M21.83,30.23a.47.47,0,0,1,.5.44.48.48,0,0,1-.45.5.47.47,0,1,1-.05-.94Z"/><path class="cls-10" d="M13.55,4.11A4.8,4.8,0,1,1,9,9.19,4.79,4.79,0,0,1,13.55,4.11Z"/><path class="cls-7" d="M14.13,7.55a1.33,1.33,0,0,1,1.4,1.25A1.33,1.33,0,0,1,12.88,9,1.34,1.34,0,0,1,14.13,7.55Z"/><path class="cls-11" d="M27.24,40.74a2.29,2.29,0,1,1-2.16,2.42A2.29,2.29,0,0,1,27.24,40.74Z"/><path class="cls-7" d="M27.51,42.38a.64.64,0,0,1,.67.6.63.63,0,0,1-.59.67.64.64,0,0,1-.67-.6A.63.63,0,0,1,27.51,42.38Z"/><path class="cls-12" d="M7.25,51.51a1.15,1.15,0,1,1-1.08,1.21A1.15,1.15,0,0,1,7.25,51.51Z"/><path class="cls-7" d="M7.39,52.33a.32.32,0,0,1,.33.3.32.32,0,0,1-.29.34.32.32,0,0,1-.34-.3A.32.32,0,0,1,7.39,52.33Z"/><path class="cls-13" d="M39.08,27.12a1.14,1.14,0,0,1,1.22,1.07,1.15,1.15,0,1,1-2.29.14A1.14,1.14,0,0,1,39.08,27.12Z"/><path class="cls-7" d="M39.22,27.94a.32.32,0,1,1,0,.63.33.33,0,0,1-.34-.29A.32.32,0,0,1,39.22,27.94Z"/><path class="cls-14" d="M23.19,45.1a.85.85,0,0,1,.9.8.85.85,0,1,1-1.7.1A.85.85,0,0,1,23.19,45.1Z"/><path class="cls-7" d="M23.29,45.71a.24.24,0,0,1,.25.23.24.24,0,0,1-.22.25.25.25,0,0,1-.25-.23A.24.24,0,0,1,23.29,45.71Z"/><path class="cls-15" d="M36.46,44.4a1.79,1.79,0,1,1-1.68,1.89A1.79,1.79,0,0,1,36.46,44.4Z"/><path class="cls-7" d="M36.68,45.68a.5.5,0,0,1,.52.47.49.49,0,0,1-.46.52.49.49,0,0,1-.53-.46A.5.5,0,0,1,36.68,45.68Z"/><path class="cls-16" d="M64.74,53c-.3-1,2.4-5.67,3.08-5.66s.08,3.07-.34,3.78S64.89,53.53,64.74,53Z"/><path class="cls-16" d="M4.77,12.75S2.87,7.87,6.53,6.14s15.69-3.39,16.28-3-5.08,2.5-8,3.57S6.26,13.58,4.77,12.75Z"/><path class="cls-17" d="M4.77,7.52S44.54-5.17,65.35,6.17c0,0,2.18,1.74,3,8.52,0,0-1.67-6-14.12-5.11C43.53,10.31,26.92,28.3,9.55,22.5.82,19.59,4.77,7.52,4.77,7.52Z"/><path class="cls-18" d="M52.1,14.3,14.62,28.91a1.36,1.36,0,0,0,.11,2.58l9.53,2.81,3.55,11.28a1.63,1.63,0,0,0,2.73.65l4.92-5,9.67,7.09a2,2,0,0,0,3.16-1.21l6.4-30.6A1.93,1.93,0,0,0,52.1,14.3Zm-4.69,6.79L30,36.49a.92.92,0,0,0-.32.59L29,43a.18.18,0,0,1-.35,0L25.9,34.19a1,1,0,0,1,.41-1.08L46.86,20.36a.46.46,0,0,1,.55.73Z"/></g></g></g></svg>
